<svg width="8" height="6" viewBox="0 0 8 6" fill="none" xmlns="http://www.w3.org/2000/svg">
<path fill-rule="evenodd" clip-rule="evenodd" d="M4.42386 4.42383C4.31136 4.5363 4.15879 4.59949 3.99971 4.59949C3.84062 4.59949 3.68806 4.5363 3.57555 4.42383L1.17579 2.02407C1.06651 1.91092 1.00604 1.75938 1.0074 1.60207C1.00877 1.44477 1.07186 1.2943 1.1831 1.18307C1.29433 1.07183 1.4448 1.00874 1.60211 1.00737C1.75941 1.006 1.91095 1.06647 2.02411 1.17576L3.99971 3.15136L5.97531 1.17576C6.08846 1.06647 6.24001 1.006 6.39731 1.00737C6.55461 1.00874 6.70508 1.07183 6.81632 1.18307C6.92755 1.2943 6.99065 1.44477 6.99201 1.60207C6.99338 1.75938 6.93291 1.91092 6.82362 2.02407L4.42386 4.42383Z" fill="#445473" stroke="#445473" stroke-linejoin="round"/>
</svg>
