<svg width="6" height="4" viewBox="0 0 6 4" fill="none" xmlns="http://www.w3.org/2000/svg">
<g clip-path="url(#clip0_10_14136)">
<path fill-rule="evenodd" clip-rule="evenodd" d="M3.42386 3.42383C3.31136 3.5363 3.15879 3.59949 2.99971 3.59949C2.84062 3.59949 2.68806 3.5363 2.57555 3.42383L0.17579 1.02407C0.0665064 0.910923 0.0060358 0.759377 0.00740242 0.602074C0.00876951 0.444772 0.0718646 0.2943 0.183098 0.183066C0.294332 0.0718324 0.444805 0.00873709 0.602107 0.00737023C0.759409 0.00600314 0.910955 0.0664742 1.02411 0.175758L2.99971 2.15136L4.97531 0.175758C5.08846 0.0664742 5.24001 0.00600314 5.39731 0.00737023C5.55461 0.00873709 5.70508 0.0718324 5.81632 0.183066C5.92755 0.2943 5.99065 0.444772 5.99201 0.602074C5.99338 0.759377 5.93291 0.910923 5.82362 1.02407L3.42386 3.42383Z" fill="#445473"/>
</g>
<defs>
<clipPath id="clip0_10_14136">
<rect width="6" height="3.59964" fill="white"/>
</clipPath>
</defs>
</svg>
