<svg width="42" height="43" viewBox="0 0 42 43" fill="none" xmlns="http://www.w3.org/2000/svg">
<g clip-path="url(#clip0_10_13157)">
<path d="M41.4893 32.3266C40.7686 37.6243 37.6282 40.9175 32.1968 41.6239C29.2234 42.0105 25.4577 42.125 21 42.125C16.5423 42.125 12.7909 41.9436 9.80795 41.6239C4.65818 41.0702 1.06909 37.8486 0.515455 32.3314C0.200455 29.1766 0 25.2916 0 20.9627C0 16.6339 0.138409 12.9684 0.510682 9.90432C1.14545 4.66864 4.36227 1.14636 9.83182 0.607045C12.8434 0.311136 16.6043 0.125 21 0.125C25.3957 0.125 29.1614 0.263409 32.1682 0.607045C37.5518 1.22273 40.7686 4.74023 41.4893 9.90909C41.9141 12.9445 41.9952 16.7102 41.9952 20.9627C41.9952 25.2152 41.9045 29.2052 41.4845 32.3266" fill="#CED9EE"/>
<path d="M34.9984 31.625H7.00159C6.0375 31.625 5.25 30.8375 5.25 29.8734V12.3766C5.25 11.4125 6.0375 10.625 7.00159 10.625H35.0032C35.9673 10.625 36.7548 11.4125 36.7548 12.3766V29.8782C36.7548 30.8423 35.9673 31.6298 35.0032 31.6298" fill="white"/>
<path d="M19.2484 28.1266H10.5C9.53591 28.1266 8.74841 27.3391 8.74841 26.375V15.875C8.74841 14.9109 9.53591 14.1234 10.5 14.1234H19.2484C20.2125 14.1234 21 14.9109 21 15.875V26.375C21 27.3391 20.2125 28.1266 19.2484 28.1266Z" fill="#667799"/>
<path d="M31.5 19.3734H24.4984C23.5343 19.3734 22.7468 20.1609 22.7468 21.125C22.7468 22.0891 23.5343 22.8766 24.4984 22.8766H31.5C32.4641 22.8766 33.2516 22.0891 33.2516 21.125C33.2516 20.1609 32.4641 19.3734 31.5 19.3734Z" fill="#ACBBD7"/>
<path d="M31.5 24.6234H24.4984C23.5343 24.6234 22.7468 25.4109 22.7468 26.375C22.7468 27.3391 23.5343 28.1266 24.4984 28.1266H31.5C32.4641 28.1266 33.2516 27.3391 33.2516 26.375C33.2516 25.4109 32.4641 24.6234 31.5 24.6234Z" fill="#ACBBD7"/>
<path d="M31.5 14.1234H24.4984C23.5343 14.1234 22.7468 14.9109 22.7468 15.875C22.7468 16.8391 23.5343 17.6266 24.4984 17.6266H31.5C32.4641 17.6266 33.2516 16.8391 33.2516 15.875C33.2516 14.9109 32.4641 14.1234 31.5 14.1234Z" fill="#FF7B3D"/>
<path d="M17.9168 19.6645C17.9168 21.2777 16.5566 22.5807 14.8766 22.5807C13.1966 22.5807 11.8316 21.273 11.8316 19.6645C11.8316 18.0561 13.1918 16.7484 14.8766 16.7484C16.5614 16.7484 17.9168 18.0561 17.9168 19.6645Z" fill="white"/>
<path d="M18.2223 25.5016H11.5309C10.8389 25.5016 10.3139 24.8382 10.5668 24.2225C11.1873 22.7048 12.8816 21.6118 14.8766 21.6118C16.8716 21.6118 18.5659 22.7 19.1864 24.2225C19.4393 24.8382 18.9143 25.5016 18.2223 25.5016Z" fill="white"/>
</g>
<defs>
<clipPath id="clip0_10_13157">
<rect width="42" height="42" fill="white" transform="translate(0 0.125)"/>
</clipPath>
</defs>
</svg>
