<svg width="42" height="43" viewBox="0 0 42 43" fill="none" xmlns="http://www.w3.org/2000/svg">
<g clip-path="url(#clip0_10_13163)">
<path d="M41.4893 32.3266C40.7686 37.6243 37.6282 40.9175 32.1968 41.6239C29.2234 42.0105 25.4577 42.125 21 42.125C16.5423 42.125 12.7909 41.9436 9.80795 41.6239C4.65818 41.0702 1.06909 37.8486 0.515455 32.3314C0.200455 29.1766 0 25.2916 0 20.9627C0 16.6339 0.138409 12.9684 0.510682 9.90432C1.14545 4.66864 4.36227 1.14636 9.83182 0.607045C12.8434 0.311136 16.6043 0.125 21 0.125C25.3957 0.125 29.1614 0.263409 32.1682 0.607045C37.5518 1.22273 40.7686 4.74023 41.4893 9.90909C41.9141 12.9445 41.9952 16.7102 41.9952 20.9627C41.9952 25.2152 41.9045 29.2052 41.4845 32.3266" fill="#CED9EE"/>
<path d="M30.5598 33.5389L6.40977 29.4057C4.50545 29.0811 3.22636 27.2723 3.55091 25.3632L5.91341 11.5652C6.23795 9.66091 8.04681 8.38182 9.95591 8.70636L34.1059 12.8395C36.0102 13.1641 37.2893 14.973 36.9648 16.882L34.6023 30.68C34.2777 32.5843 32.4689 33.8682 30.5598 33.5389Z" fill="#667799"/>
<path d="M32.4546 27.6493L33.9293 19.0441C32.025 18.7195 30.7459 16.9107 31.0705 15.0016C31.0705 14.9968 31.0705 14.992 31.0752 14.9825L12.0798 11.7323C12.0798 11.7323 12.0798 11.7418 12.0798 11.7514C11.7552 13.6509 9.95592 14.9252 8.05638 14.6102L6.5816 23.2202C8.48592 23.5448 9.76501 25.3536 9.44047 27.2627L28.4168 30.513C28.7414 28.6086 30.5502 27.3248 32.4593 27.6541" fill="#BECBE4"/>
<path d="M23.7061 21.712C23.3816 23.6164 21.5727 24.8955 19.6636 24.5709C17.7593 24.2464 16.4802 22.4375 16.8048 20.5284C17.1293 18.6241 18.9382 17.345 20.8473 17.6695C22.7516 17.9941 24.0307 19.803 23.7061 21.712Z" fill="#96A6C5"/>
<path d="M28.8798 22.5998C28.7175 23.5543 27.8107 24.1939 26.8609 24.0268C25.9064 23.8646 25.2668 22.9577 25.4339 22.008C25.5961 21.0534 26.503 20.4139 27.4527 20.5761C28.4073 20.7384 29.0468 21.6452 28.8798 22.595" fill="#96A6C5"/>
<path d="M15.0818 20.2373C14.9196 21.1918 14.0127 21.8314 13.063 21.6643C12.1084 21.502 11.4689 20.5952 11.6311 19.6455C11.7934 18.6909 12.7002 18.0514 13.65 18.2136C14.6046 18.3759 15.2441 19.2827 15.0771 20.2325" fill="#96A6C5"/>
<path d="M34.9984 31.625H10.5C8.56704 31.625 7.00159 30.0595 7.00159 28.1266V14.1282C7.00159 12.1952 8.56704 10.6298 10.5 10.6298H34.9984C36.9314 10.6298 38.4968 12.1952 38.4968 14.1282V28.1266C38.4968 30.0595 36.9314 31.625 34.9984 31.625Z" fill="#ACBBD7"/>
<path d="M35.8766 25.5016V16.7675C33.9436 16.7675 32.3782 15.202 32.3782 13.2691C32.3782 13.2643 32.3782 13.2595 32.3782 13.25H13.1059C13.1059 13.25 13.1059 13.2595 13.1059 13.2691C13.1059 15.1973 11.55 16.758 9.62183 16.7675V25.5016C11.5548 25.5016 13.1202 27.067 13.1202 29H32.3686C32.3686 27.067 33.9341 25.5016 35.8671 25.5016" fill="white"/>
<path d="M26.25 21.125C26.25 23.058 24.6845 24.6234 22.7516 24.6234C20.8186 24.6234 19.2532 23.058 19.2532 21.125C19.2532 19.192 20.8186 17.6266 22.7516 17.6266C24.6845 17.6266 26.25 19.192 26.25 21.125Z" fill="#FF7B3D"/>
<path d="M31.5 21.125C31.5 22.0939 30.7173 22.8766 29.7484 22.8766C28.7796 22.8766 27.9968 22.0939 27.9968 21.125C27.9968 20.1561 28.7796 19.3734 29.7484 19.3734C30.7173 19.3734 31.5 20.1561 31.5 21.125Z" fill="#667799"/>
<path d="M17.5016 21.125C17.5016 22.0939 16.7189 22.8766 15.75 22.8766C14.7811 22.8766 13.9984 22.0939 13.9984 21.125C13.9984 20.1561 14.7811 19.3734 15.75 19.3734C16.7189 19.3734 17.5016 20.1561 17.5016 21.125Z" fill="#667799"/>
</g>
<defs>
<clipPath id="clip0_10_13163">
<rect width="42" height="42" fill="white" transform="translate(0 0.125)"/>
</clipPath>
</defs>
</svg>
