<svg width="16" height="16" viewBox="0 0 16 16" fill="none" xmlns="http://www.w3.org/2000/svg">
<g clip-path="url(#clip0_10_14170)">
<path d="M8 14C8.07611 14 8.58069 13.8712 9.1432 12.6337C9.39018 12.0903 9.59959 11.424 9.74956 10.6666H6.25045C6.40041 11.424 6.60983 12.0903 6.8568 12.6337C7.41932 13.8712 7.9239 14 8 14ZM6.06002 9.33329H9.93999C9.97907 8.90611 10 8.46031 10 7.99996C10 7.53961 9.97907 7.09381 9.93999 6.66663H6.06002C6.02094 7.09381 6 7.53961 6 7.99996C6 8.46031 6.02094 8.90611 6.06002 9.33329ZM11.1061 10.6666C10.9024 11.8141 10.5711 12.821 10.1506 13.603C11.5582 13.0624 12.7104 12.0067 13.3763 10.6666H11.1061ZM13.8513 9.33329C13.9486 8.90448 14 8.45822 14 7.99996C14 7.5417 13.9486 7.09544 13.8513 6.66663H11.2784C11.3145 7.09899 11.3333 7.54463 11.3333 7.99996C11.3333 8.45529 11.3145 8.90092 11.2784 9.33329H13.8513ZM4.72163 9.33329C4.68553 8.90092 4.66667 8.45529 4.66667 7.99996C4.66667 7.54463 4.68553 7.09899 4.72163 6.66663H2.14868C2.05138 7.09544 2.00001 7.5417 2.00001 7.99996C2.00001 8.45822 2.05138 8.90448 2.14868 9.33329H4.72163ZM2.62368 10.6666C3.28962 12.0067 4.44181 13.0624 5.84938 13.603C5.42888 12.821 5.0976 11.8141 4.89391 10.6666H2.62368ZM6.25045 5.33329H9.74956C9.59959 4.57592 9.39018 3.9096 9.1432 3.36625C8.58069 2.1287 8.07611 1.99996 8 1.99996C7.9239 1.99996 7.41932 2.1287 6.8568 3.36625C6.60983 3.9096 6.40041 4.57592 6.25045 5.33329ZM11.1061 5.33329H13.3763C12.7104 3.99326 11.5582 2.93751 10.1506 2.3969C10.5711 3.17887 10.9024 4.18581 11.1061 5.33329ZM5.84938 2.3969C4.44181 2.93751 3.28962 3.99326 2.62368 5.33329H4.89391C5.0976 4.18581 5.42888 3.17887 5.84938 2.3969ZM8 0.666626C12.0501 0.666626 15.3333 3.94987 15.3333 7.99996C15.3333 12.05 12.0501 15.3333 8 15.3333C3.94992 15.3333 0.666672 12.05 0.666672 7.99996C0.666672 3.94987 3.94992 0.666626 8 0.666626Z" fill="#445473"/>
</g>
<defs>
<clipPath id="clip0_10_14170">
<rect width="16" height="16" fill="white"/>
</clipPath>
</defs>
</svg>
