<svg width="42" height="43" viewBox="0 0 42 43" fill="none" xmlns="http://www.w3.org/2000/svg">
<g clip-path="url(#clip0_10_13160)">
<path d="M41.4464 32.4364C40.7257 37.7341 37.5852 41.0273 32.1539 41.7336C29.1805 42.1202 25.4148 42.2348 20.957 42.2348C16.4993 42.2348 12.748 42.0534 9.765 41.7336C4.61523 41.18 1.02614 37.9584 0.4725 32.4411C0.1575 29.2864 -0.0429544 25.4014 -0.0429544 21.0725C-0.0429544 16.7436 0.0954547 13.0782 0.467727 10.0141C1.1025 4.77841 4.31932 1.25614 9.78886 0.716819C12.8052 0.42091 16.5614 0.234774 20.957 0.234774C25.3527 0.234774 29.1184 0.373183 32.1252 0.716819C37.5089 1.3325 40.7257 4.85 41.4464 10.0189C41.8711 13.0543 41.9523 16.82 41.9523 21.0725C41.9523 25.325 41.8616 29.315 41.4416 32.4364" fill="#CED9EE"/>
<path d="M31.562 35.6436H10.5859C8.64341 35.6436 7.07318 34.0734 7.07318 32.1309V14.6436H35.0748V32.1309C35.0748 34.0734 33.5045 35.6436 31.562 35.6436Z" fill="white"/>
<path d="M20.1934 19.1443H21.9498C22.9186 19.1443 23.7061 19.9318 23.7061 20.9007V22.657C23.7061 23.6259 22.9186 24.4134 21.9498 24.4134H20.1934C19.2245 24.4134 18.437 23.6259 18.437 22.657V20.9007C18.437 19.9318 19.2245 19.1443 20.1934 19.1443Z" fill="#ACBBD7"/>
<path d="M27.2284 19.1443H28.9848C29.9536 19.1443 30.7411 19.9318 30.7411 20.9007V22.657C30.7411 23.6259 29.9536 24.4134 28.9848 24.4134H27.2284C26.2595 24.4134 25.472 23.6259 25.472 22.657V20.9007C25.472 19.9318 26.2595 19.1443 27.2284 19.1443Z" fill="#ACBBD7"/>
<path d="M13.1584 26.4705H14.9148C15.8884 26.4705 16.6711 27.258 16.6711 28.2268V29.9832C16.6711 30.952 15.8836 31.7395 14.9148 31.7395H13.1584C12.1895 31.7395 11.402 30.952 11.402 29.9832V28.2268C11.402 27.258 12.1895 26.4705 13.1584 26.4705Z" fill="#ACBBD7"/>
<path d="M20.1934 26.4705H21.9498C22.9186 26.4705 23.7061 27.258 23.7061 28.2268V29.9832C23.7061 30.952 22.9186 31.7395 21.9498 31.7395H20.1934C19.2245 31.7395 18.437 30.952 18.437 29.9832V28.2268C18.437 27.258 19.2245 26.4705 20.1934 26.4705Z" fill="#ACBBD7"/>
<path d="M27.2284 26.4705H28.9848C29.9536 26.4705 30.7411 27.258 30.7411 28.2268V29.9832C30.7411 30.952 29.9536 31.7395 28.9848 31.7395H27.2284C26.2595 31.7395 25.472 30.952 25.472 29.9832V28.2268C25.472 27.258 26.2595 26.4705 27.2284 26.4705Z" fill="#FF7B3D"/>
<path d="M31.562 7.64682H10.5859C8.64818 7.64682 7.07318 9.21705 7.07318 11.1595V14.6484H35.0748V11.1595C35.0748 9.22182 33.5045 7.64682 31.562 7.64682Z" fill="#667799"/>
<path d="M14.0748 4.14364C13.1107 4.14364 12.3232 4.92636 12.3232 5.89523V9.39364C12.3232 10.3625 13.1059 11.1452 14.0748 11.1452C15.0436 11.1452 15.8264 10.3625 15.8264 9.39364V5.89523C15.8264 4.92636 15.0436 4.14364 14.0748 4.14364Z" fill="white"/>
<path d="M28.0732 4.14364C27.1043 4.14364 26.3216 4.92636 26.3216 5.89523V9.39364C26.3216 10.3625 27.1043 11.1452 28.0732 11.1452C29.042 11.1452 29.8248 10.3625 29.8248 9.39364V5.89523C29.8248 4.92636 29.042 4.14364 28.0732 4.14364Z" fill="white"/>
</g>
<defs>
<clipPath id="clip0_10_13160">
<rect width="42" height="42" fill="white" transform="translate(0 0.125)"/>
</clipPath>
</defs>
</svg>
