<svg width="14" height="14" viewBox="0 0 14 14" fill="none" xmlns="http://www.w3.org/2000/svg">
<path fill-rule="evenodd" clip-rule="evenodd" d="M13.3416 9.15009L11.7504 7.55711C11.3282 7.13544 10.7558 6.89859 10.1591 6.89859C9.56241 6.89859 8.99009 7.13544 8.56788 7.55711L7.67466 8.45294L7.52826 8.3902C7.12517 8.16951 6.75814 7.88858 6.43984 7.55711C6.10992 7.2385 5.83047 6.87148 5.61111 6.46869C5.58845 6.4164 5.56579 6.37109 5.55098 6.32577L6.44333 5.43255C6.865 5.01034 7.10185 4.43803 7.10185 3.84131C7.10185 3.2446 6.865 2.67229 6.44333 2.25008L4.85209 0.658837C4.42843 0.236898 3.85486 0 3.25693 0C2.659 0 2.08543 0.236898 1.66177 0.658837L1.13891 1.19215C0.607714 1.80131 0.245468 2.53906 0.0882846 3.33185C-0.0688987 4.12465 -0.0155286 4.9448 0.243074 5.71054C0.781644 7.62579 1.82267 9.36213 3.25824 10.7396C4.63665 12.1745 6.37256 13.2162 8.28728 13.7574C9.05292 14.0165 9.87311 14.0704 10.6661 13.9136C11.459 13.7569 12.197 13.395 12.8065 12.8641L13.3399 12.3413C13.7623 11.9178 13.9997 11.3442 14 10.746C14.0003 10.1479 13.7636 9.57402 13.3416 9.15009ZM12.2828 11.2746L11.7495 11.808C11.3211 12.1514 10.8108 12.3777 10.2687 12.4646C9.72651 12.5516 9.17107 12.4961 8.65677 12.3038C7.00382 11.8299 5.50664 10.925 4.31877 9.68167C3.0763 8.49325 2.17223 6.99578 1.69924 5.3428C1.50777 4.82836 1.45281 4.2731 1.5397 3.73111C1.6266 3.18912 1.85239 2.67887 2.19509 2.25008L2.7284 1.71676C2.79786 1.64712 2.88037 1.59187 2.97121 1.55417C3.06206 1.51647 3.15945 1.49706 3.2578 1.49706C3.35616 1.49706 3.45354 1.51647 3.54439 1.55417C3.63523 1.59187 3.71774 1.64712 3.7872 1.71676L5.37756 3.31148C5.44879 3.38075 5.50541 3.4636 5.54407 3.55513C5.58273 3.64666 5.60265 3.74501 5.60265 3.84436C5.60265 3.94372 5.58273 4.04207 5.54407 4.1336C5.50541 4.22513 5.44879 4.30797 5.37756 4.37725L4.31877 5.43255C4.19985 5.55819 4.11156 5.70959 4.06077 5.87495C4.00998 6.04032 3.99807 6.21518 4.02597 6.3859C4.06375 6.65016 4.14502 6.90634 4.26649 7.14405C4.55905 7.6922 4.93375 8.19238 5.37756 8.62723C5.81336 9.06922 6.31267 9.4437 6.859 9.73831C7.09671 9.85978 7.35289 9.94105 7.61715 9.97883C7.67703 9.98552 7.7373 9.98814 7.79754 9.98667C7.93989 9.99046 8.08158 9.96583 8.2143 9.9142C8.34702 9.86258 8.46812 9.78501 8.5705 9.68602L9.6258 8.62723C9.76749 8.48658 9.95904 8.40766 10.1587 8.40766C10.3583 8.40766 10.5499 8.48658 10.6916 8.62723L12.2828 10.2185C12.4222 10.3585 12.5006 10.5479 12.5008 10.7455C12.5009 10.9431 12.4229 11.1327 12.2837 11.2729L12.2828 11.2746Z" fill="#445473"/>
</svg>
