<svg width="14" height="14" viewBox="0 0 14 14" fill="none" xmlns="http://www.w3.org/2000/svg">
<path d="M7.00001 4.20004C6.6762 4.16021 6.34954 4.24731 6.08853 4.44306C5.82753 4.63882 5.65245 4.92802 5.60001 5.25004C5.60001 5.43569 5.52626 5.61374 5.39499 5.74501C5.26371 5.87629 5.08566 5.95004 4.90001 5.95004C4.71436 5.95004 4.53631 5.87629 4.40504 5.74501C4.27376 5.61374 4.20001 5.43569 4.20001 5.25004C4.24992 4.55518 4.572 3.90809 5.09628 3.44935C5.62056 2.9906 6.30468 2.75727 7.00001 2.80004C7.69534 2.75727 8.37946 2.9906 8.90374 3.44935C9.42802 3.90809 9.7501 4.55518 9.80001 5.25004C9.79291 5.63742 9.69022 6.01704 9.50107 6.35518C9.31193 6.69331 9.04217 6.97948 8.71579 7.18826C8.43574 7.36737 8.18051 7.58259 7.95668 7.82837C7.80556 7.98174 7.71472 8.1844 7.70079 8.39926V8.74926C7.70079 8.93491 7.62704 9.11296 7.49576 9.24423C7.36449 9.37551 7.18644 9.44926 7.00079 9.44926C6.81514 9.44926 6.63709 9.37551 6.50581 9.24423C6.37454 9.11296 6.30079 8.93491 6.30079 8.74926V8.40004C6.31253 7.85302 6.52069 7.32848 6.88723 6.92226C7.19417 6.57891 7.54605 6.27857 7.93335 6.02937C8.06932 5.94835 8.1831 5.83492 8.26453 5.69919C8.34597 5.56347 8.39251 5.40969 8.40001 5.25159C8.34793 4.92929 8.17301 4.63971 7.91196 4.44363C7.65092 4.24756 7.32406 4.16025 7.00001 4.20004Z" fill="#445473"/>
<path d="M7.69999 10.5C7.69999 10.6385 7.65893 10.7738 7.58202 10.8889C7.5051 11.0041 7.39578 11.0938 7.26787 11.1468C7.13996 11.1997 6.99921 11.2136 6.86343 11.1866C6.72764 11.1596 6.60291 11.0929 6.50501 10.995C6.40712 10.8971 6.34045 10.7724 6.31344 10.6366C6.28643 10.5008 6.30029 10.3601 6.35327 10.2322C6.40625 10.1043 6.49598 9.99494 6.61109 9.91802C6.7262 9.8411 6.86154 9.80005 6.99999 9.80005C7.18564 9.80005 7.36369 9.8738 7.49496 10.0051C7.62624 10.1363 7.69999 10.3144 7.69999 10.5Z" fill="#445473"/>
<path fill-rule="evenodd" clip-rule="evenodd" d="M14 7C14 8.38447 13.5895 9.73785 12.8203 10.889C12.0511 12.0401 10.9579 12.9373 9.67879 13.4672C8.3997 13.997 6.99224 14.1356 5.63437 13.8655C4.2765 13.5954 3.02922 12.9287 2.05026 11.9497C1.07129 10.9708 0.404603 9.7235 0.134506 8.36563C-0.13559 7.00777 0.003033 5.6003 0.532846 4.32122C1.06266 3.04213 1.95987 1.94888 3.11101 1.17971C4.26216 0.410543 5.61553 0 7 0C8.85652 0 10.637 0.737498 11.9498 2.05025C13.2625 3.36301 14 5.14348 14 7ZM12.6 7C12.6 8.10758 12.2716 9.19028 11.6562 10.1112C11.0409 11.0321 10.1663 11.7499 9.14303 12.1737C8.11976 12.5976 6.99379 12.7085 5.9075 12.4924C4.8212 12.2763 3.82338 11.743 3.04021 10.9598C2.25703 10.1766 1.72368 9.1788 1.50761 8.09251C1.29153 7.00621 1.40243 5.88024 1.82628 4.85697C2.25013 3.83371 2.96789 2.95911 3.88881 2.34377C4.80972 1.72843 5.89243 1.4 7 1.4C8.48522 1.4 9.9096 1.99 10.9598 3.0402C12.01 4.09041 12.6 5.51479 12.6 7Z" fill="#445473"/>
</svg>
