<svg width="42" height="43" viewBox="0 0 42 43" fill="none" xmlns="http://www.w3.org/2000/svg">
<g clip-path="url(#clip0_10_13166)">
<path d="M41.4893 32.3266C40.7686 37.6243 37.6282 40.9175 32.1968 41.6239C29.2234 42.0105 25.4577 42.125 21 42.125C16.5423 42.125 12.7909 41.9436 9.80795 41.6239C4.65818 41.0702 1.06909 37.8486 0.515455 32.3314C0.200455 29.1766 0 25.2916 0 20.9627C0 16.6339 0.138409 12.9684 0.510682 9.90432C1.14545 4.66864 4.36227 1.14636 9.83182 0.607045C12.8434 0.311136 16.6043 0.125 21 0.125C25.3957 0.125 29.1614 0.263409 32.1682 0.607045C37.5518 1.22273 40.7686 4.74023 41.4893 9.90909C41.9141 12.9445 41.9952 16.7102 41.9952 20.9627C41.9952 25.2152 41.9045 29.2052 41.4845 32.3266" fill="#CED9EE"/>
<path d="M13.9984 34.9373H6.99682C6.03273 34.9373 5.24523 34.1545 5.24523 33.1857V8.68728C5.24523 7.71841 6.02796 6.93568 6.99682 6.93568H13.9984C14.9625 6.93568 15.75 7.71841 15.75 8.68728V33.1857C15.75 34.1545 14.9673 34.9373 13.9984 34.9373Z" fill="white"/>
<path d="M12.2516 20.9389H8.75318C7.78909 20.9389 7.00159 20.1561 7.00159 19.1873V10.4389C7.00159 9.47 7.78432 8.68727 8.75318 8.68727H12.2516C13.2157 8.68727 14.0032 9.47 14.0032 10.4389V19.1873C14.0032 20.1561 13.2205 20.9389 12.2516 20.9389Z" fill="#BECBE4"/>
<path d="M12.2516 12.1189H8.75318C8.27114 12.1189 7.87977 11.7275 7.87977 11.2454C7.87977 10.7634 8.27114 10.372 8.75318 10.372H12.2516C12.7336 10.372 13.125 10.7634 13.125 11.2454C13.125 11.7275 12.7336 12.1189 12.2516 12.1189Z" fill="#667799"/>
<path d="M12.2516 15.6173H8.75318C8.27114 15.6173 7.87977 15.2259 7.87977 14.7439C7.87977 14.2618 8.27114 13.8705 8.75318 13.8705H12.2516C12.7336 13.8705 13.125 14.2618 13.125 14.7439C13.125 15.2259 12.7336 15.6173 12.2516 15.6173Z" fill="#667799"/>
<path d="M12.2516 19.1157H8.75318C8.27114 19.1157 7.87977 18.7243 7.87977 18.2423C7.87977 17.7602 8.27114 17.3689 8.75318 17.3689H12.2516C12.7336 17.3689 13.125 17.7602 13.125 18.2423C13.125 18.7243 12.7336 19.1157 12.2516 19.1157Z" fill="#667799"/>
<path d="M13.125 30.5607C13.125 32.0116 11.9509 33.1857 10.5 33.1857C9.04909 33.1857 7.875 32.0116 7.875 30.5607C7.875 29.1098 9.04909 27.9357 10.5 27.9357C11.9509 27.9357 13.125 29.1098 13.125 30.5607Z" fill="#667799"/>
<path d="M24.4984 34.9373H17.4968C16.5327 34.9373 15.7452 34.1545 15.7452 33.1857V8.68728C15.7452 7.71841 16.528 6.93568 17.4968 6.93568H24.4984C25.4673 6.93568 26.25 7.71841 26.25 8.68728V33.1857C26.25 34.1545 25.4673 34.9373 24.4984 34.9373Z" fill="#ACBBD7"/>
<path d="M22.7516 20.9389H19.2532C18.2891 20.9389 17.5016 20.1561 17.5016 19.1873V10.4389C17.5016 9.47 18.2843 8.68727 19.2532 8.68727H22.7516C23.7205 8.68727 24.5032 9.47 24.5032 10.4389V19.1873C24.5032 20.1561 23.7205 20.9389 22.7516 20.9389Z" fill="white"/>
<path d="M22.7516 12.1189H19.2532C18.7711 12.1189 18.3798 11.7275 18.3798 11.2454C18.3798 10.7634 18.7711 10.372 19.2532 10.372H22.7516C23.2336 10.372 23.625 10.7634 23.625 11.2454C23.625 11.7275 23.2336 12.1189 22.7516 12.1189Z" fill="#667799"/>
<path d="M22.7516 15.6173H19.2532C18.7711 15.6173 18.3798 15.2259 18.3798 14.7439C18.3798 14.2618 18.7711 13.8705 19.2532 13.8705H22.7516C23.2336 13.8705 23.625 14.2618 23.625 14.7439C23.625 15.2259 23.2336 15.6173 22.7516 15.6173Z" fill="#667799"/>
<path d="M22.7516 19.1157H19.2532C18.7711 19.1157 18.3798 18.7243 18.3798 18.2423C18.3798 17.7602 18.7711 17.3689 19.2532 17.3689H22.7516C23.2336 17.3689 23.625 17.7602 23.625 18.2423C23.625 18.7243 23.2336 19.1157 22.7516 19.1157Z" fill="#667799"/>
<path d="M23.625 30.5607C23.625 32.0116 22.4509 33.1857 21 33.1857C19.5491 33.1857 18.375 32.0116 18.375 30.5607C18.375 29.1098 19.5491 27.9357 21 27.9357C22.4509 27.9357 23.625 29.1098 23.625 30.5607Z" fill="#FF7B3D"/>
<path d="M34.9984 34.9373H27.9968C27.028 34.9373 26.2452 34.1545 26.2452 33.1857V8.68728C26.2452 7.71841 27.028 6.93568 27.9968 6.93568H34.9984C35.9673 6.93568 36.75 7.71841 36.75 8.68728V33.1857C36.75 34.1545 35.9673 34.9373 34.9984 34.9373Z" fill="white"/>
<path d="M33.2516 20.9389H29.7532C28.7843 20.9389 28.0016 20.1561 28.0016 19.1873V10.4389C28.0016 9.47 28.7843 8.68727 29.7532 8.68727H33.2516C34.2205 8.68727 35.0032 9.47 35.0032 10.4389V19.1873C35.0032 20.1561 34.2205 20.9389 33.2516 20.9389Z" fill="#BECBE4"/>
<path d="M33.2516 12.1189H29.7532C29.2711 12.1189 28.8798 11.7275 28.8798 11.2454C28.8798 10.7634 29.2711 10.372 29.7532 10.372H33.2516C33.7336 10.372 34.125 10.7634 34.125 11.2454C34.125 11.7275 33.7336 12.1189 33.2516 12.1189Z" fill="#667799"/>
<path d="M33.2516 15.6173H29.7532C29.2711 15.6173 28.8798 15.2259 28.8798 14.7439C28.8798 14.2618 29.2711 13.8705 29.7532 13.8705H33.2516C33.7336 13.8705 34.125 14.2618 34.125 14.7439C34.125 15.2259 33.7336 15.6173 33.2516 15.6173Z" fill="#667799"/>
<path d="M33.2516 19.1157H29.7532C29.2711 19.1157 28.8798 18.7243 28.8798 18.2423C28.8798 17.7602 29.2711 17.3689 29.7532 17.3689H33.2516C33.7336 17.3689 34.125 17.7602 34.125 18.2423C34.125 18.7243 33.7336 19.1157 33.2516 19.1157Z" fill="#667799"/>
<path d="M34.125 30.5607C34.125 32.0116 32.9509 33.1857 31.5 33.1857C30.0491 33.1857 28.875 32.0116 28.875 30.5607C28.875 29.1098 30.0491 27.9357 31.5 27.9357C32.9509 27.9357 34.125 29.1098 34.125 30.5607Z" fill="#667799"/>
</g>
<defs>
<clipPath id="clip0_10_13166">
<rect width="42" height="42" fill="white" transform="translate(0 0.125)"/>
</clipPath>
</defs>
</svg>
