<svg width="36" height="37" viewBox="0 0 36 37" fill="none" xmlns="http://www.w3.org/2000/svg">
<path d="M35.565 27.725C34.95 32.2625 32.2575 35.09 27.6 35.6975C25.05 36.0275 21.825 36.125 18 36.125C14.175 36.125 10.965 35.9675 8.4075 35.6975C3.9975 35.225 0.9225 32.465 0.4425 27.7325C0.1725 25.025 0 21.7025 0 17.99C0 14.2775 0.12 11.135 0.435 8.51C0.99 4.0175 3.7425 1.0025 8.4375 0.5375C11.0175 0.2825 14.2425 0.125 18.0075 0.125C21.7725 0.125 25.005 0.245 27.5775 0.5375C32.19 1.0625 34.95 4.085 35.565 8.51C35.9325 11.1125 36 14.3375 36 17.9825C36 21.6275 35.925 25.0475 35.5575 27.725H35.565Z" fill="#9989EC"/>
<path d="M12.975 33.005C-4.34997 25.055 3.28503 16.0925 9.15753 11.675C15.03 7.25001 31.8675 -3.46749 32.5725 11.78C33.42 30.1025 22.875 37.5425 12.975 33.005Z" fill="#6F52D1"/>
<path d="M18.0075 29.93C24.6349 29.93 30.0075 24.5574 30.0075 17.93C30.0075 11.3026 24.6349 5.92999 18.0075 5.92999C11.3801 5.92999 6.00752 11.3026 6.00752 17.93C6.00752 24.5574 11.3801 29.93 18.0075 29.93Z" fill="white"/>
<path d="M18.0075 19.265C17.655 19.265 17.3175 19.1225 17.0625 18.875L13.575 15.3875C13.0575 14.87 13.0575 14.0225 13.575 13.505C14.0925 12.9875 14.94 12.9875 15.4575 13.505L18.0075 16.055L22.44 11.6225C22.9575 11.105 23.805 11.105 24.3225 11.6225C24.84 12.14 24.84 12.9875 24.3225 13.505L18.945 18.8825C18.6975 19.13 18.3525 19.2725 18 19.2725L18.0075 19.265Z" fill="#FF7B3D"/>
<path d="M17.0625 18.875L13.575 15.3875C13.0575 14.87 13.0575 14.0225 13.575 13.505C14.0925 12.9875 14.94 12.9875 15.4575 13.505L18.0075 16.055L17.0625 18.8825V18.875Z" fill="#CAC9FD"/>
<path d="M18.0075 20.5925C19.4821 20.5925 20.6775 19.3971 20.6775 17.9225C20.6775 16.4479 19.4821 15.2525 18.0075 15.2525C16.5329 15.2525 15.3375 16.4479 15.3375 17.9225C15.3375 19.3971 16.5329 20.5925 18.0075 20.5925Z" fill="#6F52D1"/>
<path d="M18.0075 19.2575C18.7448 19.2575 19.3425 18.6598 19.3425 17.9225C19.3425 17.1852 18.7448 16.5875 18.0075 16.5875C17.2702 16.5875 16.6725 17.1852 16.6725 17.9225C16.6725 18.6598 17.2702 19.2575 18.0075 19.2575Z" fill="white"/>
<path d="M27.855 18.335H26.2425C25.875 18.335 25.575 18.035 25.575 17.6675C25.575 17.3 25.875 17 26.2425 17H27.855C28.2225 17 28.5225 17.3 28.5225 17.6675C28.5225 18.035 28.2225 18.335 27.855 18.335Z" fill="#9989EC"/>
<path d="M18.105 28.085C17.7375 28.085 17.4375 27.785 17.4375 27.4175V25.805C17.4375 25.4375 17.7375 25.1375 18.105 25.1375C18.4725 25.1375 18.7725 25.4375 18.7725 25.805V27.4175C18.7725 27.785 18.4725 28.085 18.105 28.085Z" fill="#9989EC"/>
<path d="M18.105 10.205C17.7375 10.205 17.4375 9.90501 17.4375 9.53751V7.92501C17.4375 7.55751 17.7375 7.25751 18.105 7.25751C18.4725 7.25751 18.7725 7.55751 18.7725 7.92501V9.53751C18.7725 9.90501 18.4725 10.205 18.105 10.205Z" fill="#9989EC"/>
<path d="M9.97502 18.335H8.36252C7.99502 18.335 7.69502 18.035 7.69502 17.6675C7.69502 17.3 7.99502 17 8.36252 17H9.97502C10.3425 17 10.6425 17.3 10.6425 17.6675C10.6425 18.035 10.3425 18.335 9.97502 18.335Z" fill="#9989EC"/>
</svg>
