<svg width="36" height="37" viewBox="0 0 36 37" fill="none" xmlns="http://www.w3.org/2000/svg">
<path d="M35.565 27.725C34.95 32.2625 32.2575 35.09 27.6 35.6975C25.05 36.0275 21.825 36.125 18 36.125C14.175 36.125 10.965 35.9675 8.4075 35.6975C3.9975 35.225 0.9225 32.465 0.4425 27.7325C0.1725 25.025 0 21.7025 0 17.99C0 14.2775 0.12 11.135 0.435 8.51C0.99 4.0175 3.7425 1.0025 8.4375 0.5375C11.0175 0.2825 14.2425 0.125 18.0075 0.125C21.7725 0.125 25.005 0.245 27.5775 0.5375C32.19 1.0625 34.95 4.085 35.565 8.51C35.9325 11.1125 36 14.3375 36 17.9825C36 21.6275 35.925 25.0475 35.5575 27.725H35.565Z" fill="#9989EC"/>
<path d="M32.2501 24.6125C22.4026 40.7525 8.42259 34.1225 4.71009 28.085C0.997586 22.04 -1.63491 2.48751 13.4626 3.93501C28.5526 5.38251 37.8751 15.395 32.2501 24.6125Z" fill="#6F52D1"/>
<path d="M25.815 28.6025H9.81753C9.11253 28.6025 8.43003 28.325 7.93503 27.8225C7.43253 27.32 7.15503 26.645 7.15503 25.94V12.605H28.485V25.94C28.485 26.645 28.2075 27.3275 27.705 27.8225C27.2025 28.325 26.5275 28.6025 25.8225 28.6025H25.815Z" fill="white"/>
<path d="M18.4876 16.6025H17.1451C16.4101 16.6025 15.8176 17.195 15.8176 17.93V19.2725C15.8176 20.0075 16.4101 20.6 17.1451 20.6H18.4876C19.2226 20.6 19.8151 20.0075 19.8151 19.2725V17.93C19.8151 17.195 19.2226 16.6025 18.4876 16.6025Z" fill="#A69DF0"/>
<path d="M23.82 16.6025H22.485C21.75 16.6025 21.1575 17.195 21.1575 17.93V19.265C21.1575 20 21.75 20.5925 22.485 20.5925H23.82C24.555 20.5925 25.1475 20 25.1475 19.265V17.93C25.1475 17.195 24.555 16.6025 23.82 16.6025Z" fill="#A69DF0"/>
<path d="M13.155 21.935H11.8125C11.0775 21.935 10.485 22.5275 10.485 23.2625V24.605C10.485 25.34 11.0775 25.9325 11.8125 25.9325H13.155C13.89 25.9325 14.4825 25.34 14.4825 24.605V23.2625C14.4825 22.5275 13.89 21.935 13.155 21.935Z" fill="#6F52D1"/>
<path d="M18.4876 21.935H17.1451C16.4101 21.935 15.8176 22.5275 15.8176 23.2625V24.605C15.8176 25.34 16.4101 25.9325 17.1451 25.9325H18.4876C19.2226 25.9325 19.8151 25.34 19.8151 24.605V23.2625C19.8151 22.5275 19.2226 21.935 18.4876 21.935Z" fill="#6F52D1"/>
<path d="M23.82 21.935H22.4775C21.7425 21.935 21.15 22.5275 21.15 23.2625V24.605C21.15 25.34 21.7425 25.9325 22.4775 25.9325H23.82C24.555 25.9325 25.1475 25.34 25.1475 24.605V23.2625C25.1475 22.5275 24.555 21.935 23.82 21.935Z" fill="#FF7B3D"/>
<path d="M25.815 7.26501H9.81753C9.11253 7.26501 8.43003 7.53501 7.93503 8.02251C7.43253 8.51001 7.15503 9.17001 7.15503 9.85251V12.59H28.485V9.85251C28.485 9.16251 28.2075 8.50251 27.705 8.02251C27.2025 7.53501 26.5275 7.26501 25.8225 7.26501H25.815Z" fill="#CAC9FD"/>
<path d="M13.8151 5.90001C13.8151 5.18751 13.2151 4.60251 12.4801 4.60251C11.7451 4.60251 11.1451 5.18001 11.1451 5.90001V8.49501C11.1451 9.20751 11.7451 9.79251 12.4801 9.79251C13.2151 9.79251 13.8151 9.21501 13.8151 8.49501V5.90001Z" fill="white"/>
<path d="M24.4876 5.90001C24.4876 5.18751 23.8876 4.60251 23.1526 4.60251C22.4176 4.60251 21.8176 5.18001 21.8176 5.90001V8.49501C21.8176 9.20751 22.4176 9.79251 23.1526 9.79251C23.8876 9.79251 24.4876 9.21501 24.4876 8.49501V5.90001Z" fill="white"/>
</svg>
