<svg width="36" height="37" viewBox="0 0 36 37" fill="none" xmlns="http://www.w3.org/2000/svg">
<path d="M35.565 27.725C34.95 32.2625 32.2575 35.09 27.6 35.6975C25.05 36.0275 21.825 36.125 18 36.125C14.175 36.125 10.965 35.9675 8.4075 35.6975C3.9975 35.225 0.9225 32.465 0.4425 27.7325C0.1725 25.025 0 21.7025 0 17.99C0 14.2775 0.12 11.135 0.435 8.51C0.99 4.0175 3.7425 1.0025 8.4375 0.5375C11.0175 0.2825 14.2425 0.125 18.0075 0.125C21.7725 0.125 25.005 0.245 27.5775 0.5375C32.19 1.0625 34.95 4.085 35.565 8.51C35.9325 11.1125 36 14.3375 36 17.9825C36 21.6275 35.925 25.0475 35.5575 27.725H35.565Z" fill="#9989EC"/>
<path d="M17.94 33.6575C0.164974 32.1875 -0.937526 20.945 6.22497 11.4725C13.3875 2 23.8275 3.425 29.5425 10.3625C35.685 17.8175 33.5775 34.9475 17.94 33.65V33.6575Z" fill="#6F52D1"/>
<path d="M19.3875 20.585H16.7175V27.2525H19.3875V20.585Z" fill="white"/>
<path d="M19.3875 19.2575H16.7175C15.9825 19.2575 15.3825 19.8575 15.3825 20.5925V23.2625C15.3825 23.9975 15.9825 24.5975 16.7175 24.5975H19.3875C20.1225 24.5975 20.7225 23.9975 20.7225 23.2625V20.5925C20.7225 19.8575 20.1225 19.2575 19.3875 19.2575Z" fill="#B9B2FA"/>
<path d="M26.0026 19.2575H9.99756L11.3326 5.8025C11.3626 5.4725 11.5126 5.1575 11.7601 4.94C12.0076 4.715 12.3301 4.595 12.6601 4.595H23.5651C23.8951 4.595 24.2176 4.715 24.4651 4.94C24.7126 5.165 24.8626 5.4725 24.8926 5.8025L25.9876 19.2575H26.0026Z" fill="white"/>
<path d="M20.0699 2.64499H16.0424C15.2223 2.64499 14.5574 3.30985 14.5574 4.12999V5.04499C14.5574 5.86513 15.2223 6.52999 16.0424 6.52999H20.0699C20.8901 6.52999 21.5549 5.86513 21.5549 5.04499V4.12999C21.5549 3.30985 20.8901 2.64499 20.0699 2.64499Z" fill="#FF7B3D"/>
<path d="M10.2601 16.5875L9.99005 19.2575H26.0551L25.7851 16.5875H10.2601Z" fill="#CAC9FD"/>
<path d="M27.3901 17.9375H8.72257C7.98757 17.9375 7.38757 18.5375 7.38757 19.2725V20.6075C7.38757 21.3425 7.98757 21.9425 8.72257 21.9425H27.3901C28.1251 21.9425 28.7251 21.3425 28.7251 20.6075V19.2725C28.7251 18.5375 28.1251 17.9375 27.3901 17.9375Z" fill="white"/>
<path d="M10.05 12.605H7.38004C6.64504 12.605 6.04504 13.205 6.04504 13.94C6.04504 14.675 6.64504 15.275 7.38004 15.275H10.05C10.785 15.275 11.385 14.675 11.385 13.94C11.385 13.205 10.785 12.605 10.05 12.605Z" fill="#B9B2FA"/>
<path d="M28.7175 12.605H26.0475C25.3125 12.605 24.7125 13.205 24.7125 13.94C24.7125 14.675 25.3125 15.275 26.0475 15.275H28.7175C29.4525 15.275 30.0525 14.675 30.0525 13.94C30.0525 13.205 29.4525 12.605 28.7175 12.605Z" fill="#B9B2FA"/>
<path d="M19.3875 29.9225C19.3875 29.1875 18.7875 28.5875 18.0525 28.5875C17.3175 28.5875 16.7175 29.1875 16.7175 29.9225C16.7175 30.6575 17.3175 31.2575 18.0525 31.2575C18.7875 31.2575 19.3875 30.6575 19.3875 29.9225Z" fill="white"/>
<path d="M24.7199 29.9225C24.7199 29.1875 24.1199 28.5875 23.3849 28.5875C22.6499 28.5875 22.0499 29.1875 22.0499 29.9225C22.0499 30.6575 22.6499 31.2575 23.3849 31.2575C24.1199 31.2575 24.7199 30.6575 24.7199 29.9225Z" fill="white"/>
<path d="M14.0549 29.9225C14.0549 29.1875 13.4549 28.5875 12.7199 28.5875C11.9849 28.5875 11.3849 29.1875 11.3849 29.9225C11.3849 30.6575 11.9849 31.2575 12.7199 31.2575C13.4549 31.2575 14.0549 30.6575 14.0549 29.9225Z" fill="white"/>
<path d="M23.3849 29.9225C24.1199 29.9225 24.7199 29.3225 24.7199 28.5875C24.7199 27.8525 24.1199 27.2525 23.3849 27.2525H12.7199C11.9849 27.2525 11.3849 27.8525 11.3849 28.5875C11.3849 29.3225 11.9849 29.9225 12.7199 29.9225H23.3849Z" fill="#B9B2FA"/>
</svg>
