<svg width="191" height="170" viewBox="0 0 191 170" fill="none" xmlns="http://www.w3.org/2000/svg">
<mask id="mask0_429_40079" style="mask-type:alpha" maskUnits="userSpaceOnUse" x="0" y="0" width="191" height="170">
<path d="M0 0H160C177.121 0 191 13.8792 191 31V170H0V0Z" fill="#D9D9D9"/>
</mask>
<g mask="url(#mask0_429_40079)">
<path d="M99.5247 43.9923C96.7283 -28.0202 159.334 -38.8009 183.56 -26.6376C207.829 -14.4689 251.94 47.9012 201.59 73.4264C151.24 98.9517 101.161 85.0894 99.5247 43.9923Z" fill="#D4D6FD"/>
<path d="M135.681 130.251C151.834 139.958 143.616 147.72 137.538 151.339C131.414 154.953 113.216 163.249 114.777 148.49C116.333 133.776 126.435 124.729 135.681 130.251Z" fill="#CEEEE9"/>
<path d="M40.914 -2.81884C64.3687 -25.4201 74.2284 -8.66225 77.815 2.87639C81.4016 14.415 87.953 47.909 63.3528 39.2014C38.7474 30.5369 27.5078 10.0708 40.914 -2.81884Z" fill="#FFBE9E"/>
<g filter="url(#filter0_d_429_40079)">
<path d="M161.562 66.3369L117.521 56.8851L129.479 6.79707L173.525 16.2501L161.562 66.3369Z" fill="#C8F1FB"/>
<path opacity="0.4" d="M136.858 9.30965C136.672 12.7147 133.81 15.4425 130.469 15.393C129.359 15.3754 128.34 15.0542 127.472 14.5126L127.174 15.7405C128.127 16.2647 129.223 16.5729 130.4 16.5932C134.391 16.6509 137.807 13.4009 138.025 9.32759C138.056 8.80014 138.026 8.2891 137.946 7.79119L136.686 7.52454C136.823 8.08763 136.884 8.68715 136.851 9.31409L136.858 9.30965Z" fill="#FFFCF5"/>
<path opacity="0.4" d="M130.449 15.391C133.79 15.4406 136.651 12.7133 136.837 9.30896C136.868 8.68773 136.808 8.08833 136.672 7.51978L135.336 7.2371C135.583 7.86441 135.706 8.55917 135.664 9.29545C135.517 12.0451 133.208 14.238 130.51 14.2011C129.468 14.1861 128.519 13.8386 127.756 13.2609L127.452 14.5164C128.314 15.0568 129.332 15.3834 130.443 15.3955L130.449 15.391Z" fill="#FFFCF5"/>
<path opacity="0.4" d="M130.449 15.391C133.79 15.4406 136.651 12.7133 136.837 9.30896C136.868 8.68773 136.808 8.08833 136.672 7.51978L135.336 7.2371C135.583 7.86441 135.706 8.55917 135.664 9.29545C135.517 12.0451 133.208 14.238 130.51 14.2011C129.468 14.1861 128.519 13.8386 127.756 13.2609L127.452 14.5164C128.314 15.0568 129.332 15.3834 130.443 15.3955L130.449 15.391Z" fill="#FFFCF5"/>
<path d="M127.744 13.2549C128.506 13.8325 129.449 14.1843 130.497 14.1949C133.194 14.2317 135.497 12.0384 135.65 9.29067C135.69 8.56018 135.569 7.86004 135.321 7.23291L129.53 5.99043L127.75 13.2561L127.744 13.2549Z" fill="#FFD873"/>
<path d="M166.533 49.8687L121.983 39.79L120.99 44.122L165.541 54.2007L166.533 49.8687Z" fill="#B2E1FF"/>
<path d="M162.964 64.1703L118.028 54.3368L120.619 43.2013L165.543 53.2118L162.964 64.1703Z" fill="#FAEACE"/>
<path d="M119.07 46.964C119.07 46.964 119.077 46.9596 119.084 46.9553L119.078 46.9541C119.078 46.9541 119.077 46.9596 119.076 46.9652L119.07 46.964Z" fill="#26A69A"/>
<path d="M151.95 35.967C151.95 35.967 150.626 45.5542 147.731 50.9636L146.832 51.2593C146.832 51.2593 149.955 44.7396 151.623 35.9217L151.95 35.967Z" fill="#624639"/>
<path d="M165.353 55.5201L136.263 49.4576C135.882 48.2692 137.064 47.6183 137.645 47.7962C138.226 47.9742 138.778 48.4226 139.353 48.3103C139.868 48.2093 140.15 47.7037 140.623 47.5097C141.25 47.2521 142.024 47.6154 142.576 48.0581C143.135 48.5019 143.633 49.0533 144.312 49.2821C144.274 48.2751 145.663 47.7525 146.694 48.1226C147.726 48.4928 148.441 49.3971 149.081 50.2495C149.36 48.9309 149.858 46.5457 152.812 45.4599C155.702 44.4024 159.412 46.9075 159.277 47.9378C159.309 47.9505 159.652 45.8754 161.137 45.5297C163.055 45.1137 164.44 46.4978 164.528 46.5406C164.523 45.1314 164.457 43.637 166.003 43.545C167.549 43.453 167.427 45.4671 167.427 45.4671L165.348 55.5189L165.353 55.5201Z" fill="#008A6E"/>
<path d="M166.531 27.1138C166.531 27.1138 166.097 42.5566 161.122 54.3831L159.198 53.8944C159.198 53.8944 164.782 45.5645 165.756 27.1188L166.529 27.1193L166.531 27.1138Z" fill="#624639"/>
<path d="M166.738 27.0948C166.738 27.0948 168.227 27.5098 169.038 27.7048C170.188 27.9835 171.509 28.4569 171.65 29.715C171.488 30.098 171.037 30.2846 170.637 30.2588C170.237 30.233 169.874 30.0327 169.534 29.8315C168.548 29.2526 166.412 27.543 166.412 27.543C166.412 27.543 167.884 31.1397 168.137 32.8328C168.209 33.3124 168.256 33.8276 167.931 34.2467C167.78 34.444 167.539 34.5635 167.3 34.5364C166.895 34.4859 166.75 34.091 166.647 33.74C166.001 31.4758 165.978 27.986 165.978 27.986C165.978 27.986 164.924 29.3615 164.235 30.5263C163.538 31.7012 161.753 33.0455 161.178 32.5418C160.964 32.3144 161.286 31.3422 162.391 30.1831C163.735 28.7691 165.979 27.3457 165.979 27.3457C165.979 27.3457 164.452 27.5104 163.704 27.693C163.133 27.8308 162.55 27.9718 161.98 27.8924C161.409 27.8186 160.845 27.4761 160.671 26.922C160.607 26.7145 160.603 26.4727 160.718 26.2796C160.812 26.129 160.968 26.027 161.12 25.9416C161.977 25.4529 162.699 25.447 163.643 25.6349C164.063 25.7179 165.848 26.7538 165.848 26.7538C165.848 26.7538 164.353 23.6283 164.303 23.1947C164.24 22.629 164.762 22.1517 165.235 22.7747C165.503 23.1311 165.724 23.9889 165.81 24.4126C165.972 25.252 166.165 26.6974 166.165 26.6974C166.165 26.6974 166.327 24.5219 166.744 23.7462C166.98 23.3143 167.359 22.9303 167.789 22.7155C168.218 22.5008 168.338 22.8083 168.253 23.3015C168.051 24.4871 167.319 26.0189 166.429 26.8355C167.375 26.0248 168.147 25.2713 169.093 24.7898C170.039 24.3083 171.144 24.0426 171.879 24.7622C171.685 25.5616 170.769 25.9202 169.993 26.1497C168.785 26.5054 166.729 27.1048 166.729 27.1048L166.738 27.0948Z" fill="#2FCAA6"/>
<path d="M151.903 35.8594C152.492 35.2221 152.706 34.8104 153.388 34.2808C153.618 34.1069 153.867 33.9253 154.148 33.9202C154.429 33.9151 154.717 34.1635 154.644 34.441C154.613 34.5692 154.51 34.6646 154.413 34.7555C153.711 35.3922 152.839 35.8347 151.929 36.0114C152.374 35.9179 152.858 35.8739 153.307 35.8809C153.659 35.8908 154.346 36.0421 154.258 36.2637C153.485 36.6979 152.517 36.5985 151.878 36.0356C152.642 36.6249 153.083 37.5796 153.116 38.571C153.121 38.6246 153.116 38.6882 153.084 38.7282C153.051 38.7682 152.996 38.7857 152.947 38.7988C152.573 38.8837 152.228 38.0959 152.141 37.7025C152.033 37.2286 151.913 36.4767 151.834 36.0499C151.397 36.889 150.811 37.9136 149.925 38.2299C149.568 38.3595 149.074 38.302 148.984 37.9432C148.95 37.8012 148.988 37.6452 149.056 37.5072C149.282 37.0218 149.769 36.7087 150.261 36.514C150.753 36.3193 151.28 36.2197 151.765 36.0059C150.822 36.0351 149.881 35.8243 149.055 35.3975C148.912 35.3264 148.76 35.2005 148.793 35.0433C148.82 34.9319 148.934 34.8622 149.041 34.8204C149.551 34.6235 150.126 34.7218 150.598 34.9622C151.07 35.2027 151.466 35.5678 151.853 35.925C151.214 35.198 150.44 34.3898 150.616 33.4075C151.069 33.6791 151.463 34.0788 151.631 34.5831C151.694 34.7721 151.883 35.8492 151.892 35.8102C151.907 35.7489 151.694 34.3971 151.64 33.9347C151.553 33.1897 151.494 32.3511 151.981 31.7567C152.638 32.3644 152.703 33.4095 152.502 34.3103C152.3 35.211 151.898 35.8583 151.898 35.8583L151.903 35.8594Z" fill="#2FCAA6"/>
<path d="M152.24 50.9286C153.242 51.0698 153.956 51.9536 154.416 52.8666C154.355 52.2108 154.954 51.5402 155.603 51.5469C156.252 51.5536 156.784 52.2379 156.649 52.8939C156.918 52.064 157.204 51.208 157.776 50.5554C158.347 49.9027 159.305 49.5107 160.06 49.8673C160.504 50.0805 160.804 50.5073 161.081 50.9114C161.247 51.1549 161.413 51.3985 161.581 51.6364C161.666 50.1068 162.578 48.6155 163.893 47.8408C164.912 47.2415 166.141 47.0856 167.24 47.3782L165.196 55.874L150.391 52.7746C150.369 52.6985 150.352 52.6236 150.347 52.551C150.352 52.5521 150.358 52.5533 150.369 52.5556C150.355 52.4455 150.349 52.3253 150.356 52.2731C150.471 51.4821 151.412 50.8007 152.241 50.9229L152.24 50.9286Z" fill="#00A887"/>
<path d="M160.665 53.501C161.284 53.5907 161.726 54.1341 162.012 54.6985C162.012 54.6985 162.016 54.7054 162.02 54.7123C162.02 54.7123 162.022 54.7066 162.023 54.7009C161.993 54.2929 162.362 53.8857 162.76 53.8864C163.163 53.8882 163.493 54.3181 163.413 54.7266C163.576 54.21 163.757 53.6728 164.114 53.2632C164.472 52.8537 165.067 52.6085 165.532 52.8334C165.807 52.9637 165.996 53.2319 166.166 53.4896C166.267 53.6432 166.37 53.791 166.472 53.9445L166.047 56.0362L159.511 54.6642C159.487 54.5933 159.476 54.519 159.476 54.4471C159.475 54.3568 159.496 54.2655 159.528 54.1823C159.692 53.7616 160.196 53.4372 160.653 53.5044L160.665 53.501Z" fill="#2FCAA6"/>
<path d="M155.962 43.975L155.643 50.1697C155.633 50.3482 155.867 50.4029 155.946 50.239L158.852 44.4693C158.905 44.3696 158.849 44.253 158.741 44.2362L156.161 43.8068C156.064 43.7867 155.972 43.8664 155.969 43.9706L155.962 43.975Z" fill="#F4CD8B"/>
<mask id="mask1_429_40079" style="mask-type:luminance" maskUnits="userSpaceOnUse" x="155" y="43" width="4" height="8">
<path d="M155.973 43.9753L155.638 50.1729C155.628 50.3515 155.861 50.4058 155.94 50.2416L158.852 44.4639C158.905 44.3641 158.849 44.2476 158.741 44.231L156.171 43.8066C156.076 43.7867 155.983 43.8666 155.98 43.9708L155.973 43.9753Z" fill="white"/>
</mask>
<g mask="url(#mask1_429_40079)">
<path d="M156.197 43.6833L156.985 48.9243" stroke="#FFB74D" stroke-width="0.11" stroke-miterlimit="10"/>
<path d="M155.838 44.8695L156.59 49.8701" stroke="#FFB74D" stroke-width="0.11" stroke-miterlimit="10"/>
<path d="M155.466 46.0286L156.216 51.0347" stroke="#FFB74D" stroke-width="0.11" stroke-miterlimit="10"/>
<path d="M156.78 43.6594L157.395 47.7525" stroke="#FFB74D" stroke-width="0.11" stroke-miterlimit="10"/>
<path d="M157.365 43.8139L157.83 46.944" stroke="#FFB74D" stroke-width="0.11" stroke-miterlimit="10"/>
<path d="M158.078 43.9351L158.393 46.0094" stroke="#FFB74D" stroke-width="0.11" stroke-miterlimit="10"/>
<path d="M156.197 43.6833L156.985 48.9243" stroke="#FFB74D" stroke-width="0.11" stroke-miterlimit="10"/>
<path d="M155.838 44.8695L156.59 49.8701" stroke="#FFB74D" stroke-width="0.11" stroke-miterlimit="10"/>
<path d="M155.466 46.0286L156.216 51.0347" stroke="#FFB74D" stroke-width="0.11" stroke-miterlimit="10"/>
<path d="M156.78 43.6594L157.395 47.7525" stroke="#FFB74D" stroke-width="0.11" stroke-miterlimit="10"/>
<path d="M157.365 43.8139L157.83 46.944" stroke="#FFB74D" stroke-width="0.11" stroke-miterlimit="10"/>
<path d="M158.078 43.9351L158.393 46.0094" stroke="#FFB74D" stroke-width="0.11" stroke-miterlimit="10"/>
<path d="M158.636 44.2022L155.493 48.6221" stroke="#FFB74D" stroke-width="0.11" stroke-miterlimit="10"/>
<path d="M158.441 45.4277L155.437 49.6439" stroke="#FFB74D" stroke-width="0.11" stroke-miterlimit="10"/>
<path d="M158.268 46.6326L155.262 50.8543" stroke="#FFB74D" stroke-width="0.11" stroke-miterlimit="10"/>
<path d="M158.113 43.9335L155.653 47.3845" stroke="#FFB74D" stroke-width="0.11" stroke-miterlimit="10"/>
<path d="M157.506 43.8226L155.625 46.4628" stroke="#FFB74D" stroke-width="0.11" stroke-miterlimit="10"/>
<path d="M156.791 43.6244L155.548 45.373" stroke="#FFB74D" stroke-width="0.11" stroke-miterlimit="10"/>
</g>
<path opacity="0.51" d="M155.877 44.959C155.877 44.959 157.302 45.9277 157.961 44.1711L158.851 44.4998L157.216 47.7358L155.776 46.7168L155.877 44.959Z" fill="#FFB74D"/>
<path d="M158.949 44.5446C159.711 43.8653 159.06 43.3306 159.06 43.3306C159.529 42.5961 158.923 42.1352 158.923 42.1352C159.459 40.9689 158.363 40.5404 158.211 40.3973C158.059 40.2542 157.932 39.9638 157.932 39.9638C157.809 40.1901 158.241 40.9431 157.414 41.0106C156.593 41.0793 156.632 41.7267 156.632 41.7267C155.849 42.1023 156.15 42.7926 156.15 42.7926C156.15 42.7926 155.776 42.9314 155.653 43.3396C155.535 43.7489 155.79 43.9782 155.79 43.9782C155.887 44.0922 156.03 44.1807 156.175 44.1408C156.224 44.1275 156.265 44.1008 156.314 44.0819C156.413 44.0497 156.517 44.0655 156.612 44.0914C156.726 44.1151 156.835 44.1554 156.942 44.2014C157.123 44.2743 157.307 44.3773 157.503 44.342C157.568 44.3321 157.642 44.3066 157.701 44.3424C157.774 44.3928 157.757 44.5066 157.728 44.6002C157.676 44.7653 157.623 44.9359 157.571 45.101C157.564 45.1289 157.558 45.1568 157.563 45.1813C157.579 45.2316 157.645 45.2395 157.692 45.2084C157.74 45.1772 157.757 45.1282 157.77 45.078C157.826 44.8962 157.833 44.7042 157.894 44.5236C157.904 44.4845 157.926 44.4422 157.958 44.4255C157.997 44.4044 158.046 44.4145 158.089 44.4235C158.286 44.4763 158.488 44.5303 158.687 44.572C158.779 44.5911 158.876 44.6114 158.947 44.5502L158.949 44.5446Z" fill="white"/>
<path d="M156.57 41.9517C157.222 41.8436 158.193 41.272 158.193 41.272C157.549 41.6557 156.593 41.718 156.593 41.718C156.391 41.8187 156.259 41.9343 156.177 42.0601C156.285 42.0171 156.415 41.9787 156.57 41.9517Z" fill="#F4F4F5"/>
<path d="M159.161 42.4056C159.157 42.3987 159.154 42.3861 159.144 42.3781C159.14 42.3712 159.131 42.3632 159.128 42.3506C159.045 42.2189 158.948 42.1445 158.948 42.1445C158.948 42.1445 158.451 42.7498 157.306 42.7985C157.306 42.7985 157.948 42.951 158.68 42.6595C158.68 42.6595 158.828 42.5703 159.01 42.6505C159.191 42.7307 159.243 42.994 159.243 42.994C159.295 42.7525 159.241 42.5487 159.161 42.4056Z" fill="#F4F4F5"/>
<path d="M159.322 43.5764C159.318 43.5695 159.315 43.5568 159.306 43.5487C159.301 43.5418 159.292 43.5337 159.289 43.521C159.206 43.3881 159.108 43.3131 159.108 43.3131C159.108 43.3131 158.057 43.9721 156.466 43.4437C156.466 43.4437 157.901 44.0242 158.634 43.7292C158.634 43.7292 159.041 43.5477 159.176 43.8249C159.176 43.8249 159.103 43.9612 159.066 44.1658C159.005 44.4928 159.063 44.5112 159.063 44.5112C159.409 44.2257 159.444 43.7901 159.327 43.5776L159.322 43.5764Z" fill="#F4F4F5"/>
<path d="M158.403 40.8254C158.852 41.125 159.178 41.5105 158.745 42.3251L159.101 42.3997C159.013 42.2518 158.907 42.1711 158.907 42.1711C159.445 41.002 158.346 40.5725 158.194 40.429C158.041 40.2855 157.914 39.9944 157.914 39.9944C157.91 40.0112 157.9 40.0268 157.9 40.0503C157.9 40.0503 157.959 40.527 158.403 40.8254Z" fill="#F4F4F5"/>
<path d="M156.34 42.9152C157.068 42.7463 157.703 42.2839 157.703 42.2839C157.095 42.615 156.109 42.6645 156.109 42.6645C156.109 42.6645 155.873 42.8534 155.718 43.1125C155.873 43.0437 156.079 42.9737 156.346 42.9107L156.34 42.9152Z" fill="#F4F4F5"/>
<path d="M144.938 45.7913L146.964 55.2132L147.302 56.8597C147.767 58.773 148.866 60.4793 149.997 59.1695C152.82 55.9056 155.481 50.9209 155.481 50.9209L154.817 48.7785L149.916 54.9523L147.382 42.4072C147.255 41.7479 146.367 41.7437 146.133 42.3977L144.941 45.7801L144.938 45.7913Z" fill="#EFC7A6"/>
<path d="M155.891 45.49C155.891 45.49 155.2 45.661 155.046 46.3826C154.892 47.1042 154.895 49.0274 154.895 49.0274L155.557 51.1645L156.283 49.9725L158.096 49.0018C158.096 49.0018 158.614 48.7303 158.383 48.2204C158.726 48.0643 158.941 47.6009 158.743 47.3958C158.743 47.3958 158.916 47.2682 158.971 47.0637C159.05 46.788 159.151 46.4934 158.891 46.3338C159.299 45.7707 159.382 45.2269 159.334 45.1234C159.175 44.7804 158.688 44.7427 158.688 44.7427L158.445 45.3173C158.445 45.3173 157.198 46.7452 156.501 46.687C155.804 46.6289 155.897 45.4911 155.897 45.4911L155.891 45.49Z" fill="#EFC7A6"/>
<path d="M149.94 55.0016L147.398 42.4202C147.271 41.759 146.38 41.7547 146.145 42.4105L144.949 45.8026L146.981 55.2518L147.32 56.9031C147.786 58.8219 148.889 60.5332 150.024 59.2197C152.856 55.9467 155.526 50.9479 155.526 50.9479L156.258 49.7498L158.083 48.7746C158.083 48.7746 158.604 48.5019 158.372 47.9892L155.949 49.2269L149.987 58.2367C149.987 58.2367 150.337 56.9706 149.941 54.9961L149.94 55.0016Z" fill="#E5B794"/>
<path d="M133.162 44.3129L126.939 52.0768L130.503 61.4325C130.266 62.2491 129.478 63.4161 129.478 63.4161L123.961 52.8907C123.666 52.3115 123.741 51.5887 124.156 51.0534L132.431 40.3462C132.855 39.8009 133.687 40.1261 133.601 40.8056L133.162 44.3129Z" fill="#EFC7A6"/>
<path d="M125.969 53.3041C125.674 52.7249 125.749 52.0023 126.164 51.467L133.45 42.0419L133.605 40.8068C133.692 40.1273 132.861 39.7966 132.436 40.3474L124.161 51.0543C123.751 51.5907 123.676 52.3134 123.966 52.8915L129.483 63.4164C129.483 63.4164 130.086 62.5249 130.397 61.7526L125.973 53.3108L125.969 53.3041Z" fill="#E5B794"/>
<path d="M137.623 30.3764C137.623 30.3764 135.875 32.8183 136.177 34.3781C136.48 35.938 137.726 37.3439 141.111 38.053C144.468 38.7564 146.508 36.4592 146.896 36.0694L146.054 36.2269L147.188 35.5761L146.418 35.4149C146.418 35.4149 147.624 34.8686 147.561 34.0207C147.505 33.1683 147.437 31.9198 147.437 31.9198L137.616 30.3809L137.623 30.3764Z" fill="#FF7B3D"/>
<path d="M138.248 30.0383C138.248 30.0383 136.727 32.278 136.956 33.6884C137.185 35.0989 138.225 36.3578 141.093 36.9586C143.934 37.5537 145.706 35.4379 146.04 35.0795L145.321 35.2322L146.294 34.6269L145.645 34.491C145.645 34.491 146.675 33.9809 146.639 33.2119C146.604 32.4428 146.565 31.3102 146.565 31.3102L138.243 30.0371L138.248 30.0383Z" fill="#FF5715"/>
<path d="M147.235 29.5956C147.235 29.5956 148.028 28.8629 149.138 29.5241C150.243 30.184 149.321 32.1819 148.438 33.0484C147.89 33.5916 146.368 33.7959 146.044 31.9483C145.739 30.0873 147.235 29.5956 147.235 29.5956Z" fill="#E5B794"/>
<path d="M138.293 27.9779C138.293 27.9779 137.92 27.0011 136.609 27.1556C135.304 27.3113 135.203 29.481 135.595 30.6144C135.836 31.3226 137.113 32.1127 138.269 30.5749C139.413 29.0169 138.293 27.9779 138.293 27.9779Z" fill="#E5B794"/>
<path d="M140.032 34.2407L138.883 39.258L141.876 39.3586L143.024 34.6505L140.032 34.2407Z" fill="#E5B794"/>
<path d="M149.266 26.453C150.786 25.1626 150.753 23.0306 149.986 23.5215C149.42 23.8845 148.454 22.9603 149.151 21.439C149.275 21.1655 149.329 20.9477 149.338 20.7734C149.353 20.5008 149.039 20.3235 148.821 20.4951C148.645 20.6344 148.348 20.6191 147.895 19.8728C147.057 18.4997 147.566 18.2071 146.45 17.8737C144.049 17.1305 144.63 20.3634 142.869 19.995C141.109 19.6266 143.26 17.9164 142.062 17.5248C140.858 17.1554 139.325 18.496 138.926 21.0014C138.52 23.5112 137.483 21.8852 136.894 21.9497C136.304 22.0143 135.908 23.7453 136.735 25.5094C137.146 26.6345 137.342 29.2586 137.342 29.2586C137.342 29.2586 137.43 34.5429 139.521 35.0216C140.391 35.2215 142.649 35.5766 143.244 35.4662C144.554 35.2179 145.592 33.5096 147.251 30.4988C148.283 28.6307 148.751 26.8853 149.267 26.4474L149.266 26.453Z" fill="#FF7B3D"/>
<path d="M137.001 26.8361C137.001 26.8361 136.268 30.5918 136.623 30.6308C136.978 30.6698 136.922 30.0512 136.938 29.3146C136.954 28.578 137.492 27.0477 137.001 26.8361Z" fill="black"/>
<path d="M148.438 29.0679C148.438 29.0679 147.39 32.7579 147.056 32.6539C146.722 32.55 147.05 32.011 147.371 31.3378C147.692 30.6645 147.903 29.0667 148.438 29.0679Z" fill="black"/>
<path d="M147.066 40.5767C146.41 40.263 143.37 38.4512 140.894 37.9329C138.417 37.4146 135.442 37.9088 134.636 37.9516C134.365 37.9655 134.107 38.0936 133.918 38.3068L127.829 45.2322C127.569 45.5247 127.485 45.9363 127.621 46.2879C127.798 46.7481 128.007 47.2152 128.238 47.5457C128.286 47.6085 128.333 47.6713 128.387 47.7296C128.811 48.2005 129.697 48.5975 130.341 48.8441C130.783 49.0129 131.295 48.8262 131.558 48.405L132.328 47.1672L131.834 54.0645C131.825 54.1451 131.811 54.2245 131.785 54.3072L130.074 59.774C130.026 59.9227 130.012 60.0726 130.037 60.2248C130.15 61.0127 130.668 63.5368 132.797 64.3116C134.476 64.9276 136.906 65.636 138.883 65.8734C139.651 65.9636 140.408 65.9575 140.963 65.9208C141.47 65.8918 141.893 65.4688 141.935 64.9487L142.672 56.4151C142.68 56.3346 142.694 56.2552 142.718 56.1781L144.812 49.7802L144.929 51.2035C144.969 51.6881 145.344 52.0604 145.821 52.0839C146.523 52.1191 147.503 52.1125 148.106 51.8566C148.778 51.5741 149.684 50.6823 150.222 50.113C150.499 49.8183 150.591 49.3967 150.455 49.0272L147.534 41.1037C147.45 40.8685 147.28 40.6802 147.06 40.5812L147.066 40.5767Z" fill="#6546C3"/>
<path d="M142.501 29.1891C150.485 30.7812 157.338 30.3613 157.808 28.2512C158.278 26.1411 152.186 23.1399 144.202 21.5478C136.217 19.9556 129.364 20.3756 128.894 22.4856C128.425 24.5957 134.516 27.597 142.501 29.1891Z" fill="#F4CD8B"/>
<g opacity="0.11">
<path d="M131.47 22.9763C131.887 21.1217 138.53 20.8629 146.299 22.3955C148.872 22.9048 151.246 23.5447 153.255 24.2429C150.874 23.1959 147.718 22.2262 144.187 21.5279C136.215 19.9526 129.37 20.3782 128.897 22.4669C128.422 24.5615 134.499 27.5337 142.472 29.1031C145.998 29.8003 149.307 30.1015 151.939 30.0455C149.8 29.9221 147.353 29.6113 144.779 29.1078C137.004 27.5741 131.046 24.8297 131.47 22.9763Z" fill="#AF4327"/>
</g>
<path d="M137.438 24.4655C137.438 24.4655 139.098 16.9845 141.381 17.0234C143.665 17.0624 147.825 17.7543 148.807 18.576C149.795 19.3989 149.411 25.4756 149.063 26.8962C148.715 28.3168 136.904 26.4576 137.438 24.4655Z" fill="#F4CD8B"/>
<path d="M149.278 26.3159C149.371 25.6524 149.457 24.6983 149.503 23.6682C143.44 23.592 139.755 22.3449 138.158 21.65C137.817 22.7287 137.585 23.6889 137.477 24.1461C142.235 26.1556 146.712 26.3948 149.279 26.31L149.278 26.3159Z" fill="white"/>
<path opacity="0.11" d="M137.438 24.4653C137.438 24.4653 139.098 16.9844 141.381 17.0233C143.665 17.0623 147.825 17.7542 148.807 18.576C149.273 18.9636 142.673 17.0978 141.258 22.3605C139.907 27.3876 149.166 26.3131 149.166 26.3131C149.131 26.5488 149.094 26.7483 149.058 26.8949C148.71 28.3155 136.899 26.4563 137.432 24.4642L137.438 24.4653Z" fill="#AF4327"/>
<path d="M173.64 14.7255L130.76 5.41647C129.677 5.18137 128.592 5.87768 128.331 6.97447L115.717 60.0632C115.456 61.16 116.12 62.2363 117.203 62.4714L160.083 71.7804C161.165 72.0155 162.251 71.3192 162.512 70.2224L175.126 17.1336C175.387 16.0369 174.722 14.9606 173.64 14.7255ZM162.305 59.3778L120.804 50.368L130.791 8.33574L172.292 17.3455L162.305 59.3778Z" fill="white"/>
</g>
<g filter="url(#filter1_d_429_40079)">
<mask id="mask2_429_40079" style="mask-type:luminance" maskUnits="userSpaceOnUse" x="13" y="20" width="117" height="113">
<path d="M129.29 20.3362H13.0927V132.353H129.29V20.3362Z" fill="white"/>
</mask>
<g mask="url(#mask2_429_40079)">
<mask id="mask3_429_40079" style="mask-type:luminance" maskUnits="userSpaceOnUse" x="13" y="20" width="117" height="113">
<path d="M129.29 20.3362H13.0927V132.353H129.29V20.3362Z" fill="white"/>
</mask>
<g mask="url(#mask3_429_40079)">
<path d="M129.236 111.819L113.423 24.0653C113.101 22.2732 111.369 21.0784 109.564 21.3982L15.8336 38.0524C14.0226 38.3722 12.8193 40.0919 13.1414 41.884L28.9545 129.638C29.2766 131.43 31.0086 132.625 32.8135 132.305L126.537 115.651C128.348 115.331 129.552 113.612 129.23 111.819" fill="#8061DA"/>
<path d="M125.304 110.069L110.262 26.6117C110.086 25.6281 109.138 24.9765 108.148 25.1514L18.4711 41.0815C17.4805 41.2565 16.8242 42.1978 17.0004 43.1753L32.0417 126.633C32.218 127.617 33.166 128.268 34.1566 128.093L123.839 112.157C124.83 111.982 125.486 111.041 125.31 110.063" fill="white"/>
<path d="M102.842 31.0226C103.693 30.8718 104.264 30.0753 104.112 29.2486C103.96 28.4219 103.152 27.8728 102.301 28.0237C101.45 28.1745 100.879 28.971 101.031 29.7977C101.183 30.6244 101.991 31.1735 102.842 31.0226Z" fill="#394A66"/>
<path d="M91.7632 32.9897C92.614 32.8389 93.1853 32.0424 93.0334 31.2157C92.8875 30.389 92.0732 29.8399 91.2223 29.9908C90.3715 30.1416 89.8002 30.9381 89.9461 31.7648C90.098 32.5915 90.9063 33.1406 91.7571 32.9897" fill="#394A66"/>
<path d="M80.6783 34.9629C81.5291 34.812 82.1003 34.0155 81.9484 33.1888C81.7965 32.3622 80.9882 31.8131 80.1374 31.9639C79.2866 32.1148 78.7153 32.9113 78.8672 33.7379C79.0131 34.5646 79.8274 35.1137 80.6783 34.9629Z" fill="#394A66"/>
<path d="M69.5933 36.93C70.4441 36.7792 71.0153 35.9827 70.8634 35.156C70.7115 34.3293 69.9032 33.7802 69.0524 33.9311C68.2016 34.0819 67.6303 34.8784 67.7822 35.7051C67.9342 36.5318 68.7424 37.0809 69.5933 36.93Z" fill="#394A66"/>
<path d="M58.5144 38.9032C59.3652 38.7523 59.9365 37.9558 59.7845 37.1291C59.6326 36.3025 58.8243 35.7534 57.9735 35.9042C57.1227 36.0551 56.5514 36.8516 56.7033 37.6782C56.8553 38.5049 57.6636 39.054 58.5144 38.9032Z" fill="#394A66"/>
<path d="M47.4294 40.8703C48.2802 40.7194 48.8515 39.9229 48.6996 39.0962C48.5476 38.2696 47.7394 37.7205 46.8885 37.8713C46.0377 38.0222 45.4664 38.8187 45.6184 39.6453C45.7703 40.472 46.5786 41.0211 47.4294 40.8703Z" fill="#394A66"/>
<path d="M36.3505 42.8434C37.2013 42.6926 37.7726 41.8961 37.6207 41.0694C37.4687 40.2427 36.6605 39.6936 35.8096 39.8445C34.9588 39.9953 34.3876 40.7918 34.5395 41.6185C34.6914 42.4452 35.4997 42.9943 36.3505 42.8434Z" fill="#394A66"/>
<path d="M25.2656 44.8105C26.1164 44.6597 26.6876 43.8632 26.5357 43.0365C26.3838 42.2098 25.5755 41.6607 24.7247 41.8116C23.8739 41.9624 23.3026 42.7589 23.4545 43.5856C23.6065 44.4123 24.4147 44.9614 25.2656 44.8105Z" fill="#394A66"/>
<path d="M101.426 29.321L100.034 21.5852C99.9311 21.006 100.326 20.4569 100.916 20.3483C101.511 20.2457 102.07 20.6258 102.18 21.1991L103.571 28.9348C103.675 29.508 103.28 30.0632 102.69 30.1718C102.101 30.2744 101.536 29.8942 101.426 29.321Z" fill="#9FB2CE"/>
<path d="M90.3472 31.2941L88.9555 23.5584C88.8522 22.9791 89.2472 22.43 89.8367 22.3214C90.4262 22.2188 90.9914 22.599 91.0947 23.1722L92.4864 30.9079C92.5897 31.4812 92.1947 32.0363 91.6052 32.1449C91.0096 32.2475 90.4505 31.8674 90.3472 31.2941Z" fill="#9FB2CE"/>
<path d="M79.2683 33.2613L77.8766 25.5256C77.7733 24.9523 78.1683 24.3972 78.7578 24.2886C79.3534 24.186 79.9125 24.5661 80.0219 25.1394L81.4136 32.8751C81.5169 33.4483 81.1219 34.0035 80.5324 34.1121C79.9429 34.2147 79.3777 33.8345 79.2683 33.2613Z" fill="#9FB2CE"/>
<path d="M68.1834 35.2344L66.7917 27.4987C66.6883 26.9255 67.0834 26.3703 67.6729 26.2617C68.2684 26.1591 68.8276 26.5393 68.9369 27.1125L70.3286 34.8482C70.432 35.4215 70.0369 35.9766 69.4474 36.0852C68.8579 36.1878 68.2928 35.8077 68.1894 35.2344" fill="#9FB2CE"/>
<path d="M57.0741 37.2015L55.7249 29.4598C55.6216 28.8805 56.0227 28.3314 56.6183 28.2348C57.2138 28.1322 57.7729 28.5184 57.8763 29.0977L59.2254 36.8395C59.3287 37.4187 58.9276 37.9679 58.3321 38.0644C57.7365 38.167 57.1774 37.7808 57.0741 37.2015Z" fill="#9FB2CE"/>
<path d="M46.0195 39.1686L44.6278 31.4329C44.5245 30.8597 44.9195 30.3045 45.509 30.1959C46.1046 30.0933 46.6637 30.4735 46.7731 31.0467L48.1648 38.7825C48.2681 39.3557 47.873 39.9108 47.2836 40.0194C46.6941 40.122 46.1289 39.7419 46.0256 39.1686" fill="#9FB2CE"/>
<path d="M34.9345 41.1418L33.5428 33.4061C33.4395 32.8328 33.8345 32.2777 34.424 32.1691C35.0196 32.0665 35.5787 32.4466 35.6881 33.0199L37.0798 40.7556C37.1831 41.3288 36.7881 41.884 36.1986 41.9926C35.6091 42.0952 35.0439 41.715 34.9406 41.1418" fill="#9FB2CE"/>
<path d="M23.8556 43.1089L22.4639 35.3732C22.3606 34.8 22.7556 34.2448 23.3451 34.1362C23.9407 34.0336 24.4998 34.4138 24.6092 34.987L26.0009 42.7228C26.1042 43.302 25.7092 43.8511 25.1197 43.9598C24.5241 44.0623 23.965 43.6822 23.8556 43.1089Z" fill="#9FB2CE"/>
<path d="M100.934 37.3644L29.5257 50.0421C28.6628 50.193 28.0854 51.0136 28.2434 51.8704L28.6628 54.2117C28.8147 55.0685 29.6412 55.6357 30.5042 55.4849L101.918 42.8072C102.781 42.6564 103.359 41.8357 103.201 40.9789L102.781 38.6376C102.623 37.7808 101.803 37.2136 100.94 37.3644" fill="#D9E2F2"/>
<path d="M103.031 45.4682L96.1267 46.6932C95.6041 46.7837 95.2516 47.2845 95.3488 47.8034L95.677 49.6197C95.7682 50.1386 96.2726 50.4826 96.7952 50.3921L103.699 49.1672C104.222 49.0766 104.568 48.5758 104.477 48.0569L104.149 46.2406C104.058 45.7217 103.553 45.3777 103.031 45.4682Z" fill="#FF7040"/>
<path d="M92.0914 47.4112L85.1876 48.6362C84.6649 48.7267 84.3185 49.2275 84.4097 49.7464L84.7379 51.5627C84.829 52.0816 85.3334 52.4256 85.8561 52.3351L92.7599 51.1102C93.2825 51.0196 93.635 50.5188 93.5378 49.9999L93.2096 48.1836C93.1184 47.6647 92.614 47.3207 92.0914 47.4112Z" fill="#FF7040"/>
<path d="M81.1158 49.3603L74.212 50.5852C73.6894 50.6757 73.343 51.1765 73.4341 51.6955L73.7623 53.5117C73.8534 54.0307 74.3579 54.3746 74.8805 54.2841L81.7843 53.0592C82.3069 52.9687 82.6533 52.4678 82.5622 51.9489L82.234 50.1326C82.1429 49.6137 81.6384 49.2698 81.1158 49.3603Z" fill="#FF7040"/>
<path d="M70.1402 51.3093L63.2364 52.5342C62.7138 52.6247 62.3674 53.1255 62.4585 53.6445L62.7867 55.4607C62.8779 55.9797 63.3823 56.3236 63.9049 56.2331L70.8087 55.0082C71.3314 54.9176 71.6778 54.4168 71.5866 53.8979L71.2584 52.0816C71.1673 51.5627 70.6629 51.2187 70.1402 51.3093Z" fill="#FF7040"/>
<path d="M59.1464 53.2583L52.2426 54.4832C51.72 54.5737 51.3736 55.0746 51.4647 55.5935L51.7929 57.4098C51.8841 57.9287 52.3885 58.2726 52.9111 58.1821L59.8149 56.9572C60.3376 56.8667 60.684 56.3659 60.5928 55.8469L60.2646 54.0307C60.1735 53.5117 59.6691 53.1678 59.1464 53.2583Z" fill="#FF7040"/>
<path d="M48.1647 55.2073L41.261 56.4322C40.7383 56.5228 40.3919 57.0236 40.4831 57.5425L40.8112 59.3588C40.9024 59.8777 41.4068 60.2217 41.9295 60.1312L48.8333 58.9062C49.3559 58.8157 49.7023 58.3149 49.6111 57.796L49.283 55.9797C49.1918 55.4608 48.6874 55.1168 48.1647 55.2073Z" fill="#FF7040"/>
<path d="M37.2925 57.1382L30.3887 58.3632C29.8661 58.4537 29.5196 58.9545 29.6108 59.4734L29.939 61.2897C30.0301 61.8086 30.5346 62.1526 31.0572 62.0621L37.961 60.8371C38.4836 60.7466 38.8301 60.2458 38.7389 59.7269L38.4107 57.9106C38.3196 57.3917 37.8151 57.0477 37.2925 57.1382Z" fill="#FF7040"/>
<path d="M102.958 52.1601L98.5272 52.9445C97.3179 53.1618 96.5157 54.3022 96.7344 55.503L97.5245 59.8958C97.7372 61.0906 98.8919 61.8871 100.101 61.6759L104.532 60.8915C105.741 60.6742 106.543 59.5338 106.324 58.333L105.534 53.9402C105.316 52.7454 104.167 51.9489 102.958 52.1601Z" fill="#B3C3DD"/>
<path d="M92.0671 54.091L87.6367 54.8754C86.4274 55.0866 85.6252 56.2331 85.8439 57.4279L86.634 61.8207C86.8528 63.0154 88.0014 63.8119 89.2108 63.6007L93.6411 62.8163C94.8505 62.5991 95.6527 61.4586 95.4339 60.2579L94.6439 55.865C94.4251 54.6703 93.2765 53.8738 92.0671 54.085" fill="#B3C3DD"/>
<path d="M81.1523 56.034L76.7219 56.8184C75.5126 57.0296 74.7104 58.1761 74.9291 59.3708L75.7192 63.7637C75.9319 64.9584 77.0866 65.7549 78.296 65.5437L82.7263 64.7593C83.9357 64.5421 84.7379 63.4016 84.5191 62.2008L83.7291 57.808C83.5103 56.6133 82.3617 55.8168 81.1523 56.028" fill="#D9E2F2"/>
<path d="M70.2253 57.9709L65.795 58.7554C64.5856 58.9666 63.7834 60.113 64.0022 61.3078L64.7922 65.7006C65.0049 66.8954 66.1596 67.6919 67.369 67.4807L71.7993 66.6963C73.0087 66.479 73.8109 65.3386 73.5921 64.1378L72.8021 59.745C72.5894 58.5502 71.4347 57.7537 70.2253 57.9649" fill="#D9E2F2"/>
<path d="M104.914 63.0516L100.484 63.8361C99.2748 64.0473 98.4726 65.1937 98.6914 66.3885L99.4814 70.7813C99.7002 71.9761 100.849 72.7786 102.058 72.5614L106.488 71.777C107.698 71.5597 108.5 70.4193 108.281 69.2245L107.491 64.8317C107.272 63.6369 106.124 62.8404 104.914 63.0516Z" fill="#B3C3DD"/>
<path d="M93.9814 64.9947L89.5511 65.7791C88.3417 65.9903 87.5395 67.1368 87.7583 68.3315L88.5484 72.7244C88.7671 73.9191 89.9157 74.7156 91.1251 74.5044L95.5555 73.72C96.7648 73.5028 97.567 72.3623 97.3483 71.1615L96.5582 66.7687C96.3455 65.574 95.1908 64.7775 93.9814 64.9886" fill="#B3C3DD"/>
<path d="M83.0059 66.9437L78.5755 67.7281C77.3661 67.9393 76.5639 69.0858 76.7827 70.2805L77.5728 74.6733C77.7915 75.8681 78.9402 76.6646 80.1495 76.4534L84.5799 75.669C85.7893 75.4517 86.5915 74.3113 86.3727 73.1105L85.5826 68.7177C85.3638 67.5229 84.2152 66.7264 83.0059 66.9376" fill="#D9E2F2"/>
<path d="M72.0303 68.8927L67.5999 69.6771C66.3906 69.8943 65.5884 71.0348 65.8071 72.2295L66.5972 76.6224C66.8099 77.8232 67.9646 78.6197 69.174 78.4024L73.6043 77.618C74.8137 77.4068 75.6159 76.2603 75.3971 75.0656L74.607 70.6727C74.3883 69.478 73.2397 68.6755 72.0303 68.8927Z" fill="#D9E2F2"/>
<path d="M61.0304 70.8417L56.6 71.6261C55.3906 71.8433 54.5884 72.9838 54.8072 74.1846L55.5973 78.5774C55.81 79.7722 56.9647 80.5747 58.174 80.3575L62.6044 79.573C63.8138 79.3558 64.616 78.2154 64.3972 77.0206L63.6071 72.6278C63.3944 71.433 62.2397 70.6365 61.0304 70.8477" fill="#D9E2F2"/>
<path d="M50.0548 72.7908L45.6245 73.5752C44.4151 73.7924 43.6129 74.9329 43.8317 76.1276L44.6217 80.5204C44.8344 81.7212 45.9891 82.5177 47.1985 82.3005L51.6288 81.5161C52.8382 81.3049 53.6404 80.1584 53.4216 78.9636L52.6316 74.5708C52.4189 73.3761 51.2642 72.5735 50.0548 72.7908Z" fill="#D9E2F2"/>
<path d="M39.1765 74.7216L34.7461 75.5061C33.5367 75.7233 32.7345 76.8637 32.9533 78.0645L33.7434 82.4574C33.9561 83.6521 35.1108 84.4486 36.3201 84.2374L40.7505 83.453C41.9599 83.2358 42.7621 82.0953 42.5433 80.9006L41.7532 76.5077C41.5405 75.313 40.3858 74.5165 39.1765 74.7277" fill="#D9E2F2"/>
<path d="M106.877 73.9433L102.447 74.7277C101.238 74.9449 100.436 76.0854 100.654 77.2801L101.444 81.673C101.663 82.8677 102.812 83.6642 104.021 83.453L108.451 82.6686C109.661 82.4514 110.463 81.3109 110.244 80.1101L109.454 75.7173C109.235 74.5225 108.087 73.72 106.877 73.9372" fill="#B3C3DD"/>
<path d="M95.9383 75.8862L91.508 76.6707C90.2986 76.8879 89.4964 78.0283 89.7152 79.2291L90.5052 83.622C90.724 84.8167 91.8726 85.6132 93.082 85.402L97.5123 84.6176C98.7217 84.4004 99.5239 83.2599 99.3051 82.0591L98.5151 77.6663C98.3024 76.4715 97.1477 75.675 95.9383 75.8862Z" fill="#B3C3DD"/>
<path d="M84.9627 77.8353L80.5324 78.6197C79.323 78.8369 78.5208 79.9774 78.7396 81.1782L79.5296 85.571C79.7484 86.7657 80.897 87.5622 82.1064 87.3511L86.5368 86.5666C87.7461 86.3494 88.5483 85.2089 88.3296 84.0082L87.5395 79.6153C87.3207 78.4206 86.1721 77.6241 84.9627 77.8353Z" fill="#D9E2F2"/>
<path d="M73.9872 79.7783L69.5568 80.5627C68.3474 80.7799 67.5452 81.9204 67.764 83.1151L68.5541 87.5079C68.7668 88.7027 69.9215 89.4992 71.1308 89.288L75.5612 88.5036C76.7706 88.2863 77.5728 87.1459 77.354 85.9451L76.5639 81.5523C76.3451 80.3575 75.1965 79.561 73.9872 79.7722" fill="#D9E2F2"/>
<path d="M62.9933 81.7333L58.563 82.5177C57.3536 82.7349 56.5514 83.8754 56.7702 85.0701L57.5603 89.463C57.773 90.6577 58.9276 91.4602 60.137 91.243L64.5674 90.4586C65.7767 90.2414 66.5789 89.1009 66.3602 87.9062L65.5701 83.5133C65.3574 82.3186 64.2027 81.516 62.9933 81.7333Z" fill="#D9E2F2"/>
<path d="M52.0117 83.6823L47.5813 84.4667C46.372 84.6839 45.5698 85.8244 45.7885 87.0191L46.5786 91.412C46.7913 92.6067 47.946 93.4032 49.1554 93.192L53.5857 92.4076C54.7951 92.1904 55.5973 91.0499 55.3785 89.8491L54.5885 85.4563C54.3758 84.2616 53.2211 83.459 52.0117 83.6763" fill="#D9E2F2"/>
<path d="M41.1394 85.6132L36.7091 86.3977C35.4997 86.6149 34.6975 87.7553 34.9163 88.9561L35.7063 93.349C35.919 94.5437 37.0737 95.3462 38.2831 95.129L42.7134 94.3446C43.9228 94.1274 44.725 92.9869 44.5062 91.7922L43.7162 87.3993C43.5035 86.2046 42.3488 85.4081 41.1394 85.6193" fill="#D9E2F2"/>
<path d="M108.84 84.8348L104.41 85.6193C103.201 85.8365 102.398 86.9769 102.617 88.1717L103.407 92.5645C103.62 93.7593 104.775 94.5558 105.984 94.3446L110.414 93.5602C111.624 93.3429 112.426 92.2025 112.207 91.0017L111.417 86.6089C111.198 85.4141 110.05 84.6176 108.84 84.8288" fill="#B3C3DD"/>
<path d="M97.9013 86.7778L93.4709 87.5622C92.2616 87.7794 91.4594 88.9199 91.6781 90.1207L92.4682 94.5135C92.687 95.7083 93.8356 96.5048 95.045 96.2936L99.4753 95.5091C100.685 95.2919 101.487 94.1515 101.268 92.9567L100.478 88.5639C100.265 87.3691 99.1107 86.5726 97.9013 86.7838" fill="#B3C3DD"/>
<path d="M86.9075 88.7268L82.4771 89.5112C81.2677 89.7285 80.4655 90.8689 80.6843 92.0637L81.4744 96.4565C81.6932 97.6512 82.8418 98.4477 84.0511 98.2366L88.4815 97.4521C89.6909 97.2349 90.4931 96.0944 90.2743 94.8937L89.4842 90.5008C89.2715 89.3061 88.1169 88.5096 86.9075 88.7208" fill="#D9E2F2"/>
<path d="M75.9319 90.6758L71.5015 91.4603C70.2922 91.6775 69.49 92.818 69.7087 94.0187L70.4988 98.4116C70.7176 99.6063 71.8662 100.409 73.0756 100.192L77.5059 99.4072C78.7153 99.19 79.5175 98.0495 79.2987 96.8548L78.5087 92.4619C78.2959 91.2672 77.1413 90.4707 75.9319 90.6819" fill="#D9E2F2"/>
<path d="M64.9502 92.6249L60.5199 93.4093C59.3105 93.6265 58.5083 94.767 58.7271 95.9617L59.5171 100.355C59.7298 101.549 60.8845 102.346 62.0939 102.135L66.5242 101.35C67.7336 101.133 68.5358 99.9925 68.317 98.7917L67.527 94.3989C67.3143 93.2041 66.1596 92.4076 64.9502 92.6188" fill="#D9E2F2"/>
<path d="M53.9686 94.5739L49.5382 95.3583C48.3288 95.5755 47.5266 96.716 47.7454 97.9168L48.5355 102.31C48.7482 103.504 49.9029 104.301 51.1122 104.09L55.5426 103.305C56.752 103.088 57.5542 101.948 57.3354 100.753L56.5453 96.36C56.3326 95.1652 55.1779 94.3687 53.9686 94.5799" fill="#D9E2F2"/>
<path d="M43.1024 96.5048L38.672 97.2892C37.4627 97.5004 36.6605 98.6469 36.8792 99.8416L37.6693 104.234C37.882 105.429 39.0367 106.232 40.2461 106.015L44.6764 105.23C45.8858 105.013 46.688 103.872 46.4692 102.678L45.6792 98.2848C45.4665 97.084 44.3118 96.2875 43.1024 96.5048Z" fill="#D9E2F2"/>
<path d="M88.8704 99.6184L84.4401 100.403C83.2307 100.62 82.4285 101.761 82.6473 102.961L83.4373 107.354C83.65 108.549 84.8047 109.345 86.0141 109.134L90.4444 108.35C91.6538 108.133 92.456 106.992 92.2372 105.791L91.4472 101.398C91.2284 100.204 90.0798 99.4072 88.8704 99.6184Z" fill="#D9E2F2"/>
<path d="M77.8948 101.567L73.4645 102.352C72.2551 102.569 71.4529 103.709 71.6717 104.904L72.4617 109.297C72.6805 110.492 73.8291 111.288 75.0385 111.077L79.4689 110.293C80.6782 110.075 81.4804 108.935 81.2617 107.734L80.4716 103.341C80.2528 102.147 79.1042 101.35 77.8948 101.561" fill="#D9E2F2"/>
<path d="M66.9071 103.516L62.4768 104.301C61.2674 104.518 60.4652 105.659 60.684 106.859L61.474 111.252C61.6867 112.447 62.8414 113.243 64.0508 113.032L68.4811 112.248C69.6905 112.031 70.4927 110.89 70.2739 109.689L69.4839 105.296C69.2712 104.102 68.1165 103.305 66.9071 103.516Z" fill="#D9E2F2"/>
<path d="M55.9315 105.465L51.5012 106.25C50.2918 106.467 49.4896 107.608 49.7084 108.808L50.4984 113.201C50.7111 114.396 51.8658 115.198 53.0752 114.981L57.5055 114.197C58.7149 113.98 59.5171 112.839 59.2983 111.644L58.5083 107.251C58.2956 106.057 57.1409 105.26 55.9315 105.471" fill="#D9E2F2"/>
<path d="M45.0593 107.39L40.6289 108.175C39.4195 108.392 38.6173 109.532 38.8361 110.727L39.6262 115.12C39.8389 116.315 40.9936 117.111 42.2029 116.9L46.6333 116.116C47.8427 115.898 48.6449 114.758 48.4261 113.557L47.636 109.164C47.4233 107.97 46.2686 107.173 45.0593 107.384" fill="#D9E2F2"/>
<path d="M67.9889 64.5783L67.8613 63.8602L68.5784 63.7335L68.2684 62.0198L67.6364 62.1345L67.5392 61.5793C67.7215 61.5069 67.8734 61.4345 68.001 61.3621C68.1287 61.2836 68.2441 61.1992 68.3596 61.1026L69.022 60.988L69.49 63.5766L70.0855 63.468L70.2132 64.1861L67.9949 64.5783H67.9889Z" fill="white"/>
<path d="M78.8368 62.6836L78.7457 62.1707C78.9645 61.8871 79.165 61.6216 79.3413 61.3802C79.5175 61.1388 79.6512 60.9156 79.7424 60.7225C79.8335 60.5234 79.87 60.3544 79.8396 60.2036C79.8092 60.0527 79.7545 59.9501 79.6634 59.8898C79.5722 59.8355 79.4689 59.8113 79.3473 59.8355C79.2379 59.8536 79.1468 59.9018 79.0678 59.9863C78.9888 60.0648 78.9219 60.1553 78.8551 60.2458L78.2838 59.8536C78.4297 59.6363 78.5755 59.4734 78.7335 59.3588C78.8915 59.2441 79.0921 59.1597 79.3413 59.1174C79.5661 59.0752 79.7728 59.0872 79.9611 59.1476C80.1495 59.2019 80.3076 59.3105 80.4352 59.4553C80.5628 59.6001 80.6479 59.7872 80.6843 60.0044C80.7147 60.1794 80.7026 60.3725 80.6357 60.5716C80.5689 60.7708 80.4838 60.9759 80.3683 61.175C80.2529 61.3742 80.1313 61.5673 80.0098 61.7483C80.0948 61.7242 80.186 61.694 80.2893 61.6698C80.3926 61.6397 80.4838 61.6216 80.5567 61.6095L81.1158 61.513L81.2495 62.2612L78.8308 62.6896L78.8368 62.6836Z" fill="white"/>
<path d="M90.9002 60.5777C90.6268 60.626 90.3897 60.626 90.177 60.5777C89.9643 60.5294 89.782 60.4449 89.6301 60.3182L89.94 59.6786C90.0616 59.751 90.1831 59.8113 90.3107 59.8476C90.4384 59.8838 90.5599 59.8958 90.6815 59.8717C90.8273 59.8475 90.9428 59.7993 91.0218 59.7329C91.1008 59.6665 91.1312 59.576 91.1129 59.4734C91.0947 59.389 91.0643 59.3226 91.0096 59.2743C90.961 59.226 90.8698 59.1898 90.7422 59.1778C90.6207 59.1657 90.4384 59.1778 90.2074 59.226L90.092 58.5985C90.3715 58.5502 90.5599 58.4778 90.645 58.3933C90.7362 58.3089 90.7665 58.2063 90.7483 58.0916C90.7118 57.8925 90.5781 57.808 90.3472 57.8503C90.2378 57.8684 90.1406 57.9106 90.0616 57.9709C89.9826 58.0313 89.8914 58.1158 89.8063 58.2244L89.2594 57.7658C89.3991 57.5968 89.5511 57.4641 89.7152 57.3555C89.8793 57.2468 90.0616 57.1744 90.2682 57.1382C90.6328 57.0719 90.9428 57.102 91.1919 57.2227C91.435 57.3434 91.593 57.5546 91.6477 57.8563C91.7024 58.1761 91.5687 58.4476 91.2406 58.6649V58.683C91.4411 58.7071 91.6113 58.7674 91.7571 58.8821C91.903 58.9907 91.9941 59.1536 92.0306 59.3648C92.0671 59.576 92.0428 59.757 91.9455 59.926C91.8544 60.0949 91.7146 60.2277 91.5323 60.3363C91.35 60.4449 91.1433 60.5234 90.9124 60.5656H90.9063L90.9002 60.5777Z" fill="white"/>
<path d="M101.937 58.5562L101.803 57.814L100.381 58.0675L100.265 57.4399L101.049 55.2978L102.174 55.0987L102.514 56.9874L102.872 56.921L102.994 57.5968L102.635 57.6632L102.769 58.4054L101.931 58.5562H101.937ZM101.11 57.2348L101.681 57.1322L101.615 56.7581C101.596 56.6495 101.572 56.5167 101.554 56.3659C101.535 56.215 101.517 56.0823 101.499 55.9736H101.481C101.456 56.0823 101.432 56.1848 101.402 56.2934C101.371 56.4021 101.341 56.5107 101.317 56.6193L101.116 57.2408L101.11 57.2348Z" fill="white"/>
<path d="M38.0279 81.1661C37.7544 81.2144 37.5113 81.2144 37.2986 81.1601C37.0859 81.1058 36.8975 81.0213 36.7334 80.9127L37.0312 80.2791C37.1527 80.3515 37.2682 80.3998 37.3958 80.442C37.5234 80.4842 37.6389 80.4903 37.7605 80.4722C37.9185 80.442 38.0339 80.3877 38.1069 80.3032C38.1798 80.2187 38.2041 80.1041 38.1798 79.9593C38.1555 79.8144 38.0947 79.7179 37.9975 79.6636C37.9002 79.6093 37.7848 79.5912 37.6511 79.6153C37.5599 79.6334 37.4931 79.6576 37.4384 79.6877C37.3837 79.7179 37.3107 79.7782 37.2196 79.8567L36.782 79.6757L36.5632 77.962L38.5384 77.612L38.6721 78.3602L37.4748 78.5714L37.5174 79.0602C37.5721 79.03 37.6268 79.0059 37.6693 78.9878C37.7179 78.9757 37.7665 78.9576 37.8212 78.9516C38.0157 78.9154 38.198 78.9214 38.3743 78.9697C38.5505 79.0119 38.7024 79.1024 38.8301 79.2352C38.9516 79.3679 39.0367 79.555 39.0792 79.7843C39.1218 80.0317 39.1035 80.2489 39.0185 80.448C38.9334 80.6411 38.8058 80.804 38.6295 80.9308C38.4533 81.0575 38.2527 81.1359 38.0279 81.1782V81.1661Z" fill="white"/>
<path d="M49.0034 79.2472C48.8393 79.2774 48.6753 79.2774 48.5173 79.2412C48.3532 79.205 48.1952 79.1386 48.0493 79.024C47.9034 78.9153 47.7697 78.7645 47.6604 78.5593C47.5449 78.3662 47.4598 78.1128 47.4051 77.8171C47.3322 77.4189 47.3383 77.0749 47.4173 76.7913C47.5023 76.5077 47.636 76.2784 47.8244 76.1155C48.0128 75.9526 48.2255 75.844 48.4626 75.8017C48.6996 75.7595 48.9183 75.7655 49.1067 75.8138C49.2951 75.8681 49.4532 75.9405 49.5808 76.031L49.204 76.6465C49.1432 76.5982 49.0581 76.556 48.9548 76.5258C48.8515 76.4957 48.7543 76.4896 48.657 76.5077C48.4929 76.5379 48.3714 76.6224 48.2742 76.7793C48.183 76.9301 48.1587 77.1775 48.2012 77.5094C48.262 77.3887 48.3471 77.2861 48.4626 77.2137C48.578 77.1353 48.6813 77.087 48.7664 77.0749C48.9548 77.0387 49.1311 77.0448 49.3012 77.093C49.4653 77.1413 49.6051 77.2318 49.7266 77.3646C49.8421 77.5034 49.9211 77.6904 49.9636 77.9197C50.0062 78.1551 49.988 78.3662 49.915 78.5593C49.8421 78.7464 49.7206 78.8972 49.5625 79.0179C49.4045 79.1386 49.2222 79.2171 49.0095 79.2533L49.0034 79.2472ZM48.6996 77.7327C48.6206 77.7447 48.5476 77.787 48.4808 77.8413C48.4139 77.8956 48.3592 77.9801 48.3228 78.0887C48.3714 78.2395 48.4322 78.3481 48.4929 78.4266C48.5537 78.505 48.6206 78.5473 48.6874 78.5714C48.7543 78.5955 48.809 78.5955 48.8637 78.5895C48.9548 78.5714 49.0399 78.5231 49.0946 78.4447C49.1554 78.3662 49.1675 78.2395 49.1371 78.0645C49.1067 77.9016 49.052 77.8051 48.967 77.7689C48.8819 77.7327 48.7907 77.7206 48.6996 77.7327Z" fill="white"/>
<path d="M59.274 77.3646C59.2315 77.0146 59.2133 76.6948 59.2193 76.4052C59.2193 76.1155 59.2619 75.8319 59.3348 75.5544C59.4077 75.2768 59.5171 74.9751 59.6751 74.6553L58.247 74.9087L58.1133 74.1605L60.5017 73.7381L60.5989 74.2932C60.447 74.5467 60.3315 74.788 60.2525 75.0053C60.1735 75.2225 60.1249 75.4337 60.1006 75.6509C60.0762 75.8681 60.0762 76.0974 60.0945 76.3448C60.1127 76.5922 60.1431 76.8819 60.1856 77.2077L59.2801 77.3706L59.274 77.3646Z" fill="white"/>
<path d="M70.8938 75.3673C70.669 75.4095 70.4624 75.4035 70.2679 75.3673C70.0734 75.3251 69.9093 75.2406 69.7878 75.1259C69.6602 75.0052 69.5811 74.8604 69.5447 74.6794C69.5082 74.4863 69.5325 74.3174 69.6176 74.1786C69.6966 74.0398 69.8121 73.9131 69.9519 73.7984V73.7803C69.7999 73.7019 69.6723 73.6053 69.569 73.4967C69.4657 73.3881 69.3988 73.2433 69.3684 73.0743C69.332 72.8812 69.3502 72.7002 69.4171 72.5433C69.4839 72.3864 69.5994 72.2537 69.7513 72.1511C69.9032 72.0485 70.0916 71.9761 70.3104 71.9339C70.6204 71.8796 70.8878 71.9158 71.1065 72.0485C71.3253 72.1813 71.4651 72.3864 71.5137 72.664C71.538 72.8149 71.5259 72.9536 71.4651 73.0864C71.4043 73.2191 71.3192 73.3338 71.2159 73.4303V73.4484C71.3983 73.5088 71.5563 73.5933 71.69 73.7139C71.8237 73.8286 71.9087 73.9976 71.9513 74.2208C71.9817 74.4018 71.9634 74.5648 71.8844 74.7216C71.8054 74.8785 71.6839 75.0173 71.5198 75.1259C71.3496 75.2406 71.143 75.319 70.8999 75.3613M70.8088 74.7397C70.9121 74.7216 70.9911 74.6794 71.0519 74.613C71.1126 74.5467 71.1309 74.4561 71.1126 74.3294C71.0883 74.2027 71.0154 74.1243 70.8999 74.076C70.7784 74.0338 70.6082 73.9855 70.4016 73.9372C70.359 74.0036 70.3347 74.076 70.3165 74.1605C70.2983 74.2449 70.2983 74.3294 70.3165 74.4139C70.3408 74.5406 70.4016 74.6311 70.4988 74.6854C70.5961 74.7397 70.7054 74.7518 70.8209 74.7337L70.8088 74.7397ZM70.7298 73.2916C70.7662 73.2131 70.7905 73.1407 70.8027 73.0623C70.8148 72.9899 70.8148 72.9174 70.8027 72.845C70.7844 72.7304 70.7358 72.6459 70.669 72.5916C70.5961 72.5373 70.511 72.5192 70.4077 72.5373C70.3226 72.5494 70.2618 72.5916 70.2071 72.6519C70.1524 72.7123 70.1403 72.8028 70.1585 72.9174C70.1767 73.0261 70.2375 73.1045 70.3347 73.1588C70.432 73.2131 70.5657 73.2554 70.7358 73.2855L70.7298 73.2916Z" fill="white"/>
<path d="M81.7357 73.4424C81.4987 73.4847 81.286 73.4786 81.0976 73.4243C80.9092 73.37 80.7512 73.2976 80.6175 73.2131L80.9943 72.5977C81.055 72.6459 81.1401 72.6821 81.2434 72.7183C81.3468 72.7485 81.444 72.7545 81.5412 72.7425C81.7053 72.7123 81.8329 72.6218 81.9241 72.4709C82.0153 72.3201 82.0396 72.0727 81.9909 71.7408C81.9302 71.8615 81.8451 71.9641 81.7296 72.0425C81.6142 72.121 81.5169 72.1692 81.4258 72.1813C81.2374 72.2175 81.0611 72.2115 80.891 72.1632C80.7269 72.1149 80.5871 72.0304 80.4655 71.8917C80.3501 71.7529 80.2711 71.5658 80.2285 71.3365C80.186 71.1012 80.2042 70.89 80.2772 70.6969C80.3501 70.5098 80.4716 70.359 80.6296 70.2323C80.7876 70.1116 80.97 70.0332 81.1827 69.9969C81.3468 69.9668 81.5108 69.9728 81.6688 70.003C81.8329 70.0392 81.9909 70.1056 82.1368 70.2142C82.2827 70.3228 82.4164 70.4797 82.5318 70.6788C82.6473 70.8779 82.7324 71.1253 82.7871 71.421C82.86 71.8193 82.8539 72.1632 82.7688 72.4468C82.6838 72.7304 82.5501 72.9597 82.3617 73.1287C82.1733 73.2916 81.9606 73.3942 81.7235 73.4424H81.7357ZM81.055 71.1857C81.0854 71.3486 81.1401 71.4451 81.2252 71.4813C81.3103 71.5175 81.4014 71.5296 81.4926 71.5175C81.5777 71.5055 81.6506 71.4632 81.7175 71.4089C81.7843 71.3486 81.839 71.2641 81.8694 71.1615C81.8147 71.0107 81.76 70.896 81.6992 70.8236C81.6385 70.7512 81.5716 70.7029 81.5108 70.6848C81.444 70.6607 81.3893 70.6607 81.3285 70.6667C81.2374 70.6848 81.1584 70.7331 81.0976 70.8116C81.0368 70.89 81.0247 71.0167 81.055 71.1917" fill="white"/>
<path d="M90.2743 71.8615L90.1467 71.1434L90.8638 71.0167L90.5539 69.309L89.9218 69.4237L89.8246 68.8685C90.0069 68.7961 90.1588 68.7237 90.2865 68.6453C90.4141 68.5668 90.5296 68.4824 90.645 68.3858L91.3074 68.2651L91.7754 70.8538L92.371 70.7452L92.4986 71.4632L90.2804 71.8554L90.2743 71.8615Z" fill="white"/>
<path d="M94.1941 71.2279C93.8295 71.2942 93.5013 71.2037 93.2157 70.9503C92.9361 70.6968 92.7417 70.2865 92.6384 69.7193C92.535 69.1521 92.5715 68.7056 92.7538 68.3858C92.9301 68.0599 93.2035 67.8669 93.5743 67.8005C93.945 67.7341 94.2671 67.8246 94.5466 68.072C94.8262 68.3194 95.0207 68.7237 95.1179 69.2849C95.2212 69.846 95.1847 70.3046 95.0085 70.6365C94.8323 70.9684 94.5588 71.1675 94.1881 71.2339M94.0665 70.546C94.1395 70.5339 94.1941 70.4977 94.2488 70.4313C94.2975 70.371 94.3278 70.2564 94.3339 70.1055C94.34 69.9486 94.3218 69.7254 94.2671 69.4357C94.2124 69.1401 94.1577 68.9289 94.0969 68.7901C94.0361 68.6513 93.9693 68.5608 93.9024 68.5246C93.8356 68.4884 93.7687 68.4763 93.6958 68.4884C93.6229 68.5004 93.5682 68.5366 93.5135 68.5909C93.4649 68.6453 93.4345 68.7539 93.4223 68.9047C93.4102 69.0556 93.4345 69.2788 93.4892 69.5685C93.5439 69.8581 93.5986 70.0753 93.6593 70.2202C93.7201 70.365 93.787 70.4555 93.8538 70.4977C93.9207 70.54 93.9936 70.552 94.0604 70.54" fill="white"/>
<path d="M101.256 69.9124L101.128 69.1944L101.845 69.0677L101.535 67.354L100.903 67.4686L100.806 66.9135C100.989 66.8411 101.14 66.7687 101.268 66.6963C101.396 66.6178 101.511 66.5333 101.627 66.4368L102.289 66.3161L102.757 68.9047L103.353 68.7961L103.48 69.5142L101.262 69.9064L101.256 69.9124Z" fill="white"/>
<path d="M104.094 69.4116L103.966 68.6935L104.684 68.5668L104.374 66.8592L103.742 66.9738L103.644 66.4187C103.827 66.3463 103.979 66.2739 104.106 66.2014C104.234 66.123 104.349 66.0385 104.465 65.942L105.127 65.8213L105.595 68.4099L106.197 68.3013L106.324 69.0194L104.106 69.4116H104.094Z" fill="white"/>
<path d="M37.4627 92.5042L37.335 91.7861L38.0522 91.6594L37.7422 89.9457L37.1102 90.0604L37.0129 89.5052C37.1953 89.4328 37.3472 89.3604 37.4748 89.288C37.6024 89.2095 37.7179 89.1251 37.8334 89.0285L38.4958 88.9139L38.9637 91.5025L39.5593 91.3939L39.6869 92.112L37.4687 92.5042H37.4627Z" fill="white"/>
<path d="M40.1428 92.0335L40.0516 91.5206C40.2704 91.237 40.4709 90.9715 40.6472 90.7301C40.8234 90.4887 40.9571 90.2655 41.0483 90.0724C41.1394 89.8733 41.1698 89.7043 41.1455 89.5535C41.1151 89.4026 41.0604 89.3 40.9693 89.2397C40.8781 89.1854 40.7748 89.1612 40.6532 89.1854C40.5439 89.2035 40.4527 89.2518 40.3737 89.3362C40.2947 89.4147 40.2278 89.5052 40.161 89.5957L39.5897 89.2035C39.7356 88.9863 39.8814 88.8233 40.0394 88.7027C40.1975 88.588 40.398 88.5035 40.6472 88.4613C40.872 88.419 41.0787 88.4311 41.2671 88.4915C41.4555 88.5458 41.6135 88.6544 41.7411 88.7992C41.8687 88.944 41.9538 89.1311 41.9903 89.3483C42.0206 89.5233 42.0085 89.7164 41.9416 89.9155C41.8748 90.1146 41.7897 90.3198 41.6742 90.5189C41.5588 90.718 41.4372 90.9111 41.3157 91.0922C41.4008 91.062 41.4919 91.0378 41.5952 91.0137C41.6985 90.9835 41.7897 90.9654 41.8626 90.9534L42.4217 90.8568L42.5554 91.6051L40.1367 92.0335H40.1428Z" fill="white"/>
<path d="M48.341 90.5431L48.2134 89.825L48.9305 89.6983L48.6206 87.9906L47.9885 88.1053L47.8913 87.5501C48.0736 87.4777 48.2255 87.4053 48.3532 87.3329C48.4808 87.2545 48.5963 87.17 48.7117 87.0734L49.3742 86.9588L49.8421 89.5474L50.4377 89.4388L50.5653 90.1569L48.3471 90.5491L48.341 90.5431Z" fill="white"/>
<path d="M52.1393 89.9336C51.8719 89.9819 51.6288 89.9819 51.4161 89.9336C51.2034 89.8854 51.0211 89.8009 50.8692 89.6742L51.1791 89.0345C51.3006 89.107 51.4222 89.1673 51.5498 89.2035C51.6774 89.2397 51.799 89.2457 51.9205 89.2276C52.0664 89.2035 52.1818 89.1552 52.2608 89.0889C52.3399 89.0225 52.3702 88.932 52.352 88.8294C52.3338 88.7449 52.3034 88.6785 52.2548 88.6303C52.2062 88.582 52.115 88.5458 51.9874 88.5337C51.8658 88.5216 51.6835 88.5337 51.4526 88.582L51.3371 87.9544C51.6167 87.9062 51.8051 87.8338 51.8901 87.7493C51.9813 87.6648 52.0117 87.5622 51.9935 87.4476C51.957 87.2485 51.8233 87.164 51.5923 87.2062C51.483 87.2243 51.3857 87.2666 51.3067 87.3269C51.2277 87.3872 51.1366 87.4717 51.0515 87.5803L50.5045 87.1217C50.6443 86.9528 50.7962 86.82 50.9603 86.7114C51.1244 86.6028 51.3067 86.5304 51.5133 86.4942C51.878 86.4278 52.194 86.458 52.4371 86.5787C52.6802 86.6993 52.8382 86.9105 52.8929 87.2123C52.9537 87.5321 52.8139 87.8036 52.4857 88.0208V88.0389C52.6863 88.0631 52.8564 88.1294 53.0023 88.238C53.1481 88.3467 53.2332 88.5096 53.2758 88.7208C53.3122 88.932 53.2879 89.113 53.1907 89.2819C53.0934 89.4509 52.9597 89.5837 52.7774 89.6923C52.5951 89.8009 52.3885 89.8793 52.1575 89.9216H52.1515L52.1393 89.9336Z" fill="white"/>
<path d="M59.2558 88.6061L59.1282 87.888L59.8453 87.7613L59.5354 86.0537L58.9033 86.1683L58.8061 85.6132C58.9884 85.5408 59.1403 85.4684 59.268 85.396C59.3956 85.3175 59.5111 85.233 59.6265 85.1365L60.289 85.0219L60.7569 87.6105L61.3586 87.5019L61.4862 88.2199L59.268 88.6121L59.2558 88.6061Z" fill="white"/>
<path d="M63.2729 87.8941L63.1392 87.1519L61.7171 87.4053L61.6016 86.7778L62.3856 84.6356L63.5099 84.4365L63.8502 86.3252L64.2088 86.2588L64.3303 86.9346L63.9718 86.995L64.1055 87.7372L63.2607 87.888L63.2729 87.8941ZM62.4464 86.5726L63.0176 86.47L62.9508 86.0959C62.9326 85.9873 62.9082 85.8545 62.89 85.7037C62.8718 85.5528 62.8535 85.4201 62.8353 85.3115H62.8171C62.7928 85.4201 62.7685 85.5227 62.7381 85.6313C62.7077 85.7399 62.6773 85.8485 62.653 85.9571L62.4524 86.5726H62.4464Z" fill="white"/>
<path d="M70.3104 86.6088L70.1828 85.8908L70.8999 85.7641L70.59 84.0564L69.9579 84.165L69.8607 83.6099C70.043 83.5375 70.1949 83.4651 70.3226 83.3927C70.4502 83.3142 70.5657 83.2297 70.6811 83.1332L71.3435 83.0186L71.8115 85.6072L72.4071 85.4986L72.5347 86.2166L70.3165 86.6088H70.3104Z" fill="white"/>
<path d="M74.1452 85.9934C73.8717 86.0416 73.6286 86.0416 73.4159 85.9873C73.2032 85.933 73.0148 85.8485 72.8507 85.7399L73.1485 85.1063C73.27 85.1727 73.3855 85.227 73.5131 85.2693C73.6408 85.3115 73.7562 85.3175 73.8778 85.2994C74.0358 85.2693 74.1512 85.215 74.2242 85.1305C74.2971 85.046 74.3214 84.9314 74.2971 84.7865C74.2728 84.6417 74.212 84.5452 74.1148 84.4909C74.0175 84.4366 73.9021 84.4185 73.7684 84.4426C73.6833 84.4607 73.6104 84.4848 73.5557 84.515C73.501 84.5452 73.428 84.6055 73.3369 84.684L72.8993 84.5029L72.6805 82.7892L74.6557 82.4393L74.7894 83.1935L73.5921 83.4047L73.6408 83.8935C73.6954 83.8633 73.7501 83.8392 73.7927 83.8211C73.8413 83.809 73.8899 83.7909 73.9446 83.7849C74.1391 83.7487 74.3214 83.7547 74.4976 83.803C74.6739 83.8452 74.8258 83.9357 74.9534 84.0685C75.075 84.2012 75.1601 84.3883 75.2026 84.6176C75.2452 84.865 75.2269 85.0822 75.1418 85.2813C75.0568 85.4744 74.9291 85.6374 74.7529 85.7641C74.5767 85.8908 74.3761 85.9753 74.1512 86.0115L74.1452 85.9934Z" fill="white"/>
<path d="M81.2556 84.7021L81.128 83.984L81.8451 83.8573L81.5352 82.1496L80.9031 82.2643L80.8059 81.7091C80.9882 81.6367 81.1401 81.5643 81.2678 81.4919C81.3954 81.4135 81.5108 81.329 81.6263 81.2324L82.2887 81.1178L82.7567 83.7064L83.3523 83.5978L83.4799 84.3159L81.2617 84.7081L81.2556 84.7021Z" fill="white"/>
<path d="M85.2666 84.0503C85.1025 84.0805 84.9384 84.0805 84.7804 84.0443C84.6163 84.0081 84.4583 83.9417 84.3125 83.8331C84.1666 83.7245 84.0329 83.5676 83.9235 83.3685C83.8081 83.1694 83.723 82.922 83.6744 82.6263C83.6014 82.228 83.6075 81.8841 83.6865 81.6005C83.7655 81.3169 83.9053 81.0876 84.0937 80.9186C84.2821 80.7557 84.4948 80.6471 84.7318 80.6049C84.9688 80.5626 85.1876 80.5687 85.376 80.623C85.5644 80.6773 85.7224 80.7497 85.85 80.8402L85.4732 81.4557C85.4064 81.4074 85.3274 81.3652 85.2241 81.335C85.1208 81.3048 85.0235 81.2988 84.9263 81.3169C84.7622 81.3471 84.6406 81.4315 84.5434 81.5884C84.4523 81.7393 84.4279 81.9867 84.4705 82.3186C84.5313 82.1979 84.6163 82.0953 84.7318 82.0168C84.8473 81.9384 84.9506 81.8901 85.0357 81.8781C85.2241 81.8419 85.4003 81.8479 85.5705 81.8962C85.7346 81.9444 85.8743 82.0289 85.9959 82.1677C86.1113 82.3005 86.1904 82.4875 86.2329 82.7228C86.2754 82.9582 86.2572 83.1694 86.1843 83.3564C86.1113 83.5435 85.9898 83.6943 85.8318 83.821C85.6738 83.9417 85.4915 84.0202 85.2788 84.0564L85.2666 84.0503ZM84.9627 82.5358C84.8837 82.5479 84.8108 82.5841 84.744 82.6384C84.6771 82.6927 84.6224 82.7771 84.592 82.8858C84.6406 83.0366 84.7014 83.1452 84.7622 83.2237C84.823 83.3021 84.8898 83.3444 84.9567 83.3685C85.0235 83.3866 85.0782 83.3926 85.1329 83.3866C85.2241 83.3685 85.3031 83.3202 85.3638 83.2418C85.4246 83.1633 85.4368 83.0366 85.4064 82.8616C85.376 82.6987 85.3213 82.6022 85.2362 82.5659C85.1511 82.5297 85.06 82.5177 84.9688 82.5358H84.9627Z" fill="white"/>
<path d="M92.2555 82.747L92.1279 82.029L92.845 81.9023L92.535 80.1946L91.903 80.3093L91.8058 79.7541C91.9881 79.6817 92.14 79.6093 92.2676 79.5309C92.3952 79.4524 92.5107 79.3679 92.6262 79.2714L93.2886 79.1567L93.7566 81.7454L94.3521 81.6368L94.4798 82.3548L92.2616 82.747H92.2555Z" fill="white"/>
<path d="M95.5433 82.1678C95.5008 81.8178 95.4825 81.498 95.4886 81.2083C95.4886 80.9187 95.5372 80.6351 95.6041 80.3575C95.677 80.08 95.7864 79.7783 95.9444 79.4584L94.5162 79.7119L94.3825 78.9637L96.7709 78.5413L96.8742 79.0964C96.7223 79.3498 96.6068 79.5912 96.5278 79.8084C96.4488 80.0257 96.4002 80.2368 96.3759 80.4541C96.3516 80.6713 96.3516 80.9006 96.3698 81.148C96.388 81.3954 96.4184 81.685 96.461 82.0109L95.5555 82.1738L95.5433 82.1678Z" fill="white"/>
<path d="M103.189 80.81L103.061 80.092L103.778 79.9653L103.468 78.2576L102.836 78.3722L102.739 77.8171C102.921 77.7447 103.073 77.6723 103.201 77.5938C103.328 77.5154 103.444 77.4309 103.559 77.3344L104.222 77.2197L104.69 79.8084L105.285 79.6997L105.413 80.4178L103.195 80.81H103.189Z" fill="white"/>
<path d="M107.096 80.1765C106.871 80.2187 106.665 80.2127 106.47 80.1765C106.276 80.1343 106.112 80.0498 105.99 79.9351C105.863 79.8144 105.784 79.6696 105.747 79.4886C105.711 79.2955 105.735 79.1266 105.814 78.9878C105.893 78.849 106.008 78.7223 106.148 78.6076V78.5895C105.996 78.5111 105.869 78.4145 105.765 78.3059C105.662 78.1973 105.589 78.0525 105.565 77.8835C105.528 77.6904 105.546 77.5094 105.613 77.3525C105.68 77.1956 105.796 77.0629 105.948 76.9603C106.1 76.8577 106.288 76.7853 106.507 76.7431C106.817 76.6888 107.084 76.725 107.303 76.8577C107.522 76.9905 107.661 77.1956 107.71 77.4732C107.734 77.6241 107.722 77.7629 107.661 77.8956C107.601 78.0284 107.516 78.143 107.412 78.2395V78.2576C107.595 78.318 107.753 78.4025 107.886 78.5232C108.02 78.6378 108.105 78.8068 108.148 79.03C108.178 79.211 108.16 79.374 108.081 79.5308C108.002 79.6877 107.88 79.8265 107.716 79.9351C107.552 80.0498 107.345 80.1282 107.096 80.1705M107.005 79.5489C107.108 79.5308 107.187 79.4886 107.248 79.4222C107.309 79.3559 107.327 79.2653 107.303 79.1386C107.279 79.0119 107.206 78.9335 107.09 78.8852C106.969 78.843 106.798 78.7947 106.592 78.7464C106.549 78.8128 106.525 78.8852 106.507 78.9697C106.488 79.0542 106.488 79.1386 106.507 79.2231C106.531 79.3498 106.592 79.4403 106.689 79.4946C106.792 79.5489 106.896 79.561 107.011 79.5429L107.005 79.5489ZM106.926 78.1008C106.962 78.0223 106.987 77.9499 106.999 77.8715C107.011 77.7991 107.011 77.7266 106.999 77.6542C106.981 77.5396 106.932 77.4551 106.865 77.4008C106.792 77.3465 106.707 77.3284 106.604 77.3465C106.525 77.3586 106.458 77.4008 106.403 77.4611C106.349 77.5215 106.337 77.612 106.355 77.7266C106.373 77.8353 106.434 77.9137 106.531 77.968C106.628 78.0223 106.762 78.0646 106.932 78.0947L106.926 78.1008Z" fill="white"/>
<path d="M39.4074 103.366L39.2798 102.648L39.9969 102.521L39.6869 100.813L39.0549 100.928L38.9577 100.373C39.14 100.3 39.2919 100.228 39.4195 100.155C39.5472 100.077 39.6626 99.9925 39.7781 99.896L40.4405 99.7813L40.9085 102.37L41.5101 102.261L41.6378 102.979L39.4195 103.372L39.4074 103.366Z" fill="white"/>
<path d="M43.1632 102.762C42.9261 102.804 42.7134 102.798 42.525 102.744C42.3366 102.69 42.1726 102.617 42.0449 102.533L42.4217 101.917C42.4825 101.966 42.5676 102.002 42.6709 102.038C42.7742 102.068 42.8715 102.074 42.9687 102.062C43.1328 102.032 43.2604 101.942 43.3516 101.791C43.4427 101.64 43.467 101.392 43.4184 101.061C43.3576 101.181 43.2726 101.284 43.1571 101.356C43.0416 101.435 42.9444 101.483 42.8532 101.495C42.6648 101.531 42.4886 101.525 42.3184 101.477C42.1543 101.429 42.0146 101.344 41.893 101.205C41.7775 101.067 41.6985 100.886 41.656 100.65C41.6135 100.415 41.6317 100.204 41.7046 100.017C41.7775 99.8296 41.8991 99.6788 42.0571 99.552C42.2151 99.4314 42.3974 99.3529 42.6101 99.3167C42.7742 99.2865 42.9383 99.2926 43.0963 99.3227C43.2604 99.3589 43.4184 99.4253 43.5703 99.5339C43.7162 99.6426 43.8499 99.7994 43.9654 99.9986C44.0808 100.198 44.1659 100.445 44.2145 100.741C44.2875 101.139 44.2814 101.483 44.2024 101.767C44.1173 102.05 43.9836 102.279 43.7952 102.448C43.6068 102.611 43.3941 102.714 43.1571 102.762H43.1632ZM42.4825 100.505C42.5129 100.668 42.5676 100.765 42.6527 100.801C42.7378 100.837 42.8289 100.849 42.9201 100.837C43.0052 100.825 43.072 100.783 43.1449 100.729C43.2118 100.668 43.2665 100.584 43.2969 100.481C43.2422 100.33 43.1875 100.216 43.1267 100.143C43.0659 100.071 42.9991 100.023 42.9383 100.005C42.8715 99.9805 42.8168 99.9805 42.7621 99.9865C42.6709 100.005 42.5858 100.047 42.5311 100.131C42.4703 100.21 42.4582 100.336 42.4886 100.511" fill="white"/>
<path d="M50.2006 101.453L50.1095 100.94C50.3283 100.656 50.5288 100.391 50.7051 100.149C50.8813 99.908 51.015 99.6847 51.1062 99.4916C51.1973 99.2925 51.2277 99.1236 51.2034 98.9727C51.173 98.8219 51.1183 98.7193 51.0272 98.6589C50.936 98.6046 50.8327 98.5805 50.7111 98.6046C50.6017 98.6227 50.5106 98.677 50.4316 98.7555C50.3526 98.8339 50.2857 98.9244 50.2189 99.015L49.6476 98.6227C49.7935 98.4055 49.9393 98.2426 50.0973 98.1279C50.2553 98.0133 50.4559 97.9288 50.7051 97.8866C50.9299 97.8443 51.1365 97.8564 51.3249 97.9168C51.5133 97.9711 51.6713 98.0797 51.799 98.2245C51.9266 98.3693 52.0117 98.5503 52.0481 98.7736C52.0785 98.9486 52.0664 99.1417 51.9995 99.3408C51.9327 99.5399 51.8476 99.7451 51.7321 99.9502C51.6167 100.149 51.4951 100.342 51.3736 100.523C51.4586 100.499 51.5498 100.469 51.6531 100.445C51.7564 100.415 51.8476 100.397 51.9205 100.385L52.4796 100.288L52.6133 101.036L50.1946 101.465L50.2006 101.453Z" fill="white"/>
<path d="M54.2846 100.789C53.92 100.855 53.5918 100.759 53.3062 100.511C53.0266 100.258 52.8321 99.8477 52.7288 99.2805C52.6255 98.7133 52.662 98.2668 52.8443 97.9469C53.0205 97.6211 53.294 97.428 53.6647 97.3616C54.0354 97.2953 54.3575 97.3858 54.6371 97.6332C54.9166 97.8806 55.1111 98.2849 55.2083 98.846C55.3117 99.4072 55.2752 99.8658 55.099 100.198C54.9227 100.53 54.6492 100.729 54.2785 100.795M54.157 100.107C54.2299 100.095 54.2846 100.059 54.3393 99.9925C54.3879 99.9261 54.4183 99.8175 54.4244 99.6667C54.4305 99.5098 54.4122 99.2865 54.3575 98.9969C54.3028 98.7012 54.2481 98.49 54.1874 98.3512C54.1266 98.2124 54.0597 98.1219 53.9929 98.0857C53.926 98.0495 53.8592 98.0375 53.7863 98.0495C53.7133 98.0616 53.6526 98.0978 53.6039 98.1521C53.5553 98.2064 53.5249 98.315 53.5128 98.4659C53.5067 98.6167 53.5249 98.84 53.5796 99.1296C53.6343 99.4193 53.689 99.6365 53.7498 99.7813C53.8106 99.9261 53.8774 100.017 53.9443 100.059C54.0111 100.101 54.084 100.113 54.1509 100.101" fill="white"/>
<path d="M61.237 99.5279L61.1458 99.015C61.3646 98.7314 61.5652 98.4659 61.7414 98.2245C61.9177 97.9831 62.0513 97.7599 62.1425 97.5668C62.2337 97.3677 62.2701 97.1987 62.2397 97.0479C62.2094 96.897 62.1547 96.7944 62.0635 96.7341C61.9723 96.6798 61.869 96.6556 61.7475 96.6798C61.6381 96.6979 61.5469 96.7522 61.4679 96.8306C61.3889 96.9091 61.3221 96.9996 61.2552 97.0901L60.684 96.6979C60.8298 96.4806 60.9757 96.3177 61.1337 96.2031C61.2917 96.0884 61.4922 96.004 61.7414 95.9617C61.9663 95.9195 62.1729 95.9315 62.3613 95.9919C62.5497 96.0462 62.7077 96.1548 62.8353 96.2996C62.9629 96.4444 63.048 96.6255 63.0845 96.8487C63.1149 97.0237 63.1027 97.2168 63.0359 97.4159C62.969 97.6151 62.8839 97.8202 62.7685 98.0193C62.653 98.2185 62.5315 98.4116 62.4099 98.5926C62.495 98.5624 62.5862 98.5383 62.6895 98.5141C62.7928 98.484 62.8839 98.4659 62.9569 98.4538L63.516 98.3573L63.6497 99.1055L61.2309 99.5339L61.237 99.5279Z" fill="white"/>
<path d="M64.2331 98.9908L64.1055 98.2728L64.8226 98.146L64.5127 96.4323L63.8806 96.547L63.7834 95.9919C63.9657 95.9194 64.1176 95.847 64.2453 95.7746C64.3729 95.6962 64.4884 95.6117 64.6038 95.5152L65.2662 95.4005L65.7342 97.9891L66.3298 97.8805L66.4574 98.5986L64.2392 98.9908H64.2331Z" fill="white"/>
<path d="M72.2004 97.5788L72.1093 97.0659C72.3281 96.7823 72.5286 96.5108 72.7048 96.2755C72.8811 96.0341 73.0148 95.8108 73.1059 95.6177C73.1971 95.4186 73.2336 95.2497 73.2032 95.0988C73.1728 94.948 73.1181 94.8454 73.0269 94.785C72.9358 94.7307 72.8325 94.7066 72.7109 94.7307C72.6015 94.7488 72.5104 94.7971 72.4314 94.8816C72.3524 94.96 72.2855 95.0505 72.2187 95.1411L71.6474 94.7488C71.7933 94.5316 71.9391 94.3687 72.0971 94.248C72.2551 94.1334 72.4557 94.0489 72.7048 94.0066C72.9297 93.9644 73.1363 93.9765 73.3247 94.0368C73.5131 94.0911 73.6711 94.1997 73.7988 94.3445C73.9264 94.4894 74.0115 94.6764 74.0479 94.8936C74.0783 95.0747 74.0662 95.2617 73.9993 95.4609C73.9325 95.66 73.8474 95.8651 73.7319 96.0703C73.6164 96.2694 73.4949 96.4625 73.3733 96.6435C73.4584 96.6134 73.5496 96.5892 73.6529 96.5651C73.7562 96.5349 73.8474 96.5168 73.9203 96.5048L74.4794 96.4082L74.6131 97.1564L72.1944 97.5849L72.2004 97.5788Z" fill="white"/>
<path d="M75.0385 97.078L74.9474 96.5651C75.1662 96.2815 75.3667 96.016 75.543 95.7747C75.7192 95.5333 75.8529 95.31 75.9441 95.117C76.0352 94.9178 76.0717 94.7489 76.0413 94.598C76.0109 94.4472 75.9562 94.3446 75.865 94.2843C75.7739 94.2299 75.6706 94.2058 75.549 94.2299C75.4396 94.248 75.3485 94.3024 75.2695 94.3808C75.1905 94.4592 75.1236 94.5498 75.0568 94.6403L74.4855 94.248C74.6314 94.0308 74.7772 93.8679 74.9352 93.7532C75.0993 93.6386 75.2938 93.5541 75.543 93.5119C75.7678 93.4696 75.9744 93.4817 76.1628 93.5421C76.3512 93.5964 76.5092 93.705 76.6369 93.8498C76.7645 93.9946 76.8496 94.1756 76.886 94.3989C76.9164 94.5739 76.9043 94.767 76.8374 94.9661C76.7706 95.1652 76.6855 95.3704 76.57 95.5695C76.4545 95.7686 76.333 95.9617 76.2115 96.1428C76.2965 96.1126 76.3877 96.0884 76.491 96.0643C76.5943 96.0341 76.6855 96.016 76.7584 96.004L77.3175 95.9074L77.4512 96.6557L75.0325 97.0841L75.0385 97.078Z" fill="white"/>
<path d="M83.1821 95.5997L83.0909 95.0867C83.3097 94.8031 83.5103 94.5376 83.6865 94.2963C83.8628 94.0549 83.9965 93.8317 84.0876 93.6386C84.1788 93.4394 84.2152 93.2705 84.1848 93.1196C84.1545 92.9688 84.0998 92.8662 84.0086 92.8059C83.9174 92.7515 83.8141 92.7274 83.6926 92.7516C83.5832 92.7697 83.492 92.824 83.413 92.9024C83.334 92.9808 83.2672 93.0714 83.2003 93.1619L82.6291 92.7697C82.7749 92.5524 82.9208 92.3895 83.0788 92.2749C83.2368 92.1602 83.4373 92.0757 83.6865 92.0335C83.9114 91.9913 84.118 92.0033 84.3064 92.0637C84.4948 92.118 84.6528 92.2266 84.7804 92.3714C84.908 92.5162 84.9931 92.6972 85.0296 92.9205C85.06 93.0955 85.0478 93.2886 84.981 93.4877C84.9141 93.6868 84.829 93.892 84.7136 94.0911C84.5981 94.2902 84.4766 94.4833 84.355 94.6644C84.4401 94.6342 84.5313 94.6101 84.6346 94.5859C84.7379 94.5558 84.829 94.5376 84.902 94.5256L85.4611 94.429L85.5948 95.1773L83.176 95.6057L83.1821 95.5997Z" fill="white"/>
<path d="M87.1323 94.9601C86.8649 95.0083 86.6218 95.0083 86.4091 94.9601C86.1964 94.9118 86.0141 94.8273 85.8622 94.7006L86.1721 94.061C86.2937 94.1334 86.4152 94.1937 86.5428 94.2299C86.6705 94.2661 86.792 94.2722 86.9135 94.2541C87.0594 94.2299 87.1749 94.1817 87.2539 94.1153C87.3329 94.0489 87.3633 93.9584 87.345 93.8558C87.3268 93.7713 87.2964 93.705 87.2417 93.6567C87.187 93.6084 87.1019 93.5722 86.9743 93.5601C86.8528 93.5481 86.6705 93.5662 86.4395 93.6084L86.324 92.9809C86.6036 92.9326 86.792 92.8602 86.8771 92.7757C86.9682 92.6912 86.9986 92.5887 86.9804 92.474C86.9439 92.2749 86.8102 92.1904 86.5793 92.2326C86.4699 92.2507 86.3727 92.293 86.2937 92.3533C86.2147 92.4137 86.1296 92.4981 86.0384 92.6068L85.4915 92.1482C85.6312 91.9852 85.7832 91.8465 85.9473 91.7378C86.1113 91.6292 86.2937 91.5568 86.5003 91.5206C86.8649 91.4542 87.1809 91.4844 87.424 91.6051C87.6671 91.7258 87.8251 91.937 87.8738 92.2387C87.9285 92.5585 87.7947 92.83 87.4666 93.0473V93.0654C87.6671 93.0895 87.8373 93.1559 87.9831 93.2645C88.129 93.3731 88.2141 93.536 88.2566 93.7472C88.2931 93.9584 88.2688 94.1394 88.1715 94.3084C88.0804 94.4773 87.9406 94.6101 87.7583 94.7247C87.576 94.8333 87.3693 94.9118 87.1384 94.954H87.1323V94.9601Z" fill="white"/>
<path d="M94.1091 93.6929L94.0179 93.18C94.2367 92.8963 94.4372 92.6308 94.6135 92.3895C94.7897 92.1481 94.9234 91.9249 95.0146 91.7318C95.1057 91.5326 95.1422 91.3637 95.1118 91.2128C95.0814 91.062 95.0267 90.9594 94.9356 90.8991C94.8444 90.8448 94.7411 90.8206 94.6196 90.8447C94.5102 90.8629 94.419 90.9172 94.34 90.9956C94.261 91.074 94.1941 91.1646 94.1273 91.2551L93.556 90.8628C93.7019 90.6456 93.8477 90.4827 94.0058 90.3681C94.1638 90.2534 94.3704 90.1689 94.6135 90.1267C94.8383 90.0845 95.045 90.0965 95.2334 90.1569C95.4218 90.2112 95.5798 90.3198 95.7074 90.4646C95.835 90.6094 95.9201 90.7904 95.9566 91.0137C95.987 91.1887 95.9748 91.3818 95.9079 91.5809C95.8411 91.78 95.756 91.9852 95.6405 92.1904C95.5251 92.3895 95.4035 92.5826 95.282 92.7636C95.3671 92.7395 95.4582 92.7093 95.5615 92.6852C95.6649 92.655 95.756 92.6369 95.8289 92.6248L96.3881 92.5283L96.5218 93.2765L94.103 93.7049L94.1091 93.6929Z" fill="white"/>
<path d="M98.2841 92.9507L98.1504 92.2085L96.7284 92.4619L96.6129 91.8344L97.3969 89.6923L98.5212 89.4932L98.8615 91.3818L99.22 91.3155L99.3416 91.9913L98.983 92.0516L99.1167 92.7938L98.2781 92.9447L98.2841 92.9507ZM97.4576 91.6292L98.0289 91.5267L97.962 91.1525C97.9438 91.0439 97.9195 90.9112 97.9013 90.7603C97.883 90.6095 97.8648 90.4767 97.8466 90.3681H97.8283C97.804 90.4767 97.7797 90.5853 97.7493 90.6879C97.719 90.7965 97.6946 90.9051 97.6643 91.0138L97.4637 91.6353L97.4576 91.6292Z" fill="white"/>
<path d="M105.109 91.7077L105.018 91.1948C105.237 90.9112 105.437 90.6396 105.613 90.4043C105.79 90.1629 105.923 89.9397 106.014 89.7466C106.106 89.5475 106.136 89.3785 106.112 89.2277C106.087 89.0768 106.027 88.9742 105.935 88.9139C105.844 88.8596 105.741 88.8354 105.619 88.8596C105.51 88.8777 105.419 88.9259 105.34 89.0104C105.261 89.0889 105.194 89.1794 105.127 89.2699L104.556 88.8777C104.702 88.6604 104.848 88.4975 105.006 88.3768C105.17 88.2622 105.37 88.1777 105.613 88.1355C105.838 88.0932 106.045 88.1053 106.233 88.1657C106.422 88.22 106.58 88.3286 106.707 88.4734C106.835 88.6182 106.92 88.8053 106.956 89.0225C106.987 89.1975 106.975 89.3906 106.908 89.5897C106.841 89.7888 106.756 89.994 106.64 90.1931C106.525 90.3922 106.403 90.5853 106.282 90.7664C106.367 90.7362 106.458 90.712 106.561 90.6879C106.665 90.6577 106.756 90.6396 106.829 90.6276L107.388 90.531L107.522 91.2793L105.103 91.7077H105.109Z" fill="white"/>
<path d="M109.096 91.062C108.822 91.1103 108.579 91.1103 108.366 91.056C108.154 91.0017 107.965 90.9172 107.807 90.8086L108.105 90.175C108.227 90.2474 108.342 90.3017 108.47 90.3379C108.597 90.3802 108.713 90.3862 108.834 90.3681C108.992 90.3379 109.108 90.2836 109.181 90.1991C109.254 90.1147 109.278 90 109.254 89.8552C109.229 89.7104 109.169 89.6138 109.071 89.5595C108.974 89.5052 108.859 89.4871 108.725 89.5113C108.634 89.5294 108.567 89.5535 108.512 89.5837C108.458 89.6138 108.385 89.6742 108.293 89.7526L107.856 89.5716L107.637 87.8579L109.612 87.5079L109.746 88.2562L108.549 88.4674L108.591 88.9561C108.646 88.926 108.701 88.9018 108.743 88.8837C108.792 88.8716 108.84 88.8535 108.895 88.8475C109.09 88.8113 109.272 88.8173 109.448 88.8656C109.624 88.9078 109.776 88.9984 109.904 89.1311C110.025 89.2639 110.111 89.4509 110.153 89.6802C110.196 89.9276 110.177 90.1448 110.092 90.344C110.007 90.5371 109.88 90.7 109.703 90.8267C109.527 90.9534 109.327 91.0319 109.102 91.0741L109.096 91.062Z" fill="white"/>
<path d="M41.2974 114.269L41.2063 113.756C41.425 113.473 41.6256 113.207 41.8018 112.966C41.9781 112.724 42.1118 112.501 42.2029 112.308C42.2941 112.109 42.3245 111.94 42.3002 111.789C42.2698 111.638 42.2151 111.536 42.1239 111.475C42.0328 111.421 41.9295 111.397 41.8079 111.421C41.6985 111.439 41.6074 111.487 41.5284 111.572C41.4494 111.65 41.3825 111.741 41.3156 111.831L40.7444 111.439C40.8902 111.222 41.0361 111.059 41.1941 110.944C41.3521 110.83 41.5527 110.745 41.8018 110.703C42.0267 110.661 42.2333 110.673 42.4217 110.733C42.6101 110.794 42.7681 110.896 42.8957 111.041C43.0234 111.186 43.1085 111.373 43.1449 111.59C43.1753 111.771 43.1631 111.958 43.0963 112.157C43.0294 112.356 42.9444 112.562 42.8289 112.767C42.7134 112.966 42.5919 113.159 42.4703 113.34C42.5554 113.316 42.6466 113.286 42.7499 113.262C42.8532 113.231 42.9444 113.213 43.0173 113.201L43.5764 113.099L43.7101 113.853L41.2913 114.281L41.2974 114.269Z" fill="white"/>
<path d="M45.4604 113.599C45.2963 113.63 45.1322 113.63 44.9742 113.593C44.8101 113.557 44.6521 113.491 44.5062 113.376C44.3604 113.268 44.2267 113.117 44.1173 112.912C44.0018 112.712 43.9167 112.465 43.862 112.169C43.7891 111.771 43.7952 111.427 43.8742 111.144C43.9593 110.86 44.093 110.631 44.2814 110.468C44.4698 110.299 44.6825 110.196 44.9195 110.154C45.1565 110.112 45.3753 110.118 45.5637 110.172C45.7521 110.226 45.9101 110.299 46.0377 110.389L45.6609 111.005C45.6001 110.956 45.5151 110.914 45.4118 110.884C45.3084 110.854 45.2112 110.848 45.114 110.866C44.9499 110.896 44.8283 110.981 44.7311 111.137C44.6399 111.288 44.6156 111.536 44.6582 111.868C44.7189 111.747 44.804 111.644 44.9195 111.566C45.035 111.487 45.1383 111.439 45.2234 111.427C45.4118 111.391 45.588 111.397 45.7582 111.445C45.9222 111.494 46.062 111.578 46.1836 111.717C46.299 111.85 46.378 112.037 46.4206 112.272C46.4631 112.507 46.4449 112.718 46.372 112.905C46.299 113.093 46.1775 113.243 46.0195 113.364C45.8615 113.485 45.6792 113.563 45.4664 113.599H45.4604ZM45.1565 112.085C45.0775 112.097 45.0046 112.133 44.9377 112.187C44.8709 112.242 44.8162 112.332 44.7797 112.435C44.8283 112.586 44.8891 112.694 44.9499 112.773C45.0107 112.851 45.0775 112.893 45.1444 112.918C45.2112 112.936 45.2659 112.942 45.3206 112.936C45.4118 112.918 45.4968 112.869 45.5515 112.791C45.6123 112.712 45.6245 112.586 45.5941 112.411C45.5637 112.248 45.509 112.151 45.4239 112.115C45.3388 112.079 45.2477 112.067 45.1565 112.079V112.085Z" fill="white"/>
<path d="M52.1879 112.368L52.0968 111.856C52.3155 111.572 52.5161 111.306 52.6923 111.065C52.8686 110.824 53.0023 110.6 53.0934 110.407C53.1846 110.208 53.215 110.039 53.1907 109.888C53.1603 109.738 53.1056 109.635 53.0144 109.575C52.9233 109.52 52.82 109.496 52.6984 109.52C52.589 109.538 52.4979 109.587 52.4189 109.671C52.3399 109.75 52.273 109.84 52.2062 109.931L51.6349 109.538C51.7807 109.321 51.9266 109.158 52.0846 109.044C52.2426 108.929 52.4432 108.845 52.6923 108.802C52.9172 108.76 53.1238 108.772 53.3122 108.832C53.5006 108.887 53.6586 108.995 53.7862 109.14C53.9139 109.285 53.999 109.472 54.0354 109.689C54.0658 109.87 54.0536 110.057 53.9868 110.257C53.9199 110.456 53.8349 110.661 53.7194 110.866C53.6039 111.065 53.4824 111.258 53.3608 111.439C53.4459 111.409 53.5371 111.385 53.6404 111.361C53.7437 111.331 53.8349 111.312 53.9078 111.3L54.4669 111.198L54.6006 111.946L52.1818 112.374L52.1879 112.368Z" fill="white"/>
<path d="M55.6398 111.759C55.5973 111.409 55.5791 111.089 55.5851 110.8C55.5851 110.51 55.6277 110.226 55.7006 109.949C55.7735 109.671 55.8829 109.37 56.0409 109.05L54.6067 109.303L54.473 108.555L56.8614 108.133L56.9586 108.688C56.8067 108.941 56.6912 109.182 56.6122 109.4C56.5332 109.617 56.4846 109.828 56.4603 110.045C56.436 110.263 56.436 110.492 56.4542 110.739C56.4724 110.987 56.5028 111.276 56.5453 111.602L55.6398 111.765V111.759Z" fill="white"/>
<path d="M63.1574 110.389L63.0663 109.876C63.2851 109.593 63.4856 109.327 63.6618 109.086C63.8381 108.845 63.9718 108.621 64.0629 108.428C64.1541 108.229 64.1906 108.06 64.1602 107.909C64.1298 107.758 64.0751 107.656 63.9839 107.596C63.8928 107.541 63.7895 107.517 63.6679 107.541C63.5585 107.559 63.4674 107.614 63.3884 107.692C63.3094 107.771 63.2425 107.861 63.1757 107.952L62.6044 107.559C62.7503 107.342 62.8961 107.179 63.0541 107.058C63.2121 106.944 63.4127 106.859 63.6618 106.817C63.8867 106.775 64.0933 106.787 64.2817 106.847C64.4701 106.902 64.6281 107.01 64.7558 107.155C64.8834 107.3 64.9685 107.487 65.0049 107.704C65.0353 107.879 65.0232 108.072 64.9563 108.271C64.8895 108.47 64.8044 108.676 64.6889 108.875C64.5734 109.074 64.4519 109.267 64.3303 109.448C64.4154 109.418 64.5066 109.394 64.6099 109.37C64.7132 109.339 64.8044 109.321 64.8773 109.309L65.4364 109.213L65.5701 109.961L63.1514 110.389H63.1574Z" fill="white"/>
<path d="M67.2292 109.732C67.0044 109.768 66.7977 109.768 66.6033 109.726C66.4088 109.683 66.2447 109.599 66.1232 109.484C65.9955 109.363 65.9165 109.219 65.8801 109.038C65.8436 108.845 65.8679 108.676 65.953 108.537C66.0381 108.398 66.1475 108.271 66.2872 108.157V108.139C66.1353 108.06 66.0077 107.964 65.9044 107.855C65.8011 107.746 65.7342 107.601 65.7038 107.433C65.6674 107.239 65.6856 107.058 65.7524 106.902C65.8193 106.745 65.9348 106.612 66.0867 106.509C66.2386 106.401 66.427 106.328 66.6458 106.292C66.9558 106.238 67.2231 106.274 67.4419 106.407C67.6607 106.539 67.8005 106.745 67.8491 107.022C67.8734 107.173 67.8613 107.312 67.8005 107.445C67.7397 107.577 67.6546 107.692 67.5513 107.789V107.813C67.7336 107.873 67.8917 107.958 68.0254 108.078C68.1591 108.193 68.2441 108.362 68.2867 108.585C68.3171 108.766 68.2988 108.929 68.2198 109.086C68.1408 109.243 68.0193 109.382 67.8552 109.49C67.685 109.605 67.4784 109.683 67.2353 109.726M67.1441 109.104C67.2475 109.086 67.3265 109.044 67.3872 108.977C67.448 108.911 67.4662 108.82 67.448 108.694C67.4237 108.567 67.3508 108.489 67.2353 108.44C67.1138 108.398 66.9436 108.35 66.737 108.301C66.6944 108.368 66.6701 108.44 66.6519 108.525C66.6337 108.609 66.6337 108.694 66.6458 108.778C66.6701 108.905 66.7309 108.995 66.8281 109.05C66.9254 109.104 67.0348 109.116 67.1502 109.098L67.1441 109.104ZM67.0651 107.656C67.1016 107.577 67.1259 107.505 67.1381 107.427C67.1502 107.354 67.1502 107.282 67.1381 107.209C67.1198 107.095 67.0712 107.01 67.0044 106.956C66.9314 106.902 66.8464 106.883 66.743 106.902C66.658 106.92 66.5972 106.956 66.5425 107.016C66.4878 107.077 66.4756 107.167 66.4939 107.282C66.5121 107.39 66.5729 107.469 66.6701 107.523C66.7674 107.577 66.9011 107.62 67.0712 107.65L67.0651 107.656Z" fill="white"/>
<path d="M74.1452 108.44L74.054 107.927C74.2728 107.644 74.4733 107.378 74.6496 107.137C74.8258 106.895 74.9595 106.672 75.0507 106.479C75.1418 106.28 75.1783 106.111 75.1479 105.96C75.1175 105.809 75.0628 105.707 74.9717 105.646C74.8805 105.592 74.7772 105.568 74.6557 105.592C74.5463 105.61 74.4551 105.665 74.3761 105.743C74.2971 105.821 74.2302 105.912 74.1634 106.002L73.5921 105.61C73.738 105.393 73.8838 105.23 74.0419 105.109C74.2059 104.995 74.4004 104.91 74.6496 104.868C74.8744 104.826 75.0811 104.838 75.2695 104.898C75.4579 104.953 75.6159 105.061 75.7435 105.206C75.8711 105.351 75.9562 105.538 75.9927 105.755C76.023 105.93 76.0109 106.123 75.944 106.322C75.8772 106.521 75.7921 106.727 75.6766 106.926C75.5612 107.125 75.4396 107.318 75.3181 107.499C75.4032 107.469 75.4943 107.445 75.5976 107.42C75.7009 107.39 75.7921 107.372 75.865 107.36L76.4241 107.264L76.5578 108.012L74.1391 108.44H74.1452Z" fill="white"/>
<path d="M78.0589 107.813C77.8219 107.855 77.6092 107.849 77.4208 107.795C77.2324 107.74 77.0683 107.668 76.9407 107.583L77.3175 106.968C77.3783 107.016 77.4634 107.052 77.5667 107.089C77.67 107.119 77.7672 107.125 77.8645 107.113C78.0286 107.083 78.1562 106.992 78.2473 106.841C78.3385 106.69 78.3628 106.443 78.3142 106.111C78.2534 106.232 78.1683 106.334 78.0529 106.413C77.9374 106.491 77.8402 106.54 77.749 106.552C77.5606 106.588 77.3844 106.582 77.2142 106.534C77.0501 106.485 76.9103 106.401 76.7888 106.262C76.6733 106.123 76.5943 105.936 76.5518 105.707C76.5092 105.471 76.5275 105.26 76.6004 105.067C76.6733 104.88 76.7949 104.729 76.9529 104.609C77.1109 104.488 77.2932 104.409 77.5059 104.373C77.67 104.343 77.8341 104.349 77.9921 104.379C78.1562 104.416 78.3142 104.482 78.4661 104.591C78.612 104.699 78.7457 104.856 78.8551 105.055C78.9705 105.254 79.0556 105.502 79.1103 105.797C79.1832 106.196 79.1772 106.54 79.0982 106.823C79.0131 107.107 78.8794 107.336 78.691 107.499C78.5026 107.662 78.2899 107.764 78.0529 107.813H78.0589ZM77.3783 105.556C77.4087 105.719 77.4634 105.815 77.5485 105.852C77.6335 105.888 77.7247 105.9 77.8159 105.888C77.9009 105.876 77.9739 105.834 78.0407 105.779C78.1076 105.725 78.1623 105.634 78.1926 105.532C78.144 105.381 78.0833 105.266 78.0225 105.194C77.9617 105.122 77.8949 105.073 77.8341 105.055C77.7672 105.031 77.7125 105.031 77.6578 105.037C77.5667 105.055 77.4877 105.103 77.4269 105.182C77.3661 105.26 77.354 105.387 77.3844 105.562" fill="white"/>
<path d="M86.2451 106.358C85.9716 106.407 85.7346 106.407 85.5219 106.358C85.3091 106.31 85.1268 106.226 84.9749 106.099L85.2848 105.459C85.4064 105.532 85.5279 105.592 85.6556 105.628C85.7832 105.665 85.9047 105.677 86.0263 105.653C86.1721 105.628 86.2876 105.58 86.3666 105.514C86.4456 105.447 86.476 105.357 86.4578 105.254C86.4395 105.17 86.4091 105.103 86.3544 105.055C86.3058 105.007 86.2147 104.971 86.087 104.959C85.9655 104.947 85.7832 104.959 85.5522 105.007L85.4429 104.379C85.7224 104.331 85.9108 104.259 85.9959 104.174C86.087 104.09 86.1174 103.987 86.0992 103.872C86.0627 103.673 85.929 103.589 85.6981 103.631C85.5887 103.649 85.4915 103.691 85.4125 103.752C85.3335 103.812 85.2423 103.897 85.1572 104.005L84.6103 103.547C84.75 103.384 84.902 103.245 85.0661 103.136C85.2301 103.028 85.4125 102.955 85.6191 102.919C85.9837 102.853 86.2937 102.883 86.5428 103.004C86.7859 103.124 86.9439 103.335 86.9986 103.637C87.0533 103.957 86.9196 104.228 86.5915 104.446V104.464C86.792 104.488 86.9622 104.554 87.108 104.663C87.2539 104.772 87.339 104.934 87.3815 105.146C87.418 105.357 87.3937 105.538 87.2964 105.707C87.2053 105.876 87.0655 106.009 86.8832 106.123C86.7008 106.232 86.4942 106.31 86.2633 106.352H86.2572L86.2451 106.358Z" fill="white"/>
<path d="M89.2047 105.834C88.84 105.9 88.5119 105.809 88.2262 105.556C87.9467 105.302 87.7522 104.892 87.6489 104.325C87.5456 103.758 87.582 103.311 87.7644 102.991C87.9406 102.666 88.2141 102.473 88.5848 102.406C88.9555 102.34 89.2776 102.43 89.5572 102.678C89.8367 102.919 90.0312 103.329 90.1284 103.891C90.2317 104.452 90.1953 104.91 90.019 105.242C89.8428 105.574 89.5693 105.773 89.1986 105.84M89.077 105.152C89.15 105.14 89.2047 105.103 89.2594 105.037C89.308 104.977 89.3384 104.862 89.3444 104.711C89.3505 104.554 89.3323 104.331 89.2776 104.041C89.2229 103.746 89.1682 103.535 89.1074 103.396C89.0467 103.257 88.9798 103.166 88.913 103.13C88.8461 103.094 88.7793 103.082 88.7063 103.094C88.6334 103.106 88.5787 103.142 88.524 103.197C88.4754 103.251 88.445 103.36 88.4329 103.51C88.4207 103.661 88.445 103.884 88.4997 104.174C88.5544 104.464 88.6091 104.681 88.6699 104.826C88.7306 104.971 88.7975 105.061 88.8643 105.103C88.9312 105.146 89.0041 105.158 89.071 105.146" fill="white"/>
</g>
</g>
</g>
</g>
<defs>
<filter id="filter0_d_429_40079" x="115.66" y="5.37085" width="60.5229" height="67.4551" filterUnits="userSpaceOnUse" color-interpolation-filters="sRGB">
<feFlood flood-opacity="0" result="BackgroundImageFix"/>
<feColorMatrix in="SourceAlpha" type="matrix" values="0 0 0 0 0 0 0 0 0 0 0 0 0 0 0 0 0 0 127 0" result="hardAlpha"/>
<feOffset dx="1" dy="1"/>
<feColorMatrix type="matrix" values="0 0 0 0 0 0 0 0 0 0.0470588 0 0 0 0 0.145098 0 0 0 0.15 0"/>
<feBlend mode="normal" in2="BackgroundImageFix" result="effect1_dropShadow_429_40079"/>
<feBlend mode="normal" in="SourceGraphic" in2="effect1_dropShadow_429_40079" result="shape"/>
</filter>
<filter id="filter1_d_429_40079" x="13.0927" y="20.3362" width="120.789" height="116.617" filterUnits="userSpaceOnUse" color-interpolation-filters="sRGB">
<feFlood flood-opacity="0" result="BackgroundImageFix"/>
<feColorMatrix in="SourceAlpha" type="matrix" values="0 0 0 0 0 0 0 0 0 0 0 0 0 0 0 0 0 0 127 0" result="hardAlpha"/>
<feOffset dx="4.6" dy="4.6"/>
<feColorMatrix type="matrix" values="0 0 0 0 0.0745098 0 0 0 0 0.113725 0 0 0 0 0.207843 0 0 0 0.1 0"/>
<feBlend mode="normal" in2="BackgroundImageFix" result="effect1_dropShadow_429_40079"/>
<feBlend mode="normal" in="SourceGraphic" in2="effect1_dropShadow_429_40079" result="shape"/>
</filter>
</defs>
</svg>
