<svg width="394" height="394" viewBox="0 0 394 394" fill="none" xmlns="http://www.w3.org/2000/svg">
<path d="M228.614 233.308C201.893 342.687 103.217 331.999 72.0479 303.325C40.8148 274.624 1.33182 161.99 87.9291 145.266C174.526 128.542 243.803 170.869 228.614 233.308Z" fill="#FFDAC7"/>
<path d="M211.339 88.2038C191.241 66.6867 206.919 58.5551 217.605 55.7279C228.355 52.9281 259.254 48.2808 250.572 69.7816C241.918 91.2168 222.858 100.47 211.339 88.2038Z" fill="#C7EDC8"/>
<path d="M296.56 328.796C251.621 352.676 244.005 323.269 243.572 304.395C243.139 285.522 247.679 232.393 280.895 256.037C314.137 279.619 322.233 315.189 296.56 328.796Z" fill="#F8E5A9"/>
<g clip-path="url(#clip0_0_1)">
<path d="M243 180.546C243 165.358 230.688 153.046 215.5 153.046C200.312 153.046 188 165.358 188 180.546C188 195.734 200.312 208.046 215.5 208.046C230.688 208.046 243 195.734 243 180.546Z" fill="#FBB03B"/>
<path d="M201.179 204.028C205.349 206.578 210.251 208.046 215.5 208.046C221.241 208.046 226.572 206.283 230.983 203.275C229.161 202.085 226.995 201.498 224.788 201.628L205.548 202.756C203.995 202.848 202.506 203.292 201.179 204.028Z" fill="#81C784"/>
<path d="M210.1 199.445C209.945 198.067 207.852 200.356 208.034 198.648C207.494 198.679 205.579 199.452 204.833 198.177C204.087 196.902 200.265 196.73 199.426 196.403C198.587 196.077 198.474 195.523 198.622 195.207C195.975 195.822 195.862 191.285 192.912 192.392C192.269 192.443 191.939 191.886 192.17 191.357C192.366 190.095 190.901 189.886 190.788 188.61C190.327 187.383 190.657 186.768 191.431 185.778C191.303 184.128 188.729 183.894 191.506 182.234C188.663 181 193.562 179.865 191.482 178.697C189.994 178.659 190.417 177.61 190.423 176.558C188.962 177.05 190.729 173.846 191.486 173.674C192.283 173.465 193.82 172.939 193.029 171.932C191.558 171.038 192.922 170.612 193.342 169.721C192.431 169.054 195.452 167.294 193.971 167.294C193.902 165.235 194.944 163.362 196.972 163.176C197.505 162.255 199.265 160.076 200.457 161.272C202.125 162.939 203.012 158.701 206.143 159.464C207.302 159.141 207.326 155.473 208.883 156.652C209.268 157.298 210.045 156.951 210.416 156.446C214.018 157.363 213.647 157.181 217.147 154.937C217.312 157.095 219.618 154.864 221.437 156.253C225.362 155.122 225.317 159.247 227.803 157.938C227.143 159.443 230.102 159.423 231.529 159.811C230.023 162.32 233.475 161.272 233.475 163.939C233.475 164.548 234.461 164.648 235.049 164.995C237.383 165.552 234.915 165.586 236.867 168.219C239.342 171.56 238.115 174.902 237.476 175.665C237.888 176.703 236.252 178.009 236.692 179.15C236.84 179.532 236.764 179.938 236.661 180.329C236.479 181.017 237.283 181.99 237.383 182.633C237.51 183.633 236.372 184.778 236.39 185.761C236.4 186.369 236.269 186.96 235.908 187.448C235.575 187.902 235.513 188.524 235.657 189.123C235.819 189.796 234.262 190.394 233.691 190.79C232.316 191.738 231.488 191.986 230.058 192.024C229.824 194.076 226.232 195.045 226.18 194.667C226.338 195.753 223.582 197.025 222.722 196.396C222.172 198.046 219.261 197.496 219.773 198.184C220.502 199.167 213.991 199.988 210.107 199.452L210.1 199.445Z" fill="#211715"/>
<path d="M204.335 181.395C204.335 181.395 203.005 180.109 202.097 180.628C201.19 181.148 201.214 187.672 203.682 186.802C206.15 185.933 204.335 181.395 204.335 181.395Z" fill="#482925"/>
<path d="M204.335 181.395C204.335 181.395 203.005 180.109 202.097 180.628C201.19 181.148 201.214 187.672 203.682 186.802C206.15 185.933 204.335 181.395 204.335 181.395Z" fill="#482925"/>
<path d="M223.245 185.307C223.245 185.307 224.372 186.775 225.345 186.397C226.318 186.018 227.256 179.559 224.685 180.054C222.117 180.549 223.245 185.307 223.245 185.307Z" fill="#482925"/>
<path d="M223.245 185.307C223.245 185.307 224.372 186.775 225.345 186.397C226.318 186.018 227.256 179.559 224.685 180.054C222.117 180.549 223.245 185.307 223.245 185.307Z" fill="#482925"/>
<path d="M212.582 195.245L213.365 203.051C213.365 203.051 214.245 205.231 216.511 205.128C218.776 205.024 218.955 201.979 218.955 201.979L217.428 194.691L212.582 195.245Z" fill="#694438"/>
<path opacity="0.5" d="M216.954 198.517C217.367 198.476 217.776 198.387 218.178 198.273L217.428 194.695L212.582 195.248L212.891 198.332C213.053 198.352 213.218 198.373 213.376 198.39C214.565 198.517 215.765 198.644 216.954 198.521V198.517Z" fill="#482925"/>
<path d="M203.988 180.577C203.988 180.577 204.032 187.418 205.624 190.209C207.216 193 210.244 196.049 215.699 195.585C220.618 195.169 223.561 190.731 223.661 187.366C223.76 183.997 223.795 176.978 223.795 176.978L225.139 167.095L213.382 166.823L200.372 169.182L203.558 178.346L203.988 180.58V180.577Z" fill="#694438"/>
<path d="M216.136 180.818C216.136 180.818 216.452 178.597 218.882 178.456C221.313 178.315 221.072 180.292 221.072 180.292C221.072 180.292 221.162 182.041 218.962 182.083C216.762 182.124 216.136 180.821 216.136 180.821V180.818Z" fill="white"/>
<path d="M216.136 180.817C216.136 180.817 216.442 178.927 218.872 178.782C221.302 178.642 221.072 180.288 221.072 180.288C221.072 180.288 221.773 177.792 218.721 177.971C216.318 178.112 216.136 180.814 216.136 180.814V180.817Z" fill="#1D1D1B"/>
<path d="M218.759 181.478C219.45 181.478 220.01 180.917 220.01 180.226C220.01 179.535 219.45 178.975 218.759 178.975C218.068 178.975 217.508 179.535 217.508 180.226C217.508 180.917 218.068 181.478 218.759 181.478Z" fill="#1D1D1B"/>
<path d="M219.02 180.333C219.28 180.333 219.491 180.122 219.491 179.862C219.491 179.602 219.28 179.391 219.02 179.391C218.76 179.391 218.549 179.602 218.549 179.862C218.549 180.122 218.76 180.333 219.02 180.333Z" fill="white"/>
<path d="M211.574 181.082C211.574 181.082 211 178.913 208.57 179.057C206.14 179.198 206.611 181.137 206.611 181.137C206.611 181.137 206.727 182.887 208.917 182.667C211.107 182.45 211.574 181.082 211.574 181.082Z" fill="white"/>
<path d="M211.574 181.082C211.574 181.082 211.048 179.24 208.618 179.381C206.188 179.522 206.611 181.134 206.611 181.134C206.611 181.134 205.621 178.738 208.677 178.559C211.079 178.418 211.574 181.082 211.574 181.082Z" fill="#1D1D1B"/>
<path d="M208.855 182.058C209.546 182.058 210.107 181.498 210.107 180.807C210.107 180.116 209.546 179.556 208.855 179.556C208.164 179.556 207.604 180.116 207.604 180.807C207.604 181.498 208.164 182.058 208.855 182.058Z" fill="#1D1D1B"/>
<path d="M209.13 180.914C209.39 180.914 209.601 180.703 209.601 180.443C209.601 180.183 209.39 179.972 209.13 179.972C208.87 179.972 208.659 180.183 208.659 180.443C208.659 180.703 208.87 180.914 209.13 180.914Z" fill="white"/>
<path d="M212.114 186.263C212.967 186.287 213.747 186.373 214.531 186.304C215.325 186.311 216.067 186.132 216.913 185.984C215.641 187.173 213.517 187.222 212.114 186.266V186.263Z" fill="#211715"/>
<path d="M218.518 188.947C218.518 188.947 218.085 189.673 214.916 189.903C211.798 190.13 210.993 189.463 210.993 189.463C210.993 189.463 212.09 191.154 212.953 191.402C213.816 191.649 216.322 191.546 217.071 191.116C217.82 190.687 218.522 188.951 218.522 188.951L218.518 188.947Z" fill="#211715"/>
<path d="M211.327 176.875C211.327 176.875 210.289 175.448 208.099 175.665C205.909 175.881 204.913 177.129 204.913 177.129C204.913 177.129 206.703 175.953 208.285 176.16C209.866 176.366 210.375 177.404 210.756 177.352C211.141 177.301 211.499 177.071 211.327 176.871V176.875Z" fill="#211715"/>
<path d="M215.613 176.39C215.613 176.39 216.641 174.957 218.831 175.156C221.021 175.359 222.028 176.6 222.028 176.6C222.028 176.6 220.23 175.438 218.649 175.654C217.067 175.871 216.569 176.916 216.184 176.864C215.799 176.816 215.438 176.586 215.61 176.39H215.613Z" fill="#211715"/>
<path opacity="0.5" d="M214.74 188.875C215.916 188.875 218.518 189.023 218.518 189.023C218.518 189.023 217.824 189.807 214.916 189.978C211.461 190.181 210.993 189.538 210.993 189.538C210.993 189.538 213.028 188.878 214.74 188.875Z" fill="#211715"/>
<path d="M205.676 171.763C205.627 172.189 205.579 172.612 205.531 173.038C205.5 173.317 205.579 173.719 205.861 173.692C205.751 173.949 205.638 174.211 205.528 174.468C205.772 174.458 206.016 174.554 206.188 174.726C207.119 173.028 208.35 171.492 209.804 170.209C209.402 170.852 209.178 171.605 209.165 172.361C209.484 172.196 209.804 172.031 210.124 171.866C210 172 210.189 172.231 210.371 172.207C210.553 172.183 210.681 172.028 210.791 171.88C211.427 171.028 212.062 170.178 212.698 169.326C213.142 169.842 213.994 169.673 214.565 169.302C215.136 168.931 215.627 168.394 216.287 168.233C217.067 168.044 217.862 168.436 218.57 168.814C220.099 169.632 221.729 170.553 222.457 172.128C223.31 173.977 223.795 176.971 223.781 179.37C223.781 179.707 224.276 178.587 224.613 178.59C224.836 178.59 225.042 178.466 225.228 178.339C227.703 176.617 228.868 173.482 229.03 170.471C229.13 168.59 228.862 166.6 227.734 165.091C226.479 163.413 224.389 162.602 222.365 162.063C216.937 160.615 211.186 160.529 205.662 161.526C202.623 162.076 199.526 163.011 197.267 165.115C195.009 167.219 193.844 170.746 195.236 173.499C196.415 175.826 199.34 177.359 201.836 177.827C203.513 178.14 203.995 180.567 203.995 180.567C203.565 178.332 204.28 174.303 204.62 173.592C204.857 173.1 205.627 172.258 205.682 171.749L205.676 171.763Z" fill="#211715"/>
<path d="M203.988 180.577C203.792 179.913 201.403 173.207 205.627 168.814C208.267 166.067 211.705 164.07 211.705 164.07C213.565 164.204 218.226 165.916 219.914 166.978C224.417 169.814 223.771 180.209 223.771 180.209C223.771 180.209 228.752 171.206 225.417 165.125C222.083 159.044 210.017 159.471 207.405 160.749C204.792 162.028 199.956 164.273 199.454 170.268C198.952 176.259 203.984 180.573 203.984 180.573L203.988 180.577Z" fill="#43A047"/>
<path d="M207.405 160.753C204.792 162.032 199.956 164.276 199.454 170.271C198.952 176.263 203.984 180.577 203.984 180.577C203.788 179.913 201.399 173.207 205.624 168.814C208.264 166.067 211.702 164.07 211.702 164.07C211.702 164.07 210.512 163.431 208.12 163.479C206.731 163.506 206.336 163.919 205.559 163.977C204.782 164.036 206.177 162.31 206.789 161.53L207.401 160.753H207.405Z" fill="#66BB6A"/>
<path d="M219.415 185.664C216.841 185.664 214.747 183.571 214.747 181C214.747 178.428 216.841 176.335 219.415 176.335C221.99 176.335 224.08 178.428 224.08 181C224.08 183.571 221.987 185.664 219.415 185.664ZM219.415 176.796C217.095 176.796 215.211 178.683 215.211 181C215.211 183.317 217.098 185.204 219.415 185.204C221.732 185.204 223.619 183.317 223.619 181C223.619 178.683 221.732 176.796 219.415 176.796Z" fill="#FFB74D"/>
<path d="M208.515 186.249C205.94 186.249 203.847 184.155 203.847 181.584C203.847 179.013 205.94 176.919 208.515 176.919C211.09 176.919 213.18 179.013 213.18 181.584C213.18 184.155 211.086 186.249 208.515 186.249ZM208.515 177.38C206.195 177.38 204.311 179.267 204.311 181.584C204.311 183.901 206.198 185.788 208.515 185.788C210.832 185.788 212.719 183.901 212.719 181.584C212.719 179.267 210.832 177.38 208.515 177.38Z" fill="#FFB74D"/>
<path d="M213.042 181.189L212.774 180.811C213.228 180.488 214.304 180.075 215.132 180.828L214.823 181.172C214.06 180.484 213.083 181.161 213.042 181.189Z" fill="#FFB74D"/>
</g>
<g clip-path="url(#clip1_0_1)">
<path d="M297.012 292.097C308.504 292.097 317.821 282.928 317.821 271.617C317.821 260.307 308.504 251.138 297.012 251.138C285.519 251.138 276.203 260.307 276.203 271.617C276.203 282.928 285.519 292.097 297.012 292.097Z" fill="#1EB1C4"/>
<path d="M307.819 287.228L297.633 287.072C297.423 287.095 292.475 288.823 288.935 290.067C288.79 290.118 288.639 290.197 288.48 290.295C291.084 291.449 293.971 292.097 297.012 292.097C301.832 292.097 306.266 290.479 309.794 287.773C309.206 287.435 308.529 287.241 307.819 287.228Z" fill="#073051"/>
<path d="M294.772 281.906L295.35 287.924C295.35 287.924 295.831 289.378 297.943 289.204C300.055 289.03 299.316 287.489 299.316 287.489L299.002 282.761L294.77 281.903L294.772 281.906Z" fill="#F1B399"/>
<path d="M288.249 268.366C288.249 268.366 287.135 267.173 285.187 268.036C283.239 268.896 284.331 272.004 285.58 273.414C286.35 274.285 288.766 274.792 289.658 272.047C290.551 269.303 288.249 268.366 288.249 268.366Z" fill="#F2D2C6"/>
<path d="M303.624 264.785C303.624 264.785 303.892 263.364 305.109 263.449C306.326 263.536 306.649 268.392 306.144 269.027C305.928 269.301 305.148 269.254 304.805 268.415L303.621 264.782L303.624 264.785Z" fill="#F1B399"/>
<path d="M304.266 261.613L306.022 271.297L305.109 273.545L293.126 273.463C293.126 273.463 289.648 270.097 289.063 269.283C288.584 268.617 288.41 268.446 288.41 268.446L286.449 262.146C286.449 262.146 287.375 258.572 293.201 256.155C304.292 251.555 304.264 261.616 304.264 261.616L304.266 261.613Z" fill="#F2D2C6"/>
<path d="M288.355 268.479C288.355 268.479 286.443 264.534 286.449 262.146C286.456 259.196 287.653 256.358 295.558 254.783C299.288 254.041 303.78 256.027 304.04 258.377C304.219 259.993 304.997 265.655 304.997 265.655C304.997 265.655 303.283 256.324 301.22 255.761C300.359 255.526 299.675 258.743 297.485 258.592C294.424 258.38 290.017 257.717 288.301 259.26C286.371 260.999 289.768 267.647 289.768 267.647L288.353 268.476L288.355 268.479Z" fill="#EAE4E1"/>
<path d="M294.642 262.481L294.915 263.154C294.915 263.154 293.648 263.085 292.626 264.938C292.626 264.938 292.005 264.81 292.036 264.58C292.067 264.347 292.525 262.775 294.645 262.481H294.642Z" fill="#EAE4E1"/>
<path d="M300.765 261.554L300.744 262.215C300.744 262.215 301.811 261.767 303.275 263.047C303.275 263.047 303.769 262.747 303.668 262.558C303.566 262.368 302.677 261.157 300.762 261.554H300.765Z" fill="#EAE4E1"/>
<path d="M289.963 268.097L290.207 268.517L288.943 269.111L288.691 268.791L289.963 268.097Z" fill="#EAE4E1"/>
<path d="M289.162 269.418L290.368 268.947C290.368 268.947 291.495 273.038 295.982 273.253C300.469 273.468 300.016 270.831 300.016 270.831L301.683 270.639C301.683 270.639 303.364 273.135 305.861 270.414C305.861 270.414 308.191 283.119 300.541 283.813C293.815 284.422 291.128 278.952 290.579 277.62C290.506 277.446 290.457 277.267 290.426 277.083L289.162 269.421V269.418Z" fill="#EAE4E1"/>
<path d="M293.74 273.96C293.74 273.96 295.441 274.518 296.45 274.615L295.953 275.096C296.504 275.081 296.988 275.188 297.62 274.904C297.62 274.904 297.667 275.299 297.415 275.493C297.415 275.493 297.914 275.506 298.159 274.984C298.159 274.984 298.502 275.534 299.251 275.542L299.191 275.03C299.191 275.03 299.73 275.368 301.863 275.122C301.863 275.122 301.34 277.94 297.368 277.643C293.396 277.346 293.74 273.957 293.74 273.957V273.96Z" fill="white"/>
<path d="M293.74 273.96C294.666 274.221 295.607 274.484 296.57 274.571L296.489 274.651L295.997 275.137L295.953 275.035C296.242 275.025 296.523 275.05 296.798 275.035C297.108 275.022 297.407 274.938 297.68 274.802C297.698 274.95 297.701 275.101 297.657 275.245C297.623 275.357 297.558 275.47 297.457 275.547L297.415 275.424C297.758 275.421 298.031 275.158 298.146 274.853C298.37 275.232 298.799 275.48 299.249 275.483L299.189 275.547L299.134 275.035L299.124 274.94C299.961 275.309 300.96 275.165 301.858 275.122C300.965 275.217 300.026 275.38 299.158 275.073L299.238 275.025L299.306 275.537L299.314 275.603C298.843 275.616 298.37 275.411 298.099 275.019L298.213 275.012C298.039 275.414 297.639 275.601 297.204 275.567L297.368 275.442C297.516 275.329 297.563 275.107 297.55 274.915L297.646 274.968C297.069 275.25 296.408 275.142 295.797 275.163C295.865 275.101 296.333 274.653 296.411 274.579L296.442 274.669C295.511 274.548 294.619 274.262 293.737 273.962L293.74 273.96Z" fill="#D9CEC8"/>
<path d="M295.443 268.363C296.312 268.262 296.915 267.341 296.791 266.307C296.666 265.272 295.861 264.515 294.992 264.616C294.123 264.717 293.52 265.638 293.645 266.673C293.769 267.708 294.574 268.465 295.443 268.363Z" fill="white"/>
<path d="M295.224 267.873C295.857 267.799 296.297 267.128 296.206 266.374C296.116 265.621 295.529 265.069 294.895 265.143C294.262 265.217 293.822 265.888 293.913 266.642C294.003 267.396 294.59 267.947 295.224 267.873Z" fill="black"/>
<path d="M302.367 267.136C303.16 267.044 303.711 266.203 303.598 265.258C303.484 264.313 302.749 263.622 301.956 263.714C301.163 263.807 300.612 264.647 300.725 265.592C300.839 266.537 301.574 267.228 302.367 267.136Z" fill="white"/>
<path d="M302.096 266.773C302.655 266.708 303.038 266.07 302.952 265.348C302.865 264.626 302.341 264.094 301.782 264.159C301.223 264.224 300.84 264.862 300.926 265.584C301.013 266.306 301.537 266.838 302.096 266.773Z" fill="black"/>
<path d="M301.084 271.179C302.05 271.069 302.755 270.312 302.658 269.489C302.561 268.666 301.699 268.088 300.733 268.199C299.767 268.309 299.062 269.066 299.159 269.889C299.256 270.712 300.118 271.289 301.084 271.179Z" fill="#F2D2C6"/>
<path d="M298.585 269.275C298.343 269.385 298.107 269.534 297.956 269.733C297.787 269.933 297.821 270.176 297.977 270.353C298.276 270.693 298.89 270.519 299.35 270.353L299.467 270.312L299.545 270.414C299.928 270.916 300.664 271.118 301.293 270.947C301.917 270.79 302.469 270.281 302.482 269.664C302.516 269.37 302.305 269.152 302.05 268.911C301.803 268.678 301.519 268.463 301.239 268.248C300.682 267.821 300.076 267.368 299.753 266.736C300.156 267.319 300.812 267.644 301.392 268.049C301.691 268.246 301.993 268.438 302.279 268.671C302.547 268.878 302.882 269.237 302.854 269.667C302.851 270.47 302.17 271.162 301.387 271.318C300.617 271.505 299.717 271.254 299.264 270.598L299.457 270.66C299.189 270.737 298.911 270.798 298.617 270.806C298.336 270.813 297.979 270.742 297.797 270.47C297.613 270.235 297.641 269.854 297.867 269.667C298.07 269.47 298.325 269.357 298.583 269.275H298.585Z" fill="#F1B399"/>
<path d="M293.57 270.601C293.04 270.601 292.481 270.545 291.895 270.427C290.92 270.23 290.08 269.403 289.528 268.097C288.875 266.551 288.787 264.703 289.331 263.889C290.288 262.453 294.535 261.099 296.32 261.662C296.957 261.861 297.511 262.473 297.88 263.385C298.448 264.787 298.58 266.997 297.737 268.499C296.973 269.864 295.469 270.601 293.573 270.601H293.57ZM295.292 261.928C293.355 261.928 290.337 263.113 289.671 264.109C289.211 264.798 289.318 266.554 289.906 267.941C290.194 268.625 290.847 269.802 291.976 270.03C294.468 270.532 296.486 269.884 297.376 268.302C298.055 267.091 298.107 265.041 297.498 263.53C297.176 262.734 296.713 262.204 296.195 262.043C295.94 261.964 295.633 261.925 295.295 261.925L295.292 261.928Z" fill="#849BA7"/>
<path d="M303.915 268.686C302.573 268.686 300.749 267.951 299.675 266.638C298.671 265.409 298.211 263.203 298.427 261.989C298.723 260.318 301.444 260.059 303.894 260.377C305.988 260.648 306.178 261.534 306.467 262.878L306.501 263.036C306.935 265.043 306.261 267.649 305.117 268.397C304.815 268.591 304.396 268.686 303.918 268.686H303.915ZM298.83 262.059C298.653 263.054 299.012 265.182 299.995 266.385C301.306 267.99 303.907 268.699 304.888 268.059C305.793 267.468 306.534 265.133 306.097 263.121L306.064 262.962C305.785 261.662 305.645 261.009 303.84 260.776C302.102 260.551 299.095 260.569 298.83 262.059Z" fill="#849BA7"/>
<path d="M287.148 267.759L286.55 267.706L289.076 265.906L289.349 266.19L287.148 267.759Z" fill="#849BA7"/>
<path d="M304.773 263.126L306.001 262.25L306.277 262.537L304.805 263.584L304.773 263.126Z" fill="#849BA7"/>
<path d="M298.013 263.973L297.654 263.779C297.665 263.758 297.927 263.295 298.684 263.408L298.622 263.807C298.164 263.738 298.018 263.966 298.013 263.973Z" fill="#849BA7"/>
<path opacity="0.5" d="M288.922 270.381C289.333 271.459 288.953 272.549 288.072 272.818C287.19 273.087 286.142 272.429 285.728 271.351C285.317 270.273 285.697 269.183 286.579 268.914C287.46 268.645 288.509 269.303 288.922 270.381Z" fill="#F1B399"/>
<path d="M295.032 284.606C295.032 284.606 294.135 284.527 294.327 285.157C294.52 285.787 295.118 287.571 294.645 288.073C294.171 288.574 296.216 290.451 297.912 290.028C299.608 289.606 300.102 288.132 300.102 288.132L299.732 287.256C299.732 287.256 299.28 286.183 299.561 285.205C299.842 284.228 299.165 284.42 299.165 284.42C299.165 284.42 297.014 285.807 295.03 284.606H295.032Z" fill="#05123A"/>
</g>
<mask id="mask0_0_1" style="mask-type:luminance" maskUnits="userSpaceOnUse" x="154" y="298" width="32" height="33">
<path d="M186 298.125H154V330.125H186V298.125Z" fill="white"/>
</mask>
<g mask="url(#mask0_0_1)">
<mask id="mask1_0_1" style="mask-type:luminance" maskUnits="userSpaceOnUse" x="153" y="298" width="34" height="33">
<path d="M167.203 298.374C158.504 299.915 152.696 308.223 154.249 316.922C155.612 324.626 162.284 330.054 169.834 330.125H170.13C171.007 330.125 171.896 330.03 172.797 329.876C181.496 328.335 187.304 320.027 185.751 311.328C184.376 303.577 177.633 298.125 170.012 298.125C169.087 298.125 168.151 298.208 167.203 298.374Z" fill="white"/>
</mask>
<g mask="url(#mask1_0_1)">
<path d="M186 314.172C185.976 323.002 178.794 330.149 169.964 330.125C161.135 330.101 153.988 322.919 154.012 314.09C154.035 305.248 161.218 298.113 170.047 298.137C178.889 298.161 186.024 305.343 186 314.172Z" fill="#7575D3"/>
<path d="M166.29 304.205C166.29 304.205 165.911 302.38 168.246 302.617C170.581 302.854 172.856 303.743 173.71 303.612C174.563 303.482 175.452 302.238 177.633 303.21C179.813 304.181 181.425 305.331 180.868 308.472C180.299 311.612 177.893 310.487 177.893 310.487C177.893 310.487 178.107 315.855 179.624 317.349C181.141 318.842 181.437 318.214 181.437 318.214C181.437 318.214 178.853 320.703 174.942 320.466C171.031 320.229 169.277 320.347 169.277 320.347C169.277 320.347 163.896 322.018 158.788 317.147C158.788 317.147 161.289 316.863 161.159 315.5C161.028 314.137 160.649 308.069 161.739 306.066C162.889 303.944 164.88 303.364 166.29 304.217" fill="#ED8603"/>
<path d="M167.618 324.804L165.627 325.076C165.627 325.076 160.412 326.214 159.926 328.336C159.44 330.457 174.421 332.057 179.47 329.521C179.47 329.521 179.481 325.894 175.286 324.97C171.09 324.045 167.618 324.792 167.618 324.792" fill="#70BFB7"/>
<path d="M172.382 319.672L168.826 318.427C168.826 318.427 168.826 320.809 168.803 322.445C169.466 322.812 170.604 323.263 172.536 323.63L172.394 319.672H172.382Z" fill="#F1B8AC"/>
<path d="M172.548 323.998V323.63C170.604 323.263 169.467 322.812 168.803 322.445C168.803 323.227 168.779 323.844 168.767 323.962C168.72 324.318 165.627 325.076 165.627 325.076C166.231 328.063 169.917 329.829 172.465 329.153C175.025 328.478 175.286 324.97 175.286 324.97L172.536 323.986H172.548V323.998Z" fill="#F6C6B9"/>
<path d="M167.558 306.718C167.558 306.718 168.187 307.642 169.478 307.441C170.782 307.251 172.761 305.758 174.29 306.019C175.819 306.267 177.253 307.002 177.372 309.349C177.49 311.696 176.755 311.447 177.443 313.379C178.142 315.31 176.554 320.276 174.812 321.236C172.951 322.267 170.344 321.734 168.329 319.767C166.314 317.811 165.508 316.543 165.496 315.867C165.496 315.867 165.105 316.496 164.347 316.401C163.588 316.306 162.995 315.536 162.877 314.623C162.758 313.71 163.197 312.798 163.896 312.976C164.595 313.153 165.235 314.232 165.235 314.232C165.235 314.232 167.345 313.201 167.191 310.475C167.037 307.749 167.547 306.706 167.547 306.706" fill="#F6C6B9"/>
<path d="M171.268 312.193C171.268 312.193 171.256 313.402 170.912 313.793C170.402 314.374 168.222 313.615 168.115 313.319C168.008 313.023 168.257 312.442 168.257 312.442L170.118 311.98L171.28 312.193H171.268Z" fill="#EEF1F4"/>
<path d="M171.185 312.786C171.185 312.786 171.908 311.933 171.007 311.66C170.107 311.387 168.507 312.371 167.926 312.573C167.926 312.573 168.424 312.573 169.692 312.288C171.126 311.98 171.185 312.786 171.185 312.786Z" fill="#1D1D1A"/>
<path d="M176.708 312.193C176.708 312.193 176.708 312.75 176.483 313.177C176.234 313.663 174.788 313.722 174.432 313.533C174.124 313.367 174.195 313.13 174.207 312.952C174.231 312.573 174.491 312.205 174.788 312.016C175.226 311.731 176.565 310.996 176.708 312.193Z" fill="#EEF1F4"/>
<path d="M174.337 312.952C174.361 313.248 174.527 313.485 174.752 313.615C174.871 313.687 175.392 313.651 175.487 313.592C175.724 313.438 175.878 313.153 175.854 312.833C175.819 312.383 175.451 312.051 175.037 312.087C174.622 312.122 174.314 312.513 174.349 312.952" fill="#1D1D1A"/>
<path d="M174.183 312.715C174.183 312.715 174.231 312.217 174.693 311.873C175.132 311.541 175.582 311.399 175.689 311.352C175.961 311.257 177.455 310.961 176.672 312.241C176.672 312.241 176.613 311.541 175.452 311.873C174.29 312.205 174.183 312.703 174.183 312.703" fill="#1D1D1A"/>
<path d="M168.257 313.189C168.257 313.295 168.281 313.414 168.328 313.485C168.4 313.58 169.419 313.959 169.525 313.9C169.798 313.734 169.964 313.402 169.928 313.047C169.893 312.549 169.49 312.335 169.028 312.371C168.565 312.407 168.21 312.679 168.245 313.177" fill="#1D1D1A"/>
<path d="M168.601 312.845C168.601 312.975 168.731 313.07 168.862 313.058C168.992 313.058 169.087 312.928 169.075 312.798C169.075 312.667 168.945 312.573 168.814 312.584C168.684 312.584 168.589 312.703 168.601 312.845Z" fill="#EEF1F4"/>
<path d="M175.049 312.43C175.049 312.561 174.966 312.679 174.835 312.691C174.705 312.691 174.586 312.608 174.575 312.478C174.575 312.347 174.658 312.229 174.788 312.217C174.918 312.217 175.037 312.3 175.049 312.43Z" fill="#EEF1F4"/>
<path d="M175.037 317.858C175.037 317.858 175.345 318.534 174.811 318.807C174.29 319.079 172.868 319.055 172.856 318.178C172.856 317.799 175.037 317.858 175.037 317.858Z" fill="#F4666C"/>
<path d="M174.361 317.349L174.752 316.946C174.752 316.946 175.44 317.325 175.428 317.55C175.428 317.787 175.25 318.012 174.93 318.012C174.61 318.012 174.515 317.787 174.266 317.918C174.018 318.048 172.666 318.593 172.181 318.036C172.181 318.036 172.773 318.155 173.2 317.621C173.626 317.088 173.65 316.958 173.792 317.041C173.935 317.124 174.349 317.349 174.349 317.349" fill="#FB9193"/>
<path d="M174.515 309.681C174.515 309.681 176.471 309.1 177.051 310.107C177.632 311.115 176.566 309.977 175.831 310.107C175.096 310.238 174.278 310.57 174.527 309.681" fill="#FB805A"/>
<path d="M171.529 309.87C171.529 309.87 169.395 309.147 168.708 310.321C168.02 311.482 169.253 310.167 170.059 310.344C170.865 310.51 171.754 310.925 171.529 309.882" fill="#FB805A"/>
<path d="M174.432 310.617C173.982 311.601 173.934 312.809 174.503 313.687C174.646 313.912 174.823 314.101 175.013 314.279C175.108 314.362 175.214 314.445 175.321 314.504C175.38 314.54 175.416 314.564 175.487 314.587C175.653 314.706 175.606 314.848 175.606 314.919C175.416 315.535 174.764 315.903 174.16 315.749L174.254 315.725C174.053 315.867 173.828 315.974 173.567 316.009C173.437 316.021 173.283 316.009 173.176 315.915C173.057 315.808 173.022 315.701 172.974 315.583C172.88 315.381 172.832 315.026 173.117 314.895C173.377 314.812 173.603 314.978 173.768 315.132C173.591 315.002 173.342 314.884 173.152 314.967C172.963 315.073 173.022 315.334 173.117 315.524C173.211 315.737 173.342 315.879 173.555 315.82C173.757 315.784 173.958 315.654 174.136 315.535L174.183 315.5H174.231C174.717 315.63 175.25 315.287 175.368 314.848C175.392 314.789 175.345 314.765 175.392 314.812C175.345 314.789 175.262 314.741 175.203 314.706C175.084 314.623 174.966 314.54 174.859 314.445C174.646 314.255 174.456 314.03 174.314 313.793C174.006 313.307 173.899 312.715 173.934 312.158C173.97 311.601 174.136 311.055 174.432 310.593" fill="#FBA288"/>
<path d="M163.979 315.18C164.228 315.642 164.655 315.915 164.916 315.761C165.188 315.618 165.2 315.121 164.939 314.658C164.69 314.196 164.264 313.924 164.003 314.078C163.742 314.22 163.718 314.718 163.979 315.18Z" fill="#FBA288"/>
</g>
</g>
<defs>
<clipPath id="clip0_0_1">
<rect width="55" height="55" fill="white" transform="translate(188 153.125)"/>
</clipPath>
<clipPath id="clip1_0_1">
<rect width="42" height="41" fill="white" transform="translate(276 251.125)"/>
</clipPath>
</defs>
</svg>
