<svg width="58" height="59" viewBox="0 0 58 59" fill="none" xmlns="http://www.w3.org/2000/svg">
<g filter="url(#filter0_d_10_13848)">
<ellipse cx="29" cy="29.6666" rx="21" ry="21.2669" fill="#D9D9D9"/>
</g>
<g clip-path="url(#clip0_10_13848)">
<path d="M28.9999 50.9308C40.595 50.9308 49.9946 41.4105 49.9946 29.6665C49.9946 17.9226 40.595 8.40222 28.9999 8.40222C17.4048 8.40222 8.00513 17.9226 8.00513 29.6665C8.00513 41.4105 17.4048 50.9308 28.9999 50.9308Z" fill="#D895D6"/>
<path d="M34.5151 43.3466C29.2756 41.9138 24.8394 42.6581 24.8394 42.6581H24.842L22.3063 42.8894C22.3063 42.8894 17.6469 43.6842 15.3395 45.8056C19.0119 48.9983 23.7815 50.931 29 50.931C32.7774 50.931 36.3185 49.9155 39.3819 48.1476C39.0616 46.6669 37.9985 44.301 34.5151 43.3466Z" fill="#F3F6FC"/>
<path d="M26.585 39.7365C26.5561 39.3883 26.0653 38.6679 26.0653 38.6679C25.1675 39.1464 23.9416 39.0613 23.9416 39.0613C23.9416 39.0613 24.3669 38.8008 24.485 38.0591C24.527 37.7933 24.1044 37.3626 23.54 36.9186C21.566 35.3582 19.9726 33.3564 18.9699 31.033C18.5998 30.1744 18.3058 29.3742 18.2191 28.8425C17.7519 25.9236 17.8963 20.9711 18.605 18.98C19.3138 16.9889 21.6658 15.5746 21.6658 15.5746C21.9309 15.3646 22.2249 15.1891 22.5399 15.0509C24.3748 14.2454 27.0654 13.2326 28.916 13.1289C28.7848 13.4931 28.7139 13.8759 28.7086 14.2614C30.2889 14.3491 31.8901 14.062 33.3208 13.4373C33.4809 13.3682 33.6699 13.2911 33.8221 13.3947C33.8825 13.4346 33.9193 13.5011 33.9376 13.5675C34.0216 13.9158 33.6016 14.1657 33.6095 14.5006C35.5415 15.0509 37.5654 14.054 39.584 13.9557C39.8491 13.9424 40.0408 14.2215 39.9279 14.4634C39.7993 14.7346 39.7179 15.027 39.6864 15.3221C40.151 15.3327 40.6156 15.3912 41.0671 15.4975C41.3769 15.5693 41.5029 15.9494 41.3113 16.2046L40.6078 17.143C40.8965 17.5019 41.4976 17.5764 42.02 17.5604C42.3403 17.5524 42.566 17.8821 42.4321 18.1745C42.2038 18.6689 41.4845 20.0167 41.4845 20.0167C41.4346 20.147 39.7546 23.2015 39.7546 23.2015C39.7546 23.2015 39.6208 24.3127 40.067 25.3787C40.067 25.3787 39.3478 24.7353 39.1246 24.2595C38.9015 23.7836 38.6154 26.4075 38.891 26.8753C38.891 26.8753 39.4318 28.9941 40.424 29.212C40.424 29.212 39.899 29.4061 39.1483 28.9941C38.3975 28.582 37.0561 29.0366 37.0561 29.0366H37.043L27.194 39.5212L26.5824 39.7365H26.585Z" fill="#BECBE4"/>
<path d="M19.55 23.0845C19.4266 23.7545 19.4056 24.443 19.4844 25.1182C19.5159 25.3947 19.6051 25.7163 19.886 25.8147L20.453 24.225C20.5344 24.5094 20.6158 24.7965 20.6971 25.081C20.7155 25.1448 20.7365 25.2139 20.8258 25.2352C20.8835 25.2485 20.9465 25.2272 20.9885 25.19C21.0804 25.1076 21.0856 24.9906 21.0935 24.8789C21.1381 24.3074 21.3298 23.7491 21.6474 23.2573C21.8679 24.1293 22.0884 25.0012 22.3115 25.8732C22.3351 25.9609 22.3693 26.0646 22.4611 26.0938C22.5215 26.1151 22.5924 26.0938 22.6475 26.0619C22.8575 25.9449 22.9336 25.7004 22.9678 25.4771C23.0465 24.9427 22.9835 24.4004 23.0255 23.8608C23.0675 23.3211 23.2329 22.7602 23.6686 22.3987C23.7526 23.4594 23.9311 24.5147 24.1989 25.5488C24.4745 24.9002 24.632 24.2143 24.7869 23.5311L25.2226 25.5515C25.5796 25.4531 25.7371 25.0677 25.7923 24.7274C25.8474 24.3871 25.8684 24.0097 26.1256 23.7598C26.2096 24.4722 26.4485 25.166 26.8186 25.7961C26.9473 25.073 27.1809 24.3659 27.5143 23.6986C27.6796 23.369 28.202 23.4168 28.2886 23.7731C28.5013 24.6237 27.9159 26.2427 28.3359 27.0242C28.433 26.2533 29.4961 24.7008 29.7114 23.9512C29.756 23.797 29.8505 23.6056 30.0238 23.6162C30.1681 24.6158 30.4306 25.6047 30.8034 26.5511C31.0554 25.9529 31.3756 25.3787 31.7615 24.8417L32.1946 27.1359C32.5175 26.5511 32.8378 25.9662 33.1606 25.3814C33.1843 25.3362 33.2131 25.2883 33.2866 25.2963C33.3523 25.3043 33.3995 25.3574 33.4021 25.4186L33.5518 27.3565C34.0348 26.9977 34.4285 26.5324 34.691 26.0114C34.6648 26.6202 34.7304 27.2343 34.8905 27.8244C35.2108 27.4576 35.4523 27.0322 35.5966 26.5803C35.5888 26.9206 35.6203 27.2608 35.6964 27.5931C35.7148 27.6782 35.7541 27.7792 35.846 27.7952C35.909 27.8058 35.9694 27.7712 36.0219 27.734C36.35 27.5107 36.6414 27.2422 36.8829 26.9392C36.8356 27.4017 36.8698 27.8723 36.9853 28.3268L37.7859 27.6277C37.7308 27.8988 37.7544 28.1806 37.8515 28.4412C38.1035 28.3029 38.324 28.1168 38.4973 27.9015L37.6599 30.0601C37.7754 29.563 37.8148 29.0499 37.7754 28.5422C37.4578 29.0366 37.0981 29.5098 36.7018 29.9564C36.2634 29.4008 36.35 28.6432 36.455 27.9626C36.1348 28.1434 35.8723 28.4119 35.7121 28.7229C35.5835 28.3853 35.5126 28.0264 35.5048 27.6676C35.2816 28.3029 35.006 28.9994 34.3681 29.3184C34.4259 28.6246 34.4679 27.8776 34.0689 27.2848C33.6751 27.851 33.3155 28.4358 32.9926 29.0393C32.6829 28.2577 33.3313 27.2981 32.864 26.583L31.3074 28.6751L31.3153 26.3703C30.9058 27.0987 30.4228 27.7925 29.8741 28.4385C29.672 27.3619 29.6143 26.2613 29.6983 25.1714C29.3413 26.248 28.9423 27.3167 28.5065 28.3694C28.4146 28.5874 28.076 28.5688 28.013 28.3401C27.8398 27.7048 27.7453 27.0482 27.7348 26.3942C27.7243 25.8492 28.076 25.3176 27.8424 24.8178C27.677 25.5701 26.9053 26.4766 26.3619 27.2263L26.0128 25.1262C25.7319 25.6685 25.4064 26.1922 25.0389 26.6893C24.5874 26.3278 24.3984 25.711 24.5795 25.1847C24.1831 25.7004 23.8314 26.2453 23.5295 26.8142L23.3694 24.6104L22.6186 27.2954C21.8023 26.8036 21.3613 25.8306 21.5529 24.9481C21.3324 25.2617 21.1513 25.5967 21.0121 25.9449C20.7943 25.7642 20.642 25.5169 20.5869 25.2538L19.8886 26.3517C19.8493 26.4128 19.781 26.4607 19.7023 26.4633C19.5448 26.474 19.4923 26.3251 19.466 26.2028C19.4109 25.9529 19.3558 25.7057 19.3006 25.4558C19.13 25.9317 18.962 26.4075 18.7914 26.8833C18.8806 26.6335 18.7809 26.1018 18.7231 25.8466C18.6864 25.8466 18.6391 25.8253 18.6076 25.8227C18.6076 24.8603 18.9804 23.8714 19.5579 23.0766L19.55 23.0845Z" fill="#D2DCEF"/>
<path d="M31.1604 36.379L26.7425 34.574C26.7425 34.574 26.5929 37.6098 26.4721 39.7126C27.2859 40.223 28.6981 40.8663 31.1105 41.4512L31.163 36.379H31.1604Z" fill="#F4BCAE"/>
<path d="M31.1052 41.9217L31.1105 41.4538C28.6981 40.8689 27.2859 40.2256 26.4721 39.7152C26.4144 40.7148 26.3619 41.5016 26.3356 41.6505C26.2542 42.1104 22.3089 42.892 22.3089 42.892C22.8942 46.7413 27.4355 49.2322 30.7036 48.525C33.9717 47.8179 34.5204 43.3492 34.5204 43.3492L31.1079 41.9217H31.1052Z" fill="#FACBBD"/>
<path d="M25.556 21.306C25.556 21.306 31.1262 22.2205 32.7669 22.4651C35.0532 22.8054 39.0721 23.1217 39.0721 23.1217C39.2296 24.0229 38.8437 25.6073 38.4762 28.1779C38.2137 30.0122 39.4921 30.8177 36.7962 35.212C36.1505 36.2647 36.224 36.4853 35.1267 38.0777C34.7304 38.6519 33.5544 39.5451 32.1789 39.4122C29.6904 39.1703 26.4642 37.219 24.989 35.4512C23.9075 34.1566 23.8156 32.3967 23.8025 31.5195C23.8025 31.5195 23.309 32.3223 22.3509 32.2053C21.3927 32.0857 20.642 31.0915 20.495 29.9351C20.348 28.7787 20.894 27.601 21.7786 27.827C22.6632 28.053 23.4691 29.4273 23.4691 29.4273C23.4691 29.4273 25.2305 28.0423 25.9366 24.621C26.6112 21.3592 25.5534 21.3087 25.5534 21.3087L25.556 21.306Z" fill="#FACBBD"/>
<path d="M31.1892 27.5957C31.1892 27.5957 31.2417 28.7362 30.8139 29.2333C30.176 29.975 27.5326 28.9754 27.3909 28.6032C27.2491 28.2311 27.3777 27.9121 27.3777 27.9121L29.7245 27.3219L31.1892 27.5931V27.5957Z" fill="#F2F5F7"/>
<path d="M28.4829 29.1296C28.9192 29.1296 29.273 28.7714 29.273 28.3295C29.273 27.8875 28.9192 27.5293 28.4829 27.5293C28.0465 27.5293 27.6927 27.8875 27.6927 28.3295C27.6927 28.7714 28.0465 29.1296 28.4829 29.1296Z" fill="#1D1D1B"/>
<path d="M28.2125 28.4172C28.3792 28.4172 28.5144 28.2803 28.5144 28.1115C28.5144 27.9427 28.3792 27.8058 28.2125 27.8058C28.0458 27.8058 27.9106 27.9427 27.9106 28.1115C27.9106 28.2803 28.0458 28.4172 28.2125 28.4172Z" fill="#F2F5F7"/>
<path d="M38.1901 26.8568C38.1901 26.8568 38.2899 27.6915 37.9066 28.2258C37.3396 29.0233 34.7671 28.8532 34.5624 28.5156C34.2264 27.9626 34.4259 27.5293 34.4259 27.5293L36.7096 26.7212L38.1928 26.8541H38.1901V26.8568Z" fill="#F2F5F7"/>
<path d="M35.5625 28.6432C35.9989 28.6432 36.3526 28.2849 36.3526 27.843C36.3526 27.4011 35.9989 27.0428 35.5625 27.0428C35.1261 27.0428 34.7724 27.4011 34.7724 27.843C34.7724 28.2849 35.1261 28.6432 35.5625 28.6432Z" fill="#1D1D1B"/>
<path d="M35.2659 27.9599C35.4326 27.9599 35.5677 27.8231 35.5677 27.6542C35.5677 27.4854 35.4326 27.3485 35.2659 27.3485C35.0991 27.3485 34.964 27.4854 34.964 27.6542C34.964 27.8231 35.0991 27.9599 35.2659 27.9599Z" fill="#F2F5F7"/>
<path d="M34.4311 34.9381C34.4311 34.9381 34.9509 35.5283 34.1896 35.9217C33.4284 36.3151 31.2838 36.0786 30.3046 35.2146L30.8191 35.4113L34.4311 34.9381Z" fill="#F7666C"/>
<path d="M34.9955 34.4969C34.8931 35.3635 34.3156 35.1429 33.4126 35.1668C32.255 35.1987 30.7089 35.6852 30.3046 35.2146C30.3046 35.2146 31.2286 35.3927 32.108 34.9355C32.7721 34.5899 32.9795 34.2762 33.7198 34.239C33.8353 34.2337 33.9429 34.4198 34.04 34.4224C34.1608 34.4277 34.2579 34.247 34.3393 34.2603C34.754 34.3161 35.0034 34.4198 34.9955 34.4969Z" fill="#FE9598"/>
<path d="M35.5047 23.9379C35.5389 23.8794 38.0877 23.9113 38.4342 25.3601C38.7807 26.8089 37.8909 25.0198 36.9485 24.9241C36.0061 24.8284 34.8984 24.9507 35.5047 23.9379Z" fill="#96A6C5"/>
<path d="M30.4621 23.8421C30.4175 23.7783 27.6193 24.068 27.4014 25.7853C27.1835 27.5 27.9605 25.3361 28.9869 25.1287C30.0133 24.9214 31.2444 24.9559 30.4621 23.8421Z" fill="#96A6C5"/>
<path d="M23.0535 31.393C23.3904 31.2092 23.4055 30.575 23.0872 29.9765C22.7689 29.3781 22.2377 29.042 21.9007 29.2258C21.5637 29.4096 21.5486 30.0437 21.867 30.6422C22.1853 31.2407 22.7165 31.5768 23.0535 31.393Z" fill="#FFA68B"/>
<path d="M34.4915 20.5989C34.5571 20.6068 40.0145 22.1354 40.1142 22.3959C40.3662 22.2577 39.5682 23.4221 39.7441 23.2041L39.1141 24.2621L38.8411 23.3822C38.3686 23.6002 38.6836 24.924 38.6836 24.924C38.2059 24.3631 37.9722 23.9245 37.6861 23.2652C37.3632 23.446 37.1007 23.7145 36.9354 24.0255C36.8067 23.6879 36.7359 23.329 36.7254 22.9701C36.4996 23.6055 36.2214 24.302 35.5782 24.621C35.636 23.9271 35.4155 23.2493 35.2685 23.01C35.2685 23.01 34.5755 23.3423 34.5361 24.2036C34.4705 24.0361 33.8799 23.2041 33.83 22.6139L32.4939 23.9803L32.3574 22.4039C31.6906 22.784 31.2969 23.8368 31.2969 23.8368C31.2969 23.8368 30.5304 23.2891 30.617 22.1992C30.617 22.1992 29.9292 21.9227 29.7376 23.1217C29.7009 23.3556 29.4226 23.9218 29.1732 23.6454C28.6955 23.111 28.307 22.2922 28.2939 21.6356C28.2939 21.6356 28.1521 21.9413 27.6061 22.691L26.9 21.524C26.6165 22.0663 26.9577 22.8718 26.9577 22.8718C26.5351 22.5368 25.577 21.5373 25.5849 21.0295C25.5849 21.0003 25.5507 20.9843 25.5297 21.0056C25.178 21.4017 24.9365 21.5825 24.653 22.1141L24.4929 19.9104L23.7369 22.5953C22.9152 22.1035 22.469 21.1305 22.6632 20.248C22.4427 20.5617 22.259 20.8966 22.1172 21.2449C21.8994 21.0641 21.7445 20.8169 21.6867 20.5537L20.9832 21.6516C20.9439 21.7127 20.8756 21.7606 20.7969 21.7632C20.6394 21.7739 20.5842 21.625 20.558 21.5027C20.5029 21.2528 20.4477 21.0056 20.3926 20.7557C20.222 21.2316 20.0514 21.7074 19.8781 22.1833C19.9674 21.9334 19.8676 21.4017 19.8099 21.1465C19.7731 21.1465 19.7259 21.1252 19.6917 21.1226C20.4714 17.1722 34.418 20.5803 34.4915 20.5882V20.5989Z" fill="#BECBE4"/>
<path d="M31.079 28.3534C31.079 28.3534 32.0004 27.2635 30.8559 26.9046C29.7114 26.5457 27.6901 27.8217 26.9578 28.0716C26.9578 28.0716 27.5799 28.061 29.1943 27.7128C31.0029 27.322 31.0816 28.3508 31.0816 28.3508H31.079V28.3534Z" fill="black"/>
<path d="M38.1508 27.6223C38.1508 27.6223 38.9698 26.4499 37.7964 26.2C36.623 25.9501 34.9325 27.3033 34.2264 27.6223C34.2264 27.6223 34.6385 27.6595 36.2135 27.1624C37.9801 26.6041 38.1508 27.6223 38.1508 27.6223Z" fill="black"/>
<path d="M26.648 28.1979C26.2726 28.2676 25.9104 28.2301 25.5586 28.0772C25.934 28.0048 26.2962 28.0477 26.648 28.1979Z" fill="#FFA68B"/>
<path d="M26.648 28.5159C26.4117 28.6255 26.1755 28.6282 25.9392 28.5159C26.1755 28.4037 26.4117 28.4064 26.648 28.5159Z" fill="#FFA68B"/>
<path d="M26.648 28.9009C26.4485 29.0903 26.2122 29.1783 25.9392 29.1596C26.1387 28.9676 26.375 28.8823 26.648 28.9009Z" fill="#FFA68B"/>
<path d="M31.688 33.0109C31.688 33.0109 30.6537 34.2523 30.3309 34.3719L31.688 33.0109Z" fill="#FFA68B"/>
<path d="M31.688 33.0109C31.3047 33.5186 30.9005 34.0742 30.3309 34.3719C30.8375 33.9812 31.2181 33.4468 31.688 33.0109Z" fill="#FFA68B"/>
<path d="M35.6229 32.745C35.6229 32.745 36.098 34.2975 36.0245 34.6351L35.6229 32.745Z" fill="#FFA68B"/>
<path d="M35.6229 32.745C35.8381 33.3458 36.0822 33.9918 36.0245 34.6351C35.972 33.9918 35.7331 33.3803 35.6229 32.745Z" fill="#FFA68B"/>
<path d="M34.5151 25.9714C34.3156 26.7583 34.187 27.5718 34.1896 28.3959C34.3025 28.901 34.3471 29.7676 34.8564 30.504C35.1189 30.8974 35.4759 31.3892 35.6518 31.6524C35.8723 31.9155 35.7436 32.1894 35.426 32.3914C35.111 32.5615 34.7619 32.7396 34.4154 32.5828C34.0085 32.4924 33.5176 32.4951 33.1711 32.8327L33.2368 32.8034C33.0451 32.8167 32.8273 32.7955 32.6566 32.6971C32.4781 32.5987 32.4099 32.3728 32.4466 32.1575C32.3784 32.3568 32.4073 32.6253 32.6015 32.7742C32.7853 32.9204 33.011 32.9736 33.2394 32.9948H33.263L33.305 32.9656C33.578 32.7556 33.9928 32.7529 34.3393 32.8699C34.7461 33.0852 35.2554 32.9098 35.6098 32.7024C35.7961 32.5855 35.9904 32.4313 36.0901 32.1761C36.1925 31.9209 36.1111 31.6072 35.9668 31.4291C35.6806 31.0197 35.3473 30.5624 35.1609 30.27C34.712 29.6852 34.523 28.7893 34.4705 28.3906C34.4233 27.5957 34.4311 26.7849 34.5099 25.9768L34.5151 25.9714Z" fill="#FFA68B"/>
</g>
<defs>
<filter id="filter0_d_10_13848" x="0" y="0.399658" width="58" height="58.5339" filterUnits="userSpaceOnUse" color-interpolation-filters="sRGB">
<feFlood flood-opacity="0" result="BackgroundImageFix"/>
<feColorMatrix in="SourceAlpha" type="matrix" values="0 0 0 0 0 0 0 0 0 0 0 0 0 0 0 0 0 0 127 0" result="hardAlpha"/>
<feOffset/>
<feGaussianBlur stdDeviation="4"/>
<feComposite in2="hardAlpha" operator="out"/>
<feColorMatrix type="matrix" values="0 0 0 0 0.0745098 0 0 0 0 0.113725 0 0 0 0 0.207843 0 0 0 0.15 0"/>
<feBlend mode="normal" in2="BackgroundImageFix" result="effect1_dropShadow_10_13848"/>
<feBlend mode="normal" in="SourceGraphic" in2="effect1_dropShadow_10_13848" result="shape"/>
</filter>
<clipPath id="clip0_10_13848">
<rect width="42" height="42.5339" fill="white" transform="translate(8 8.39966)"/>
</clipPath>
</defs>
</svg>
