<svg width="93" height="92" viewBox="0 0 93 92" fill="none" xmlns="http://www.w3.org/2000/svg">
<g filter="url(#filter0_d_10_13819)">
<ellipse cx="46.5" cy="46.0143" rx="20.5" ry="19.849" fill="#D9D9D9"/>
</g>
<g clip-path="url(#clip0_10_13819)">
<path d="M46.4999 65.861C35.1795 65.861 26.0025 56.9754 26.0025 46.0145C26.0025 35.0536 35.1795 26.168 46.4999 26.168C57.8204 26.168 66.9974 35.0536 66.9974 46.0145C66.9974 56.9754 57.8204 65.861 46.4999 65.861Z" fill="#B4BEF4"/>
<path d="M47.015 61.7888C47.22 61.7888 52.1733 62.9153 55.7173 63.7243C52.9421 65.0816 49.8184 65.8633 46.4974 65.8633C42.9483 65.8633 39.612 64.9898 36.701 63.4538L36.7343 63.3049L47.0125 61.7888H47.015Z" fill="#9286AE"/>
<path d="M49.2111 56.5976L49.3085 62.3595C49.3085 62.3595 49.0035 63.7863 46.951 63.8434C44.8958 63.898 45.4417 62.362 45.4417 62.362L45.2315 57.8507L49.2137 56.6001L49.2111 56.5976Z" fill="#FFAB91"/>
<path d="M54.0209 43.0937C54.0209 43.0937 54.9614 41.848 56.9319 42.4634C58.9025 43.0788 58.1876 46.1334 57.1395 47.5999C56.4938 48.5032 54.2208 49.2352 53.0651 46.729C51.9069 44.2202 54.0235 43.0937 54.0235 43.0937H54.0209Z" fill="#FFAB91"/>
<path d="M38.8228 41.2921C38.8228 41.2921 38.4102 39.972 37.2468 40.1804C36.0834 40.3888 36.3013 45.0242 36.8548 45.575C37.0931 45.8108 37.8388 45.6867 38.0771 44.8554L38.8228 41.2921Z" fill="#FFAB91"/>
<path d="M37.8593 38.3541L37.2212 47.7116L38.3461 49.7464L49.8774 48.4287C49.8774 48.4287 52.8601 44.8778 53.3368 44.0465C53.7263 43.3666 53.8749 43.1855 53.8749 43.1855L53.4521 36.302C53.4521 36.302 48.6397 34.823 48.5577 34.823C48.4757 34.823 42.5538 34.6692 42.5538 34.6692L39.7581 35.3069L37.8618 38.3566L37.8593 38.3541Z" fill="#F2CCBF"/>
<path d="M53.9287 43.2102C53.9287 43.2102 54.6257 40.8727 57.9928 39.3417C60.2196 38.3292 58.0082 36.0959 57.1446 36.0959C56.3759 36.0959 55.3509 36.5922 55.6789 34.2373C56.1504 30.8601 54.6564 28.4829 52.7884 28.6516C50.9203 28.8204 51.6967 31.3564 49.0292 31.3415C46.3616 31.3266 48.3245 26.128 44.5884 26.4183C42.8561 26.5424 44.4526 29.4829 42.7357 31.0363C41.0188 32.5897 38.0566 29.2273 38.0566 29.2273C38.0566 29.2273 36.2423 29.3514 37.5107 31.2348C38.7792 33.1182 39.1969 33.8751 38.2334 34.4507C37.2699 35.0264 36.4089 34.8428 37.0162 36.2746C37.6235 37.7064 37.5928 42.2623 37.5928 42.2623C37.5928 42.2623 37.9464 37.1282 39.8734 36.3813C41.7978 35.6319 48.3194 35.2696 51.4431 37.4756C53.4905 38.9223 52.4757 42.5725 52.4757 42.5725L53.9287 43.2127V43.2102Z" fill="#D8652C"/>
<path d="M47.2226 38.1779L47.033 38.8429C47.033 38.8429 48.2476 38.6468 49.4315 40.297C49.4315 40.297 50.0158 40.1134 49.962 39.895C49.9081 39.6791 49.2957 38.2374 47.2226 38.1779Z" fill="#D8652C"/>
<path d="M41.2238 37.9372L41.316 38.5626C41.316 38.5626 40.2398 38.2499 38.9688 39.6122C38.9688 39.6122 38.4614 39.379 38.5357 39.1879C38.61 38.9968 39.3378 37.7586 41.2238 37.9372Z" fill="#D8652C"/>
<path d="M52.3399 43.0167L52.1503 43.4386L53.4315 43.8703L53.6391 43.5428L52.3399 43.0167Z" fill="#D8652C"/>
<path d="M53.2547 44.1855L52.0401 43.8629C52.0401 43.8629 51.3995 47.8555 47.1022 48.5255C42.8023 49.193 42.9535 46.6471 42.9535 46.6471L41.3263 46.6372C41.3263 46.6372 39.9784 49.1757 37.2775 46.858C37.2775 46.858 34.059 48.2476 35.0277 50.9127L34.2 50.9077C34.2 50.9077 34.3998 53.074 35.963 54.4462L34.6305 54.4388C34.6305 54.4388 36.414 59.1386 43.858 59.0022C51.3021 58.8657 52.8575 51.8184 52.8575 51.8184L53.1112 51.466L53.5084 52.0914C53.5084 52.0914 54.5539 50.6223 53.6109 48.2724C52.6653 45.9225 53.2573 44.1855 53.2573 44.1855H53.2547Z" fill="#D8652C"/>
<path d="M49.3393 48.9623C49.3393 48.9623 47.7608 49.667 46.7998 49.863L47.3303 50.2675C46.7973 50.3097 46.3411 50.4635 45.7031 50.2576C45.7031 50.2576 45.7031 50.6372 45.967 50.7961C45.967 50.7961 45.4853 50.8606 45.1957 50.3891C45.1957 50.3891 44.9241 50.9449 44.204 51.0318V50.5405C44.204 50.5405 43.7248 50.9176 41.6441 50.9052C41.6441 50.9052 42.4538 53.5232 46.2463 52.8308C50.0388 52.1385 49.3393 48.9623 49.3393 48.9623Z" fill="white"/>
<path d="M47.09 43.8313C46.2423 43.8254 45.5611 43.0163 45.5684 42.0241C45.5757 41.032 46.2689 40.2324 47.1166 40.2383C47.9643 40.2441 48.6455 41.0532 48.6382 42.0454C48.6309 43.0376 47.9377 43.8372 47.09 43.8313Z" fill="white"/>
<path d="M47.2473 43.346C46.6303 43.3417 46.1344 42.7517 46.1398 42.0281C46.1451 41.3045 46.6497 40.7214 47.2667 40.7257C47.8837 40.7299 48.3796 41.32 48.3742 42.0436C48.3689 42.7671 47.8644 43.3503 47.2473 43.346Z" fill="black"/>
<path d="M40.2874 43.3896C39.5133 43.3843 38.8912 42.6445 38.8979 41.7373C38.9046 40.83 39.5376 40.0989 40.3117 40.1043C41.0858 40.1097 41.7079 40.8495 41.7012 41.7567C41.6945 42.6639 41.0616 43.395 40.2874 43.3896Z" fill="white"/>
<path d="M40.508 43.0164C39.9632 43.0127 39.5256 42.4486 39.5307 41.7565C39.5358 41.0644 39.9817 40.5065 40.5265 40.5103C41.0714 40.514 41.5089 41.0781 41.5038 41.7702C41.4987 42.4622 41.0529 43.0202 40.508 43.0164Z" fill="black"/>
<path d="M41.9642 47.0867C41.0216 47.0822 40.2608 46.4387 40.2648 45.6493C40.2687 44.86 41.036 44.2237 41.9786 44.2281C42.9211 44.2326 43.682 44.8761 43.678 45.6655C43.674 46.4549 42.9067 47.0912 41.9642 47.0867Z" fill="#F2CCBF"/>
<path d="M44.163 45.0242C44.409 45.1036 44.6525 45.2202 44.819 45.3939C45.0035 45.5676 44.9958 45.7984 44.8677 45.982C44.6166 46.3344 44.0067 46.2351 43.5455 46.1259L43.4301 46.0986L43.3661 46.2029C43.0535 46.719 42.3667 46.987 41.7415 46.8877C41.1239 46.8034 40.5371 46.379 40.4576 45.7959C40.3936 45.5205 40.573 45.2922 40.7908 45.0366C41.0035 44.7909 41.252 44.5577 41.498 44.3244C41.9875 43.8629 42.5205 43.3691 42.7639 42.7388C42.4385 43.3343 41.8414 43.7115 41.3289 44.1532C41.0624 44.3691 40.7933 44.585 40.5422 44.8356C40.3065 45.0614 40.022 45.4336 40.0963 45.8406C40.186 46.6024 40.9189 47.1855 41.6876 47.2525C42.4487 47.3518 43.2892 47.0168 43.6531 46.3517L43.4737 46.4287C43.7402 46.4733 44.0144 46.5031 44.2988 46.4783C44.5705 46.4584 44.9061 46.3517 45.0496 46.0763C45.2008 45.8331 45.1316 45.4758 44.8933 45.3219C44.6781 45.1557 44.4193 45.0738 44.163 45.0242Z" fill="#FFAB91"/>
<path d="M48.4219 45.8008C49.142 45.8008 49.9184 45.6768 50.7333 45.4212C51.6507 45.1333 52.3707 44.2623 52.7602 42.9695C53.2215 41.436 53.1036 39.6767 52.4937 38.962C51.4149 37.7014 47.1791 36.8577 45.5211 37.5749C44.9292 37.8305 44.4603 38.4682 44.2066 39.369C43.8145 40.7586 43.9247 42.8628 44.901 44.2003C45.6672 45.2524 46.9177 45.8008 48.4245 45.8008H48.4219ZM47.156 37.6915C49.0113 37.6915 51.5174 38.4235 52.1862 39.2077C52.7038 39.8131 52.791 41.4856 52.3784 42.8628C52.176 43.5403 51.6737 44.7239 50.6103 45.0564C48.2656 45.7909 46.2515 45.3864 45.2213 43.9795C44.4347 42.9025 44.163 40.9645 44.5858 39.4732C44.8088 38.6841 45.1983 38.1357 45.68 37.9272C46.0567 37.7635 46.5743 37.6915 47.1535 37.6915H47.156Z" fill="#78909C"/>
<path d="M38.6229 45.039C39.9451 45.039 41.8542 44.1184 42.8279 42.6395C43.6607 41.3715 43.8657 39.2325 43.5249 38.1059C43.0586 36.5525 40.4089 36.5897 38.0847 37.1431C36.0962 37.6171 36.0117 38.4781 35.8784 39.7809L35.8631 39.9347C35.6632 41.8827 36.5934 44.2797 37.7798 44.8703C38.0104 44.9844 38.3 45.0415 38.6229 45.0415V45.039ZM43.1457 38.2126C43.425 39.1382 43.3097 41.1903 42.4948 42.4335C41.4057 44.0886 38.9791 45.0316 37.9643 44.5279C37.029 44.0614 36.0604 41.9273 36.2602 39.9719L36.2756 39.8181C36.4037 38.5575 36.4652 37.9248 38.1821 37.5178C39.8298 37.1257 42.7306 36.8304 43.1457 38.2151V38.2126Z" fill="#78909C"/>
<path d="M55.0126 42.4038L55.584 42.2897L52.9575 40.8455L52.7243 41.1457L55.0126 42.4038Z" fill="#78909C"/>
<path d="M37.5338 39.8404L36.2577 39.1382L36.0245 39.436L37.5543 40.2772L37.5338 39.8404Z" fill="#78909C"/>
<path d="M44.1374 39.9398L44.4628 39.7189C44.45 39.7015 44.1476 39.2871 43.4301 39.4732L43.5326 39.8455C43.9657 39.7338 44.1323 39.9323 44.1374 39.9398Z" fill="#78909C"/>
<path d="M53.593 45.0713C53.3137 46.1359 53.8006 47.1309 54.6795 47.2922C55.5584 47.456 56.4963 46.724 56.7756 45.6594C57.0549 44.5949 56.5681 43.5998 55.6891 43.4386C54.8102 43.2748 53.8723 44.0068 53.593 45.0713Z" fill="#F2CCBF"/>
<path d="M47.0176 41.8802C46.8436 41.8802 46.7024 41.7436 46.7024 41.575C46.7024 41.4064 46.8436 41.2698 47.0176 41.2698C47.1917 41.2698 47.3328 41.4064 47.3328 41.575C47.3328 41.7436 47.1917 41.8802 47.0176 41.8802Z" fill="white"/>
<path d="M40.3039 41.575C40.1298 41.575 39.9887 41.4384 39.9887 41.2698C39.9887 41.1012 40.1298 40.9646 40.3039 40.9646C40.478 40.9646 40.6191 41.1012 40.6191 41.2698C40.6191 41.4384 40.478 41.575 40.3039 41.575Z" fill="white"/>
</g>
<defs>
<filter id="filter0_d_10_13819" x="0" y="0.165283" width="93" height="91.698" filterUnits="userSpaceOnUse" color-interpolation-filters="sRGB">
<feFlood flood-opacity="0" result="BackgroundImageFix"/>
<feColorMatrix in="SourceAlpha" type="matrix" values="0 0 0 0 0 0 0 0 0 0 0 0 0 0 0 0 0 0 127 0" result="hardAlpha"/>
<feOffset/>
<feGaussianBlur stdDeviation="13"/>
<feComposite in2="hardAlpha" operator="out"/>
<feColorMatrix type="matrix" values="0 0 0 0 0.0745098 0 0 0 0 0.113725 0 0 0 0 0.207843 0 0 0 0.26 0"/>
<feBlend mode="normal" in2="BackgroundImageFix" result="effect1_dropShadow_10_13819"/>
<feBlend mode="normal" in="SourceGraphic" in2="effect1_dropShadow_10_13819" result="shape"/>
</filter>
<clipPath id="clip0_10_13819">
<rect width="41" height="39.698" fill="white" transform="matrix(-1 0 0 1 67 26.1653)"/>
</clipPath>
</defs>
</svg>
