<svg width="84" height="84" viewBox="0 0 84 84" fill="none" xmlns="http://www.w3.org/2000/svg">
<g filter="url(#filter0_d_10_13882)">
<ellipse cx="42" cy="41.8455" rx="18" ry="17.3245" fill="#D9D9D9"/>
</g>
<g clip-path="url(#clip0_10_13882)">
<path d="M41.9912 60.0759C51.9006 60.0759 59.9338 52.0427 59.9338 42.1333C59.9338 32.2238 51.9006 24.1906 41.9912 24.1906C32.0817 24.1906 24.0485 32.2238 24.0485 42.1333C24.0485 52.0427 32.0817 60.0759 41.9912 60.0759Z" fill="#B0E2ED"/>
<path d="M49.0288 38.3652C49.0288 38.3652 49.2803 36.9621 49.8252 37.5776C50.2201 38.0254 49.6333 42.1421 48.7883 41.8972C47.9456 41.6523 49.0266 38.3652 49.0266 38.3652H49.0288Z" fill="#3F2E29"/>
<path d="M37.6892 50.4968L37.0031 56.2703L40.7535 57.1748L40.9984 51.8205L37.6892 50.4968Z" fill="#3F2E29"/>
<path d="M42.856 27.0145C36.1713 25.9864 31.3487 30.1075 33.4754 37.7651C33.4754 37.7651 32.6216 36.1832 30.7619 37.4032C28.9021 38.6233 30.667 43.5893 32.465 43.7018C34.3976 43.8232 34.1196 42.7068 34.1196 42.7068C34.1196 42.7068 34.6359 48.6568 37.2921 50.9248C39.9483 53.1927 47.3146 53.4662 48.2986 48.9458C49.2847 44.4254 48.3383 41.2486 49.031 38.3651C49.7215 35.4817 50.2334 28.1462 42.8582 27.0145H42.856Z" fill="#543D29"/>
<path d="M38.9555 51.741C40.4623 53.078 45.9998 52.5683 46.8403 51.3483C47.6808 50.1283 47.5772 46.7485 47.7426 45.1358C47.9081 43.5231 47.4514 43.2076 47.4514 43.2076L43.8532 43.7437C43.8532 43.7437 39.9196 43.5584 39.218 43.5783C38.5165 43.5981 37.4509 50.4041 38.9577 51.7388H38.9555V51.741ZM38.7614 49.7886C38.2363 48.0369 39.5291 44.1739 39.5291 44.1739L43.776 44.4431L47.0808 44.0151C47.0808 44.0151 47.0874 48.4384 46.8381 49.8857C46.5866 51.3329 44.6297 51.0836 44.6297 51.0836L44.312 48.0413L43.1097 47.9332L42.8361 51.2579C42.8361 51.2579 39.2864 51.5425 38.7614 49.7908V49.7886Z" fill="black"/>
<path d="M46.8028 44.9152C46.8028 44.9152 43.209 46.1639 39.7188 44.8093C39.7188 44.8093 42.0287 48.6547 43.8245 48.6017C45.6203 48.551 46.8006 44.913 46.8006 44.913H46.8028V44.9152Z" fill="white"/>
<path d="M45.6931 40.4566C46.3263 40.6971 46.655 41.6479 46.1145 42.0472C45.6049 42.4443 44.8768 42.5414 44.2062 42.5833C43.5311 42.6253 42.8052 42.6076 42.203 42.3715C41.9228 42.2811 41.9029 41.8619 42.0022 41.5663C42.0971 41.2464 42.3199 40.9596 42.589 40.739C42.2912 40.9221 42.0243 41.178 41.8698 41.5178C41.7419 41.8288 41.6801 42.3429 42.0971 42.5657C42.7854 42.8856 43.5112 42.8856 44.2216 42.8701C44.9187 42.7973 45.6777 42.7223 46.2645 42.2083C46.5513 41.9413 46.6417 41.4825 46.4719 41.1449C46.313 40.8228 46.0483 40.5118 45.6931 40.4566Z" fill="#3F2E29"/>
<path d="M41.6136 37.9129C41.6628 37.1335 41.1635 36.4676 40.4983 36.4256C39.8331 36.3836 39.2541 36.9815 39.2049 37.761C39.1557 38.5404 39.6551 39.2063 40.3202 39.2483C40.9854 39.2903 41.5645 38.6924 41.6136 37.9129Z" fill="black"/>
<path d="M48.3607 38.337C48.4099 37.5575 47.9105 36.8916 47.2454 36.8497C46.5802 36.8077 46.0011 37.4056 45.9519 38.185C45.9028 38.9645 46.4021 39.6304 47.0673 39.6724C47.7324 39.7143 48.3115 39.1165 48.3607 38.337Z" fill="black"/>
<path d="M46.9396 38.0739C47.1674 38.0739 47.3521 37.8892 47.3521 37.6614C47.3521 37.4335 47.1674 37.2488 46.9396 37.2488C46.7117 37.2488 46.527 37.4335 46.527 37.6614C46.527 37.8892 46.7117 38.0739 46.9396 38.0739Z" fill="white"/>
<path d="M40.2064 37.6482C40.4343 37.6482 40.619 37.4635 40.619 37.2356C40.619 37.0078 40.4343 36.8231 40.2064 36.8231C39.9786 36.8231 39.7939 37.0078 39.7939 37.2356C39.7939 37.4635 39.9786 37.6482 40.2064 37.6482Z" fill="white"/>
<path d="M49.459 35.8082C49.459 35.8082 45.4173 35.5523 45.3357 35.3559C45.2519 35.1596 45.0379 34.0345 45.4239 33.9705C45.81 33.9065 49.6686 34.6522 49.6752 34.9941C49.6818 35.3361 49.459 35.8082 49.459 35.8082Z" fill="black"/>
<path d="M38.3643 35.1067C38.3643 35.1067 42.4059 35.3626 42.5118 35.1773C42.6199 34.9942 42.9751 33.9021 42.6001 33.7918C42.225 33.6815 38.3047 33.9352 38.254 34.2728C38.2032 34.6103 38.3643 35.1067 38.3643 35.1067Z" fill="black"/>
<path d="M33.268 39.0094C33.268 39.0094 32.6636 37.9394 31.7414 38.2438C31.1082 38.4424 30.592 39.0601 30.7597 40.1875C31.0751 41.4913 31.5406 42.3473 32.326 42.5767C33.0982 42.751 33.5328 42.3671 33.5438 42.1774C33.5548 41.9877 33.2658 39.0094 33.2658 39.0094H33.268Z" fill="#63534D"/>
<path d="M46.3086 59.5464L42.0706 57.4153V55.3966L35.0109 54.3884V56.4071L31.8208 56.899C33.4269 58.0352 35.1698 58.814 36.681 59.2795L38.1282 59.6523L38.9379 59.8089C41.3205 60.2458 43.9458 60.1244 46.3086 59.5464Z" fill="#C6AE8D"/>
</g>
<defs>
<filter id="filter0_d_10_13882" x="0" y="0.520996" width="84" height="82.6491" filterUnits="userSpaceOnUse" color-interpolation-filters="sRGB">
<feFlood flood-opacity="0" result="BackgroundImageFix"/>
<feColorMatrix in="SourceAlpha" type="matrix" values="0 0 0 0 0 0 0 0 0 0 0 0 0 0 0 0 0 0 127 0" result="hardAlpha"/>
<feOffset/>
<feGaussianBlur stdDeviation="12"/>
<feComposite in2="hardAlpha" operator="out"/>
<feColorMatrix type="matrix" values="0 0 0 0 0.0745098 0 0 0 0 0.113725 0 0 0 0 0.207843 0 0 0 0.15 0"/>
<feBlend mode="normal" in2="BackgroundImageFix" result="effect1_dropShadow_10_13882"/>
<feBlend mode="normal" in="SourceGraphic" in2="effect1_dropShadow_10_13882" result="shape"/>
</filter>
<clipPath id="clip0_10_13882">
<rect width="36" height="36" fill="white" transform="translate(24 24.1421)"/>
</clipPath>
</defs>
</svg>
