<svg width="32" height="33" viewBox="0 0 32 33" fill="none" xmlns="http://www.w3.org/2000/svg">
<g clip-path="url(#clip0_10_13918)">
<path d="M16.028 32.5218C24.8646 32.5218 32.028 25.4125 32.028 16.6426C32.028 7.87279 24.8646 0.763428 16.028 0.763428C7.19146 0.763428 0.0280151 7.87279 0.0280151 16.6426C0.0280151 25.4125 7.19146 32.5218 16.028 32.5218Z" fill="#F3AC94"/>
<path d="M12.598 5.60446C12.598 5.60446 12.24 3.74461 14.624 4.01654C17.008 4.28847 19.346 4.9018 20.202 5.11419C26.958 6.79341 26.772 21.1879 26.478 24.3538C25.982 29.6714 22.962 30.6936 18.966 30.3899C14.97 30.0862 9.348 29.8143 9.348 29.8143C9.348 29.8143 3.402 31.821 7.162 16.9859C7.502 15.6401 6.762 9.42737 7.908 7.40873C9.124 5.26702 11.164 4.71125 12.602 5.60446H12.598Z" fill="#001732"/>
<path d="M18.658 21.4578L15.034 20.1378C15.034 20.1378 14.99 22.5515 14.944 24.2208C15.616 24.6058 16.776 25.0802 18.744 25.4812L18.658 21.4558V21.4578Z" fill="#D6844C"/>
<path d="M16.028 32.5216C19.464 32.5216 22.644 31.4438 25.252 29.6138C24.734 28.5697 23.684 27.4026 21.55 26.9024C17.272 25.898 13.698 26.6007 13.698 26.6007L11.652 26.8488C11.652 26.8488 7.71601 27.6388 6.26001 29.2148C8.96201 31.285 12.348 32.5216 16.028 32.5216Z" fill="#DD3900"/>
<path d="M18.752 25.8564L18.744 25.4832C16.776 25.0803 15.616 24.6059 14.944 24.2228C14.922 25.0167 14.9 25.644 14.882 25.7611C14.828 26.1283 11.652 26.8468 11.652 26.8468C12.222 29.8877 15.962 31.7475 18.59 31.1044C21.218 30.4613 21.55 26.9024 21.55 26.9024L18.752 25.8564Z" fill="#D89F75"/>
<path d="M13.93 8.22058C13.93 8.22058 14.844 11.061 16.032 11.6862C21.654 14.6556 23.388 12.6846 23.388 12.6846C23.406 13.3912 23.204 14.602 23.386 15.7652C23.742 18.0419 22.09 23.8398 19.85 24.0839C16.886 24.4094 14.706 23.4924 12.924 21.2515C11.442 19.3876 11.64 18.6254 11.496 17.7024C11.496 17.7024 11.282 18.1193 10.506 18.0121C9.73 17.9049 9.136 17.107 9.032 16.188C8.926 15.267 9.386 14.34 10.098 14.5306C10.81 14.7211 11.448 15.8227 11.448 15.8227C11.448 15.8227 12.892 14.7449 13.508 12.0395C14.096 9.45916 13.932 8.22058 13.932 8.22058H13.93Z" fill="#D89F75"/>
<path d="M14.52 15.0069C14.52 15.0069 14.514 15.5725 14.93 15.9675C15.214 16.2375 15.742 16.4003 16.506 16.299C16.542 16.2951 16.58 16.2871 16.618 16.2812C17.662 16.0906 18.11 15.9914 18.11 15.9914L17.638 15.3086L16.574 14.7925L14.518 15.0069H14.52Z" fill="#F3F5F7"/>
<path d="M18.122 16.037C18.122 16.037 17.786 14.4035 15.178 14.5265C14.214 14.5722 14.122 15.3304 14.694 15.6043C14.694 15.6043 14.582 15.1299 15.894 14.9652C17.366 14.7806 18.122 16.037 18.122 16.037Z" fill="#1D1D1B"/>
<path d="M14.838 15.6797C14.838 15.8604 14.922 15.9199 14.93 15.9676C15.214 16.2375 15.678 16.3824 16.372 16.3169C16.54 16.2097 16.618 15.9914 16.636 15.8108C16.688 15.2629 16.452 14.9612 15.892 14.8679C15.424 14.7905 14.842 15.0426 14.84 15.6778L14.838 15.6797Z" fill="#1D1D1B"/>
<path d="M16.256 15.5419C16.2906 15.4217 16.2136 15.2945 16.084 15.2578C15.9545 15.221 15.8214 15.2886 15.7868 15.4088C15.7522 15.5289 15.8292 15.6561 15.9587 15.6929C16.0883 15.7296 16.2214 15.662 16.256 15.5419Z" fill="#F3F5F7"/>
<path d="M20.396 15.9021C20.434 15.9557 20.504 16.0014 20.596 16.0391C20.876 16.1522 21.404 16.2614 21.844 16.2892C22.056 16.3031 22.41 16.2733 22.714 16.1681C23.134 16.0212 23.144 15.6441 23.144 15.6441C23.27 14.9712 22.002 14.7886 21.48 14.8342C21.39 14.8422 21.264 14.8978 21.13 14.9811C20.952 15.0903 20.758 15.2491 20.612 15.4079C20.432 15.6024 20.322 15.7969 20.396 15.9041V15.9021Z" fill="#F3F5F7"/>
<path d="M20.62 15.4078C20.504 15.6242 20.51 15.8584 20.614 16.043C20.912 16.1601 21.238 16.2613 21.828 16.305C21.908 16.2375 22.02 16.0371 22.07 15.9438C22.27 15.5726 22.108 15.1518 21.708 15.0029C21.532 14.9374 21.338 14.9354 21.16 14.987C20.934 15.0506 20.732 15.1994 20.62 15.4059V15.4078Z" fill="#1D1D1B"/>
<path d="M20.346 15.7731C20.346 15.7731 20.558 15.253 21.046 14.9434C21.556 14.6198 22.528 14.6476 22.896 14.7528C23.696 14.9811 23.422 15.5865 23.104 15.8207C23.104 15.8207 23.286 15.1994 22.114 14.999C20.942 14.7985 20.346 15.7711 20.346 15.7711V15.7731Z" fill="#1D1D1B"/>
<path d="M21.9088 15.5676C21.95 15.4565 21.881 15.3289 21.7546 15.2826C21.6282 15.2364 21.4922 15.2889 21.4509 15.4C21.4096 15.511 21.4787 15.6386 21.6051 15.6849C21.7315 15.7312 21.8675 15.6787 21.9088 15.5676Z" fill="#F3F5F7"/>
<path d="M20.446 20.2748C20.446 20.2748 20.716 21.1382 20.222 21.4717C19.728 21.8052 17.418 21.3486 17.42 20.2272L18.014 20.5745L20.446 20.2748Z" fill="#BF6913"/>
<path d="M20.814 19.8976C20.804 20.6559 20.37 20.4514 19.788 20.4614C19.044 20.4733 17.974 21.1581 17.418 20.2252C17.418 20.2252 18.25 20.4951 18.744 19.9493C19.08 19.5781 19.664 19.9989 20.132 20.0346C20.6 20.0684 20.816 19.5801 20.812 19.8996L20.814 19.8976Z" fill="#D37518"/>
<path d="M20.27 13.4269C20.288 13.3713 22.926 12.4603 23.728 13.3991C24.53 14.336 23.062 13.3475 22.062 13.6234C21.06 13.8973 19.954 14.3956 20.272 13.4289H20.27V13.4269Z" fill="#001732"/>
<path d="M18.386 13.2701C18.368 13.2066 15.582 12.2498 14.708 13.3654C13.834 14.4809 15.418 13.282 16.476 13.5619C17.536 13.8417 18.702 14.3757 18.386 13.2701Z" fill="#001732"/>
<path d="M11.0866 17.3765C11.3621 17.2347 11.3823 16.7308 11.1316 16.251C10.8809 15.7713 10.4543 15.4973 10.1788 15.6391C9.90324 15.7809 9.88309 16.2848 10.1338 16.7646C10.3845 17.2443 10.8111 17.5183 11.0866 17.3765Z" fill="#D6844C"/>
<path d="M19.964 15.0188C19.914 15.6639 20.21 16.4182 20.578 17.0295C20.766 17.3551 21.262 18.1708 20.994 18.3098C20.728 18.4249 20.438 18.546 20.168 18.4011C19.844 18.3038 19.818 18.5083 20.09 18.6214C20.406 18.8159 20.826 18.7088 21.126 18.5658C21.284 18.4845 21.45 18.3733 21.546 18.1788C21.644 17.9823 20.974 17.103 20.84 16.8608C20.512 16.3705 20.208 15.648 20.194 15.0268C20.202 14.3936 20.008 14.3817 19.964 15.0188Z" fill="#D6844C"/>
<path d="M20.94 24.316C20.94 24.316 20.026 25.503 21.088 27.8035C21.63 28.9786 21.85 30.8821 21.388 31.6046C23.078 31.0091 24.636 30.1378 26.008 29.048C26.182 28.5002 26.3 27.8631 26.344 27.1187C26.724 20.7254 26.466 18.139 26.466 18.139L20.938 24.316H20.94Z" fill="#001732"/>
</g>
<defs>
<clipPath id="clip0_10_13918">
<rect width="32" height="31.7584" fill="white" transform="translate(0 0.743408)"/>
</clipPath>
</defs>
</svg>
