<svg width="70" height="71" viewBox="0 0 70 71" fill="none" xmlns="http://www.w3.org/2000/svg">
<g filter="url(#filter0_d_10_13940)">
<ellipse cx="35" cy="35.7284" rx="21" ry="20.8414" fill="#D9D9D9"/>
</g>
<g clip-path="url(#clip0_10_13940)">
<path d="M35 57.1356C46.598 57.1356 56 47.7336 56 36.1356C56 24.5376 46.598 15.1356 35 15.1356C23.402 15.1356 14 24.5376 14 36.1356C14 47.7336 23.402 57.1356 35 57.1356Z" fill="#E46F70"/>
<path d="M44.8569 45.4544H25.9227C25.1142 45.4544 24.3136 45.7326 23.5865 46.087C22.3842 46.6671 20.6465 47.8431 19.3156 50.0954C22.736 53.9357 27.5397 56.5109 32.9499 57.0359C33.7977 57.049 34.6561 57.0569 35.5224 57.0569C36.0395 57.0569 36.5461 57.049 37.0449 57.0359C43.0797 56.4531 48.3691 53.3162 51.8157 48.7172C50.3982 46.9349 48.2011 45.3835 44.8569 45.4544Z" fill="white"/>
<path d="M39.4861 33.2875H32.2227V46.885H39.4861V33.2875Z" fill="#F0B883"/>
<path fill-rule="evenodd" clip-rule="evenodd" d="M32.2411 44.0395C32.2411 44.0395 35.0131 44.0395 36.8638 43.5775C38.4965 43.1706 39.4888 42.4618 39.4888 42.4618V38.6635L32.1834 41.2963L32.2438 44.0395H32.2411Z" fill="#EBA059"/>
<path d="M42.4865 29.7516C42.4865 29.7516 43.3186 28.5756 45.0354 29.14C46.7495 29.7043 46.1615 32.5708 45.2559 33.9411C44.6915 34.7995 42.3972 36.4375 41.3446 34.1091C40.3156 31.7571 42.4865 29.749 42.4865 29.749V29.7516Z" fill="#F0B883"/>
<path d="M29.1069 28.1346C29.1069 28.1346 28.7394 26.9088 27.7104 27.1056C26.6814 27.3025 26.9019 31.639 27.3927 32.1535C27.6132 32.374 28.2511 32.2506 28.4716 31.4684L29.1095 28.1373H29.1069V28.1346Z" fill="#EBA059"/>
<path d="M28.2511 25.3888C28.2511 25.3888 27.7366 32.3188 27.7366 34.159C27.7366 35.9991 27.4269 38.8813 27.7366 40.0836C28.0464 41.2858 30.1726 42.1967 31.493 42.4697C32.8134 42.7427 36.9871 42.5248 39.4861 41.3515C41.9851 40.1755 41.4811 31.4421 41.8985 30.6572C42.2424 30.0193 42.3631 29.8487 42.3631 29.8487L41.9458 23.4043C41.9458 23.4043 37.7064 22.0315 37.6329 22.0315C37.5594 22.0315 32.3409 21.9081 32.3409 21.9081L29.8918 22.5197L28.2511 25.3862V25.3888Z" fill="#F0B883"/>
<path d="M42.413 29.8488C42.9039 29.0902 43.3685 29.0902 45.1509 27.1057C46.3768 26.1266 43.4709 25.0976 43.7386 21.9108C44.009 18.7267 40.4521 17.1438 38.1133 17.8473C35.861 18.5246 34.9843 20.3122 31.9025 20.7794C31.157 20.8923 28.6213 19.5536 28.0464 21.4829C27.0279 24.9086 28.0306 29.0613 28.0306 29.0613C28.0306 29.0613 28.3246 24.2602 30.0151 23.5488C31.7056 22.8374 37.4386 22.4699 40.208 24.5043C42.0219 25.8509 41.1399 29.2818 41.1399 29.2818L40.6963 31.4737L41.4181 31.8622C41.4181 31.8622 41.9248 30.6074 42.4156 29.8462H42.413V29.8488Z" fill="#5F3813"/>
<path d="M36.7246 25.1919L37.3047 24.9347C37.3047 24.9347 37.3074 26.0162 39.0267 26.7879C39.0267 26.7879 38.9427 27.3234 38.7485 27.3103C38.5542 27.2972 37.1236 26.9848 36.7246 25.1919Z" fill="#5F3813"/>
<path d="M32.774 26.0373L32.4538 25.4886C32.4538 25.4886 31.8185 26.3628 29.9731 25.9821C29.9731 25.9821 29.729 26.4651 29.8944 26.5701C30.0598 26.6751 31.4011 27.2579 32.7766 26.0373H32.774Z" fill="#5F3813"/>
<path d="M31.8999 33.5474C32.7248 33.5474 33.3935 32.9445 33.3935 32.2008C33.3935 31.457 32.7248 30.8541 31.8999 30.8541C31.075 30.8541 30.4062 31.457 30.4062 32.2008C30.4062 32.9445 31.075 33.5474 31.8999 33.5474Z" fill="#EFC6A3"/>
<path d="M33.8371 31.6127C33.9605 31.6363 34.0576 31.6626 34.181 31.7098C34.2781 31.7597 34.4015 31.807 34.4986 31.8805C34.5485 31.9303 34.5958 31.9776 34.622 32.0275C34.6719 32.0773 34.6719 32.1508 34.6955 32.1981C34.6955 32.2716 34.7191 32.3451 34.6955 32.395C34.6955 32.4685 34.6456 32.5183 34.6456 32.5918C34.6299 32.626 34.6141 32.6496 34.5958 32.6653L34.5223 32.7388C34.4724 32.7887 34.4251 32.836 34.3516 32.8622C34.2283 32.9121 34.1075 32.9593 33.9841 32.9593C33.74 32.983 33.4933 32.9593 33.2491 32.9095L33.3961 32.836C33.2491 33.1536 32.9788 33.4003 32.6611 33.5473C32.3671 33.6943 31.9996 33.7442 31.6558 33.6943C31.4851 33.6707 31.3119 33.6208 31.1649 33.571C31.0179 33.4975 30.8709 33.4003 30.7239 33.3006C30.4798 33.0801 30.2829 32.7362 30.233 32.395V32.248V32.1508C30.233 32.0773 30.2829 31.9802 30.3301 31.8805C30.4273 31.7335 30.527 31.5865 30.6241 31.4893C30.7213 31.366 30.8446 31.2688 30.968 31.1455C31.0914 31.0483 31.1885 30.925 31.3119 30.8278L31.6558 30.5338C31.7791 30.4367 31.8763 30.337 31.9996 30.2162C32.0968 30.1191 32.2201 29.9957 32.3173 29.8723C32.4144 29.749 32.4879 29.6282 32.5614 29.4812C32.5115 29.6282 32.4643 29.7752 32.3645 29.8986C32.291 30.022 32.1939 30.169 32.0941 30.2897C31.8973 30.5338 31.6768 30.7543 31.4563 30.9748C31.2358 31.1953 31.0153 31.4158 30.8446 31.6363C30.7475 31.7597 30.674 31.8805 30.6005 31.9802C30.5769 32.0301 30.5506 32.0537 30.5506 32.1508V32.2243C30.5506 32.2243 30.5506 32.248 30.5506 32.2007V32.3241C30.6005 32.5945 30.7213 32.8386 30.9418 33.0092C31.0389 33.1063 31.1623 33.1798 31.2856 33.2297C31.409 33.2796 31.556 33.3268 31.6768 33.3531C31.8238 33.3767 31.9708 33.3767 32.0941 33.3531C32.2411 33.3295 32.3645 33.3032 32.4853 33.2297C32.7294 33.1326 32.9499 32.9357 33.0969 32.6916L33.1468 32.5945L33.2439 32.6181C33.4644 32.668 33.6849 32.7152 33.8818 32.7152C33.9789 32.7152 34.1023 32.6916 34.1758 32.6653C34.2256 32.6417 34.2729 32.6155 34.2991 32.5918L34.349 32.542L34.3989 32.4685C34.4225 32.4186 34.4488 32.3713 34.4724 32.3215C34.496 32.2716 34.496 32.2243 34.496 32.1745C34.496 32.1246 34.4724 32.0773 34.4461 32.0275C34.4199 31.9776 34.3963 31.9303 34.349 31.9041C34.2755 31.8306 34.1784 31.7571 34.0786 31.7072C34.0288 31.6836 33.9316 31.6337 33.8345 31.6101H33.8371V31.6127Z" fill="#EBA059"/>
<path d="M37.751 31.7388C36.5986 31.7388 35.336 31.2374 34.5537 30.1297C33.9762 29.2949 33.8187 28.174 34.1127 27.0505C34.3884 26.0032 35.0262 25.129 35.7717 24.7694L35.7822 24.7642C37.8586 23.9032 39.7145 24.6828 40.6332 25.8352C41.1714 26.5098 41.3105 27.964 40.9614 29.2135C40.6437 30.3502 39.9796 31.156 39.0897 31.4842C38.6907 31.6495 38.2287 31.7362 37.751 31.7362V31.7388ZM35.9292 25.1028C35.2782 25.4204 34.7191 26.2027 34.4697 27.145C34.1994 28.1635 34.3411 29.1742 34.8556 29.9197C35.8557 31.3372 37.7247 31.6548 38.9585 31.1455C39.7407 30.8568 40.3261 30.1375 40.6096 29.119C40.9246 27.9903 40.8117 26.6489 40.3471 26.0662C39.515 25.0214 37.8297 24.3179 35.9292 25.1028Z" fill="#A8864C"/>
<path d="M29.8576 31.2216C28.805 31.2216 27.8469 30.7045 27.1512 29.7201C26.5737 28.8854 26.4162 27.7645 26.7129 26.641C26.9885 25.5936 27.6264 24.7195 28.3719 24.3599L28.3824 24.3546C30.6766 23.4044 32.0547 24.331 32.8081 25.276C33.3462 25.9506 33.4854 27.4049 33.1362 28.657C32.8186 29.7936 32.1545 30.5995 31.2646 30.925C30.7895 31.1219 30.3144 31.219 29.8602 31.219H29.8576V31.2216ZM28.5241 24.6906C27.8731 25.0082 27.314 25.7879 27.0646 26.7329C26.7942 27.7514 26.936 28.762 27.4505 29.5075C28.3404 30.7675 29.7159 31.1717 31.1281 30.5837C31.9104 30.295 32.4957 29.5757 32.7792 28.5572C33.0942 27.4259 32.9814 26.0845 32.5167 25.5044C31.5376 24.2732 30.1936 24.0002 28.5215 24.6906H28.5241Z" fill="#A8864C"/>
<path d="M43.3685 29.0901L43.8568 28.9904L41.0506 27.5099L40.8564 27.7776L43.3685 29.0901Z" fill="#A8864C"/>
<path d="M27.9571 26.7854L26.9255 26.1659L26.7916 26.5806L27.9808 27.2028L27.9571 26.7854Z" fill="#A8864C"/>
<path d="M34.202 26.7933C34.202 26.7933 33.614 26.3943 33.3384 26.7093L33.0627 26.4678C33.4539 26.0189 34.0944 26.2709 34.412 26.4914L34.2046 26.7933H34.202Z" fill="#A8864C"/>
<path d="M41.7358 31.9802C41.4916 32.9856 41.9326 33.9149 42.7149 34.0619C43.4971 34.2089 44.3083 33.5237 44.5524 32.5184C44.7965 31.513 44.3555 30.5837 43.5733 30.4367C42.8146 30.2897 41.9799 31.0011 41.7358 31.9802Z" fill="#EBA059"/>
<path d="M31.0782 29.9433C31.7219 29.9433 32.2438 29.2992 32.2438 28.5048C32.2438 27.7103 31.7219 27.0663 31.0782 27.0663C30.4346 27.0663 29.9128 27.7103 29.9128 28.5048C29.9128 29.2992 30.4346 29.9433 31.0782 29.9433Z" fill="white"/>
<path d="M30.3748 29.182C30.6444 29.182 30.863 28.9152 30.863 28.5861C30.863 28.257 30.6444 27.9902 30.3748 27.9902C30.1051 27.9902 29.8865 28.257 29.8865 28.5861C29.8865 28.9152 30.1051 29.182 30.3748 29.182Z" fill="#13110C"/>
<path d="M36.8532 30.1742C37.4969 30.1742 38.0187 29.5302 38.0187 28.7357C38.0187 27.9413 37.4969 27.2972 36.8532 27.2972C36.2096 27.2972 35.6877 27.9413 35.6877 28.7357C35.6877 29.5302 36.2096 30.1742 36.8532 30.1742Z" fill="white"/>
<path d="M36.1497 29.4129C36.4194 29.4129 36.638 29.1462 36.638 28.8171C36.638 28.488 36.4194 28.2212 36.1497 28.2212C35.8801 28.2212 35.6615 28.488 35.6615 28.8171C35.6615 29.1462 35.8801 29.4129 36.1497 29.4129Z" fill="#13110C"/>
<path d="M30.2356 35.9125C30.2356 35.9125 31.5166 37.0964 35.3439 36.4585C35.3439 36.4585 35.441 39.1072 32.4721 38.9549C29.5059 38.8027 30.2356 35.9099 30.2356 35.9099V35.9125Z" fill="white"/>
<path d="M46.7731 47.6173C47.2955 47.5517 47.8231 47.4703 48.3324 47.3916C48.9703 47.2918 49.5898 47.2 50.2014 47.1291C49.4533 46.5568 48.5765 46.0843 47.5449 45.7877C47.2141 45.8376 46.8834 45.8875 46.5579 45.9268C44.6233 46.1736 42.6151 46.2182 40.6726 46.2602L22.5733 46.6566C21.9275 47.074 21.2214 47.641 20.5441 48.4048L40.7146 47.9638C42.6991 47.9192 44.7519 47.8746 46.7758 47.6173H46.7731Z" fill="url(#paint0_linear_10_13940)"/>
<path d="M46.7731 47.6173C47.2955 47.5517 47.8231 47.4703 48.3324 47.3916C48.9703 47.2918 49.5898 47.2 50.2014 47.1291C49.4533 46.5568 48.5765 46.0843 47.5449 45.7877C47.2141 45.8376 46.8834 45.8875 46.5579 45.9268C44.6233 46.1736 42.6151 46.2182 40.6726 46.2602L22.5733 46.6566C21.9275 47.074 21.2214 47.641 20.5441 48.4048L40.7146 47.9638C42.6991 47.9192 44.7519 47.8746 46.7758 47.6173H46.7731Z" fill="url(#paint1_linear_10_13940)"/>
<path fill-rule="evenodd" clip-rule="evenodd" d="M30.4482 45.4518C30.4482 45.4518 31.6977 49.0953 35.8137 49.1399C39.7171 49.1845 41.9615 45.4518 41.9615 45.4518H30.4482Z" fill="#F0B883"/>
<path fill-rule="evenodd" clip-rule="evenodd" d="M36.5671 33.9805C36.5671 33.9805 34.6535 34.7077 33.7347 34.6893C32.9577 34.6735 32.5036 34.9019 32.6034 35.1775C32.7031 35.4532 34.0419 35.9834 36.5671 33.9779V33.9805Z" fill="#5F3813"/>
<path fill-rule="evenodd" clip-rule="evenodd" d="M28.8365 33.5894C28.8365 33.5894 30.3537 34.5029 31.1491 34.5842C31.8211 34.6525 32.1702 34.9229 32.0364 35.1827C31.9025 35.4426 30.653 35.8206 28.8391 33.592L28.8365 33.5894Z" fill="#5F3813"/>
<path d="M51.4089 49.2554C50.3877 49.3236 50.1331 49.3919 49.1461 49.5284C48.5922 49.6045 48.02 49.6859 47.4609 49.7489C45.2952 49.9956 43.0587 50.0402 40.8957 50.0822L19.6621 50.4839C20.1136 50.938 20.2606 51.1007 20.7357 51.5522C20.9694 51.7754 21.5022 52.2321 21.5022 52.2321L40.9299 51.8751C43.1349 51.8331 45.4134 51.7885 47.663 51.5312H47.6656C48.2457 51.4656 48.9886 51.3632 49.5556 51.2845C49.5556 51.2845 50.1961 50.665 50.5505 50.2502C50.9049 49.8355 51.4062 49.2554 51.4062 49.2554H51.4089Z" fill="url(#paint2_linear_10_13940)"/>
<path fill-rule="evenodd" clip-rule="evenodd" d="M42.4497 55.7864C40.3287 55.9806 32.3146 55.8887 31.6846 55.9491C31.0546 56.0095 27.5187 55.7654 27.5187 55.7654C27.5187 55.7654 26.3769 55.3322 25.5474 54.907C24.7179 54.4817 23.9172 53.9672 23.9172 53.9672C23.9172 53.9672 43.4052 54.1641 46.277 53.8491C46.277 53.8491 45.5184 54.3216 44.5077 54.8597C43.4971 55.3979 42.4497 55.7864 42.4497 55.7864Z" fill="url(#paint3_linear_10_13940)"/>
</g>
<defs>
<filter id="filter0_d_10_13940" x="0" y="0.886963" width="70" height="69.6829" filterUnits="userSpaceOnUse" color-interpolation-filters="sRGB">
<feFlood flood-opacity="0" result="BackgroundImageFix"/>
<feColorMatrix in="SourceAlpha" type="matrix" values="0 0 0 0 0 0 0 0 0 0 0 0 0 0 0 0 0 0 127 0" result="hardAlpha"/>
<feOffset/>
<feGaussianBlur stdDeviation="7"/>
<feComposite in2="hardAlpha" operator="out"/>
<feColorMatrix type="matrix" values="0 0 0 0 0.0745098 0 0 0 0 0.113725 0 0 0 0 0.207843 0 0 0 0.25 0"/>
<feBlend mode="normal" in2="BackgroundImageFix" result="effect1_dropShadow_10_13940"/>
<feBlend mode="normal" in="SourceGraphic" in2="effect1_dropShadow_10_13940" result="shape"/>
</filter>
<linearGradient id="paint0_linear_10_13940" x1="28.3693" y1="39.0231" x2="41.7253" y2="55.6997" gradientUnits="userSpaceOnUse">
<stop stop-color="#0C88EF"/>
<stop offset="1" stop-color="#045FDD"/>
</linearGradient>
<linearGradient id="paint1_linear_10_13940" x1="17.5333" y1="47.095" x2="54.1914" y2="47.095" gradientUnits="userSpaceOnUse">
<stop stop-color="#0C88EF"/>
<stop offset="1" stop-color="#045FDD"/>
</linearGradient>
<linearGradient id="paint2_linear_10_13940" x1="18.977" y1="50.7437" x2="52.3197" y2="50.7437" gradientUnits="userSpaceOnUse">
<stop stop-color="#0C88EF"/>
<stop offset="1" stop-color="#045FDD"/>
</linearGradient>
<linearGradient id="paint3_linear_10_13940" x1="23.9172" y1="54.9044" x2="46.277" y2="54.9044" gradientUnits="userSpaceOnUse">
<stop stop-color="#0C88EF"/>
<stop offset="1" stop-color="#045FDD"/>
</linearGradient>
<clipPath id="clip0_10_13940">
<rect width="42" height="42" fill="white" transform="translate(14 15.1251)"/>
</clipPath>
</defs>
</svg>
