<svg width="38" height="39" viewBox="0 0 38 39" fill="none" xmlns="http://www.w3.org/2000/svg">
<g clip-path="url(#clip0_10_13278)">
<path d="M19 38.1421C29.4928 38.1421 38 29.6348 38 19.1421C38 8.64934 29.4928 0.14209 19 0.14209C8.50725 0.14209 0 8.64934 0 19.1421C0 29.6348 8.50725 38.1421 19 38.1421Z" fill="#FFD16C"/>
<mask id="mask0_10_13278" style="mask-type:luminance" maskUnits="userSpaceOnUse" x="0" y="0" width="38" height="39">
<path d="M19 38.1421C29.4928 38.1421 38 29.6348 38 19.1421C38 8.64934 29.4928 0.14209 19 0.14209C8.50725 0.14209 0 8.64934 0 19.1421C0 29.6348 8.50725 38.1421 19 38.1421Z" fill="white"/>
</mask>
<g mask="url(#mask0_10_13278)">
<path d="M14.44 5.32192C14.44 5.32192 13.9317 2.87567 17.0572 3.18442C20.1827 3.49317 23.2299 4.45979 24.3817 4.51679C34.4684 5.00367 29.982 13.7199 29.982 13.7199C29.982 13.7199 31.2669 27.4094 26.0324 27.0935C20.7955 26.7777 18.4371 26.9392 18.4371 26.9392C18.4371 26.9392 10.9844 29.0268 6.87562 23.3054C2.78587 17.6125 6.87562 10.4899 8.33624 7.80142C9.88237 4.95142 12.5424 4.17479 14.4424 5.32429H14.44V5.32192Z" fill="black"/>
<path d="M16.2165 32.9266L13.5422 33.2947C13.5422 33.2947 6.55262 34.8242 5.90424 37.6623C5.25824 40.5004 25.327 42.6474 32.1005 39.2559C32.1005 39.2559 32.1219 34.3967 26.5002 33.1593C20.8786 31.9219 16.2165 32.9242 16.2165 32.9242V32.9266Z" fill="#B1DFDB"/>
<path d="M22.5981 26.039L17.8268 24.3741C17.8268 24.3741 17.8196 27.559 17.7935 29.763C18.6818 30.2546 20.2089 30.8579 22.7953 31.3471L22.5981 26.039Z" fill="#C15C10"/>
<path d="M22.8142 31.8388L22.7952 31.3472C20.2112 30.8579 18.6841 30.2547 17.7935 29.7631C17.7816 30.8104 17.7674 31.6369 17.746 31.7937C17.6842 32.2782 13.5399 33.2947 13.5399 33.2947C14.3497 37.2918 19.285 39.6692 22.7121 38.7667C26.1392 37.8618 26.4979 33.1617 26.4979 33.1617L22.8119 31.8388H22.8142Z" fill="#C47330"/>
<path d="M16.1334 8.67785C16.1334 8.67785 17.7959 10.9697 24.6311 10.6016C26.7092 10.49 29.1317 9.05547 29.298 12.2047C29.4642 15.354 28.4667 15.0215 29.3977 17.6102C30.3287 20.199 30.3691 25.9132 25.8756 28.1386C23.3249 29.4021 19.1116 29.2857 16.4112 26.6613C13.7109 24.037 13.4092 21.8638 13.3926 20.9471C13.3926 20.9471 12.8677 21.7878 11.8512 21.6643C10.8347 21.5385 10.0391 20.4982 9.88235 19.287C9.7256 18.0757 10.3051 16.8431 11.2432 17.0782C12.179 17.3133 13.0364 18.755 13.0364 18.755C13.0364 18.755 15.8602 17.3751 15.6536 13.72C15.447 10.0648 16.1286 8.6731 16.1286 8.6731L16.1334 8.67785Z" fill="#C47330"/>
<path d="M21.109 16.0284C21.109 16.0284 21.0021 17.5745 20.5817 18.1232C19.8787 19.0447 17.0691 18.7312 16.8791 17.5318C16.6677 16.1923 18.0429 16.0308 18.0429 16.0308L19.5581 15.7434L21.1114 16.0284H21.109Z" fill="#F3F5F7"/>
<path d="M21.0378 16.9214C21.0378 16.9214 21.5531 15.3088 20.2944 15.1306C17.7199 14.7673 17.0264 16.0949 16.8934 16.8834C16.8934 16.8834 17.6985 15.7838 19.4465 15.8693C20.9238 15.9405 21.0378 16.9214 21.0378 16.9214Z" fill="#1D1D1B"/>
<path d="M28.3907 16.0165C28.3907 16.0165 28.386 16.7599 28.0867 17.3394C27.7519 17.9926 26.3031 18.6196 25.3365 17.8097C24.9731 17.5057 25.023 17.2634 25.0396 17.0378C25.0776 16.5367 25.4172 16.0356 25.8257 15.7767C26.4171 15.4014 28.2031 14.4182 28.3907 16.0165Z" fill="#F3F5F7"/>
<path d="M26.4053 17.0377C26.4361 17.4272 26.6143 17.8334 26.9183 17.9996C27.0821 18.0899 27.1676 18.0756 27.5049 17.9046C27.8445 17.7336 28.1913 17.4177 28.31 16.748C28.5119 15.608 28.4383 15.5106 27.6403 15.5581C26.961 15.5961 26.3578 16.4392 26.4053 17.0377Z" fill="#1D1D1B"/>
<path d="M25.0278 16.8692C25.0278 16.8692 24.9803 15.2851 26.8565 14.8671C28.0131 14.6106 28.785 14.8956 28.348 16.095C28.348 16.095 28.272 15.1592 26.714 15.6105C25.1536 16.0617 25.0278 16.8692 25.0278 16.8692Z" fill="#1D1D1B"/>
<path d="M18.7197 17.5484C18.7316 17.6932 18.7482 18.0709 19.0332 18.4319C19.3966 18.8902 20.1875 18.4675 20.33 18.3749C20.6886 18.1492 21.1945 17.6386 21.033 16.9C20.9214 16.387 20.4369 15.969 19.6816 16.2849C19.1306 16.5152 18.6675 16.881 18.7197 17.5484Z" fill="#1D1D1B"/>
<path d="M19.4869 17.3775C19.3111 17.3775 19.1686 17.235 19.1686 17.0592C19.1686 16.8835 19.3111 16.741 19.4869 16.741C19.6626 16.741 19.8051 16.8835 19.8051 17.0592C19.8051 17.235 19.6626 17.3775 19.4869 17.3775Z" fill="#F3F5F7"/>
<path d="M27.0821 16.9333C26.9063 16.9333 26.7639 16.7908 26.7639 16.615C26.7639 16.4392 26.9063 16.2968 27.0821 16.2968C27.2579 16.2968 27.4004 16.4392 27.4004 16.615C27.4004 16.7908 27.2579 16.9333 27.0821 16.9333Z" fill="#F3F5F7"/>
<path d="M26.41 23.6117C26.41 23.6117 26.7591 25.2267 26.0442 25.5687C23.9827 26.5615 22.5506 25.2172 22.5292 24.0369C22.5197 23.5286 26.4076 23.6117 26.4076 23.6117H26.41Z" fill="#D60E09"/>
<path d="M26.5976 23.7591C26.3577 24.1438 25.6809 24.094 25.1204 24.1248C24.7451 24.1438 22.9805 24.6188 22.3321 23.8731C22.3321 23.8731 22.7976 23.7615 23.7001 23.3126C25.859 22.2391 26.8232 23.3981 26.6 23.7615L26.5976 23.7591Z" fill="#D8342B"/>
<path d="M25.4648 12.6582C25.4838 12.5894 28.0891 11.8769 28.861 13.233C29.6329 14.5891 28.2079 13.0501 27.2199 13.2282C26.2319 13.4064 25.137 13.8552 25.4648 12.6582Z" fill="black"/>
<path d="M21.4486 12.9124C21.432 12.8316 18.5844 11.9458 17.6652 13.5085C16.7461 15.0689 18.3967 13.309 19.4797 13.537C20.5651 13.765 21.7526 14.3113 21.4486 12.9124Z" fill="black"/>
<path d="M24.9707 14.3944C24.2036 15.8242 24.0967 17.5674 25.0325 18.838C25.1441 18.9877 26.1274 20.0612 25.9991 20.7309C25.8566 21.4719 24.5931 21.8068 24.5931 21.8068C24.244 22.011 23.8782 22.1749 23.4436 22.2367C23.2322 22.2628 22.971 22.2438 22.781 22.1037C22.5957 21.954 22.5316 21.7997 22.4461 21.6358C22.2965 21.346 22.2205 20.8259 22.6907 20.6383C23.1349 20.51 23.5077 20.7499 23.7761 20.9684C23.4769 20.7832 23.0707 20.6098 22.7454 20.7452C22.4271 20.8972 22.5197 21.2843 22.667 21.5503C22.8261 21.8662 23.0375 22.0538 23.3985 21.9683C23.7357 21.9089 24.0754 21.7284 24.3699 21.5479L24.4459 21.5028L24.5242 21.5194C24.8757 21.5907 25.6619 21.156 25.6571 20.6003C25.6524 19.9757 24.8259 19.2085 24.6952 19.0233C24.1799 18.3298 24.0279 17.4724 24.0991 16.672C24.1632 15.8645 24.4625 15.0689 24.9684 14.3968H24.9707V14.3944Z" fill="#C15C10"/>
<path d="M11.3414 20.0331C11.0035 19.4061 11.0198 18.7415 11.3777 18.5486C11.7357 18.3557 12.2997 18.7076 12.6376 19.3346C12.9755 19.9616 12.9592 20.6262 12.6013 20.8191C12.2433 21.012 11.6793 20.6601 11.3414 20.0331Z" fill="#C15C10"/>
<path d="M9.17698 25.5735L14.9554 26.6637C14.9554 26.6637 18.2994 33.7815 10.6804 33.126C5.65486 32.6938 5.56461 27.5234 9.17936 25.5712H9.17698V25.5735Z" fill="black"/>
</g>
</g>
<defs>
<clipPath id="clip0_10_13278">
<rect width="38" height="38" fill="white" transform="matrix(-1 0 0 1 38 0.14209)"/>
</clipPath>
</defs>
</svg>
