<svg width="220" height="124" viewBox="0 0 220 124" fill="none" xmlns="http://www.w3.org/2000/svg">
<path d="M181.25 206.87L57.25 186.15C54.8423 185.746 52.6935 184.402 51.2759 182.415C49.8583 180.427 49.2879 177.958 49.69 175.55L77.17 10.89C77.3689 9.69689 77.8008 8.55467 78.4412 7.52853C79.0816 6.5024 79.9178 5.61244 80.9021 4.9095C81.8864 4.20655 82.9995 3.70437 84.1779 3.43164C85.3563 3.15891 86.5769 3.12097 87.77 3.31998L211.77 24.05C212.963 24.2476 214.106 24.6788 215.132 25.3189C216.159 25.9591 217.048 26.7955 217.751 27.7803C218.453 28.7651 218.954 29.8789 219.225 31.0577C219.496 32.2366 219.532 33.4573 219.33 34.65L191.85 199.3C191.652 200.494 191.221 201.637 190.581 202.663C189.941 203.69 189.105 204.581 188.12 205.284C187.136 205.987 186.022 206.489 184.843 206.761C183.664 207.033 182.443 207.07 181.25 206.87Z" fill="#445473"/>
<path d="M181.88 196.54L60 176.17L87.15 13.6599L209 33.9999L181.88 196.54Z" fill="white"/>
<path d="M170.1 17.0799L159.94 15.3799L160.51 11.9999C160.733 10.6657 160.692 9.30058 160.387 7.98248C160.083 6.66437 159.522 5.41912 158.736 4.31782C157.15 2.09364 154.745 0.590812 152.05 0.139944C149.355 -0.310924 146.592 0.327099 144.368 1.91366C142.144 3.50022 140.641 5.90534 140.19 8.59994L139.63 11.9999L129.47 10.2999C128.581 10.1511 127.671 10.1789 126.793 10.3818C125.914 10.5847 125.085 10.9588 124.351 11.4826C123.617 12.0064 122.994 12.6696 122.517 13.4345C122.04 14.1993 121.718 15.0507 121.57 15.9399L120.44 22.7099L174.61 31.7599L175.74 24.9999C175.892 24.1094 175.866 23.1976 175.665 22.3169C175.463 21.4363 175.089 20.6041 174.565 19.8682C174.041 19.1323 173.377 18.5072 172.611 18.0287C171.845 17.5502 170.991 17.2278 170.1 17.0799ZM149.78 13.6799C149.115 13.5588 148.501 13.2439 148.014 12.7749C147.528 12.3059 147.191 11.7036 147.045 11.0436C146.9 10.3837 146.953 9.69552 147.197 9.06546C147.441 8.43541 147.866 7.89156 148.419 7.50218C148.971 7.1128 149.626 6.89525 150.302 6.87682C150.977 6.8584 151.643 7.03992 152.216 7.39861C152.788 7.7573 153.242 8.27718 153.521 8.89298C153.799 9.50878 153.889 10.1931 153.78 10.8599C153.706 11.3096 153.544 11.74 153.302 12.1262C153.06 12.5123 152.744 12.8464 152.371 13.1089C151.999 13.3714 151.578 13.5571 151.133 13.6552C150.688 13.7532 150.228 13.7617 149.78 13.6799Z" fill="#96A6C5"/>
<path d="M174 35.1399L119.83 26.1399C119.385 26.0659 118.96 25.9051 118.577 25.6665C118.195 25.4279 117.863 25.1162 117.601 24.7494C117.339 24.3825 117.152 23.9677 117.051 23.5285C116.949 23.0893 116.936 22.6345 117.01 22.1899C117.082 21.7397 117.244 21.3085 117.486 20.9216C117.727 20.5348 118.043 20.2002 118.416 19.9374C118.789 19.6747 119.21 19.4891 119.656 19.3916C120.101 19.2942 120.562 19.2868 121.01 19.3699L175.18 28.4199C176.068 28.5697 176.861 29.0627 177.389 29.7923C177.916 30.522 178.136 31.4298 178 32.3199C177.926 32.7695 177.764 33.2 177.522 33.5861C177.28 33.9723 176.964 34.3063 176.591 34.5689C176.219 34.8314 175.798 35.0171 175.353 35.1152C174.908 35.2132 174.448 35.2216 174 35.1399Z" fill="#BECBE4"/>
<g opacity="0.97">
<path d="M167.501 64.4945L137.3 59.446C136.358 59.2885 135.466 59.9247 135.309 60.8671L135.015 62.6227C134.858 63.5651 135.494 64.4568 136.437 64.6143L166.637 69.6628C167.58 69.8203 168.472 69.1841 168.629 68.2417L168.923 66.486C169.08 65.5437 168.444 64.652 167.501 64.4945Z" fill="#ACBBD7"/>
</g>
<path d="M176.546 73.9786L136.008 67.2022C135.066 67.0447 134.174 67.6809 134.016 68.6233L133.723 70.379C133.565 71.3213 134.202 72.213 135.144 72.3705L175.682 79.1469C176.624 79.3044 177.516 78.6682 177.673 77.7258L177.967 75.9702C178.124 75.0278 177.488 74.1361 176.546 73.9786Z" fill="#EBF0FA"/>
<g opacity="0.97">
<path d="M161.026 103.275L130.825 98.2269C129.883 98.0694 128.991 98.7056 128.834 99.648L128.54 101.404C128.383 102.346 129.019 103.238 129.961 103.395L160.162 108.444C161.105 108.601 161.996 107.965 162.154 107.023L162.447 105.267C162.605 104.325 161.969 103.433 161.026 103.275Z" fill="#ACBBD7"/>
</g>
<path d="M170.06 112.749L129.523 105.973C128.58 105.816 127.689 106.452 127.531 107.394L127.238 109.15C127.08 110.092 127.716 110.984 128.659 111.141L169.196 117.918C170.139 118.075 171.03 117.439 171.188 116.497L171.481 114.741C171.639 113.799 171.003 112.907 170.06 112.749Z" fill="#EBF0FA"/>
<path d="M105.63 72.4699C105.42 72.4572 105.217 72.3895 105.042 72.2736C104.866 72.1578 104.724 71.9979 104.63 71.8099L97.14 61.5099C96.01 59.9399 96.14 59.5099 97.57 58.3999L99.7 56.8799C100.63 56.2199 101.18 56.3199 101.92 57.2599L106.51 63.4799C106.9 64.0399 107.11 64.2299 107.76 63.7699C110.92 61.4499 114.13 59.2999 117.21 56.9599C120.29 54.6199 120.85 54.2199 122.7 52.8999C124.55 51.5799 124.77 52.1899 125.63 53.3899C126.18 54.0678 126.688 54.7792 127.15 55.5199C127.312 55.6806 127.433 55.8778 127.503 56.0949C127.573 56.3121 127.591 56.5428 127.553 56.768C127.516 56.9931 127.426 57.2061 127.289 57.3891C127.153 57.5721 126.975 57.7198 126.77 57.8199L126.58 57.9499L107.09 71.9999C106.71 72.3199 106.23 72.7299 105.63 72.4699Z" fill="#7B71EF"/>
<path d="M99 112C98.7903 111.986 98.5879 111.918 98.4125 111.802C98.2372 111.687 98.095 111.527 98 111.34L90.5 101.08C89.37 99.5 89.5 99.08 90.93 97.97L93.06 96.45C93.99 95.79 94.54 95.88 95.28 96.82L99.86 103.05C100.26 103.6 100.47 103.8 101.12 103.34C104.28 101.01 107.49 98.86 110.57 96.52C113.65 94.18 114.21 93.79 116.06 92.52C117.91 91.25 118.13 91.81 118.99 93.01C119.54 93.6879 120.048 94.3993 120.51 95.14C121.16 96.14 121.06 96.7 120.12 97.44L119.94 97.57L100.48 111.57C100.1 111.89 99.62 112.3 99 112Z" fill="#7B71EF"/>
<mask id="mask0_10_14198" style="mask-type:luminance" maskUnits="userSpaceOnUse" x="52" y="30" width="90" height="90">
<path d="M97.1 119.59C121.743 119.59 141.72 99.6129 141.72 74.97C141.72 50.327 121.743 30.35 97.1 30.35C72.457 30.35 52.48 50.327 52.48 74.97C52.48 99.6129 72.457 119.59 97.1 119.59Z" fill="white"/>
</mask>
<g mask="url(#mask0_10_14198)">
<path d="M135.89 128.35L43.07 112.84L58.31 21.6L151.14 37.11L135.89 128.35Z" fill="white"/>
<path d="M88.49 90.8999C88.1426 90.8822 87.8059 90.7742 87.513 90.5865C87.2202 90.3989 86.9813 90.1381 86.82 89.8299L74.69 73.1499C72.88 70.5999 73 69.8299 75.4 68.1499L78.85 65.6899C80.35 64.6199 81.25 64.7699 82.45 66.2899L89.87 76.3699C90.51 77.2699 90.87 77.5899 91.87 76.8399C96.99 73.0799 102.19 69.5899 107.18 65.8399C112.17 62.0899 113.07 61.4099 116.07 59.2699C119.07 57.1299 119.43 58.1099 120.82 60.0599C121.709 61.1589 122.531 62.3111 123.28 63.5099C124.28 65.1399 124.18 66.0299 122.65 67.2299L122.36 67.4499L90.87 90.1099C90.25 90.6599 89.48 91.3199 88.49 90.8999Z" fill="#6C7C9D"/>
</g>
<path d="M57.6617 100.02L53.0103 90.7515L34.3485 100.117L38.9999 109.385L57.6617 100.02Z" fill="#96A6C5"/>
<path d="M38.9945 109.378L34.3477 100.119C33.4905 98.4109 31.4112 97.7212 29.7033 98.5783L1.9162 112.523C0.208308 113.381 -0.481393 115.46 0.375723 117.168L5.02259 126.427C5.87971 128.135 7.95907 128.825 9.66696 127.968L37.4541 114.023C39.1619 113.165 39.8516 111.086 38.9945 109.378Z" fill="#BECBE4"/>
<path d="M140.14 52.8199C135.849 44.2675 129.118 37.1796 120.799 32.4523C112.48 27.7251 102.946 25.5709 93.4022 26.2622C83.8587 26.9535 74.7345 30.4591 67.1834 36.3359C59.6323 42.2127 53.9934 50.1967 50.9797 59.2782C47.966 68.3597 47.713 78.131 50.2526 87.3563C52.7921 96.5816 58.0103 104.847 65.2471 111.106C72.484 117.366 81.4145 121.339 90.9094 122.524C100.404 123.708 110.037 122.05 118.59 117.76C124.269 114.911 129.332 110.972 133.488 106.166C137.645 101.361 140.814 95.7836 142.815 89.7533C144.816 83.723 145.61 77.3576 145.151 71.0206C144.692 64.6835 142.989 58.4989 140.14 52.8199ZM114.72 110C107.695 113.524 99.7826 114.885 91.9837 113.912C84.1849 112.939 76.8496 109.676 70.9054 104.534C64.9613 99.3925 60.6751 92.6038 58.5889 85.0265C56.5027 77.4491 56.7101 69.4233 59.1849 61.9638C61.6598 54.5043 66.2909 47.9462 72.4927 43.1186C78.6946 38.2909 86.1886 35.4107 94.0273 34.8419C101.866 34.2731 109.697 36.0414 116.531 39.9232C123.365 43.8049 128.894 49.6259 132.42 56.6499C134.762 61.315 136.161 66.3957 136.539 71.6017C136.917 76.8078 136.265 82.0373 134.622 86.9915C132.978 91.9458 130.374 96.5276 126.96 100.475C123.545 104.423 119.386 107.66 114.72 110Z" fill="#BECBE4"/>
</svg>
