<svg width="368" height="385" viewBox="0 0 368 385" fill="none" xmlns="http://www.w3.org/2000/svg">
<g filter="url(#filter0_d_0_1)">
<path d="M199.093 56.4034H64.9985C61.9893 56.4034 59.5499 58.7173 59.5499 61.5716V224.795C59.5499 227.649 61.9893 229.963 64.9985 229.963H199.093C202.102 229.963 204.541 227.649 204.541 224.795V61.5716C204.541 58.7173 202.102 56.4034 199.093 56.4034Z" fill="white"/>
</g>
<path d="M186.527 76.7759H117.646C116.441 76.7759 115.464 77.7022 115.464 78.8448V84.4429C115.464 85.5855 116.441 86.5118 117.646 86.5118H186.527C187.732 86.5118 188.709 85.5855 188.709 84.4429V78.8448C188.709 77.7022 187.732 76.7759 186.527 76.7759Z" fill="#D2DCEF"/>
<mask id="mask0_0_1" style="mask-type:luminance" maskUnits="userSpaceOnUse" x="74" y="67" width="30" height="29">
<path d="M89.0169 95.7609C97.2366 95.7609 103.9 89.4405 103.9 81.6438C103.9 73.8472 97.2366 67.5267 89.0169 67.5267C80.7971 67.5267 74.1337 73.8472 74.1337 81.6438C74.1337 89.4405 80.7971 95.7609 89.0169 95.7609Z" fill="white"/>
</mask>
<g mask="url(#mask0_0_1)">
<path d="M89.0169 95.7609C97.2366 95.7609 103.9 89.4405 103.9 81.6438C103.9 73.8472 97.2366 67.5267 89.0169 67.5267C80.7971 67.5267 74.1337 73.8472 74.1337 81.6438C74.1337 89.4405 80.7971 95.7609 89.0169 95.7609Z" fill="#D73C8D"/>
<path d="M92.4639 72.8977C92.4639 72.8977 92.8146 71.2913 90.6506 71.4941C88.478 71.697 86.3481 72.2 85.5698 72.3704C79.4027 73.7334 81.6865 78.431 81.6865 78.431C81.6865 78.431 79.3685 86.2441 79.5908 88.9945C79.9672 93.6191 82.6958 94.544 86.331 94.3411C89.9663 94.1302 98.4001 94.1951 98.4001 94.1951C98.4001 94.1951 97.271 89.5543 97.2539 82.8608C97.2539 81.6601 97.7244 76.3053 96.7151 74.5366C95.6459 72.6625 93.7983 72.1513 92.481 72.9059L92.4639 72.8977Z" fill="black"/>
<path d="M91.2322 91.0715L93.0884 91.3149C93.0884 91.3149 97.9382 92.3209 98.3916 94.187C98.8363 96.053 84.9112 97.4729 80.2067 95.2336C80.2067 95.2336 80.1896 92.037 84.09 91.2175C87.9904 90.4062 91.2237 91.0634 91.2237 91.0634L91.2322 91.0715Z" fill="#0099D4"/>
<path d="M86.8015 86.5361L90.1117 85.4408C90.1117 85.4408 90.1117 87.534 90.1374 88.9863C89.5215 89.3108 88.4609 89.7084 86.6646 90.0329L86.8015 86.5361Z" fill="#F4BCAE"/>
<path d="M86.6475 90.3494V90.0249C88.4523 89.7004 89.513 89.3028 90.1288 88.9783C90.1288 89.6679 90.1459 90.2115 90.163 90.317C90.2058 90.6334 93.0798 91.3068 93.0798 91.3068C92.5153 93.9355 89.0938 95.5013 86.7159 94.9091C84.338 94.3168 84.09 91.2175 84.09 91.2175L86.6475 90.3494Z" fill="#F2CCBF"/>
<path d="M91.2921 75.1045C91.2921 75.1045 90.1973 75.4615 89.111 75.9888C83.9617 78.4877 82.097 78.5364 82.097 78.5364C81.9859 80.6134 82.097 79.364 82.0799 80.9866C82.0543 82.7959 82.9011 87.0716 84.5263 87.9154C86.2541 88.824 88.6747 88.3535 90.5565 86.6253C92.4383 84.8972 93.1824 83.7857 93.191 83.1853C93.191 83.1853 93.5588 83.737 94.2602 83.6559C94.9701 83.5748 95.5176 82.8851 95.6288 82.09C95.74 81.2949 95.3379 80.4836 94.6879 80.6377C94.0378 80.7919 93.4391 81.7412 93.4391 81.7412C93.4391 81.7412 92.1389 80.7838 91.6257 78.4309C91.1296 76.1836 91.3007 75.1126 91.3007 75.1126L91.2921 75.1045Z" fill="#F2CCBF"/>
<path d="M87.8365 79.94C87.8365 79.94 87.8536 81.0029 88.17 81.3436C88.6405 81.8548 90.6677 81.1814 90.7703 80.9298C90.873 80.6783 90.642 80.1591 90.642 80.1591L88.9142 79.7534L87.8365 79.94Z" fill="#F3F5F7"/>
<path d="M87.9134 80.4675C87.9134 80.4675 87.2377 79.7129 88.076 79.4695C88.9228 79.2261 90.4111 80.1024 90.9499 80.2728C90.9499 80.2728 90.4881 80.2728 89.3077 80.0294C87.9733 79.7616 87.922 80.4675 87.922 80.4675H87.9134Z" fill="#1D1D1B"/>
<path d="M82.7813 79.9319C82.7813 79.9319 82.7813 80.4187 82.9951 80.8C83.2261 81.23 84.569 81.2787 84.9026 81.1083C85.1934 80.9623 85.1164 80.7513 85.1079 80.5972C85.0822 80.2645 84.8427 79.94 84.5605 79.7696C84.1499 79.5262 82.9096 78.8772 82.7813 79.9319Z" fill="#F3F5F7"/>
<path d="M84.9796 80.6053C84.9539 80.8649 84.8085 81.0759 84.5947 81.1895C84.4835 81.2463 84.0045 81.2219 83.9104 81.1732C83.688 81.0353 83.5511 80.7838 83.5682 80.4998C83.6025 80.1023 83.9446 79.8102 84.3295 79.8427C84.7144 79.8751 85.0052 80.2159 84.971 80.6134L84.9796 80.6053Z" fill="#1D1D1B"/>
<path d="M85.125 80.4025C85.125 80.4025 85.0822 79.9644 84.6546 79.6561C84.2269 79.3478 83.8249 79.2342 83.7308 79.2018C83.4827 79.1125 82.0799 78.8529 82.807 79.9888C82.807 79.9888 82.8583 79.3722 83.9446 79.6724C85.0309 79.9725 85.125 80.4025 85.125 80.4025Z" fill="#1D1D1B"/>
<path d="M90.6335 80.8163C90.6335 80.9136 90.6164 81.011 90.565 81.084C90.5052 81.1651 89.5472 81.5059 89.4531 81.4491C89.205 81.3031 89.0511 81.011 89.0767 80.7027C89.1109 80.2646 89.4787 80.078 89.915 80.1104C90.3512 80.1429 90.6762 80.3863 90.642 80.8244L90.6335 80.8163Z" fill="#1D1D1B"/>
<path d="M90.1032 80.7108C90.226 80.7108 90.3255 80.6164 90.3255 80.4999C90.3255 80.3834 90.226 80.2889 90.1032 80.2889C89.9803 80.2889 89.8808 80.3834 89.8808 80.4999C89.8808 80.6164 89.9803 80.7108 90.1032 80.7108Z" fill="#F3F5F7"/>
<path d="M84.5348 80.3782C84.6576 80.3782 84.7572 80.2837 84.7572 80.1672C84.7572 80.0507 84.6576 79.9563 84.5348 79.9563C84.412 79.9563 84.3124 80.0507 84.3124 80.1672C84.3124 80.2837 84.412 80.3782 84.5348 80.3782Z" fill="#F3F5F7"/>
<path d="M85.5099 85.1731C85.5099 85.1731 85.2276 85.7654 85.7152 86.0088C86.2027 86.2522 88.1529 86.1223 88.1615 85.3435L85.5013 85.1731H85.5099Z" fill="#E46F70"/>
<path d="M85.1507 84.9054C85.1507 85.4328 85.5869 85.2949 86.1685 85.3111C86.9127 85.3273 87.9135 85.6275 88.1701 85.3354C88.1701 85.3354 87.7082 85.3516 87.2206 84.9622C86.887 84.7026 86.2797 84.5322 85.8093 84.5484C85.3388 84.5647 85.1507 84.6782 85.1507 84.8973V84.9054Z" fill="#EF9A9A"/>
<path d="M84.8085 77.7252C84.7914 77.6765 82.9866 77.214 82.4477 78.1065C81.9089 78.9989 82.9011 77.9848 83.5854 78.1065C84.2696 78.2201 85.0309 78.5203 84.8 77.7333L84.8085 77.7252Z" fill="black"/>
<path d="M87.597 77.8955C87.6055 77.8388 89.5814 77.2627 90.2229 78.285C90.8644 79.3154 89.7182 78.1552 88.9655 78.3012C88.2128 78.4472 87.3831 78.8123 87.597 77.8874V77.8955Z" fill="black"/>
<path d="M94.616 82.5788C94.8514 82.1646 94.8398 81.7254 94.5903 81.5979C94.3408 81.4703 93.9478 81.7027 93.7125 82.1169C93.4772 82.5311 93.4887 82.9702 93.7382 83.0978C93.9877 83.2253 94.3807 82.9929 94.616 82.5788Z" fill="#FFAB91"/>
</g>
<path d="M85.3987 78.6664C85.5783 79.2019 85.7066 79.7536 85.7408 80.3215C85.7751 80.8813 85.7408 81.4898 85.3987 82.0172C85.2191 82.3011 84.9197 82.4391 84.8085 82.6257C84.6545 82.8123 84.7657 82.9989 85.0052 83.1206C85.2447 83.226 85.5099 83.3315 85.758 83.2098C86.0573 83.1287 86.4166 83.1125 86.6817 83.3315L86.6304 83.3153C86.7758 83.3153 86.9298 83.2909 87.0495 83.2179C87.1778 83.1449 87.2206 82.9826 87.1778 82.8366C87.2377 82.9745 87.2292 83.153 87.0923 83.2666C86.964 83.3721 86.8015 83.4208 86.6304 83.4451H86.6133L86.5791 83.4289C86.3738 83.2991 86.0659 83.3072 85.8178 83.4045C85.527 83.5668 85.1507 83.4694 84.8769 83.3396C84.7315 83.2666 84.5861 83.1693 84.5006 82.9989C84.415 82.8285 84.4578 82.6094 84.5605 82.4796C84.7572 82.1875 85.0395 82.074 85.1592 81.863C85.4671 81.4411 85.5099 80.8651 85.527 80.3296C85.527 79.7779 85.4842 79.2262 85.3987 78.6664Z" fill="#FFAB91"/>
<path d="M96.7578 213.111H97.7244L98.3915 215.497C98.5455 216.04 98.6567 216.503 98.8278 217.046H98.862C99.0331 216.503 99.1357 216.04 99.2982 215.497L100.017 213.111H100.958L99.3667 217.89H98.2804L96.7493 213.111H96.7578Z" fill="#0F7DB8"/>
<path d="M101.112 216.097C101.112 214.896 101.975 214.207 102.925 214.207C103.874 214.207 104.73 214.904 104.73 216.097C104.73 217.29 103.866 217.971 102.925 217.971C101.984 217.971 101.112 217.282 101.112 216.097ZM103.789 216.097C103.789 215.383 103.464 214.913 102.916 214.913C102.369 214.913 102.044 215.383 102.044 216.097C102.044 216.811 102.369 217.273 102.916 217.273C103.464 217.273 103.789 216.803 103.789 216.097Z" fill="#0F7DB8"/>
<path d="M105.5 213.193C105.5 212.901 105.722 212.706 106.047 212.706C106.372 212.706 106.594 212.901 106.594 213.193C106.594 213.485 106.372 213.679 106.047 213.679C105.722 213.679 105.5 213.485 105.5 213.193ZM105.577 214.296H106.492V217.89H105.577V214.296Z" fill="#0F7DB8"/>
<path d="M107.604 214.296H108.348L108.416 214.937H108.442C108.716 214.466 109.118 214.207 109.52 214.207C109.716 214.207 109.836 214.239 109.947 214.28L109.759 215.018C109.648 214.986 109.554 214.977 109.4 214.977C109.101 214.977 108.741 215.164 108.51 215.716V217.89H107.595V214.296H107.604Z" fill="#0F7DB8"/>
<path d="M112.043 216.949V212.738H112.958V216.998C112.958 217.209 113.061 217.282 113.146 217.282C113.189 217.282 113.223 217.282 113.283 217.265L113.394 217.898C113.283 217.947 113.129 217.979 112.915 217.979C112.274 217.979 112.034 217.582 112.034 216.949H112.043Z" fill="#0F7DB8"/>
<path d="M113.882 216.097C113.882 214.929 114.746 214.215 115.627 214.215C116.653 214.215 117.209 214.913 117.209 215.927C117.209 216.105 117.192 216.235 117.167 216.365H114.78C114.874 216.965 115.276 217.314 115.875 217.314C116.2 217.314 116.491 217.225 116.756 217.063L117.064 217.606C116.713 217.858 116.251 217.988 115.755 217.988C114.712 217.988 113.891 217.298 113.891 216.105L113.882 216.097ZM116.414 215.716C116.414 215.188 116.149 214.88 115.661 214.88C115.233 214.88 114.857 215.172 114.78 215.716H116.414Z" fill="#0F7DB8"/>
<path d="M119.579 214.296H120.323L120.391 214.677H120.417C120.742 214.418 121.144 214.207 121.555 214.207C122.495 214.207 123.043 214.929 123.043 216.04C123.043 217.265 122.273 217.979 121.435 217.979C121.093 217.979 120.768 217.833 120.468 217.582L120.502 218.182V219.302H119.587V214.296H119.579ZM122.119 216.048C122.119 215.343 121.871 214.921 121.315 214.921C121.041 214.921 120.793 215.042 120.502 215.318V216.973C120.759 217.184 121.024 217.257 121.238 217.257C121.734 217.257 122.119 216.852 122.119 216.048Z" fill="#0F7DB8"/>
<path d="M123.932 214.296H124.677L124.745 214.937H124.771C125.044 214.466 125.446 214.207 125.848 214.207C126.045 214.207 126.165 214.239 126.276 214.28L126.088 215.018C125.977 214.986 125.883 214.977 125.729 214.977C125.429 214.977 125.07 215.164 124.839 215.716V217.89H123.924V214.296H123.932Z" fill="#0F7DB8"/>
<path d="M126.499 216.097C126.499 214.896 127.362 214.207 128.312 214.207C129.261 214.207 130.117 214.904 130.117 216.097C130.117 217.29 129.253 217.971 128.312 217.971C127.371 217.971 126.499 217.282 126.499 216.097ZM129.184 216.097C129.184 215.383 128.859 214.913 128.312 214.913C127.764 214.913 127.439 215.383 127.439 216.097C127.439 216.811 127.764 217.273 128.312 217.273C128.859 217.273 129.184 216.803 129.184 216.097Z" fill="#0F7DB8"/>
<path d="M131.109 214.986H130.604V214.345L131.109 214.304V213.955C131.109 213.209 131.468 212.657 132.375 212.657C132.649 212.657 132.914 212.722 133.076 212.779L132.888 213.395C132.751 213.363 132.614 213.339 132.495 213.339C132.178 213.339 132.016 213.525 132.016 213.939V214.304H132.751V214.994H132.016V217.898H131.109V214.994V214.986Z" fill="#0F7DB8"/>
<path d="M133.316 213.193C133.316 212.901 133.538 212.706 133.863 212.706C134.188 212.706 134.411 212.901 134.411 213.193C134.411 213.485 134.188 213.679 133.863 213.679C133.538 213.679 133.316 213.485 133.316 213.193ZM133.401 214.296H134.316V217.89H133.401V214.296Z" fill="#0F7DB8"/>
<path d="M135.428 216.949V212.738H136.344V216.998C136.344 217.209 136.446 217.282 136.532 217.282C136.575 217.282 136.609 217.282 136.669 217.265L136.771 217.898C136.669 217.947 136.515 217.979 136.292 217.979C135.651 217.979 135.411 217.582 135.411 216.949H135.428Z" fill="#0F7DB8"/>
<path d="M138.807 216.097C138.807 214.896 139.697 214.207 140.715 214.207C141.194 214.207 141.544 214.377 141.827 214.612L141.39 215.156C141.194 214.994 141.005 214.921 140.766 214.921C140.167 214.921 139.748 215.391 139.748 216.105C139.748 216.819 140.159 217.282 140.732 217.282C141.031 217.282 141.296 217.168 141.51 216.998L141.878 217.549C141.519 217.85 141.065 217.987 140.638 217.987C139.603 217.987 138.807 217.298 138.807 216.113V216.097Z" fill="#0F7DB8"/>
<path d="M142.177 216.097C142.177 214.896 143.041 214.207 143.991 214.207C144.94 214.207 145.795 214.904 145.795 216.097C145.795 217.29 144.931 217.971 143.991 217.971C143.05 217.971 142.177 217.282 142.177 216.097ZM144.854 216.097C144.854 215.383 144.529 214.913 143.982 214.913C143.435 214.913 143.11 215.383 143.11 216.097C143.11 216.811 143.435 217.273 143.982 217.273C144.529 217.273 144.854 216.803 144.854 216.097Z" fill="#0F7DB8"/>
<path d="M146.651 214.296H147.395L147.463 214.783H147.489C147.814 214.466 148.173 214.207 148.652 214.207C149.208 214.207 149.525 214.45 149.696 214.848C150.055 214.483 150.423 214.207 150.91 214.207C151.714 214.207 152.082 214.734 152.082 215.635V217.882H151.167V215.74C151.167 215.156 150.987 214.945 150.594 214.945C150.363 214.945 150.098 215.083 149.816 215.383V217.882H148.909V215.74C148.909 215.156 148.729 214.945 148.336 214.945C148.105 214.945 147.84 215.083 147.557 215.383V217.882H146.642V214.288L146.651 214.296Z" fill="#0F7DB8"/>
<path d="M153.151 214.296H153.896L153.964 214.677H153.99C154.315 214.418 154.717 214.207 155.127 214.207C156.068 214.207 156.616 214.929 156.616 216.04C156.616 217.265 155.846 217.979 155.008 217.979C154.665 217.979 154.34 217.833 154.041 217.582L154.075 218.182V219.302H153.16V214.296H153.151ZM155.683 216.048C155.683 215.343 155.435 214.921 154.871 214.921C154.606 214.921 154.349 215.042 154.067 215.318V216.973C154.332 217.184 154.588 217.257 154.802 217.257C155.298 217.257 155.683 216.852 155.683 216.048Z" fill="#0F7DB8"/>
<path d="M157.505 216.949V212.738H158.42V216.998C158.42 217.209 158.523 217.282 158.609 217.282C158.651 217.282 158.686 217.282 158.745 217.265L158.857 217.898C158.745 217.947 158.591 217.979 158.378 217.979C157.736 217.979 157.497 217.582 157.497 216.949H157.505Z" fill="#0F7DB8"/>
<path d="M159.353 216.097C159.353 214.929 160.217 214.215 161.098 214.215C162.124 214.215 162.671 214.913 162.671 215.927C162.671 216.105 162.654 216.235 162.629 216.365H160.242C160.336 216.965 160.738 217.314 161.337 217.314C161.662 217.314 161.953 217.225 162.218 217.063L162.526 217.606C162.175 217.858 161.713 217.988 161.217 217.988C160.174 217.988 159.353 217.298 159.353 216.105V216.097ZM161.876 215.716C161.876 215.188 161.611 214.88 161.123 214.88C160.696 214.88 160.319 215.172 160.242 215.716H161.876Z" fill="#0F7DB8"/>
<path d="M163.57 216.673V214.986H163.031V214.345L163.612 214.304L163.724 213.184H164.476V214.304H165.443V214.994H164.476V216.681C164.476 217.095 164.656 217.306 165.007 217.306C165.135 217.306 165.272 217.282 165.4 217.233L165.563 217.841C165.366 217.931 165.084 217.996 164.776 217.996C163.886 217.996 163.57 217.468 163.57 216.689V216.673Z" fill="#0F7DB8"/>
<path d="M96.7921 218.621V218.255H165.674V218.621H96.7921Z" fill="#0F7DB8"/>
<path d="M74.2705 104.677H188.666" stroke="#D2DCEF" stroke-width="0.53" stroke-miterlimit="10" stroke-linecap="round"/>
<path d="M74.2705 129.098H188.666" stroke="#D2DCEF" stroke-width="0.53" stroke-miterlimit="10" stroke-linecap="round"/>
<path d="M74.2705 153.446H188.666" stroke="#D2DCEF" stroke-width="0.53" stroke-miterlimit="10" stroke-linecap="round"/>
<path d="M74.2705 178.176H188.666" stroke="#D2DCEF" stroke-width="0.53" stroke-miterlimit="10" stroke-linecap="round"/>
<path d="M74.2705 202.67H188.666" stroke="#D2DCEF" stroke-width="0.53" stroke-miterlimit="10" stroke-linecap="round"/>
<path d="M74.3475 114.681H75.699C77.2386 114.681 78.1624 115.46 78.1624 117.05C78.1624 118.64 77.2386 119.46 75.7417 119.46H74.3475V114.681ZM75.6391 118.762C76.6399 118.762 77.2215 118.227 77.2215 117.05C77.2215 115.874 76.6484 115.395 75.6391 115.395H75.2713V118.762H75.6391Z" fill="#465A64"/>
<path d="M78.8809 118.494C78.8809 117.707 79.5395 117.31 81.0963 117.148C81.0792 116.782 80.9252 116.474 80.4205 116.474C80.0527 116.474 79.6935 116.62 79.3599 116.807L79.0349 116.239C79.454 115.987 79.9929 115.768 80.5916 115.768C81.5325 115.768 82.0115 116.32 82.0115 117.326V119.452H81.2759L81.1989 119.054H81.1647C80.8225 119.33 80.4547 119.533 80.01 119.533C79.3513 119.533 78.8894 119.111 78.8894 118.478L78.8809 118.494ZM81.1048 118.494V117.732C80.0698 117.845 79.7619 118.064 79.7619 118.429C79.7619 118.738 79.9757 118.851 80.2837 118.851C80.5916 118.851 80.8225 118.738 81.0963 118.486L81.1048 118.494Z" fill="#465A64"/>
<path d="M83.0721 118.243V116.555H82.5333V115.914L83.1149 115.874L83.2261 114.754H83.9788V115.874H84.9454V116.563H83.9788V118.251C83.9788 118.665 84.1584 118.876 84.5091 118.876C84.6374 118.876 84.7743 118.851 84.9026 118.803L85.0651 119.411C84.8684 119.5 84.5861 119.565 84.2782 119.565C83.3886 119.565 83.0721 119.038 83.0721 118.259V118.243Z" fill="#465A64"/>
<path d="M85.3559 117.667C85.3559 116.499 86.2198 115.785 87.1009 115.785C88.1273 115.785 88.6833 116.482 88.6833 117.496C88.6833 117.675 88.6661 117.805 88.6405 117.935H86.254C86.3481 118.535 86.7502 118.884 87.3489 118.884C87.6739 118.884 87.9648 118.795 88.2299 118.632L88.5379 119.176C88.1872 119.427 87.7167 119.557 87.2292 119.557C86.1856 119.557 85.3645 118.868 85.3645 117.675L85.3559 117.667ZM87.8792 117.285C87.8792 116.758 87.6141 116.45 87.1265 116.45C86.6988 116.45 86.3225 116.742 86.2455 117.285H87.8792Z" fill="#465A64"/>
<path d="M90.8302 117.675C90.8302 116.499 91.6 115.785 92.4297 115.785C92.8574 115.785 93.1226 115.939 93.4134 116.182L93.3792 115.606V114.316H94.2858V119.476H93.5502L93.4818 119.087H93.4476C93.1739 119.346 92.789 119.565 92.3869 119.565C91.4375 119.565 90.8302 118.868 90.8302 117.691V117.675ZM93.3792 118.438V116.791C93.1225 116.572 92.8745 116.499 92.6264 116.499C92.156 116.499 91.7625 116.92 91.7625 117.659C91.7625 118.429 92.0705 118.835 92.6093 118.835C92.8916 118.835 93.1397 118.722 93.3792 118.438Z" fill="#465A64"/>
<path d="M95.1583 117.667C95.1583 116.499 96.0222 115.785 96.9032 115.785C97.9296 115.785 98.4856 116.482 98.4856 117.496C98.4856 117.675 98.4685 117.805 98.4429 117.935H96.0564C96.1505 118.535 96.5525 118.884 97.1513 118.884C97.4763 118.884 97.7671 118.795 98.0323 118.632L98.3402 119.176C97.9895 119.427 97.5191 119.557 97.0315 119.557C95.988 119.557 95.1669 118.868 95.1669 117.675L95.1583 117.667ZM97.6816 117.285C97.6816 116.758 97.4164 116.45 96.9289 116.45C96.5012 116.45 96.1248 116.742 96.0479 117.285H97.6816Z" fill="#465A64"/>
<path d="M100.855 115.866H101.599L101.668 116.344H101.693C102.035 116.036 102.42 115.776 102.933 115.776C103.746 115.776 104.105 116.304 104.105 117.204V119.452H103.199V117.31C103.199 116.726 103.019 116.515 102.626 116.515C102.292 116.515 102.078 116.661 101.779 116.953V119.452H100.864V115.858L100.855 115.866Z" fill="#465A64"/>
<path d="M104.969 118.494C104.969 117.707 105.628 117.31 107.185 117.148C107.167 116.782 107.014 116.474 106.509 116.474C106.141 116.474 105.782 116.62 105.448 116.807L105.123 116.239C105.542 115.987 106.081 115.768 106.68 115.768C107.621 115.768 108.1 116.32 108.1 117.326V119.452H107.364L107.287 119.054H107.253C106.911 119.33 106.543 119.533 106.098 119.533C105.44 119.533 104.978 119.111 104.978 118.478L104.969 118.494ZM107.193 118.494V117.732C106.158 117.845 105.85 118.064 105.85 118.429C105.85 118.738 106.064 118.851 106.372 118.851C106.68 118.851 106.911 118.738 107.185 118.486L107.193 118.494Z" fill="#465A64"/>
<path d="M109.058 114.762C109.058 114.47 109.28 114.276 109.605 114.276C109.93 114.276 110.153 114.47 110.153 114.762C110.153 115.054 109.93 115.249 109.605 115.249C109.28 115.249 109.058 115.054 109.058 114.762ZM109.143 115.866H110.059V119.46H109.143V115.866Z" fill="#465A64"/>
<path d="M110.803 119.022L111.205 118.535C111.538 118.795 111.88 118.9 112.265 118.9C112.65 118.9 112.856 118.722 112.856 118.486C112.856 118.186 112.488 118.072 112.06 117.926C111.513 117.74 111.008 117.44 111.008 116.864C111.008 116.239 111.547 115.785 112.394 115.785C112.907 115.785 113.352 115.963 113.66 116.223L113.266 116.709C112.992 116.523 112.719 116.434 112.419 116.434C112.043 116.434 111.872 116.612 111.872 116.823C111.872 117.083 112.146 117.188 112.616 117.342C113.198 117.529 113.719 117.821 113.719 118.438C113.719 119.054 113.198 119.557 112.231 119.557C111.709 119.557 111.171 119.371 110.803 119.03V119.022Z" fill="#465A64"/>
<path d="M114.122 119.022L114.524 118.535C114.857 118.795 115.199 118.9 115.584 118.9C115.969 118.9 116.174 118.722 116.174 118.486C116.174 118.186 115.807 118.072 115.379 117.926C114.831 117.74 114.327 117.44 114.327 116.864C114.327 116.239 114.866 115.785 115.712 115.785C116.226 115.785 116.67 115.963 116.978 116.223L116.585 116.709C116.311 116.523 116.038 116.434 115.738 116.434C115.362 116.434 115.191 116.612 115.191 116.823C115.191 117.083 115.464 117.188 115.935 117.342C116.517 117.529 117.038 117.821 117.038 118.438C117.038 119.054 116.517 119.557 115.55 119.557C115.028 119.557 114.489 119.371 114.122 119.03V119.022Z" fill="#465A64"/>
<path d="M117.62 118.494C117.62 117.707 118.279 117.31 119.835 117.148C119.818 116.782 119.664 116.474 119.16 116.474C118.792 116.474 118.433 116.62 118.099 116.807L117.774 116.239C118.193 115.987 118.732 115.768 119.331 115.768C120.272 115.768 120.751 116.32 120.751 117.326V119.452H120.015L119.938 119.054H119.904C119.562 119.33 119.194 119.533 118.749 119.533C118.09 119.533 117.628 119.111 117.628 118.478L117.62 118.494ZM119.835 118.494V117.732C118.8 117.845 118.492 118.064 118.492 118.429C118.492 118.738 118.706 118.851 119.014 118.851C119.322 118.851 119.553 118.738 119.827 118.486L119.835 118.494Z" fill="#465A64"/>
<path d="M121.794 115.866H122.538L122.607 116.344H122.632C122.974 116.036 123.359 115.776 123.873 115.776C124.685 115.776 125.044 116.304 125.044 117.204V119.452H124.138V117.31C124.138 116.726 123.958 116.515 123.565 116.515C123.231 116.515 123.017 116.661 122.718 116.953V119.452H121.803V115.858L121.794 115.866Z" fill="#465A64"/>
<path d="M125.866 117.675C125.866 116.474 126.755 115.785 127.773 115.785C128.252 115.785 128.603 115.955 128.885 116.19L128.449 116.734C128.252 116.572 128.064 116.499 127.824 116.499C127.226 116.499 126.806 116.969 126.806 117.683C126.806 118.397 127.217 118.859 127.79 118.859C128.089 118.859 128.355 118.746 128.568 118.576L128.936 119.127C128.577 119.427 128.124 119.565 127.696 119.565C126.661 119.565 125.866 118.876 125.866 117.691V117.675Z" fill="#465A64"/>
<path d="M129.227 117.667C129.227 116.499 130.091 115.785 130.972 115.785C131.998 115.785 132.554 116.482 132.554 117.496C132.554 117.675 132.537 117.805 132.512 117.935H130.125C130.219 118.535 130.621 118.884 131.22 118.884C131.545 118.884 131.836 118.795 132.101 118.632L132.409 119.176C132.058 119.427 131.588 119.557 131.1 119.557C130.057 119.557 129.236 118.868 129.236 117.675L129.227 117.667ZM131.75 117.285C131.75 116.758 131.485 116.45 130.998 116.45C130.57 116.45 130.194 116.742 130.117 117.285H131.75Z" fill="#465A64"/>
<path d="M133.324 116.409L133.769 115.687L132.974 115.355L133.119 114.908L133.966 115.087L134.051 114.251H134.547L134.633 115.087L135.48 114.908L135.634 115.355L134.83 115.687L135.283 116.409L134.881 116.685L134.299 116.044L133.718 116.685L133.316 116.409H133.324Z" fill="#E72B47"/>
<path d="M155.906 114.276H156.35L155.05 120.628H154.606L155.897 114.276H155.906Z" fill="#465A64"/>
<path d="M170.815 114.276H171.268L169.968 120.628H169.523L170.815 114.276Z" fill="#465A64"/>
<path d="M75.3312 139.005H76.4089L78.0426 143.783H77.0761L76.6912 142.502H75.0232L74.6383 143.783H73.706L75.3397 139.005H75.3312ZM75.22 141.828H76.4859L76.3148 141.26C76.1523 140.757 76.0069 140.206 75.8615 139.686H75.8273C75.699 140.214 75.5536 140.749 75.391 141.26L75.22 141.828Z" fill="#465A64"/>
<path d="M78.3506 141.99C78.3506 140.814 79.1204 140.1 79.9501 140.1C80.3778 140.1 80.6429 140.254 80.9337 140.498L80.8995 139.922V138.632H81.8062V143.792H81.0706L81.0022 143.402H80.9679C80.6942 143.662 80.3093 143.881 79.9073 143.881C78.9579 143.881 78.3506 143.183 78.3506 142.007V141.99ZM80.8995 142.761V141.114C80.6429 140.895 80.3949 140.822 80.1468 140.822C79.6764 140.822 79.2829 141.244 79.2829 141.982C79.2829 142.753 79.5908 143.159 80.1297 143.159C80.412 143.159 80.66 143.045 80.8995 142.761Z" fill="#465A64"/>
<path d="M82.9267 140.189H83.6709L83.7393 140.83H83.765C84.0387 140.36 84.4407 140.1 84.8427 140.1C85.0309 140.1 85.1592 140.133 85.2704 140.173L85.0822 140.911C84.971 140.879 84.8769 140.871 84.723 140.871C84.4236 140.871 84.0643 141.057 83.8334 141.609V143.784H82.9182V140.189H82.9267Z" fill="#465A64"/>
<path d="M85.4928 141.982C85.4928 140.814 86.3567 140.1 87.2377 140.1C88.2642 140.1 88.8201 140.798 88.8201 141.812C88.8201 141.99 88.803 142.12 88.7774 142.25H86.3909C86.485 142.851 86.887 143.199 87.4858 143.199C87.8108 143.199 88.1016 143.11 88.3668 142.948L88.6747 143.491C88.324 143.743 87.8536 143.873 87.366 143.873C86.3225 143.873 85.5014 143.183 85.5014 141.99L85.4928 141.982ZM88.0247 141.609C88.0247 141.082 87.7595 140.774 87.2719 140.774C86.8443 140.774 86.4679 141.066 86.3909 141.609H88.0247Z" fill="#465A64"/>
<path d="M89.282 143.345L89.684 142.859C90.0176 143.118 90.3598 143.224 90.7447 143.224C91.1296 143.224 91.3349 143.045 91.3349 142.81C91.3349 142.51 90.9671 142.396 90.5394 142.25C89.992 142.063 89.4873 141.763 89.4873 141.187C89.4873 140.562 90.0262 140.108 90.873 140.108C91.3862 140.108 91.831 140.287 92.1389 140.546L91.7454 141.033C91.4803 140.846 91.198 140.757 90.8986 140.757C90.5223 140.757 90.3512 140.936 90.3512 141.147C90.3512 141.406 90.6249 141.512 91.0954 141.666C91.677 141.853 92.1988 142.145 92.1988 142.761C92.1988 143.378 91.677 143.881 90.7105 143.881C90.1887 143.881 89.6498 143.694 89.282 143.353V143.345Z" fill="#465A64"/>
<path d="M92.6093 143.345L93.0114 142.859C93.345 143.118 93.6871 143.224 94.072 143.224C94.4569 143.224 94.6622 143.045 94.6622 142.81C94.6622 142.51 94.2944 142.396 93.8667 142.25C93.3193 142.063 92.8146 141.763 92.8146 141.187C92.8146 140.562 93.3535 140.108 94.2003 140.108C94.7135 140.108 95.1583 140.287 95.4662 140.546L95.0728 141.033C94.8076 140.846 94.5253 140.757 94.226 140.757C93.8496 140.757 93.6785 140.936 93.6785 141.147C93.6785 141.406 93.9523 141.512 94.4227 141.666C95.0043 141.853 95.5261 142.145 95.5261 142.761C95.5261 143.378 95.0043 143.881 94.0378 143.881C93.516 143.881 92.9771 143.694 92.6093 143.353V143.345Z" fill="#465A64"/>
<path d="M96.0564 141.982C96.0564 140.814 96.9203 140.1 97.8013 140.1C98.8278 140.1 99.3752 140.798 99.3752 141.812C99.3752 141.99 99.3581 142.12 99.3324 142.25H96.946C97.0401 142.851 97.4421 143.199 98.0409 143.199C98.3659 143.199 98.6567 143.11 98.9219 142.948L99.2298 143.491C98.8791 143.743 98.4172 143.873 97.9211 143.873C96.8776 143.873 96.0564 143.183 96.0564 141.99V141.982ZM98.5797 141.609C98.5797 141.082 98.3146 140.774 97.827 140.774C97.3993 140.774 97.023 141.066 96.946 141.609H98.5797Z" fill="#465A64"/>
<path d="M101.907 140.733L102.352 140.011L101.556 139.678L101.702 139.232L102.549 139.41L102.634 138.575H103.13L103.216 139.41L104.063 139.232L104.217 139.678L103.412 140.011L103.866 140.733L103.464 141.009L102.882 140.368L102.301 141.009L101.899 140.733H101.907Z" fill="#E72B47"/>
<path d="M74.3475 163.629H75.699C77.2386 163.629 78.1624 164.407 78.1624 165.998C78.1624 167.588 77.2386 168.407 75.7417 168.407H74.3475V163.629ZM75.6391 167.71C76.6399 167.71 77.2215 167.174 77.2215 165.998C77.2215 164.821 76.6484 164.343 75.6391 164.343H75.2713V167.71H75.6391Z" fill="#465A64"/>
<path d="M78.8381 166.614C78.8381 165.446 79.702 164.732 80.5831 164.732C81.6095 164.732 82.1655 165.43 82.1655 166.444C82.1655 166.622 82.1484 166.752 82.1227 166.882H79.7363C79.8303 167.482 80.2324 167.831 80.8311 167.831C81.1561 167.831 81.447 167.742 81.7121 167.58L82.0201 168.123C81.6694 168.375 81.1989 168.505 80.7114 168.505C79.6678 168.505 78.8467 167.815 78.8467 166.622L78.8381 166.614ZM81.3614 166.233C81.3614 165.706 81.0963 165.397 80.6087 165.397C80.181 165.397 79.8047 165.689 79.7277 166.233H81.3614ZM79.7961 163.799L81.2588 162.517L81.7806 163.085L80.2495 164.221L79.7961 163.799Z" fill="#465A64"/>
<path d="M82.9951 164.813H83.7393L83.8077 165.194H83.8334C84.1584 164.935 84.5604 164.724 84.971 164.724C85.9119 164.724 86.4593 165.446 86.4593 166.557C86.4593 167.783 85.6895 168.497 84.8513 168.497C84.5091 168.497 84.1841 168.351 83.8847 168.099L83.9189 168.699V169.819H83.0037V164.813H82.9951ZM85.527 166.566C85.527 165.86 85.2789 165.438 84.7144 165.438C84.4407 165.438 84.1926 165.56 83.9018 165.835V167.491C84.167 167.701 84.4236 167.774 84.6374 167.774C85.1335 167.774 85.5185 167.369 85.5185 166.566H85.527Z" fill="#465A64"/>
<path d="M87.0495 167.442C87.0495 166.655 87.7082 166.257 89.2649 166.095C89.2478 165.73 89.0938 165.422 88.5892 165.422C88.2214 165.422 87.8621 165.568 87.5285 165.754L87.2035 165.186C87.6226 164.935 88.1615 164.716 88.7602 164.716C89.7011 164.716 90.1801 165.267 90.1801 166.273V168.399H89.4445L89.3675 168.002H89.3333C88.9912 168.277 88.6234 168.48 88.1786 168.48C87.52 168.48 87.0581 168.058 87.0581 167.426L87.0495 167.442ZM89.2649 167.442V166.679C88.2299 166.793 87.922 167.012 87.922 167.377C87.922 167.685 88.1358 167.799 88.4438 167.799C88.7517 167.799 88.9826 167.685 89.2563 167.434L89.2649 167.442Z" fill="#465A64"/>
<path d="M91.2237 164.813H91.9678L92.0363 165.454H92.0619C92.3356 164.983 92.7377 164.724 93.1397 164.724C93.3364 164.724 93.4561 164.756 93.5673 164.797L93.3792 165.535C93.268 165.503 93.1739 165.495 93.0199 165.495C92.7205 165.495 92.3613 165.681 92.1303 166.233V168.407H91.2151V164.813H91.2237Z" fill="#465A64"/>
<path d="M94.2602 167.19V165.503H93.7213V164.862L94.303 164.821L94.4141 163.702H95.1669V164.821H96.1249V165.511H95.1669V167.198C95.1669 167.612 95.3465 167.823 95.6972 167.823C95.8255 167.823 95.9623 167.799 96.0906 167.75L96.2532 168.359C96.0564 168.448 95.7742 168.513 95.4662 168.513C94.5767 168.513 94.2602 167.985 94.2602 167.207V167.19Z" fill="#465A64"/>
<path d="M96.544 166.614C96.544 165.446 97.4079 164.732 98.2889 164.732C99.3153 164.732 99.8628 165.43 99.8628 166.444C99.8628 166.622 99.8456 166.752 99.82 166.882H97.4335C97.5276 167.482 97.9297 167.831 98.5284 167.831C98.8534 167.831 99.1443 167.742 99.4094 167.58L99.7173 168.123C99.3666 168.375 98.9048 168.505 98.4087 168.505C97.3651 168.505 96.544 167.815 96.544 166.622V166.614ZM99.0673 166.233C99.0673 165.706 98.8021 165.397 98.3146 165.397C97.8869 165.397 97.5105 165.689 97.4335 166.233H99.0673Z" fill="#465A64"/>
<path d="M100.701 164.813H101.445L101.514 165.3H101.539C101.864 164.984 102.224 164.724 102.703 164.724C103.259 164.724 103.575 164.967 103.746 165.365C104.105 165 104.482 164.724 104.961 164.724C105.765 164.724 106.133 165.251 106.133 166.152V168.399H105.217V166.257C105.217 165.673 105.038 165.462 104.644 165.462C104.413 165.462 104.148 165.6 103.866 165.9V168.399H102.959V166.257C102.959 165.673 102.771 165.462 102.386 165.462C102.155 165.462 101.89 165.6 101.608 165.9V168.399H100.692V164.805L100.701 164.813Z" fill="#465A64"/>
<path d="M106.962 166.614C106.962 165.446 107.826 164.732 108.707 164.732C109.734 164.732 110.281 165.43 110.281 166.444C110.281 166.622 110.264 166.752 110.238 166.882H107.852C107.946 167.482 108.348 167.831 108.947 167.831C109.272 167.831 109.562 167.742 109.828 167.58L110.136 168.123C109.785 168.375 109.323 168.505 108.827 168.505C107.783 168.505 106.962 167.815 106.962 166.622V166.614ZM109.486 166.233C109.486 165.706 109.22 165.397 108.733 165.397C108.305 165.397 107.929 165.689 107.852 166.233H109.486Z" fill="#465A64"/>
<path d="M111.111 164.813H111.855L111.923 165.292H111.949C112.291 164.983 112.676 164.724 113.189 164.724C114.002 164.724 114.361 165.251 114.361 166.152V168.399H113.454V166.257C113.454 165.673 113.275 165.462 112.881 165.462C112.548 165.462 112.334 165.608 112.034 165.9V168.399H111.119V164.805L111.111 164.813Z" fill="#465A64"/>
<path d="M115.576 167.19V165.503H115.037V164.862L115.618 164.821L115.73 163.702H116.482V164.821H117.449V165.511H116.482V167.198C116.482 167.612 116.662 167.823 117.013 167.823C117.141 167.823 117.278 167.799 117.406 167.75L117.569 168.359C117.372 168.448 117.09 168.513 116.782 168.513C115.892 168.513 115.576 167.985 115.576 167.207V167.19Z" fill="#465A64"/>
<path d="M74.3389 187.993H75.4167L76.2806 190.329C76.3918 190.638 76.4773 190.913 76.5714 191.262H76.6056C76.6997 190.913 76.7767 190.638 76.8793 190.329L77.7433 187.993H78.821V192.771H77.9742V190.597C77.9742 190.143 78.0512 189.486 78.1111 189.047H78.0768L77.6748 190.199L76.8537 192.333H76.2549L75.4509 190.199L75.0489 189.047H75.0147C75.0745 189.486 75.1515 190.143 75.1515 190.597V192.771H74.3218V187.993H74.3389Z" fill="#465A64"/>
<path d="M79.8047 191.806C79.8047 191.019 80.4633 190.621 82.0201 190.459C82.0029 190.094 81.849 189.786 81.3443 189.786C80.9765 189.786 80.6173 189.932 80.2837 190.118L79.9587 189.551C80.3778 189.299 80.9166 189.08 81.5154 189.08C82.4563 189.08 82.9353 189.632 82.9353 190.638V192.763H82.1997L82.1227 192.366H82.0885C81.7463 192.642 81.3785 192.845 80.9338 192.845C80.2751 192.845 79.8132 192.423 79.8132 191.79L79.8047 191.806ZM82.0286 191.806V191.043C80.9936 191.157 80.6857 191.376 80.6857 191.741C80.6857 192.049 80.8995 192.163 81.2075 192.163C81.5154 192.163 81.7463 192.049 82.0201 191.798L82.0286 191.806Z" fill="#465A64"/>
<path d="M83.9788 189.169H84.723L84.7914 189.648H84.8171C85.1592 189.34 85.5441 189.08 86.0573 189.08C86.8699 189.08 87.2292 189.607 87.2292 190.508V192.755H86.3225V190.613C86.3225 190.029 86.1429 189.818 85.7494 189.818C85.4158 189.818 85.202 189.964 84.9026 190.256V192.755H83.9874V189.161L83.9788 189.169Z" fill="#465A64"/>
<path d="M88.1016 191.806C88.1016 191.019 88.7602 190.621 90.317 190.459C90.2999 190.094 90.1459 189.786 89.6413 189.786C89.2735 189.786 88.9142 189.932 88.5806 190.118L88.2556 189.551C88.6747 189.299 89.2136 189.08 89.8123 189.08C90.7532 189.08 91.2322 189.632 91.2322 190.638V192.763H90.4966L90.4196 192.366H90.3854C90.0433 192.642 89.6755 192.845 89.2307 192.845C88.5721 192.845 88.1102 192.423 88.1102 191.79L88.1016 191.806ZM90.317 191.806V191.043C89.282 191.157 88.9741 191.376 88.9741 191.741C88.9741 192.049 89.1879 192.163 89.4959 192.163C89.8038 192.163 90.0347 192.049 90.3084 191.798L90.317 191.806Z" fill="#465A64"/>
<path d="M92.0191 193.42C92.0191 193.112 92.2159 192.861 92.5666 192.658V192.625C92.3698 192.512 92.2159 192.317 92.2159 192.025C92.2159 191.733 92.4126 191.506 92.6436 191.36V191.327C92.3784 191.141 92.1474 190.8 92.1474 190.378C92.1474 189.55 92.8574 189.088 93.6443 189.088C93.8496 189.088 94.0549 189.12 94.2089 189.177H95.5603V189.818H94.8846C94.9958 189.948 95.0899 190.167 95.0899 190.41C95.0899 191.206 94.4398 191.627 93.6443 191.627C93.4818 191.627 93.3022 191.595 93.1397 191.538C93.0285 191.627 92.96 191.717 92.96 191.871C92.96 192.066 93.114 192.187 93.5673 192.187H94.2345C95.1326 192.187 95.6202 192.455 95.6202 193.08C95.6202 193.786 94.8333 194.354 93.593 194.354C92.6949 194.354 92.0106 194.045 92.0106 193.42H92.0191ZM94.7392 193.218C94.7392 192.95 94.5082 192.869 94.0805 192.869H93.5759C93.3706 192.869 93.2081 192.853 93.0627 192.82C92.8659 192.966 92.7804 193.12 92.7804 193.291C92.7804 193.615 93.1482 193.794 93.7384 193.794C94.3286 193.794 94.7477 193.534 94.7477 193.226L94.7392 193.218ZM94.2773 190.378C94.2773 189.932 94.0036 189.688 93.6358 189.688C93.268 189.688 92.9857 189.94 92.9857 190.378C92.9857 190.816 93.2765 191.084 93.6358 191.084C93.995 191.084 94.2773 190.824 94.2773 190.378Z" fill="#465A64"/>
<path d="M95.911 190.97C95.911 189.802 96.7749 189.088 97.6559 189.088C98.6824 189.088 99.2383 189.786 99.2383 190.8C99.2383 190.978 99.2212 191.108 99.1956 191.238H96.8091C96.9032 191.838 97.3052 192.187 97.904 192.187C98.229 192.187 98.5198 192.098 98.785 191.936L99.0929 192.479C98.7422 192.731 98.2718 192.861 97.7842 192.861C96.7407 192.861 95.9196 192.171 95.9196 190.978L95.911 190.97ZM98.4343 190.589C98.4343 190.062 98.1691 189.753 97.6816 189.753C97.2539 189.753 96.8776 190.045 96.8006 190.589H98.4343Z" fill="#465A64"/>
<path d="M100.068 189.169H100.812L100.881 189.81H100.906C101.18 189.34 101.582 189.08 101.984 189.08C102.181 189.08 102.301 189.112 102.412 189.153L102.224 189.891C102.112 189.859 102.018 189.851 101.864 189.851C101.565 189.851 101.206 190.037 100.975 190.589V192.763H100.06V189.169H100.068Z" fill="#465A64"/>
<path d="M151.697 112.961H144.504C143.559 112.961 142.793 113.688 142.793 114.584V119.452C142.793 120.348 143.559 121.074 144.504 121.074H151.697C152.642 121.074 153.408 120.348 153.408 119.452V114.584C153.408 113.688 152.642 112.961 151.697 112.961Z" fill="#EBF0FA"/>
<path d="M186.459 137.471H115.045C114.101 137.471 113.335 138.198 113.335 139.094V143.962C113.335 144.858 114.101 145.585 115.045 145.585H186.459C187.404 145.585 188.17 144.858 188.17 143.962V139.094C188.17 138.198 187.404 137.471 186.459 137.471Z" fill="#EBF0FA"/>
<path d="M186.459 162.209H127.747C126.803 162.209 126.037 162.935 126.037 163.831V168.699C126.037 169.596 126.803 170.322 127.747 170.322H186.459C187.404 170.322 188.17 169.596 188.17 168.699V163.831C188.17 162.935 187.404 162.209 186.459 162.209Z" fill="#EBF0FA"/>
<path d="M187.964 186.492H111.573C110.628 186.492 109.862 187.218 109.862 188.114V192.982C109.862 193.878 110.628 194.605 111.573 194.605H187.964C188.909 194.605 189.675 193.878 189.675 192.982V188.114C189.675 187.218 188.909 186.492 187.964 186.492Z" fill="#EBF0FA"/>
<path d="M166.427 112.961H159.233C158.288 112.961 157.522 113.688 157.522 114.584V119.452C157.522 120.348 158.288 121.074 159.233 121.074H166.427C167.371 121.074 168.137 120.348 168.137 119.452V114.584C168.137 113.688 167.371 112.961 166.427 112.961Z" fill="#EBF0FA"/>
<path d="M181.387 112.961H174.193C173.248 112.961 172.482 113.688 172.482 114.584V119.452C172.482 120.348 173.248 121.074 174.193 121.074H181.387C182.331 121.074 183.097 120.348 183.097 119.452V114.584C183.097 113.688 182.331 112.961 181.387 112.961Z" fill="#EBF0FA"/>
<g clip-path="url(#clip0_0_1)">
<g filter="url(#filter1_d_0_1)">
<path d="M351.693 316.909H114.267C111.536 316.909 109.323 319.14 109.323 321.892V364.285C109.323 367.037 111.536 369.268 114.267 369.268H351.693C354.424 369.268 356.637 367.037 356.637 364.285V321.892C356.637 319.14 354.424 316.909 351.693 316.909Z" fill="white"/>
</g>
<path d="M196.727 335.114V327.801H198.522L199.694 331.057C199.768 331.263 199.842 331.486 199.908 331.718C199.973 331.949 200.047 332.18 200.121 332.404H200.162C200.235 332.18 200.301 331.949 200.358 331.718C200.424 331.486 200.498 331.263 200.572 331.057L201.719 327.801H203.498V335.114H202.006V332.437C202.006 332.197 202.015 331.933 202.039 331.643C202.072 331.346 202.097 331.048 202.129 330.743C202.17 330.445 202.195 330.181 202.22 329.949H202.179L201.588 331.685L200.555 334.478H199.653L198.62 331.685L198.038 329.949H197.997C198.03 330.181 198.055 330.445 198.087 330.743C198.12 331.04 198.145 331.338 198.169 331.643C198.202 331.933 198.21 332.197 198.21 332.437V335.114H196.743H196.727ZM207.442 335.246C206.975 335.246 206.532 335.131 206.114 334.907C205.704 334.676 205.376 334.346 205.122 333.908C204.868 333.47 204.745 332.941 204.745 332.329C204.745 331.718 204.868 331.181 205.122 330.751C205.376 330.321 205.704 329.991 206.114 329.767C206.532 329.536 206.975 329.42 207.442 329.42C207.909 329.42 208.344 329.536 208.754 329.767C209.164 329.991 209.492 330.321 209.746 330.751C210 331.181 210.123 331.709 210.123 332.329C210.123 332.949 210 333.47 209.746 333.908C209.492 334.337 209.164 334.676 208.754 334.907C208.344 335.131 207.909 335.246 207.442 335.246ZM207.442 333.916C207.778 333.916 208.032 333.775 208.196 333.486C208.368 333.197 208.45 332.808 208.45 332.329C208.45 331.85 208.368 331.462 208.196 331.172C208.024 330.883 207.77 330.743 207.442 330.743C207.114 330.743 206.843 330.883 206.671 331.172C206.507 331.453 206.425 331.842 206.425 332.329C206.425 332.817 206.507 333.197 206.671 333.486C206.843 333.767 207.098 333.916 207.442 333.916ZM211.246 335.114V329.553H212.582L212.697 330.263H212.738C212.976 330.04 213.238 329.842 213.517 329.677C213.804 329.503 214.14 329.42 214.509 329.42C215.107 329.42 215.542 329.619 215.813 330.024C216.083 330.42 216.222 330.966 216.222 331.66V335.114H214.583V331.875C214.583 331.47 214.525 331.197 214.419 331.048C214.312 330.9 214.148 330.825 213.91 330.825C213.706 330.825 213.525 330.875 213.378 330.974C213.23 331.065 213.066 331.197 212.886 331.371V335.131H211.246V335.114ZM219.74 335.246C219.059 335.246 218.567 335.048 218.272 334.651C217.985 334.255 217.838 333.734 217.838 333.089V330.833H217.083V329.61L217.928 329.544L218.116 328.065H219.477V329.544H220.805V330.833H219.477V333.065C219.477 333.379 219.543 333.61 219.666 333.751C219.797 333.883 219.977 333.949 220.19 333.949C220.281 333.949 220.371 333.941 220.461 333.916C220.559 333.891 220.641 333.866 220.715 333.833L220.969 335.031C220.83 335.073 220.658 335.122 220.445 335.164C220.248 335.205 220.01 335.23 219.74 335.23V335.246ZM223.052 335.246C222.543 335.246 222.15 335.089 221.847 334.767C221.551 334.436 221.404 334.04 221.404 333.569C221.404 332.982 221.65 332.528 222.142 332.197C222.634 331.866 223.421 331.643 224.511 331.536C224.495 331.288 224.421 331.098 224.29 330.949C224.167 330.8 223.945 330.726 223.642 330.726C223.412 330.726 223.175 330.767 222.937 330.858C222.699 330.949 222.445 331.073 222.183 331.23L221.592 330.139C221.945 329.924 222.314 329.743 222.707 329.61C223.109 329.478 223.527 329.412 223.954 329.412C224.659 329.412 225.2 329.619 225.577 330.032C225.954 330.445 226.143 331.073 226.143 331.924V335.114H224.806L224.691 334.544H224.65C224.421 334.75 224.175 334.924 223.904 335.056C223.642 335.18 223.355 335.246 223.044 335.246H223.052ZM223.609 333.974C223.798 333.974 223.954 333.932 224.085 333.85C224.224 333.759 224.363 333.643 224.511 333.503V332.528C223.929 332.602 223.535 332.726 223.306 332.883C223.085 333.04 222.97 333.23 222.97 333.445C222.97 333.627 223.027 333.759 223.134 333.85C223.248 333.932 223.404 333.974 223.601 333.974H223.609ZM227.528 335.114V329.553H228.864L228.979 330.263H229.02C229.258 330.04 229.52 329.842 229.799 329.677C230.086 329.503 230.422 329.42 230.791 329.42C231.39 329.42 231.824 329.619 232.095 330.024C232.365 330.42 232.505 330.966 232.505 331.66V335.114H230.865V331.875C230.865 331.47 230.807 331.197 230.701 331.048C230.594 330.9 230.43 330.825 230.193 330.825C229.988 330.825 229.807 330.875 229.66 330.974C229.512 331.065 229.348 331.197 229.168 331.371V335.131H227.528V335.114ZM236.022 335.246C235.341 335.246 234.849 335.048 234.554 334.651C234.267 334.255 234.12 333.734 234.12 333.089V330.833H233.365V329.61L234.21 329.544L234.398 328.065H235.759V329.544H237.087V330.833H235.759V333.065C235.759 333.379 235.825 333.61 235.948 333.751C236.079 333.883 236.259 333.949 236.473 333.949C236.563 333.949 236.653 333.941 236.743 333.916C236.841 333.891 236.923 333.866 236.997 333.833L237.251 335.031C237.112 335.073 236.94 335.122 236.727 335.164C236.53 335.205 236.292 335.23 236.022 335.23V335.246ZM242.359 335.246C241.679 335.246 241.129 334.99 240.711 334.469C240.301 333.949 240.096 333.23 240.096 332.329C240.096 331.726 240.203 331.205 240.416 330.767C240.637 330.329 240.924 329.991 241.277 329.759C241.629 329.528 242.007 329.412 242.392 329.412C242.695 329.412 242.949 329.462 243.162 329.569C243.376 329.677 243.564 329.817 243.753 329.999L243.687 329.148V327.255H245.327V335.122H243.991L243.876 334.569H243.835C243.638 334.767 243.417 334.924 243.154 335.064C242.892 335.188 242.63 335.255 242.367 335.255L242.359 335.246ZM242.785 333.899C242.966 333.899 243.121 333.858 243.261 333.784C243.408 333.709 243.548 333.577 243.687 333.387V331.106C243.548 330.974 243.392 330.875 243.228 330.825C243.072 330.776 242.917 330.743 242.769 330.743C242.507 330.743 242.277 330.867 242.08 331.123C241.884 331.371 241.777 331.759 241.777 332.288C241.777 332.817 241.859 333.238 242.031 333.503C242.211 333.759 242.457 333.883 242.777 333.883L242.785 333.899ZM246.77 335.114V329.553H248.409V335.114H246.77ZM247.581 328.735C247.311 328.735 247.081 328.652 246.917 328.495C246.745 328.338 246.663 328.131 246.663 327.867C246.663 327.602 246.745 327.396 246.917 327.239C247.09 327.082 247.311 326.999 247.581 326.999C247.852 326.999 248.082 327.082 248.246 327.239C248.418 327.396 248.5 327.602 248.5 327.867C248.5 328.131 248.418 328.338 248.246 328.495C248.073 328.652 247.852 328.735 247.581 328.735ZM251.467 335.246C251.107 335.246 250.73 335.172 250.344 335.031C249.967 334.891 249.639 334.701 249.352 334.469L250.09 333.437C250.344 333.627 250.582 333.767 250.812 333.875C251.049 333.974 251.279 334.023 251.517 334.023C251.763 334.023 251.943 333.982 252.05 333.899C252.164 333.808 252.214 333.693 252.214 333.552C252.214 333.428 252.156 333.321 252.05 333.238C251.943 333.156 251.812 333.081 251.64 333.015C251.467 332.941 251.287 332.866 251.09 332.792C250.869 332.701 250.648 332.594 250.426 332.453C250.213 332.321 250.033 332.147 249.877 331.941C249.729 331.726 249.656 331.462 249.656 331.156C249.656 330.643 249.852 330.222 250.238 329.9C250.631 329.577 251.14 329.42 251.771 329.42C252.197 329.42 252.566 329.495 252.886 329.644C253.214 329.784 253.493 329.949 253.722 330.123L252.984 331.106C252.787 330.957 252.599 330.842 252.402 330.759C252.205 330.676 252.017 330.635 251.82 330.635C251.394 330.635 251.189 330.784 251.189 331.073C251.189 331.255 251.295 331.387 251.5 331.486C251.713 331.577 251.968 331.676 252.246 331.776C252.484 331.858 252.714 331.966 252.935 332.098C253.165 332.222 253.353 332.395 253.501 332.61C253.656 332.817 253.738 333.098 253.738 333.437C253.738 333.941 253.542 334.362 253.156 334.717C252.771 335.064 252.205 335.23 251.467 335.23V335.246ZM254.78 337.18V329.553H256.116L256.231 330.106H256.272C256.485 329.908 256.731 329.751 256.993 329.627C257.264 329.495 257.551 329.429 257.838 329.429C258.502 329.429 259.035 329.685 259.42 330.205C259.805 330.718 260.002 331.395 260.002 332.255C260.002 332.891 259.887 333.437 259.666 333.883C259.445 334.329 259.158 334.676 258.797 334.916C258.444 335.147 258.075 335.263 257.674 335.263C257.436 335.263 257.206 335.213 256.985 335.114C256.764 335.007 256.559 334.866 256.362 334.676L256.419 335.56V337.188H254.78V337.18ZM257.297 333.899C257.575 333.899 257.821 333.767 258.018 333.503C258.215 333.238 258.321 332.825 258.321 332.255C258.321 331.255 258.002 330.751 257.362 330.751C257.042 330.751 256.731 330.916 256.419 331.255V333.536C256.567 333.668 256.714 333.767 256.862 333.817C257.01 333.866 257.157 333.899 257.297 333.899ZM263.527 335.246C263.06 335.246 262.617 335.131 262.199 334.907C261.789 334.676 261.461 334.346 261.207 333.908C260.953 333.47 260.83 332.941 260.83 332.329C260.83 331.718 260.953 331.181 261.207 330.751C261.461 330.321 261.789 329.991 262.199 329.767C262.617 329.536 263.06 329.42 263.527 329.42C263.995 329.42 264.429 329.536 264.839 329.767C265.249 329.991 265.577 330.321 265.831 330.751C266.085 331.181 266.208 331.709 266.208 332.329C266.208 332.949 266.085 333.47 265.831 333.908C265.577 334.337 265.249 334.676 264.839 334.907C264.429 335.131 263.995 335.246 263.527 335.246ZM263.527 333.916C263.864 333.916 264.118 333.775 264.282 333.486C264.454 333.197 264.536 332.808 264.536 332.329C264.536 331.85 264.454 331.462 264.282 331.172C264.109 330.883 263.855 330.743 263.527 330.743C263.199 330.743 262.929 330.883 262.757 331.172C262.593 331.453 262.511 331.842 262.511 332.329C262.511 332.817 262.593 333.197 262.757 333.486C262.929 333.767 263.183 333.916 263.527 333.916ZM267.331 335.114V329.553H268.668L268.783 330.263H268.824C269.061 330.04 269.324 329.842 269.602 329.677C269.889 329.503 270.226 329.42 270.594 329.42C271.193 329.42 271.627 329.619 271.898 330.024C272.169 330.42 272.308 330.966 272.308 331.66V335.114H270.668V331.875C270.668 331.47 270.611 331.197 270.504 331.048C270.398 330.9 270.234 330.825 269.996 330.825C269.791 330.825 269.611 330.875 269.463 330.974C269.315 331.065 269.152 331.197 268.971 331.371V335.131H267.331V335.114ZM273.702 335.114V329.553H275.341V335.114H273.702ZM274.513 328.735C274.243 328.735 274.013 328.652 273.849 328.495C273.677 328.338 273.595 328.131 273.595 327.867C273.595 327.602 273.677 327.396 273.849 327.239C274.021 327.082 274.243 326.999 274.513 326.999C274.784 326.999 275.013 327.082 275.177 327.239C275.35 327.396 275.432 327.602 275.432 327.867C275.432 328.131 275.35 328.338 275.177 328.495C275.005 328.652 274.784 328.735 274.513 328.735ZM279.67 335.246C279.424 335.246 279.178 335.188 278.924 335.064C278.678 334.941 278.449 334.75 278.235 334.511H278.194L278.063 335.106H276.784V327.239H278.424V329.172L278.383 330.024C278.596 329.825 278.834 329.677 279.088 329.577C279.342 329.462 279.596 329.412 279.842 329.412C280.285 329.412 280.67 329.528 280.998 329.759C281.326 329.991 281.572 330.321 281.744 330.743C281.925 331.164 282.015 331.652 282.015 332.222C282.015 332.858 281.9 333.403 281.679 333.858C281.457 334.304 281.17 334.651 280.81 334.891C280.457 335.122 280.088 335.238 279.687 335.238L279.67 335.246ZM279.293 333.899C279.572 333.899 279.818 333.767 280.014 333.503C280.211 333.238 280.318 332.825 280.318 332.255C280.318 331.255 279.998 330.751 279.359 330.751C279.031 330.751 278.719 330.916 278.416 331.255V333.536C278.563 333.668 278.711 333.767 278.858 333.817C279.006 333.866 279.154 333.899 279.293 333.899ZM284.663 335.246C284.097 335.246 283.704 335.081 283.482 334.742C283.269 334.395 283.163 333.949 283.163 333.387V327.247H284.802V333.453C284.802 333.627 284.835 333.742 284.893 333.808C284.958 333.875 285.024 333.908 285.089 333.908H285.179C285.179 333.908 285.245 333.891 285.294 333.883L285.491 335.106C285.401 335.147 285.286 335.172 285.147 335.197C285.015 335.23 284.852 335.238 284.671 335.238L284.663 335.246ZM288.82 335.246C288.295 335.246 287.819 335.131 287.393 334.899C286.967 334.668 286.639 334.337 286.393 333.899C286.147 333.461 286.024 332.941 286.024 332.329C286.024 331.718 286.147 331.205 286.393 330.767C286.647 330.338 286.975 329.999 287.368 329.767C287.77 329.528 288.188 329.412 288.623 329.412C289.147 329.412 289.582 329.528 289.926 329.767C290.279 329.999 290.533 330.321 290.705 330.718C290.886 331.114 290.976 331.569 290.976 332.073C290.976 332.214 290.976 332.354 290.951 332.503C290.935 332.635 290.918 332.742 290.91 332.808H287.606C287.68 333.213 287.844 333.511 288.106 333.709C288.369 333.899 288.68 333.99 289.041 333.99C289.434 333.99 289.828 333.866 290.23 333.618L290.779 334.618C290.5 334.817 290.18 334.965 289.836 335.081C289.484 335.197 289.147 335.246 288.82 335.246ZM287.59 331.726H289.582C289.582 331.42 289.508 331.172 289.361 330.974C289.221 330.776 288.984 330.668 288.656 330.668C288.401 330.668 288.18 330.759 287.975 330.941C287.778 331.114 287.647 331.371 287.582 331.726H287.59ZM295.28 331.61C295.001 331.61 294.763 331.511 294.567 331.321C294.378 331.123 294.288 330.875 294.288 330.577C294.288 330.28 294.378 330.032 294.567 329.834C294.763 329.635 294.993 329.528 295.28 329.528C295.567 329.528 295.796 329.627 295.985 329.834C296.182 330.032 296.272 330.272 296.272 330.577C296.272 330.883 296.174 331.114 295.985 331.321C295.796 331.519 295.567 331.61 295.28 331.61ZM295.28 335.246C295.001 335.246 294.763 335.147 294.567 334.957C294.378 334.759 294.288 334.511 294.288 334.213C294.288 333.916 294.378 333.668 294.567 333.47C294.763 333.271 294.993 333.164 295.28 333.164C295.567 333.164 295.796 333.263 295.985 333.47C296.182 333.668 296.272 333.908 296.272 334.213C296.272 334.519 296.174 334.75 295.985 334.957C295.796 335.155 295.567 335.246 295.28 335.246ZM302.24 331.825C302.052 331.825 301.863 331.883 301.675 331.99C301.486 332.098 301.322 332.271 301.175 332.528C301.248 333.089 301.388 333.478 301.601 333.693C301.806 333.899 302.035 334.007 302.281 334.007C302.527 334.007 302.732 333.916 302.904 333.734C303.085 333.544 303.175 333.255 303.175 332.85C303.175 332.478 303.085 332.214 302.904 332.056C302.732 331.899 302.511 331.817 302.249 331.817L302.24 331.825ZM302.306 335.246C301.855 335.246 301.421 335.131 301.019 334.891C300.609 334.643 300.273 334.263 300.019 333.751C299.764 333.23 299.641 332.552 299.641 331.718C299.641 330.825 299.773 330.098 300.043 329.528C300.314 328.958 300.666 328.544 301.101 328.272C301.535 327.999 302.003 327.859 302.503 327.859C302.97 327.859 303.372 327.941 303.716 328.115C304.06 328.28 304.339 328.478 304.561 328.71L303.7 329.693C303.585 329.561 303.421 329.445 303.208 329.346C303.011 329.239 302.806 329.189 302.593 329.189C302.331 329.189 302.093 329.263 301.88 329.404C301.666 329.536 301.486 329.767 301.355 330.098C301.232 330.42 301.158 330.858 301.134 331.412C301.322 331.172 301.544 330.99 301.814 330.858C302.085 330.726 302.331 330.66 302.552 330.66C303.159 330.66 303.659 330.842 304.052 331.197C304.454 331.552 304.651 332.106 304.651 332.858C304.651 333.354 304.544 333.775 304.331 334.139C304.118 334.494 303.831 334.767 303.47 334.957C303.118 335.155 302.732 335.246 302.298 335.246H302.306ZM307.996 335.246C307.241 335.246 306.627 334.932 306.159 334.296C305.7 333.66 305.471 332.734 305.471 331.528C305.471 330.321 305.7 329.404 306.159 328.792C306.627 328.173 307.241 327.859 307.996 327.859C308.75 327.859 309.365 328.173 309.824 328.792C310.291 329.404 310.529 330.321 310.529 331.528C310.529 332.734 310.291 333.66 309.824 334.296C309.365 334.932 308.758 335.246 307.996 335.246ZM307.996 333.974C308.184 333.974 308.348 333.908 308.496 333.775C308.643 333.635 308.758 333.387 308.84 333.032C308.93 332.676 308.971 332.18 308.971 331.528C308.971 330.875 308.93 330.379 308.84 330.032C308.758 329.685 308.643 329.453 308.496 329.321C308.348 329.197 308.184 329.131 307.996 329.131C307.807 329.131 307.651 329.197 307.504 329.321C307.356 329.445 307.233 329.685 307.151 330.032C307.069 330.379 307.02 330.875 307.02 331.528C307.02 332.18 307.061 332.676 307.151 333.032C307.241 333.387 307.356 333.627 307.504 333.775C307.651 333.908 307.815 333.974 307.996 333.974ZM311.783 337.287L311.447 336.411C311.865 336.263 312.177 336.064 312.39 335.816C312.603 335.577 312.71 335.321 312.702 335.04H312.611C312.349 335.04 312.119 334.957 311.923 334.8C311.726 334.635 311.619 334.403 311.619 334.106C311.619 333.808 311.718 333.594 311.923 333.42C312.128 333.246 312.365 333.164 312.644 333.164C313.013 333.164 313.3 333.304 313.489 333.577C313.685 333.85 313.776 334.238 313.776 334.717C313.776 335.329 313.603 335.858 313.267 336.312C312.931 336.767 312.431 337.081 311.775 337.279L311.783 337.287ZM317.211 335.246C316.456 335.246 315.842 334.932 315.374 334.296C314.915 333.66 314.686 332.734 314.686 331.528C314.686 330.321 314.915 329.404 315.374 328.792C315.842 328.173 316.456 327.859 317.211 327.859C317.965 327.859 318.58 328.173 319.039 328.792C319.506 329.404 319.744 330.321 319.744 331.528C319.744 332.734 319.506 333.66 319.039 334.296C318.58 334.932 317.973 335.246 317.211 335.246ZM317.211 333.974C317.399 333.974 317.563 333.908 317.711 333.775C317.858 333.635 317.973 333.387 318.055 333.032C318.145 332.676 318.186 332.18 318.186 331.528C318.186 330.875 318.145 330.379 318.055 330.032C317.973 329.685 317.858 329.453 317.711 329.321C317.563 329.197 317.399 329.131 317.211 329.131C317.022 329.131 316.866 329.197 316.719 329.321C316.571 329.445 316.448 329.685 316.366 330.032C316.284 330.379 316.235 330.875 316.235 331.528C316.235 332.18 316.276 332.676 316.366 333.032C316.456 333.387 316.571 333.627 316.719 333.775C316.866 333.908 317.03 333.974 317.211 333.974ZM323.097 335.246C322.343 335.246 321.728 334.932 321.261 334.296C320.802 333.66 320.572 332.734 320.572 331.528C320.572 330.321 320.802 329.404 321.261 328.792C321.728 328.173 322.343 327.859 323.097 327.859C323.851 327.859 324.466 328.173 324.925 328.792C325.393 329.404 325.631 330.321 325.631 331.528C325.631 332.734 325.393 333.66 324.925 334.296C324.466 334.932 323.86 335.246 323.097 335.246ZM323.097 333.974C323.286 333.974 323.45 333.908 323.597 333.775C323.745 333.635 323.86 333.387 323.942 333.032C324.032 332.676 324.073 332.18 324.073 331.528C324.073 330.875 324.032 330.379 323.942 330.032C323.86 329.685 323.745 329.453 323.597 329.321C323.45 329.197 323.286 329.131 323.097 329.131C322.909 329.131 322.753 329.197 322.605 329.321C322.458 329.445 322.335 329.685 322.253 330.032C322.163 330.379 322.122 330.875 322.122 331.528C322.122 332.18 322.163 332.676 322.253 333.032C322.343 333.387 322.458 333.627 322.605 333.775C322.753 333.908 322.917 333.974 323.097 333.974ZM332.017 335.246C331.32 335.246 330.714 335.031 330.205 334.61C329.697 334.18 329.361 333.544 329.189 332.701H328.5V331.924L329.098 331.883C329.098 331.833 329.09 331.784 329.09 331.734V331.445C329.09 331.395 329.09 331.346 329.098 331.296H328.5V330.536L329.189 330.478C329.361 329.644 329.705 328.991 330.238 328.536C330.771 328.082 331.402 327.85 332.14 327.85C332.476 327.85 332.804 327.925 333.116 328.073C333.435 328.222 333.714 328.437 333.952 328.726L333.042 329.61C332.903 329.47 332.755 329.354 332.599 329.263C332.452 329.172 332.279 329.131 332.091 329.131C331.771 329.131 331.501 329.247 331.287 329.478C331.082 329.71 330.935 330.04 330.845 330.462H333.23V331.288H330.746V331.693C330.746 331.742 330.746 331.8 330.755 331.85H332.78V332.693H330.861C330.968 333.106 331.123 333.42 331.328 333.635C331.542 333.85 331.804 333.957 332.115 333.957C332.329 333.957 332.517 333.908 332.681 333.8C332.845 333.693 332.993 333.544 333.14 333.354L334.042 334.205C333.772 334.536 333.468 334.792 333.132 334.965C332.796 335.139 332.419 335.238 332.017 335.238V335.246Z" fill="#121212"/>
<path d="M197.292 346.113H198.735V344.857C198.735 344.691 198.735 344.501 198.752 344.278C198.76 344.055 198.768 343.865 198.776 343.7H198.743C198.678 343.849 198.604 343.989 198.53 344.13C198.456 344.27 198.374 344.41 198.292 344.567L197.292 346.113ZM198.743 348.319V346.89H196.308V346.212L198.489 342.774H199.678V346.113H200.367V346.89H199.678V348.319H198.743ZM202.81 348.427C202.236 348.427 201.785 348.179 201.441 347.675C201.105 347.171 200.941 346.46 200.941 345.518C200.941 344.576 201.105 343.873 201.441 343.386C201.777 342.907 202.236 342.659 202.81 342.659C203.384 342.659 203.835 342.898 204.171 343.386C204.507 343.865 204.679 344.576 204.679 345.518C204.679 346.46 204.507 347.171 204.171 347.675C203.835 348.179 203.384 348.427 202.81 348.427ZM202.81 347.642C202.99 347.642 203.146 347.575 203.285 347.443C203.425 347.303 203.531 347.08 203.605 346.774C203.687 346.468 203.728 346.047 203.728 345.526C203.728 345.005 203.687 344.592 203.605 344.287C203.531 343.981 203.425 343.774 203.285 343.65C203.146 343.526 202.99 343.46 202.81 343.46C202.629 343.46 202.482 343.526 202.342 343.65C202.203 343.774 202.097 343.989 202.015 344.287C201.933 344.592 201.892 345.005 201.892 345.526C201.892 346.047 201.933 346.468 202.015 346.774C202.097 347.08 202.203 347.303 202.342 347.443C202.482 347.575 202.638 347.642 202.81 347.642ZM205.655 349.906L205.441 349.352C205.728 349.245 205.942 349.088 206.089 348.898C206.245 348.708 206.319 348.509 206.311 348.294H206.229C206.065 348.294 205.909 348.245 205.778 348.137C205.655 348.03 205.589 347.873 205.589 347.675C205.589 347.485 205.655 347.336 205.786 347.228C205.917 347.113 206.073 347.055 206.253 347.055C206.491 347.055 206.671 347.146 206.802 347.328C206.934 347.509 206.999 347.757 206.999 348.088C206.999 348.509 206.884 348.881 206.647 349.195C206.409 349.517 206.081 349.749 205.655 349.906ZM209.631 348.427C209.057 348.427 208.606 348.179 208.262 347.675C207.926 347.171 207.762 346.46 207.762 345.518C207.762 344.576 207.926 343.873 208.262 343.386C208.606 342.907 209.057 342.659 209.631 342.659C210.205 342.659 210.656 342.898 210.992 343.386C211.336 343.865 211.5 344.576 211.5 345.518C211.5 346.46 211.328 347.171 210.992 347.675C210.656 348.179 210.205 348.427 209.631 348.427ZM209.631 347.642C209.811 347.642 209.967 347.575 210.106 347.443C210.246 347.303 210.352 347.08 210.426 346.774C210.508 346.468 210.549 346.047 210.549 345.526C210.549 345.005 210.508 344.592 210.426 344.287C210.352 343.981 210.246 343.774 210.106 343.65C209.967 343.526 209.811 343.46 209.631 343.46C209.451 343.46 209.303 343.526 209.164 343.65C209.024 343.774 208.918 343.989 208.836 344.287C208.754 344.592 208.713 345.005 208.713 345.526C208.713 346.047 208.754 346.468 208.836 346.774C208.918 347.08 209.024 347.303 209.164 347.443C209.303 347.575 209.459 347.642 209.631 347.642ZM214.066 348.427C213.492 348.427 213.041 348.179 212.697 347.675C212.361 347.171 212.197 346.46 212.197 345.518C212.197 344.576 212.361 343.873 212.697 343.386C213.033 342.907 213.492 342.659 214.066 342.659C214.64 342.659 215.091 342.898 215.427 343.386C215.763 343.865 215.935 344.576 215.935 345.518C215.935 346.46 215.763 347.171 215.427 347.675C215.091 348.179 214.64 348.427 214.066 348.427ZM214.066 347.642C214.247 347.642 214.402 347.575 214.542 347.443C214.681 347.303 214.788 347.08 214.861 346.774C214.943 346.468 214.984 346.047 214.984 345.526C214.984 345.005 214.943 344.592 214.861 344.287C214.788 343.981 214.681 343.774 214.542 343.65C214.402 343.526 214.247 343.46 214.066 343.46C213.886 343.46 213.738 343.526 213.599 343.65C213.46 343.774 213.353 343.989 213.271 344.287C213.189 344.592 213.148 345.005 213.148 345.526C213.148 346.047 213.189 346.468 213.271 346.774C213.353 347.08 213.46 347.303 213.599 347.443C213.738 347.575 213.894 347.642 214.066 347.642ZM220.863 348.427C220.338 348.427 219.887 348.253 219.502 347.898C219.116 347.542 218.871 347.03 218.756 346.361H218.206V345.873L218.698 345.84C218.698 345.791 218.69 345.749 218.69 345.708V345.435C218.69 345.435 218.69 345.353 218.698 345.311H218.206V344.824L218.756 344.791C218.871 344.113 219.125 343.592 219.518 343.229C219.912 342.857 220.395 342.667 220.961 342.667C221.223 342.667 221.469 342.725 221.707 342.849C221.953 342.973 222.15 343.138 222.314 343.344L221.748 343.898C221.642 343.766 221.519 343.658 221.387 343.576C221.256 343.493 221.109 343.452 220.937 343.452C220.625 343.452 220.371 343.568 220.166 343.799C219.961 344.03 219.83 344.361 219.756 344.774H221.781V345.303H219.707C219.707 345.303 219.699 345.369 219.699 345.41V345.683C219.699 345.733 219.699 345.774 219.707 345.824H221.437V346.352H219.764C219.846 346.757 219.986 347.08 220.182 347.303C220.379 347.526 220.625 347.633 220.92 347.633C221.109 347.633 221.273 347.584 221.412 347.493C221.56 347.402 221.699 347.261 221.83 347.08L222.396 347.6C222.199 347.856 221.978 348.055 221.724 348.204C221.469 348.344 221.182 348.41 220.863 348.41V348.427ZM226.339 348.427C225.815 348.427 225.396 348.237 225.077 347.848C224.757 347.46 224.601 346.914 224.601 346.204C224.601 345.741 224.683 345.353 224.855 345.014C225.028 344.675 225.257 344.419 225.528 344.237C225.806 344.055 226.11 343.964 226.429 343.964C226.675 343.964 226.88 344.006 227.061 344.096C227.241 344.187 227.421 344.303 227.61 344.452L227.577 343.725V342.097H228.299V348.311H227.708L227.651 347.815H227.626C227.462 347.98 227.274 348.121 227.053 348.245C226.831 348.361 226.602 348.418 226.347 348.418L226.339 348.427ZM226.495 347.823C226.864 347.823 227.225 347.625 227.569 347.237V345.022C227.389 344.857 227.217 344.749 227.053 344.683C226.889 344.617 226.725 344.576 226.552 344.576C226.331 344.576 226.126 344.642 225.938 344.782C225.757 344.915 225.618 345.105 225.503 345.353C225.396 345.592 225.339 345.873 225.339 346.195C225.339 346.7 225.437 347.096 225.642 347.394C225.847 347.675 226.126 347.823 226.503 347.823H226.495ZM231.414 348.427C231.037 348.427 230.701 348.336 230.389 348.162C230.086 347.98 229.84 347.724 229.66 347.394C229.479 347.063 229.389 346.666 229.389 346.204C229.389 345.741 229.479 345.336 229.66 345.005C229.848 344.675 230.078 344.419 230.373 344.237C230.66 344.055 230.963 343.964 231.283 343.964C231.816 343.964 232.234 344.146 232.521 344.501C232.816 344.865 232.964 345.344 232.964 345.948C232.964 346.022 232.964 346.096 232.955 346.171C232.955 346.237 232.955 346.303 232.939 346.352H230.102C230.135 346.799 230.266 347.162 230.521 347.427C230.775 347.691 231.103 347.832 231.504 347.832C231.709 347.832 231.89 347.799 232.062 347.741C232.234 347.675 232.398 347.592 232.554 347.493L232.808 347.964C232.627 348.08 232.423 348.179 232.193 348.27C231.972 348.361 231.709 348.402 231.422 348.402L231.414 348.427ZM230.086 345.857H232.341C232.341 345.427 232.25 345.105 232.062 344.882C231.881 344.658 231.627 344.543 231.299 344.543C231.004 344.543 230.742 344.658 230.504 344.89C230.275 345.113 230.135 345.443 230.086 345.857ZM231.16 343.32L230.799 342.964L232.021 341.51L232.521 341.989L231.16 343.328V343.32ZM234.005 350.112V344.08H234.595L234.653 344.567H234.677C234.866 344.402 235.079 344.262 235.3 344.146C235.53 344.03 235.767 343.973 236.022 343.973C236.563 343.973 236.973 344.171 237.26 344.567C237.538 344.956 237.686 345.476 237.686 346.138C237.686 346.617 237.596 347.022 237.424 347.369C237.26 347.716 237.03 347.972 236.76 348.154C236.489 348.336 236.194 348.427 235.866 348.427C235.669 348.427 235.472 348.385 235.276 348.294C235.087 348.204 234.89 348.088 234.694 347.939L234.71 348.683V350.112H233.997H234.005ZM235.743 347.823C236.087 347.823 236.374 347.675 236.604 347.377C236.833 347.071 236.948 346.658 236.948 346.138C236.948 345.675 236.858 345.295 236.686 345.014C236.522 344.725 236.235 344.576 235.841 344.576C235.661 344.576 235.481 344.625 235.292 344.725C235.112 344.824 234.923 344.964 234.71 345.154V347.377C234.898 347.542 235.087 347.658 235.267 347.724C235.448 347.79 235.604 347.823 235.743 347.823ZM240.506 348.427C240.129 348.427 239.793 348.336 239.481 348.162C239.178 347.98 238.932 347.724 238.752 347.394C238.571 347.063 238.481 346.666 238.481 346.204C238.481 345.741 238.571 345.336 238.752 345.005C238.94 344.675 239.17 344.419 239.465 344.237C239.752 344.055 240.055 343.964 240.375 343.964C240.908 343.964 241.326 344.146 241.613 344.501C241.908 344.865 242.056 345.344 242.056 345.948C242.056 346.022 242.056 346.096 242.047 346.171C242.047 346.237 242.047 346.303 242.031 346.352H239.194C239.227 346.799 239.358 347.162 239.613 347.427C239.867 347.691 240.195 347.832 240.596 347.832C240.801 347.832 240.982 347.799 241.154 347.741C241.326 347.675 241.49 347.592 241.646 347.493L241.9 347.964C241.72 348.08 241.515 348.179 241.285 348.27C241.064 348.361 240.801 348.402 240.514 348.402L240.506 348.427ZM239.186 345.857H241.441C241.441 345.427 241.351 345.105 241.162 344.882C240.982 344.658 240.728 344.543 240.4 344.543C240.104 344.543 239.842 344.658 239.604 344.89C239.375 345.113 239.235 345.443 239.186 345.857ZM243.097 348.319V344.08H243.687L243.745 344.691H243.769C243.974 344.485 244.187 344.32 244.409 344.187C244.63 344.047 244.892 343.981 245.179 343.981C245.622 343.981 245.95 344.121 246.147 344.41C246.352 344.691 246.458 345.096 246.458 345.642V348.327H245.745V345.733C245.745 345.336 245.679 345.047 245.556 344.865C245.433 344.683 245.228 344.592 244.95 344.592C244.737 344.592 244.54 344.65 244.368 344.758C244.204 344.865 244.007 345.03 243.794 345.245V348.319H243.08H243.097ZM248.934 348.427C248.631 348.427 248.344 348.369 248.073 348.261C247.803 348.146 247.565 348.005 247.36 347.84L247.713 347.361C247.893 347.509 248.09 347.625 248.287 347.724C248.483 347.815 248.705 347.865 248.951 347.865C249.229 347.865 249.434 347.799 249.574 347.675C249.713 347.542 249.779 347.385 249.779 347.204C249.779 347.055 249.729 346.939 249.631 346.84C249.541 346.741 249.418 346.658 249.27 346.592C249.123 346.526 248.975 346.46 248.819 346.402C248.623 346.328 248.426 346.245 248.237 346.146C248.049 346.047 247.893 345.923 247.77 345.774C247.647 345.617 247.59 345.419 247.59 345.179C247.59 344.832 247.713 344.551 247.967 344.328C248.229 344.096 248.582 343.981 249.041 343.981C249.303 343.981 249.541 344.03 249.77 344.121C249.992 344.212 250.189 344.328 250.353 344.46L250.008 344.915C249.861 344.807 249.713 344.716 249.557 344.642C249.401 344.576 249.229 344.534 249.049 344.534C248.787 344.534 248.59 344.592 248.459 344.716C248.336 344.84 248.278 344.981 248.278 345.146C248.278 345.278 248.319 345.394 248.409 345.476C248.5 345.559 248.606 345.634 248.746 345.691C248.885 345.749 249.033 345.807 249.188 345.873C249.393 345.948 249.59 346.038 249.787 346.138C249.984 346.228 250.148 346.361 250.271 346.518C250.402 346.675 250.467 346.89 250.467 347.154C250.467 347.377 250.41 347.592 250.287 347.782C250.172 347.972 250 348.129 249.77 348.245C249.549 348.361 249.262 348.418 248.934 348.418V348.427ZM253.165 348.427C252.787 348.427 252.451 348.336 252.14 348.162C251.836 347.98 251.59 347.724 251.41 347.394C251.23 347.063 251.14 346.666 251.14 346.204C251.14 345.741 251.23 345.336 251.41 345.005C251.599 344.675 251.828 344.419 252.123 344.237C252.41 344.055 252.714 343.964 253.033 343.964C253.566 343.964 253.984 344.146 254.271 344.501C254.567 344.865 254.714 345.344 254.714 345.948C254.714 346.022 254.714 346.096 254.706 346.171C254.706 346.237 254.706 346.303 254.689 346.352H251.853C251.886 346.799 252.017 347.162 252.271 347.427C252.525 347.691 252.853 347.832 253.255 347.832C253.46 347.832 253.64 347.799 253.812 347.741C253.984 347.675 254.148 347.592 254.304 347.493L254.558 347.964C254.378 348.08 254.173 348.179 253.943 348.27C253.722 348.361 253.46 348.402 253.173 348.402L253.165 348.427ZM251.845 345.857H254.099C254.099 345.427 254.009 345.105 253.82 344.882C253.64 344.658 253.386 344.543 253.058 344.543C252.763 344.543 252.5 344.658 252.263 344.89C252.033 345.113 251.894 345.443 251.845 345.857ZM252.91 343.32L252.55 342.964L253.771 341.51L254.271 341.989L252.91 343.328V343.32ZM256.854 348.427C256.551 348.427 256.272 348.369 255.993 348.261C255.722 348.146 255.485 348.005 255.28 347.84L255.632 347.361C255.821 347.509 256.009 347.625 256.206 347.724C256.403 347.815 256.624 347.865 256.87 347.865C257.149 347.865 257.354 347.799 257.493 347.675C257.633 347.542 257.698 347.385 257.698 347.204C257.698 347.055 257.649 346.939 257.551 346.84C257.461 346.741 257.338 346.658 257.19 346.592C257.042 346.526 256.895 346.46 256.739 346.402C256.542 346.328 256.346 346.245 256.157 346.146C255.968 346.047 255.813 345.923 255.69 345.774C255.567 345.617 255.509 345.419 255.509 345.179C255.509 344.832 255.64 344.551 255.886 344.328C256.149 344.096 256.501 343.981 256.96 343.981C257.223 343.981 257.461 344.03 257.69 344.121C257.911 344.212 258.108 344.328 258.272 344.46L257.928 344.915C257.78 344.807 257.633 344.716 257.477 344.642C257.321 344.576 257.149 344.534 256.969 344.534C256.706 344.534 256.51 344.592 256.378 344.716C256.255 344.84 256.198 344.981 256.198 345.146C256.198 345.278 256.239 345.394 256.329 345.476C256.419 345.559 256.526 345.634 256.665 345.691C256.805 345.749 256.952 345.807 257.108 345.873C257.313 345.948 257.51 346.038 257.706 346.138C257.903 346.228 258.067 346.361 258.19 346.518C258.321 346.675 258.387 346.89 258.387 347.154C258.387 347.377 258.33 347.592 258.207 347.782C258.092 347.972 257.92 348.129 257.69 348.245C257.469 348.361 257.182 348.418 256.854 348.418V348.427ZM262.216 348.427C261.912 348.427 261.634 348.369 261.355 348.261C261.084 348.146 260.846 348.005 260.642 347.84L260.994 347.361C261.183 347.509 261.371 347.625 261.568 347.724C261.765 347.815 261.986 347.865 262.232 347.865C262.511 347.865 262.716 347.799 262.855 347.675C262.994 347.542 263.06 347.385 263.06 347.204C263.06 347.055 263.011 346.939 262.913 346.84C262.822 346.741 262.699 346.658 262.552 346.592C262.404 346.526 262.257 346.46 262.101 346.402C261.904 346.328 261.707 346.245 261.519 346.146C261.33 346.047 261.174 345.923 261.051 345.774C260.928 345.617 260.871 345.419 260.871 345.179C260.871 344.832 261.002 344.551 261.248 344.328C261.511 344.096 261.863 343.981 262.322 343.981C262.585 343.981 262.822 344.03 263.052 344.121C263.273 344.212 263.47 344.328 263.634 344.46L263.29 344.915C263.142 344.807 262.994 344.716 262.839 344.642C262.683 344.576 262.511 344.534 262.33 344.534C262.068 344.534 261.871 344.592 261.74 344.716C261.617 344.84 261.56 344.981 261.56 345.146C261.56 345.278 261.601 345.394 261.691 345.476C261.781 345.559 261.888 345.634 262.027 345.691C262.166 345.749 262.314 345.807 262.47 345.873C262.675 345.948 262.872 346.038 263.068 346.138C263.265 346.228 263.429 346.361 263.552 346.518C263.683 346.675 263.749 346.89 263.749 347.154C263.749 347.377 263.691 347.592 263.568 347.782C263.454 347.972 263.281 348.129 263.052 348.245C262.831 348.361 262.544 348.418 262.216 348.418V348.427ZM265.971 348.427C265.528 348.427 265.2 348.286 264.995 348.005C264.79 347.724 264.683 347.311 264.683 346.766V344.08H265.405V346.675C265.405 347.071 265.462 347.361 265.585 347.542C265.716 347.724 265.913 347.815 266.192 347.815C266.413 347.815 266.602 347.757 266.774 347.65C266.946 347.534 267.135 347.352 267.331 347.096V344.088H268.045V348.327H267.454L267.397 347.666H267.372C267.176 347.898 266.971 348.088 266.749 348.228C266.528 348.369 266.274 348.435 265.987 348.435L265.971 348.427ZM269.447 348.319V344.08H270.037L270.094 344.848H270.119C270.266 344.584 270.439 344.369 270.644 344.212C270.849 344.055 271.07 343.973 271.308 343.973C271.472 343.973 271.627 344.006 271.759 344.063L271.619 344.691C271.554 344.667 271.488 344.65 271.431 344.642C271.373 344.634 271.3 344.625 271.218 344.625C271.037 344.625 270.849 344.7 270.652 344.84C270.463 344.989 270.291 345.237 270.152 345.6V348.319H269.438H269.447ZM274.112 348.319V347.501H275.341V343.857H274.325V343.229C274.595 343.179 274.833 343.113 275.038 343.047C275.243 342.973 275.432 342.882 275.604 342.774H276.35V347.501H277.432V348.319H274.12H274.112ZM280.129 348.427C279.555 348.427 279.104 348.179 278.76 347.675C278.424 347.171 278.26 346.46 278.26 345.518C278.26 344.576 278.424 343.873 278.76 343.386C279.096 342.907 279.555 342.659 280.129 342.659C280.703 342.659 281.154 342.898 281.49 343.386C281.826 343.865 281.998 344.576 281.998 345.518C281.998 346.46 281.826 347.171 281.49 347.675C281.154 348.179 280.703 348.427 280.129 348.427ZM280.129 347.642C280.31 347.642 280.465 347.575 280.605 347.443C280.744 347.303 280.851 347.08 280.924 346.774C281.006 346.468 281.047 346.047 281.047 345.526C281.047 345.005 281.006 344.592 280.924 344.287C280.851 343.981 280.744 343.774 280.605 343.65C280.465 343.526 280.31 343.46 280.129 343.46C279.949 343.46 279.801 343.526 279.662 343.65C279.523 343.774 279.416 343.989 279.334 344.287C279.252 344.592 279.211 345.005 279.211 345.526C279.211 346.047 279.252 346.468 279.334 346.774C279.416 347.08 279.523 347.303 279.662 347.443C279.801 347.575 279.957 347.642 280.129 347.642ZM284.565 348.427C283.991 348.427 283.54 348.179 283.195 347.675C282.859 347.171 282.695 346.46 282.695 345.518C282.695 344.576 282.859 343.873 283.195 343.386C283.54 342.907 283.991 342.659 284.565 342.659C285.138 342.659 285.589 342.898 285.926 343.386C286.27 343.865 286.434 344.576 286.434 345.518C286.434 346.46 286.262 347.171 285.926 347.675C285.589 348.179 285.138 348.427 284.565 348.427ZM284.565 347.642C284.745 347.642 284.901 347.575 285.04 347.443C285.179 347.303 285.286 347.08 285.36 346.774C285.442 346.468 285.483 346.047 285.483 345.526C285.483 345.005 285.442 344.592 285.36 344.287C285.286 343.981 285.179 343.774 285.04 343.65C284.901 343.526 284.745 343.46 284.565 343.46C284.384 343.46 284.237 343.526 284.097 343.65C283.958 343.774 283.851 343.989 283.769 344.287C283.687 344.592 283.646 345.005 283.646 345.526C283.646 346.047 283.687 346.468 283.769 346.774C283.851 347.08 283.958 347.303 284.097 347.443C284.237 347.575 284.392 347.642 284.565 347.642ZM287.409 349.906L287.196 349.352C287.483 349.245 287.696 349.088 287.844 348.898C288 348.708 288.073 348.509 288.065 348.294H287.983C287.819 348.294 287.664 348.245 287.532 348.137C287.409 348.03 287.344 347.873 287.344 347.675C287.344 347.485 287.409 347.336 287.541 347.228C287.672 347.113 287.828 347.055 288.008 347.055C288.246 347.055 288.426 347.146 288.557 347.328C288.688 347.509 288.754 347.757 288.754 348.088C288.754 348.509 288.639 348.881 288.401 349.195C288.164 349.517 287.836 349.749 287.409 349.906ZM291.394 348.427C290.82 348.427 290.369 348.179 290.025 347.675C289.689 347.171 289.525 346.46 289.525 345.518C289.525 344.576 289.689 343.873 290.025 343.386C290.361 342.907 290.82 342.659 291.394 342.659C291.968 342.659 292.419 342.898 292.755 343.386C293.091 343.865 293.263 344.576 293.263 345.518C293.263 346.46 293.091 347.171 292.755 347.675C292.419 348.179 291.968 348.427 291.394 348.427ZM291.394 347.642C291.574 347.642 291.73 347.575 291.869 347.443C292.009 347.303 292.115 347.08 292.189 346.774C292.271 346.468 292.312 346.047 292.312 345.526C292.312 345.005 292.271 344.592 292.189 344.287C292.115 343.981 292.009 343.774 291.869 343.65C291.73 343.526 291.574 343.46 291.394 343.46C291.213 343.46 291.066 343.526 290.927 343.65C290.787 343.774 290.681 343.989 290.599 344.287C290.517 344.592 290.476 345.005 290.476 345.526C290.476 346.047 290.517 346.468 290.599 346.774C290.681 347.08 290.787 347.303 290.927 347.443C291.066 347.575 291.222 347.642 291.394 347.642ZM295.829 348.427C295.255 348.427 294.804 348.179 294.46 347.675C294.124 347.171 293.96 346.46 293.96 345.518C293.96 344.576 294.124 343.873 294.46 343.386C294.804 342.907 295.255 342.659 295.829 342.659C296.403 342.659 296.854 342.898 297.19 343.386C297.534 343.865 297.698 344.576 297.698 345.518C297.698 346.46 297.526 347.171 297.19 347.675C296.854 348.179 296.403 348.427 295.829 348.427ZM295.829 347.642C296.01 347.642 296.165 347.575 296.305 347.443C296.444 347.303 296.551 347.08 296.624 346.774C296.706 346.468 296.747 346.047 296.747 345.526C296.747 345.005 296.706 344.592 296.624 344.287C296.551 343.981 296.444 343.774 296.305 343.65C296.165 343.526 296.01 343.46 295.829 343.46C295.649 343.46 295.501 343.526 295.362 343.65C295.223 343.774 295.116 343.989 295.034 344.287C294.952 344.592 294.911 345.005 294.911 345.526C294.911 346.047 294.952 346.468 295.034 346.774C295.116 347.08 295.223 347.303 295.362 347.443C295.501 347.575 295.657 347.642 295.829 347.642ZM302.626 348.427C302.101 348.427 301.65 348.253 301.265 347.898C300.879 347.542 300.633 347.03 300.519 346.361H299.969V345.873L300.461 345.84C300.461 345.791 300.453 345.749 300.453 345.708V345.435C300.453 345.435 300.453 345.353 300.461 345.311H299.969V344.824L300.519 344.791C300.633 344.113 300.888 343.592 301.281 343.229C301.675 342.857 302.158 342.667 302.724 342.667C302.986 342.667 303.232 342.725 303.47 342.849C303.716 342.973 303.913 343.138 304.077 343.344L303.511 343.898C303.405 343.766 303.282 343.658 303.15 343.576C303.019 343.493 302.872 343.452 302.699 343.452C302.388 343.452 302.134 343.568 301.929 343.799C301.724 344.03 301.593 344.361 301.519 344.774H303.544V345.303H301.47C301.47 345.303 301.462 345.369 301.462 345.41V345.683C301.462 345.733 301.462 345.774 301.47 345.824H303.2V346.352H301.527C301.609 346.757 301.748 347.08 301.945 347.303C302.142 347.526 302.388 347.633 302.683 347.633C302.872 347.633 303.036 347.584 303.175 347.493C303.323 347.402 303.462 347.261 303.593 347.08L304.159 347.6C303.962 347.856 303.741 348.055 303.487 348.204C303.232 348.344 302.945 348.41 302.626 348.41V348.427Z" fill="#445473"/>
<path d="M199.243 354.244H342.691C344.741 354.244 346.405 355.922 346.405 357.988C346.405 360.054 344.741 361.731 342.691 361.731H199.243C197.194 361.731 195.53 360.054 195.53 357.988C195.53 355.922 197.194 354.244 199.243 354.244Z" fill="#E0E7F6"/>
<path d="M199.243 354.401H253.656C255.624 354.401 257.215 356.004 257.215 357.988C257.215 359.971 255.624 361.574 253.656 361.574H199.243C197.276 361.574 195.685 359.971 195.685 357.988C195.685 356.004 197.276 354.401 199.243 354.401Z" fill="url(#paint0_linear_0_1)"/>
<path d="M187.962 365.433V321.57" stroke="#D2DCEF" stroke-width="0.75"/>
<path d="M176.804 325.635H120.153C119.062 325.635 118.177 326.527 118.177 327.627V359.541C118.177 360.641 119.062 361.533 120.153 361.533H176.804C177.896 361.533 178.78 360.641 178.78 359.541V327.627C178.78 326.527 177.896 325.635 176.804 325.635Z" fill="url(#paint1_radial_0_1)"/>
<mask id="mask1_0_1" style="mask-type:luminance" maskUnits="userSpaceOnUse" x="157" y="329" width="18" height="7">
<path d="M174.82 329.627H157.817V335.61H174.82V329.627Z" fill="white"/>
</mask>
<g mask="url(#mask1_0_1)">
<path d="M161.834 329.668H161.26C161.219 329.668 161.178 329.701 161.178 329.751V333.081C161.178 333.122 161.211 333.164 161.26 333.164H161.834C161.875 333.164 161.916 333.131 161.916 333.081V329.751C161.916 329.709 161.883 329.668 161.834 329.668Z" fill="white"/>
<path d="M174.738 330.676H174.156C174.156 330.676 174.115 330.676 174.099 330.701C174.082 330.718 174.074 330.734 174.074 330.759V332.147C174.074 332.271 174.025 332.387 173.943 332.469C173.861 332.552 173.746 332.602 173.623 332.602C173.5 332.602 173.386 332.552 173.304 332.469C173.222 332.387 173.172 332.271 173.172 332.147V330.759C173.172 330.759 173.164 330.718 173.148 330.701C173.131 330.684 173.115 330.676 173.09 330.676H172.517C172.517 330.676 172.476 330.676 172.459 330.701C172.443 330.718 172.435 330.734 172.435 330.759V332.246C172.435 332.8 172.763 333.254 173.623 333.254C173.779 333.254 173.927 333.238 174.074 333.205V333.436C174.074 333.56 174.033 333.676 173.951 333.767C173.869 333.858 173.755 333.907 173.64 333.916C173.517 333.916 173.402 333.874 173.312 333.792C173.222 333.709 173.172 333.593 173.164 333.478C173.164 333.453 173.156 333.436 173.14 333.42C173.123 333.403 173.107 333.395 173.082 333.395H172.5C172.5 333.395 172.459 333.403 172.443 333.42C172.426 333.436 172.418 333.453 172.418 333.478V333.535C172.418 334.089 172.746 334.544 173.607 334.544C174.468 334.544 174.796 334.073 174.796 333.486V330.767C174.796 330.767 174.796 330.742 174.796 330.734C174.796 330.726 174.788 330.709 174.779 330.701C174.771 330.701 174.763 330.684 174.747 330.684C174.738 330.684 174.722 330.684 174.714 330.684L174.738 330.676Z" fill="white"/>
<path d="M164.818 331.932C164.818 331.131 164.351 330.61 163.556 330.61C163.384 330.61 163.22 330.651 163.064 330.718C162.908 330.784 162.769 330.883 162.654 331.007C162.539 331.131 162.441 331.271 162.383 331.436C162.318 331.593 162.293 331.767 162.293 331.932C162.293 332.271 162.416 332.602 162.646 332.841C162.875 333.089 163.195 333.238 163.531 333.246H163.564C163.949 333.246 164.318 333.131 164.638 332.916C164.654 332.907 164.663 332.891 164.671 332.866C164.671 332.85 164.671 332.825 164.663 332.808L164.466 332.478C164.466 332.478 164.458 332.461 164.449 332.453C164.449 332.453 164.433 332.445 164.425 332.436C164.417 332.436 164.408 332.436 164.392 332.436C164.384 332.436 164.376 332.436 164.359 332.445C164.162 332.569 163.933 332.643 163.695 332.643C163.654 332.643 163.613 332.643 163.572 332.643C163.441 332.635 163.318 332.585 163.211 332.502C163.105 332.42 163.031 332.312 162.99 332.188C162.99 332.172 162.99 332.147 162.99 332.131H164.744C164.744 332.131 164.785 332.131 164.794 332.106C164.81 332.089 164.818 332.073 164.818 332.056C164.818 332.007 164.818 331.965 164.818 331.916V331.932ZM163.006 331.66C163.031 331.527 163.105 331.403 163.203 331.321C163.31 331.23 163.441 331.189 163.572 331.189C163.703 331.189 163.843 331.238 163.941 331.321C164.039 331.403 164.113 331.527 164.138 331.66H162.998H163.006Z" fill="white"/>
<path d="M167.647 331.932C167.647 331.131 167.179 330.61 166.384 330.61C166.04 330.61 165.72 330.759 165.482 331.007C165.245 331.255 165.113 331.585 165.122 331.932C165.122 332.271 165.236 332.602 165.466 332.841C165.695 333.089 166.015 333.238 166.343 333.246H166.376C166.761 333.246 167.138 333.131 167.45 332.916C167.466 332.907 167.475 332.891 167.483 332.866C167.483 332.85 167.483 332.825 167.475 332.808L167.286 332.478C167.286 332.478 167.261 332.445 167.237 332.445C167.22 332.445 167.196 332.445 167.179 332.445C166.983 332.569 166.753 332.643 166.515 332.643C166.474 332.643 166.433 332.643 166.392 332.643C166.261 332.635 166.138 332.585 166.032 332.502C165.925 332.42 165.851 332.312 165.81 332.188C165.81 332.172 165.81 332.147 165.81 332.131H167.565C167.565 332.131 167.606 332.131 167.614 332.114C167.63 332.098 167.639 332.081 167.639 332.065C167.639 332.023 167.639 331.974 167.639 331.924L167.647 331.932ZM165.835 331.66C165.859 331.527 165.933 331.412 166.04 331.329C166.146 331.246 166.269 331.197 166.401 331.197C166.532 331.197 166.663 331.238 166.761 331.329C166.868 331.412 166.933 331.527 166.966 331.66H165.835Z" fill="white"/>
<path d="M172.016 331.585C172 331.313 171.885 331.056 171.689 330.875C171.492 330.693 171.229 330.594 170.959 330.602C170.795 330.602 170.639 330.635 170.492 330.701C170.344 330.767 170.213 330.875 170.114 330.998C170.041 330.875 169.934 330.775 169.803 330.701C169.68 330.627 169.532 330.594 169.393 330.594C169.254 330.594 169.106 330.627 168.983 330.701C168.86 330.775 168.754 330.875 168.672 330.998V330.709C168.672 330.709 168.672 330.676 168.655 330.66C168.639 330.643 168.622 330.643 168.606 330.643H168.007C168.007 330.643 167.975 330.643 167.958 330.668C167.95 330.684 167.942 330.701 167.942 330.718V333.131C167.942 333.131 167.942 333.164 167.958 333.18C167.975 333.197 167.991 333.197 168.007 333.197H168.606C168.606 333.197 168.622 333.197 168.631 333.197C168.631 333.197 168.647 333.197 168.655 333.18C168.655 333.18 168.663 333.164 168.672 333.155C168.672 333.155 168.672 333.139 168.672 333.131V331.651C168.688 331.536 168.754 331.428 168.835 331.354C168.926 331.279 169.04 331.238 169.155 331.238C169.27 331.238 169.385 331.279 169.475 331.354C169.565 331.428 169.623 331.536 169.639 331.651V333.139C169.639 333.139 169.639 333.164 169.655 333.172C169.664 333.18 169.68 333.188 169.688 333.188H170.319C170.319 333.188 170.344 333.188 170.352 333.172C170.36 333.164 170.369 333.147 170.369 333.139V331.651C170.369 331.527 170.418 331.412 170.5 331.329C170.582 331.246 170.697 331.197 170.82 331.197C170.942 331.197 171.057 331.246 171.139 331.329C171.221 331.412 171.27 331.527 171.27 331.651V333.139C171.27 333.139 171.27 333.164 171.287 333.18C171.295 333.188 171.311 333.197 171.328 333.197H171.951C171.951 333.197 171.975 333.197 171.992 333.18C172 333.172 172.008 333.155 172.008 333.139V331.602L172.016 331.585Z" fill="white"/>
<path d="M159.604 332.477C159.432 332.477 159.268 332.436 159.121 332.362C158.973 332.287 158.842 332.172 158.744 332.031C158.645 331.891 158.588 331.734 158.563 331.56C158.539 331.395 158.563 331.221 158.621 331.056C158.678 330.899 158.776 330.75 158.899 330.635C159.022 330.519 159.178 330.436 159.342 330.395C159.506 330.354 159.678 330.354 159.842 330.395C160.006 330.436 160.162 330.511 160.285 330.626C160.301 330.643 160.318 330.651 160.342 330.651C160.367 330.651 160.383 330.651 160.4 330.626L160.818 330.205C160.818 330.205 160.834 330.188 160.834 330.18C160.834 330.172 160.834 330.164 160.834 330.147C160.834 330.131 160.834 330.122 160.834 330.114C160.834 330.106 160.826 330.098 160.818 330.089C160.564 329.85 160.244 329.701 159.9 329.643C159.555 329.585 159.211 329.635 158.891 329.775C158.571 329.916 158.301 330.147 158.112 330.436C157.924 330.726 157.825 331.073 157.825 331.42C157.825 331.767 157.924 332.114 158.112 332.403C158.301 332.692 158.571 332.924 158.891 333.064C159.211 333.205 159.555 333.246 159.9 333.196C160.244 333.139 160.555 332.982 160.818 332.75C160.818 332.75 160.834 332.734 160.834 332.725C160.834 332.717 160.834 332.709 160.834 332.692C160.834 332.676 160.834 332.668 160.834 332.659C160.834 332.651 160.826 332.643 160.818 332.634L160.408 332.221C160.408 332.221 160.375 332.196 160.35 332.196C160.326 332.196 160.31 332.196 160.293 332.221C160.105 332.387 159.859 332.477 159.613 332.477H159.604Z" fill="white"/>
</g>
<path d="M122.875 356.302C123.287 356.302 123.621 355.965 123.621 355.55C123.621 355.135 123.287 354.798 122.875 354.798C122.463 354.798 122.129 355.135 122.129 355.55C122.129 355.965 122.463 356.302 122.875 356.302Z" fill="white"/>
<path d="M125.351 356.302C125.763 356.302 126.097 355.965 126.097 355.55C126.097 355.135 125.763 354.798 125.351 354.798C124.939 354.798 124.605 355.135 124.605 355.55C124.605 355.965 124.939 356.302 125.351 356.302Z" fill="white"/>
<path d="M127.827 356.302C128.239 356.302 128.573 355.965 128.573 355.55C128.573 355.135 128.239 354.798 127.827 354.798C127.415 354.798 127.081 355.135 127.081 355.55C127.081 355.965 127.415 356.302 127.827 356.302Z" fill="white"/>
<path d="M130.295 356.302C130.707 356.302 131.041 355.965 131.041 355.55C131.041 355.135 130.707 354.798 130.295 354.798C129.883 354.798 129.549 355.135 129.549 355.55C129.549 355.965 129.883 356.302 130.295 356.302Z" fill="white"/>
<path d="M133.328 357.046V356.773H133.902V354.897H133.443V354.682C133.558 354.657 133.656 354.633 133.746 354.608C133.836 354.575 133.91 354.542 133.976 354.492H134.222V356.765H134.746V357.037H133.32L133.328 357.046ZM135.968 357.095C135.714 357.095 135.517 356.979 135.369 356.748C135.23 356.517 135.156 356.186 135.156 355.765C135.156 355.343 135.23 355.013 135.369 354.79C135.517 354.566 135.714 354.451 135.968 354.451C136.222 354.451 136.419 354.566 136.558 354.79C136.706 355.013 136.78 355.335 136.78 355.765C136.78 356.194 136.706 356.517 136.558 356.748C136.419 356.979 136.222 357.095 135.968 357.095ZM135.968 356.831C136.116 356.831 136.23 356.748 136.321 356.583C136.411 356.409 136.452 356.145 136.452 355.773C136.452 355.401 136.411 355.137 136.321 354.971C136.23 354.806 136.116 354.724 135.968 354.724C135.82 354.724 135.697 354.806 135.607 354.971C135.517 355.137 135.476 355.401 135.476 355.773C135.476 356.145 135.517 356.418 135.607 356.583C135.697 356.748 135.82 356.831 135.968 356.831ZM137.886 357.095C137.69 357.095 137.517 357.062 137.386 356.988C137.255 356.913 137.14 356.831 137.058 356.74L137.222 356.525C137.296 356.608 137.386 356.674 137.493 356.74C137.599 356.798 137.722 356.831 137.87 356.831C138.018 356.831 138.149 356.789 138.247 356.707C138.346 356.624 138.395 356.508 138.395 356.368C138.395 356.269 138.37 356.178 138.313 356.104C138.264 356.029 138.182 355.963 138.059 355.922C137.944 355.88 137.788 355.856 137.583 355.856V355.608C137.763 355.608 137.903 355.583 138.009 355.542C138.116 355.5 138.19 355.442 138.239 355.368C138.28 355.294 138.305 355.219 138.305 355.128C138.305 355.004 138.264 354.905 138.19 354.831C138.116 354.757 138.009 354.724 137.87 354.724C137.763 354.724 137.665 354.748 137.575 354.798C137.485 354.847 137.403 354.905 137.329 354.988L137.157 354.781C137.255 354.69 137.362 354.616 137.485 354.55C137.599 354.492 137.739 354.459 137.886 354.459C138.108 354.459 138.288 354.517 138.428 354.633C138.567 354.748 138.641 354.905 138.641 355.104C138.641 355.261 138.6 355.385 138.518 355.484C138.436 355.583 138.321 355.657 138.182 355.715V355.732C138.337 355.765 138.46 355.839 138.567 355.955C138.673 356.062 138.723 356.203 138.723 356.384C138.723 356.533 138.69 356.665 138.608 356.773C138.534 356.88 138.436 356.963 138.305 357.021C138.182 357.079 138.042 357.112 137.886 357.112V357.095ZM139.379 355.277C139.379 355.442 139.42 355.575 139.493 355.674C139.575 355.773 139.69 355.814 139.846 355.814C139.928 355.814 140.018 355.79 140.108 355.732C140.207 355.682 140.289 355.591 140.371 355.475C140.346 355.228 140.289 355.038 140.198 354.914C140.1 354.781 139.977 354.715 139.813 354.715C139.69 354.715 139.583 354.765 139.502 354.872C139.42 354.971 139.379 355.104 139.379 355.277ZM139.731 357.095C139.6 357.095 139.477 357.07 139.379 357.021C139.28 356.971 139.19 356.905 139.124 356.831L139.305 356.624C139.354 356.682 139.42 356.732 139.493 356.773C139.567 356.806 139.641 356.831 139.723 356.831C139.838 356.831 139.952 356.798 140.051 356.723C140.149 356.657 140.231 356.542 140.289 356.376C140.354 356.219 140.387 356.004 140.387 355.732C140.305 355.831 140.215 355.913 140.108 355.971C140.002 356.029 139.895 356.062 139.788 356.062C139.575 356.062 139.395 355.996 139.264 355.864C139.133 355.732 139.067 355.533 139.067 355.277C139.067 355.112 139.1 354.971 139.174 354.847C139.239 354.724 139.329 354.633 139.444 354.558C139.559 354.492 139.682 354.451 139.813 354.451C139.977 354.451 140.125 354.492 140.264 354.583C140.395 354.674 140.502 354.806 140.575 354.988C140.649 355.17 140.69 355.393 140.69 355.674C140.69 356.013 140.641 356.285 140.551 356.492C140.461 356.699 140.346 356.847 140.198 356.946C140.051 357.037 139.895 357.087 139.731 357.087V357.095Z" fill="white"/>
<path d="M170.672 351.245H167.598V356.789H170.672V351.245Z" fill="#FF5F00"/>
<path d="M167.786 354.021C167.786 352.897 168.311 351.897 169.122 351.244C168.524 350.773 167.778 350.492 166.958 350.492C165.015 350.492 163.441 352.071 163.441 354.021C163.441 355.971 165.015 357.55 166.958 357.55C167.778 357.55 168.532 357.269 169.122 356.798C168.311 356.161 167.786 355.153 167.786 354.021Z" fill="#EB001B"/>
<path d="M174.82 354.021C174.82 355.971 173.246 357.55 171.303 357.55C170.483 357.55 169.729 357.269 169.139 356.798C169.959 356.153 170.475 355.153 170.475 354.021C170.475 352.889 169.95 351.897 169.139 351.244C169.737 350.773 170.483 350.492 171.303 350.492C173.246 350.492 174.82 352.079 174.82 354.021Z" fill="#F79E1B"/>
<path d="M149.331 348.633H122.965C122.512 348.633 122.145 349.003 122.145 349.46V351.616C122.145 352.073 122.512 352.443 122.965 352.443H149.331C149.784 352.443 150.151 352.073 150.151 351.616V349.46C150.151 349.003 149.784 348.633 149.331 348.633Z" fill="#969696"/>
</g>
<defs>
<filter id="filter0_d_0_1" x="4.78987" y="1.64344" width="254.511" height="283.079" filterUnits="userSpaceOnUse" color-interpolation-filters="sRGB">
<feFlood flood-opacity="0" result="BackgroundImageFix"/>
<feColorMatrix in="SourceAlpha" type="matrix" values="0 0 0 0 0 0 0 0 0 0 0 0 0 0 0 0 0 0 127 0" result="hardAlpha"/>
<feOffset/>
<feGaussianBlur stdDeviation="27.38"/>
<feColorMatrix type="matrix" values="0 0 0 0 0.129412 0 0 0 0 0.133333 0 0 0 0 0.27451 0 0 0 0.2 0"/>
<feBlend mode="normal" in2="BackgroundImageFix" result="effect1_dropShadow_0_1"/>
<feBlend mode="normal" in="SourceGraphic" in2="effect1_dropShadow_0_1" result="shape"/>
</filter>
<filter id="filter1_d_0_1" x="93.3231" y="300.909" width="279.314" height="84.3585" filterUnits="userSpaceOnUse" color-interpolation-filters="sRGB">
<feFlood flood-opacity="0" result="BackgroundImageFix"/>
<feColorMatrix in="SourceAlpha" type="matrix" values="0 0 0 0 0 0 0 0 0 0 0 0 0 0 0 0 0 0 127 0" result="hardAlpha"/>
<feOffset/>
<feGaussianBlur stdDeviation="8"/>
<feComposite in2="hardAlpha" operator="out"/>
<feColorMatrix type="matrix" values="0 0 0 0 0.164706 0 0 0 0 0.207843 0 0 0 0 0.317647 0 0 0 0.15 0"/>
<feBlend mode="normal" in2="BackgroundImageFix" result="effect1_dropShadow_0_1"/>
<feBlend mode="normal" in="SourceGraphic" in2="effect1_dropShadow_0_1" result="shape"/>
</filter>
<linearGradient id="paint0_linear_0_1" x1="195.53" y1="357.988" x2="256.657" y2="357.988" gradientUnits="userSpaceOnUse">
<stop stop-color="#46C87F"/>
<stop offset="1" stop-color="#FAD36B"/>
</linearGradient>
<radialGradient id="paint1_radial_0_1" cx="0" cy="0" r="1" gradientUnits="userSpaceOnUse" gradientTransform="translate(127.34 332.333) rotate(36.5269) scale(50.8105 86.65)">
<stop stop-color="#3B4243"/>
<stop offset="1" stop-color="#252727"/>
</radialGradient>
<clipPath id="clip0_0_1">
<rect width="275" height="84" fill="white" transform="translate(93 300.142)"/>
</clipPath>
</defs>
</svg>
