<svg width="443" height="460" viewBox="0 0 443 460" fill="none" xmlns="http://www.w3.org/2000/svg">
<path d="M435.28 357.427C398.114 403.073 376.783 375.152 367.84 355.231C358.898 335.31 339.864 276.645 385.89 286.92C431.916 297.115 456.529 331.389 435.28 357.427Z" fill="#F8E5A9"/>
<path d="M323.006 284.816C347.189 435.305 218.53 473.868 164.592 454.492C110.559 435.117 2.11532 315.384 101.302 248.98C200.488 182.577 309.12 198.943 323.006 284.816Z" fill="#FFDAC7"/>
<path d="M102.469 51.296C71.3799 37.3939 84.4358 21.682 94.554 13.8672C104.754 6.05239 135.598 -12.7854 136.006 14.0317C136.414 40.7666 120.258 59.1931 102.469 51.296Z" fill="#C7EDC8"/>
<path d="M146.775 406.717L147.381 409.765C147.779 411.77 149.808 413.089 151.877 412.703L389.635 368.377L396.136 365.584L401.532 363.196L411.878 358.504C412.966 357.935 412.651 356.346 411.422 356.21L400.505 355.601L396.622 355.41L386.959 354.984L149.201 399.309C147.132 399.695 145.772 401.663 146.17 403.668L146.775 406.717Z" fill="#131D35" fill-opacity="0.1"/>
<path d="M383.51 352.566L145.755 396.908C143.686 397.294 142.322 399.245 142.721 401.251L143.326 404.299L143.931 407.347C144.329 409.353 146.359 410.671 148.428 410.285L386.186 365.959L396.306 361.426L394.649 353.083L383.513 352.582L383.51 352.566Z" fill="#FBFCFF"/>
<path d="M407.97 353.776L394.665 353.163L396.322 361.506L408.442 356.067C409.53 355.498 409.215 353.909 407.986 353.773L407.97 353.776Z" fill="#D2DCEF"/>
<path d="M180.127 395.736L151.773 401.026C151.015 401.167 150.518 401.878 150.664 402.614L150.846 403.528C150.992 404.264 151.725 404.745 152.484 404.603L180.837 399.313C181.596 399.172 182.093 398.461 181.947 397.726L181.765 396.811C181.619 396.076 180.886 395.594 180.127 395.736Z" fill="#6C7C9D"/>
<g opacity="0.2">
<path d="M143.714 406.256L143.95 407.443C144.348 409.449 146.378 410.767 148.447 410.381L386.205 366.056L396.325 361.522L405.768 357.298L143.714 406.256Z" fill="#AEBAD3"/>
</g>
<g clip-path="url(#clip0_0_1)">
<g filter="url(#filter0_d_0_1)">
<path d="M376.534 65.921L6.77424 102.854C3.10874 103.22 0.434067 106.488 0.800186 110.154L26.336 365.811C26.7021 369.477 29.9703 372.152 33.6358 371.785L403.396 334.853C407.061 334.487 409.736 331.218 409.37 327.553L383.834 71.8951C383.468 68.2296 380.2 65.5549 376.534 65.921Z" fill="#131D35"/>
<path d="M373.168 78.2969L12.8705 114.284L37.4124 359.992L397.71 324.004L373.168 78.2969Z" fill="white"/>
<path d="M77.0591 124.656L14.7293 130.882L37.5677 359.534L99.8975 353.308L77.0591 124.656Z" fill="#2A3551"/>
<path d="M374.224 94.8037L77.0422 124.487L99.8806 353.139L397.062 323.456L374.224 94.8037Z" fill="#EBF0FA"/>
<mask id="mask0_0_1" style="mask-type:luminance" maskUnits="userSpaceOnUse" x="358" y="81" width="12" height="13">
<path d="M364.363 92.9747C367.479 92.6634 369.753 89.8851 369.441 86.7692C369.13 83.6532 366.352 81.3796 363.236 81.6908C360.12 82.002 357.846 84.7803 358.157 87.8963C358.469 91.0122 361.247 93.2859 364.363 92.9747Z" fill="white"/>
</mask>
<g mask="url(#mask0_0_1)">
<path d="M368.887 81.1163L357.593 82.2444L358.721 93.5382L370.015 92.4101L368.887 81.1163Z" fill="#3D6EE8"/>
<path d="M364.108 91.8343C364.049 91.8403 362.717 92.2949 361.766 92.6311C362.571 92.9426 363.448 93.0761 364.364 92.9846C365.339 92.8872 366.24 92.546 366.992 92.0287L366.988 91.9889L364.109 91.8443L364.108 91.8343Z" fill="white"/>
<path d="M363.353 90.4123L363.487 92.0571C363.487 92.0571 363.608 92.4571 364.176 92.4104C364.744 92.3637 364.552 91.9508 364.552 91.9508L364.484 90.6612L363.353 90.4123Z" fill="#FFAB91"/>
<path d="M361.646 86.7036C361.646 86.7036 361.352 86.3712 360.822 86.605C360.293 86.8388 360.578 87.6846 360.909 88.0737C361.114 88.3145 361.761 88.4609 362.008 87.7126C362.255 86.9644 361.636 86.7046 361.636 86.7046L361.646 86.7036Z" fill="#FFAB91"/>
<path d="M365.775 85.7787C365.775 85.7787 365.846 85.3897 366.181 85.4166C366.515 85.4435 366.577 86.7639 366.443 86.938C366.381 87.0146 366.178 86.9947 366.084 86.7629L365.774 85.7688L365.775 85.7787Z" fill="#FFAB91"/>
<path d="M365.96 84.916L366.404 87.5549L366.154 88.1629L362.943 88.1117C362.943 88.1117 362.016 87.1892 361.863 86.9633C361.735 86.7852 361.689 86.7295 361.689 86.7295L361.613 84.7573C361.613 84.7573 362.894 84.2072 362.914 84.2052C362.934 84.2032 364.561 83.9905 364.561 83.9905L365.345 84.0931L365.959 84.9061L365.96 84.916Z" fill="#FACBBE"/>
<path d="M361.67 86.7415C361.67 86.7415 361.391 86.1563 360.436 85.7592C359.482 85.3621 359.983 84.8397 360.225 84.8557C360.468 84.8716 361.124 85.1981 360.928 84.2428C360.732 83.2876 361.111 82.2548 361.634 82.2528C362.156 82.2509 361.94 83.3076 362.676 83.2341C363.413 83.1605 362.74 81.6599 363.783 81.6362C364.264 81.6183 363.877 82.5715 364.399 82.9716C364.92 83.3617 365.617 82.1866 365.617 82.1866C365.617 82.1866 366.117 82.1668 365.823 82.7389C365.528 83.311 365.445 83.6812 365.729 83.8135C366.014 83.9459 366.238 83.8733 366.119 84.2972C366.001 84.721 366.13 86.0146 366.13 86.0146C366.13 86.0146 365.884 84.5618 365.336 84.4055C364.788 84.2492 362.976 84.3197 362.184 85.042C361.657 85.5066 362.05 86.5226 362.05 86.5226L361.67 86.7415Z" fill="#FF5800"/>
<path d="M363.378 85.1237L363.446 85.3078C363.446 85.3078 363.102 85.2819 362.831 85.7913C362.831 85.7913 362.667 85.7575 362.671 85.6968C362.675 85.6361 362.804 85.2112 363.379 85.1336L363.378 85.1237Z" fill="#FF5800"/>
<path d="M365.023 84.8891L365.011 85.0712C365.011 85.0712 365.3 84.9518 365.687 85.3051C365.687 85.3051 365.82 85.2215 365.795 85.1737C365.77 85.126 365.535 84.7876 365.023 84.8891Z" fill="#FF5800"/>
<path d="M362.102 86.638L362.174 86.7514L361.828 86.9166L361.759 86.823L362.102 86.638Z" fill="#FF5800"/>
<path d="M361.887 87.0012L362.216 86.8778C362.216 86.8778 362.509 87.9943 363.712 88.0651C364.915 88.1359 364.802 87.4135 364.802 87.4135L365.25 87.3687C365.25 87.3687 365.69 88.0484 366.371 87.3171C366.371 87.3171 367.296 87.6267 367.103 88.4098L367.332 88.3869C367.332 88.3869 367.344 89.0088 366.944 89.4406L367.313 89.4038C367.313 89.4038 366.958 90.7859 364.904 90.9508C362.851 91.1158 362.223 89.1585 362.223 89.1585L362.143 89.0659L362.052 89.256C362.052 89.256 361.722 88.8669 361.914 88.1743C362.106 87.4818 361.897 87.0002 361.897 87.0002L361.887 87.0012Z" fill="#FF5800"/>
<path d="M363.107 88.2461C363.107 88.2461 363.564 88.4014 363.829 88.4352L363.692 88.5695C363.842 88.5646 363.966 88.6024 364.14 88.5248C364.14 88.5248 364.15 88.6343 364.085 88.681C364.085 88.681 364.216 88.688 364.282 88.5408C364.282 88.5408 364.367 88.693 364.568 88.693L364.554 88.5537C364.554 88.5537 364.695 88.6503 365.271 88.5827C365.271 88.5827 365.127 89.3508 364.062 89.2562C362.997 89.1615 363.097 88.2471 363.097 88.2471L363.107 88.2461Z" fill="white"/>
<path d="M363.574 86.7338C363.805 86.7089 363.967 86.4617 363.937 86.1817C363.907 85.9017 363.695 85.6948 363.465 85.7197C363.234 85.7446 363.072 85.9918 363.102 86.2719C363.132 86.5519 363.344 86.7587 363.574 86.7338Z" fill="white"/>
<path d="M363.519 86.5989C363.69 86.5805 363.81 86.4009 363.788 86.1978C363.766 85.9946 363.61 85.8448 363.44 85.8632C363.27 85.8816 363.15 86.0612 363.172 86.2643C363.194 86.4675 363.349 86.6173 363.519 86.5989Z" fill="#000100"/>
<path d="M365.442 86.4314C365.657 86.4083 365.808 86.1804 365.78 85.9223C365.752 85.6642 365.556 85.4738 365.342 85.4969C365.127 85.52 364.976 85.748 365.004 86.006C365.032 86.2641 365.228 86.4546 365.442 86.4314Z" fill="white"/>
<path d="M365.36 86.3197C365.508 86.3037 365.611 86.1304 365.59 85.9327C365.569 85.7351 365.431 85.5878 365.283 85.6038C365.135 85.6198 365.032 85.7931 365.053 85.9907C365.074 86.1884 365.212 86.3357 365.36 86.3197Z" fill="#000100"/>
<path d="M365.076 87.5151C365.334 87.4878 365.524 87.2831 365.5 87.0579C365.476 86.8328 365.248 86.6723 364.99 86.6996C364.732 86.7269 364.542 86.9316 364.565 87.1568C364.589 87.3819 364.818 87.5424 365.076 87.5151Z" fill="#FACBBE"/>
<path d="M364.417 86.9796C364.35 87.0064 364.284 87.0532 364.249 87.1069C364.204 87.1616 364.211 87.2313 364.256 87.2771C364.336 87.3696 364.502 87.3229 364.628 87.2801L364.658 87.2771L364.68 87.295C364.784 87.4353 364.98 87.4861 365.148 87.4493C365.315 87.4125 365.461 87.2673 365.475 87.1051C365.487 87.0235 365.431 86.9688 365.364 86.8951C365.297 86.8314 365.22 86.7687 365.145 86.716C364.993 86.6005 364.839 86.4751 364.752 86.303C364.858 86.4632 365.038 86.5558 365.19 86.6613C365.265 86.714 365.351 86.7658 365.427 86.8284C365.503 86.8812 365.584 86.9837 365.576 87.1051C365.578 87.326 365.384 87.5061 365.177 87.5468C364.972 87.5976 364.733 87.5209 364.614 87.3418L364.666 87.3567C364.597 87.3736 364.519 87.3915 364.438 87.3895C364.359 87.3975 364.265 87.3666 364.218 87.301C364.172 87.2353 364.181 87.1338 364.236 87.0781C364.291 87.0224 364.359 86.9955 364.426 86.9686L364.417 86.9796Z" fill="#FFAB91"/>
<path d="M363.813 84.9496C363.345 84.7953 362.236 85.1674 362 85.5126C361.763 85.8579 361.995 87.0808 362.632 87.2182C363.269 87.3556 363.869 87.2253 364.142 86.7358C364.467 86.1706 364.28 85.1039 363.813 84.9496Z" stroke="#78909C" stroke-width="0.11" stroke-miterlimit="10"/>
<path d="M364.451 85.0064C364.392 85.3138 364.5 85.896 364.765 86.2313C365.133 86.697 365.856 86.8961 366.15 86.7161C366.443 86.536 366.616 85.8554 366.512 85.3131C366.433 84.9191 366.411 84.7001 365.87 84.6235C365.33 84.5468 364.538 84.5656 364.461 85.0054L364.451 85.0064Z" stroke="#78909C" stroke-width="0.11" stroke-miterlimit="10"/>
<path d="M361.349 86.5424L361.195 86.5175L361.871 86.0379L361.95 86.1205L361.349 86.5424Z" fill="#78909C"/>
<path d="M366.091 85.325L366.42 85.0912L366.497 85.1638L366.103 85.4444L366.091 85.325Z" fill="#78909C"/>
<path d="M364.23 85.5109C364.23 85.5109 364.281 85.4154 364.454 85.4383" stroke="#78909C" stroke-width="0.11" stroke-miterlimit="10"/>
<path d="M361.633 87.8931C361.857 87.786 361.929 87.4689 361.794 87.1849C361.658 86.9008 361.366 86.7573 361.142 86.8644C360.918 86.9715 360.846 87.2886 360.981 87.5727C361.117 87.8567 361.409 88.0002 361.633 87.8931Z" fill="#FACBBE"/>
<path d="M363.543 86.1725C363.592 86.1675 363.628 86.1234 363.623 86.074C363.618 86.0245 363.574 85.9884 363.525 85.9934C363.475 85.9983 363.439 86.0424 363.444 86.0919C363.449 86.1413 363.493 86.1774 363.543 86.1725Z" fill="white"/>
<path d="M365.375 85.899C365.424 85.8941 365.46 85.85 365.455 85.8005C365.45 85.7511 365.406 85.715 365.357 85.7199C365.307 85.7249 365.271 85.769 365.276 85.8184C365.281 85.8679 365.325 85.904 365.375 85.899Z" fill="white"/>
</g>
<path d="M397.699 323.593L37.5855 359.914L12.8197 114.38L372.968 78.4073L397.699 323.593Z" stroke="#D2DCEF" stroke-width="0.28" stroke-miterlimit="10"/>
<path d="M219.369 126.119L96.5304 138.389C94.7169 138.57 93.3936 140.187 93.5747 142.001L102.34 229.754C102.521 231.567 104.138 232.891 105.951 232.71L228.79 220.44C230.604 220.259 231.927 218.642 231.746 216.828L222.981 129.075C222.8 127.262 221.183 125.938 219.369 126.119Z" fill="white"/>
<path d="M358.045 112.127L235.206 124.397C233.393 124.578 232.07 126.195 232.251 128.009L241.016 215.762C241.197 217.575 242.814 218.899 244.627 218.718L367.466 206.448C369.28 206.267 370.603 204.65 370.422 202.836L361.657 115.083C361.476 113.27 359.859 111.946 358.045 112.127Z" fill="white"/>
<path d="M229.812 229.664L106.973 241.934C105.16 242.115 103.836 243.732 104.018 245.545L112.783 333.299C112.964 335.112 114.581 336.435 116.394 336.254L239.233 323.985C241.046 323.804 242.37 322.187 242.189 320.373L233.424 232.62C233.242 230.806 231.626 229.483 229.812 229.664Z" fill="white"/>
<path d="M368.481 215.603L245.642 227.872C243.829 228.053 242.505 229.67 242.687 231.484L251.452 319.237C251.633 321.051 253.25 322.374 255.063 322.193L377.902 309.923C379.716 309.742 381.039 308.125 380.858 306.312L372.093 218.558C371.912 216.745 370.295 215.421 368.481 215.603Z" fill="white"/>
<path d="M348.235 85.7518L344.603 86.1146C343.883 86.1865 343.358 86.8284 343.43 87.5483L343.793 91.1803C343.865 91.9002 344.507 92.4255 345.226 92.3536L348.858 91.9908C349.578 91.9189 350.104 91.277 350.032 90.5571L349.669 86.9252C349.597 86.2052 348.955 85.6799 348.235 85.7518Z" fill="#96A6C5"/>
<path d="M336.047 86.9793L332.415 87.342C331.695 87.4139 331.17 88.0558 331.242 88.7757L331.604 92.4077C331.676 93.1276 332.318 93.6529 333.038 93.581L336.67 93.2182C337.39 93.1463 337.915 92.5044 337.843 91.7845L337.481 88.1526C337.409 87.4327 336.767 86.9074 336.047 86.9793Z" fill="#96A6C5"/>
<path d="M82.4425 114.059L22.8889 120.007C22.3118 120.065 21.8908 120.579 21.9484 121.156L22.1045 122.718C22.1621 123.295 22.6766 123.716 23.2536 123.659L82.8073 117.71C83.3843 117.653 83.8054 117.138 83.7477 116.561L83.5917 114.999C83.534 114.422 83.0196 114.001 82.4425 114.059Z" fill="#96A6C5"/>
<path d="M61.9285 134.559L20.624 138.685C20.1459 138.732 19.797 139.159 19.8448 139.637L20.0366 141.557C20.0843 142.035 20.5106 142.384 20.9887 142.336L62.2932 138.211C62.7713 138.163 63.1202 137.737 63.0724 137.259L62.8806 135.338C62.8329 134.86 62.4066 134.511 61.9285 134.559Z" fill="#ACBBD7"/>
<path d="M66.801 161.81L29.9941 165.486C29.516 165.534 29.1671 165.96 29.2149 166.438L29.4067 168.359C29.4545 168.837 29.8808 169.186 30.3589 169.138L67.1657 165.461C67.6438 165.414 67.9927 164.987 67.9449 164.509L67.7531 162.589C67.7054 162.111 67.2791 161.762 66.801 161.81Z" fill="#ACBBD7"/>
<path d="M59.0256 171.902L30.9254 174.709C30.4473 174.757 30.0984 175.183 30.1462 175.661L30.338 177.582C30.3857 178.06 30.812 178.409 31.2901 178.361L59.3903 175.554C59.8684 175.506 60.2173 175.08 60.1695 174.602L59.9777 172.682C59.93 172.203 59.5037 171.855 59.0256 171.902Z" fill="#ACBBD7"/>
<path d="M69.561 206.647L34.4955 210.15C34.0173 210.197 33.6685 210.624 33.7162 211.102L33.908 213.022C33.9558 213.5 34.3821 213.849 34.8602 213.802L69.9257 210.299C70.4038 210.251 70.7527 209.825 70.705 209.347L70.5131 207.427C70.4654 206.948 70.0391 206.6 69.561 206.647Z" fill="#ACBBD7"/>
<path d="M60.0442 216.914L35.4267 219.373C34.9486 219.421 34.5997 219.847 34.6475 220.325L34.8393 222.245C34.8871 222.724 35.3134 223.072 35.7915 223.025L60.409 220.566C60.8871 220.518 61.236 220.092 61.1882 219.614L60.9964 217.693C60.9486 217.215 60.5223 216.866 60.0442 216.914Z" fill="#ACBBD7"/>
<path d="M54.0102 226.833L36.358 228.596C35.8799 228.644 35.531 229.07 35.5788 229.548L35.7706 231.469C35.8183 231.947 36.2446 232.296 36.7228 232.248L54.3749 230.485C54.853 230.437 55.2019 230.011 55.1541 229.532L54.9623 227.612C54.9146 227.134 54.4883 226.785 54.0102 226.833Z" fill="#ACBBD7"/>
<path d="M222.129 261.204L195.77 263.837C195.292 263.885 194.943 264.311 194.991 264.789L195.182 266.709C195.23 267.188 195.656 267.536 196.135 267.489L222.493 264.856C222.972 264.808 223.32 264.382 223.273 263.904L223.081 261.983C223.033 261.505 222.607 261.156 222.129 261.204Z" fill="#D2DCEF"/>
<path d="M227.398 278.546L197.557 281.527C197.079 281.575 196.73 282.001 196.778 282.479L196.969 284.399C197.017 284.877 197.443 285.226 197.922 285.179L227.763 282.198C228.241 282.15 228.59 281.724 228.542 281.246L228.35 279.325C228.303 278.847 227.876 278.498 227.398 278.546Z" fill="#D2DCEF"/>
<path d="M214.315 270.919L196.663 272.682C196.185 272.73 195.836 273.156 195.884 273.634L196.076 275.554C196.124 276.032 196.55 276.381 197.028 276.334L214.68 274.57C215.158 274.523 215.507 274.096 215.459 273.618L215.268 271.698C215.22 271.22 214.794 270.871 214.315 270.919Z" fill="#D2DCEF"/>
<path d="M210.879 289.14L198.451 290.382C197.973 290.429 197.624 290.856 197.672 291.334L197.864 293.254C197.912 293.732 198.338 294.081 198.816 294.034L211.244 292.792C211.722 292.744 212.071 292.318 212.023 291.84L211.832 289.92C211.784 289.441 211.358 289.093 210.879 289.14Z" fill="#D2DCEF"/>
<path d="M353.337 193.277L326.978 195.91C326.5 195.958 326.151 196.384 326.199 196.862L326.391 198.783C326.439 199.261 326.865 199.61 327.343 199.562L353.702 196.929C354.18 196.881 354.529 196.455 354.481 195.977L354.289 194.056C354.242 193.578 353.815 193.229 353.337 193.277Z" fill="#D2DCEF"/>
<path d="M355.032 175.229L325.19 178.21C324.712 178.258 324.363 178.684 324.411 179.162L324.603 181.083C324.651 181.561 325.077 181.91 325.555 181.862L355.397 178.881C355.875 178.833 356.224 178.407 356.176 177.929L355.984 176.009C355.936 175.53 355.51 175.182 355.032 175.229Z" fill="#D2DCEF"/>
<path d="M343.737 185.302L326.085 187.065C325.607 187.113 325.258 187.539 325.306 188.017L325.497 189.938C325.545 190.416 325.971 190.764 326.45 190.717L344.102 188.954C344.58 188.906 344.929 188.48 344.881 188.001L344.689 186.081C344.641 185.603 344.215 185.254 343.737 185.302Z" fill="#D2DCEF"/>
<path d="M336.726 168.134L324.298 169.375C323.82 169.423 323.471 169.849 323.519 170.327L323.71 172.248C323.758 172.726 324.184 173.075 324.663 173.027L337.091 171.785C337.569 171.738 337.918 171.311 337.87 170.833L337.678 168.913C337.63 168.435 337.204 168.086 336.726 168.134Z" fill="#D2DCEF"/>
<path d="M212.283 201.567L185.924 204.2C185.446 204.248 185.097 204.674 185.145 205.152L185.336 207.073C185.384 207.551 185.811 207.9 186.289 207.852L212.647 205.219C213.126 205.171 213.474 204.745 213.427 204.267L213.235 202.347C213.187 201.868 212.761 201.52 212.283 201.567Z" fill="#D2DCEF"/>
<path d="M151.631 207.686L121.789 210.666C121.311 210.714 120.962 211.14 121.01 211.619L121.202 213.539C121.249 214.017 121.676 214.366 122.154 214.318L151.995 211.338C152.473 211.29 152.822 210.863 152.774 210.385L152.583 208.465C152.535 207.987 152.109 207.638 151.631 207.686Z" fill="#D2DCEF"/>
<path d="M204.471 211.292L186.818 213.055C186.34 213.103 185.991 213.529 186.039 214.007L186.231 215.928C186.279 216.406 186.705 216.755 187.183 216.707L204.835 214.944C205.313 214.896 205.662 214.47 205.615 213.992L205.423 212.071C205.375 211.593 204.949 211.244 204.471 211.292Z" fill="#D2DCEF"/>
<path d="M135.112 218.28L122.683 219.521C122.205 219.569 121.857 219.995 121.904 220.473L122.096 222.394C122.144 222.872 122.57 223.221 123.048 223.173L135.476 221.932C135.955 221.884 136.303 221.458 136.256 220.98L136.064 219.059C136.016 218.581 135.59 218.232 135.112 218.28Z" fill="#D2DCEF"/>
<path d="M285.355 244.638L255.514 247.619C255.036 247.666 254.687 248.093 254.735 248.571L254.926 250.491C254.974 250.969 255.4 251.318 255.878 251.27L285.72 248.29C286.198 248.242 286.547 247.816 286.499 247.338L286.307 245.417C286.26 244.939 285.833 244.59 285.355 244.638Z" fill="#D2DCEF"/>
<path d="M267.049 237.542L254.621 238.784C254.143 238.831 253.794 239.258 253.842 239.736L254.034 241.656C254.082 242.134 254.508 242.483 254.986 242.435L267.414 241.194C267.892 241.146 268.241 240.72 268.193 240.242L268.002 238.322C267.954 237.843 267.527 237.495 267.049 237.542Z" fill="#D2DCEF"/>
<path d="M61.6653 198.13L33.5652 200.937C33.087 200.984 32.7382 201.411 32.7859 201.889L32.9777 203.809C33.0255 204.287 33.4518 204.636 33.9299 204.588L62.0301 201.782C62.5082 201.734 62.8571 201.308 62.8093 200.829L62.6175 198.909C62.5697 198.431 62.1434 198.082 61.6653 198.13Z" fill="#ACBBD7"/>
<path d="M53.9888 188.083L25.8886 190.89C25.4105 190.938 25.0616 191.364 25.1094 191.842L25.3012 193.762C25.349 194.241 25.7753 194.589 26.2534 194.542L54.3535 191.735C54.8316 191.687 55.1805 191.261 55.1328 190.783L54.9409 188.862C54.8932 188.384 54.4669 188.035 53.9888 188.083Z" fill="#ACBBD7"/>
<path d="M61.9726 148.785L26.5886 152.319C26.1105 152.367 25.7616 152.793 25.8094 153.271L26.0012 155.192C26.049 155.67 26.4753 156.019 26.9534 155.971L62.3373 152.437C62.8154 152.389 63.1643 151.963 63.1165 151.485L62.9247 149.564C62.877 149.086 62.4507 148.737 61.9726 148.785Z" fill="#ACBBD7"/>
<path d="M128.885 109.359L104.089 111.836C103.512 111.894 103.091 112.408 103.148 112.985L103.304 114.548C103.362 115.125 103.877 115.546 104.454 115.488L129.25 113.011C129.827 112.954 130.248 112.439 130.191 111.862L130.035 110.3C129.977 109.723 129.462 109.302 128.885 109.359Z" fill="#96A6C5"/>
<path d="M182.441 178.388L196.285 168.483C194.14 165.522 191.623 162.859 188.756 160.512C185.769 158.077 182.514 156.071 179.024 154.54L172.032 170.062C176.172 171.869 179.777 174.755 182.442 178.398L182.441 178.388Z" fill="#5483E2"/>
<path d="M187.234 190.854L204.158 189.143C203.588 183.442 201.9 178.013 199.17 173.019C198.299 171.438 197.343 169.915 196.294 168.472L182.45 178.377C185.045 181.917 186.767 186.177 187.234 190.854Z" fill="#3D6EE8"/>
<path d="M121.266 180.881C119.589 186.325 119.027 191.968 119.596 197.67L136.52 195.959C136.061 191.362 136.854 186.922 138.631 182.985L123.085 176.046C122.387 177.613 121.774 179.222 121.266 180.881Z" fill="#C1D6EA"/>
<path d="M159.321 168.065C163.818 167.616 168.154 168.359 172.031 170.052L179.023 154.53C177.52 153.866 175.984 153.286 174.398 152.801C168.955 151.124 163.311 150.562 157.609 151.131C157.52 151.14 157.44 151.148 157.351 151.157L159.061 168.081C159.151 168.072 159.23 168.064 159.32 168.055L159.321 168.065Z" fill="#6895DD"/>
<path d="M146.957 172.767L137.005 158.958C134.025 161.115 131.333 163.645 128.978 166.533C126.587 169.455 124.624 172.646 123.095 176.045L138.641 182.984C140.475 178.912 143.349 175.379 146.957 172.767Z" fill="#A0C2EA"/>
<path d="M159.062 168.091L157.352 151.167C151.744 151.768 146.413 153.436 141.485 156.119C139.923 156.978 138.419 157.922 136.995 158.959L146.947 172.768C150.405 170.262 154.53 168.594 159.052 168.092L159.062 168.091Z" fill="#81A8E2"/>
<path d="M162.804 195.997C161.366 196.493 159.803 195.734 159.298 194.297C158.793 192.86 159.561 191.296 160.998 190.791C162.222 190.367 179.581 185.97 189.703 183.381C190.174 183.264 190.401 183.925 189.958 184.12C180.373 188.373 164.018 195.575 162.793 195.988L162.804 195.997Z" fill="#2A3551"/>
<path d="M253.853 193.064L288.488 165.927C288.991 165.535 289.691 165.495 290.238 165.843L296.818 170.039C297.355 170.388 298.055 170.348 298.559 169.966L318.888 154.248C319.363 153.879 320.022 153.833 320.553 154.122L324.428 156.287C324.97 156.585 325.638 156.528 326.122 156.148L348.831 137.8" stroke="#FF7B3D" stroke-width="0.87" stroke-miterlimit="10"/>
<path d="M254.647 200.914L287.934 162.194C288.464 161.568 289.457 161.649 289.879 162.351L297.398 174.745C297.784 175.39 298.662 175.523 299.226 175.035L319.592 157.373C319.906 157.101 320.329 157.008 320.723 157.13L324.845 158.356C325.311 158.49 325.818 158.339 326.123 157.967L348.146 131.145" stroke="#3D6EE8" stroke-width="0.87" stroke-miterlimit="10"/>
<path d="M181.535 284.122C183.082 299.504 171.88 313.226 156.498 314.772C141.115 316.319 127.394 305.117 125.848 289.734C124.494 276.282 132.903 264.086 145.33 260.212C147.104 259.663 148.965 259.276 150.885 259.084C166.268 257.538 179.989 268.74 181.535 284.122Z" fill="#3D6EE8"/>
<path d="M153.697 286.933C153.697 286.933 147.097 273.583 139.641 257.996C142.948 256.39 146.59 255.323 150.471 254.935C151.338 263.622 153.697 286.933 153.697 286.933Z" fill="#FF7B3D"/>
<path d="M274.573 266.287L270.424 266.701C269.001 266.843 267.962 268.113 268.104 269.536L271.502 303.557C271.645 304.98 272.914 306.018 274.337 305.876L278.486 305.462C279.91 305.32 280.948 304.051 280.806 302.627L277.408 268.607C277.266 267.183 275.997 266.145 274.573 266.287Z" fill="#FF7B3D"/>
<path d="M291.307 271.53L287.158 271.944C285.735 272.086 284.696 273.355 284.838 274.779L287.551 301.934C287.693 303.357 288.962 304.395 290.385 304.253L294.535 303.839C295.958 303.697 296.996 302.428 296.854 301.004L294.142 273.849C294 272.426 292.731 271.387 291.307 271.53Z" fill="#FF7B3D"/>
<path d="M305.617 252.604L301.468 253.018C300.045 253.16 299.006 254.429 299.148 255.853L303.59 300.321C303.732 301.745 305.001 302.783 306.424 302.641L310.574 302.227C311.997 302.085 313.036 300.815 312.893 299.392L308.452 254.923C308.31 253.5 307.041 252.461 305.617 252.604Z" fill="#FF7B3D"/>
<path d="M322.169 255.925L318.02 256.34C316.597 256.482 315.558 257.751 315.7 259.174L319.648 298.697C319.79 300.121 321.059 301.159 322.482 301.017L326.632 300.603C328.055 300.461 329.094 299.191 328.952 297.768L325.004 258.245C324.862 256.821 323.593 255.783 322.169 255.925Z" fill="#FF7B3D"/>
<path d="M337.286 245.079L333.137 245.493C331.713 245.636 330.675 246.905 330.817 248.328L335.686 297.075C335.828 298.499 337.097 299.537 338.521 299.395L342.67 298.981C344.093 298.839 345.132 297.569 344.99 296.146L340.121 247.399C339.979 245.975 338.71 244.937 337.286 245.079Z" fill="#FF7B3D"/>
<path d="M352.365 233.855L348.216 234.269C346.793 234.411 345.754 235.68 345.896 237.104L351.726 295.473C351.868 296.897 353.138 297.935 354.561 297.793L358.71 297.379C360.134 297.236 361.172 295.967 361.03 294.544L355.2 236.174C355.058 234.751 353.789 233.712 352.365 233.855Z" fill="#FF7B3D"/>
</g>
</g>
<g clip-path="url(#clip1_0_1)">
<g opacity="0.1">
<path d="M157.204 64.9445L155.937 65.3693L148.717 43.9477C147.637 40.7329 149.354 37.2486 152.575 36.1588C155.79 35.079 159.274 36.7954 160.364 40.017L165.375 54.8788L164.11 55.312L159.091 40.4518C158.294 37.9185 155.584 36.5223 153.052 37.3282C150.52 38.1341 149.123 40.8353 149.929 43.3671C149.946 43.4162 149.957 43.4753 149.985 43.5313L157.205 64.9529L157.204 64.9445Z" fill="#1D144C"/>
<path d="M163.158 69.0351C160.161 70.0139 156.926 68.3738 155.947 65.3762L157.214 64.9514C157.897 67.2438 160.312 68.5545 162.604 67.8712C164.897 67.1879 166.207 64.7733 165.524 62.4809C165.505 62.3796 165.461 62.2829 165.426 62.1847L166.681 61.7967C167.681 64.7643 166.117 67.985 163.168 69.042L163.158 69.0351Z" fill="#1D144C"/>
<path d="M166.717 61.7552L165.462 62.1431L161.188 49.6252C160.586 47.728 158.57 46.6845 156.674 47.2949C154.777 47.8968 153.733 49.9131 154.344 51.8086C154.351 51.8509 154.359 51.8931 154.384 51.9322L157.904 62.389L156.648 62.777L153.13 52.3286C152.147 49.7856 153.421 46.9326 155.963 45.9416C158.504 44.9507 161.359 46.2329 162.35 48.7743C162.398 48.8963 162.441 49.0368 162.483 49.1688L166.744 61.759L166.717 61.7552Z" fill="#1D144C"/>
<path d="M169.68 36.5586L154.89 19.5926C153.788 18.3461 153.236 16.7192 153.324 15.0618C153.405 13.4145 154.133 11.8665 155.363 10.7675C156.577 9.68004 158.177 9.12402 159.804 9.23527C161.44 9.35341 162.968 10.1114 164.051 11.3526L174.305 23.1117L173.281 23.9984L163.013 12.2592C162.171 11.2879 160.98 10.6951 159.696 10.5993C158.43 10.5004 157.171 10.9152 156.209 11.7641C154.231 13.5856 154.077 16.643 155.846 18.6661L170.657 35.6544L169.682 36.567L169.68 36.5586Z" fill="#1D144C"/>
<path d="M175.758 38.2346C173.578 38.9584 171.179 38.2996 169.672 36.5601L170.694 35.6651C172.239 37.4674 174.949 37.6764 176.751 36.1317C176.773 36.1101 176.789 36.0986 176.811 36.077C178.595 34.431 178.74 31.6631 177.133 29.8547L178.158 28.9681C180.236 31.3446 180.045 34.9588 177.714 37.0981C177.136 37.6061 176.464 37.9914 175.738 38.2208L175.758 38.2346Z" fill="#1D144C"/>
<path d="M169.341 33.9061L162.101 25.6259C160.296 23.5483 160.461 20.4103 162.483 18.5372C164.509 16.7417 167.615 16.9215 169.411 18.9484C169.415 18.9737 169.444 18.9859 169.457 19.0097L178.138 28.9543L177.113 29.8409L168.48 19.9139C167.2 18.4121 164.949 18.2322 163.449 19.5206C163.434 19.5321 163.411 19.5537 163.398 19.5737C161.92 20.9365 161.791 23.2298 163.125 24.7392L170.358 33.0294L169.342 33.9145L169.341 33.9061Z" fill="#1D144C"/>
<path d="M123.368 42.2439C120.059 43.2886 116.537 41.4571 115.493 38.1571C114.596 35.319 115.813 32.2496 118.4 30.7963L131.915 23.3971L132.555 24.5977L119.04 31.9968C116.706 33.3076 115.851 36.2581 117.131 38.6154C118.359 40.9736 121.277 41.8863 123.635 40.6584C123.644 40.6569 123.66 40.6538 123.677 40.6507L143.15 30.0438L143.798 31.2428L124.344 41.855C124.033 42.0169 123.719 42.1619 123.383 42.2762L123.379 42.2593L123.368 42.2439Z" fill="#1D144C"/>
<path d="M143.78 31.1937L143.142 30.0016C144.157 29.4483 144.901 28.5084 145.222 27.402C145.556 26.2756 145.411 25.0625 144.856 24.0384C143.723 21.9074 141.096 21.1069 138.962 22.2238L138.322 21.0233C141.09 19.5542 144.528 20.5896 146.005 23.3558C146.007 23.3643 146.01 23.3812 146.032 23.4034C146.76 24.7535 146.937 26.3358 146.509 27.8026C146.095 29.2579 145.118 30.4938 143.792 31.209L143.78 31.1937Z" fill="#1D144C"/>
<path d="M130.898 36.4338C129.935 36.7505 128.891 36.7679 127.917 36.458C125.249 35.6216 123.766 32.7778 124.601 30.1015C124.981 28.8882 125.813 27.8622 126.918 27.2226L138.326 20.9964L138.966 22.1969L127.575 28.4201C125.804 29.4264 125.178 31.6715 126.186 33.4504C126.65 34.2642 127.408 34.8755 128.298 35.1572C129.206 35.4441 130.201 35.3485 131.044 34.8969L140.548 29.7102L141.201 30.8908L131.7 36.0943C131.445 36.2284 131.178 36.3388 130.917 36.4391L130.898 36.4338Z" fill="#1D144C"/>
</g>
<path d="M157.527 63.855L156.272 64.2429L149.051 42.8213C147.792 39.6745 149.326 36.1014 152.473 34.8421C155.62 33.5827 159.193 35.1169 160.452 38.2637C160.536 38.484 160.614 38.7142 160.681 38.9375L165.702 53.7624L164.437 54.1957L159.425 39.3255C158.628 36.7921 155.918 35.3959 153.386 36.2018C150.855 37.0077 149.457 39.7089 150.263 42.2407C150.281 42.2898 150.291 42.3489 150.319 42.4049L157.527 63.855Z" fill="#CC44B8"/>
<path d="M163.493 67.9087C160.495 68.8875 157.26 67.2474 156.282 64.2498L157.537 63.8619C158.327 66.1172 160.798 67.3042 163.053 66.5143C165.275 65.7305 166.466 63.3292 165.749 61.0952L167.005 60.7072C167.984 63.661 166.424 66.8548 163.503 67.9156L163.493 67.9087Z" fill="#CC44B8"/>
<path d="M167.048 60.6556L165.792 61.0436L161.518 48.5256C160.852 46.6578 158.796 45.6827 156.929 46.3575C155.111 47.0061 154.122 48.9862 154.714 50.8327L158.231 61.2726L156.958 61.7074L153.438 51.2506C152.545 48.6737 153.906 45.8658 156.484 44.9815C159.061 44.0888 161.869 45.4494 162.754 48.0279C162.76 48.0617 162.771 48.077 162.786 48.1092L167.058 60.6625L167.048 60.6556Z" fill="#CC44B8"/>
<path d="M170.009 35.4506L155.219 18.4846C154.117 17.2381 153.564 15.6112 153.653 13.9539C153.725 12.3081 154.462 10.7585 155.691 9.65952C156.906 8.57208 158.506 8.01606 160.132 8.12731C161.769 8.24545 163.305 9.00193 164.38 10.2446L174.634 22.0038L173.61 22.8904L163.327 11.119C162.485 10.1477 161.294 9.55491 160.011 9.45912C158.737 9.37022 157.473 9.80349 156.523 10.6677C154.544 12.4892 154.391 15.5466 156.159 17.5697L170.985 34.538L170.009 35.4506Z" fill="#FFB732"/>
<path d="M176.087 37.1267C173.907 37.8504 171.507 37.1916 170 35.4522L171.023 34.5571C172.568 36.3594 175.277 36.5684 177.08 35.0237C177.102 35.0021 177.117 34.9906 177.14 34.969C178.923 33.323 179.069 30.5551 177.462 28.7467L178.487 27.8601C180.565 30.2366 180.373 33.8508 178.043 35.9902C177.464 36.4981 176.793 36.8834 176.067 37.1129L176.087 37.1267Z" fill="#FFB732"/>
<path d="M169.663 32.8081L162.423 24.5279C160.618 22.4504 160.783 19.3123 162.804 17.4393C164.823 15.6453 167.919 15.8182 169.713 17.8366C169.734 17.8589 169.757 17.8895 169.779 17.9118L178.468 27.8548L177.444 28.7414L168.81 18.8144C167.53 17.3126 165.28 17.1327 163.779 18.4211C163.764 18.4326 163.742 18.4542 163.728 18.4742C162.25 19.837 162.122 22.1303 163.455 23.6397L170.689 31.9299L169.673 32.815L169.663 32.8081Z" fill="#FFB732"/>
<path d="M123.695 41.1275C120.387 42.1722 116.864 40.3407 115.821 37.0406C114.924 34.2026 116.14 31.1332 118.727 29.6798L132.242 22.2807L132.882 23.4812L119.366 30.8719C117.031 32.1827 116.177 35.1332 117.457 37.4905C118.695 39.8556 121.61 40.7515 123.976 39.522L124.002 39.5174L143.472 28.9021L144.11 30.0942L124.657 40.7064C124.346 40.8682 124.032 41.0132 123.695 41.1275Z" fill="#0792C9"/>
<path d="M144.109 30.0857L143.471 28.8936C144.486 28.3403 145.23 27.4004 145.55 26.294C145.876 25.1691 145.735 23.973 145.172 22.9505C144.038 20.8194 141.411 20.019 139.277 21.1358L138.638 19.9353C141.405 18.4662 144.843 19.5016 146.321 22.2678C146.322 22.2763 146.325 22.2932 146.347 22.3154C147.075 23.6655 147.252 25.2479 146.824 26.7147C146.417 28.1599 145.428 29.3805 144.11 30.0942L144.109 30.0857Z" fill="#0792C9"/>
<path d="M131.227 35.3258C130.264 35.6425 129.22 35.6599 128.246 35.35C125.578 34.5136 124.095 31.6698 124.93 28.9935C125.309 27.7802 126.142 26.7542 127.247 26.1147L138.655 19.8884L139.295 21.089L127.903 27.3121C126.133 28.3185 125.507 30.5635 126.515 32.3424C126.979 33.1562 127.737 33.7676 128.627 34.0492C129.535 34.3362 130.53 34.2405 131.372 33.7889L140.877 28.6023L141.525 29.8013L132.024 35.0048C131.769 35.1389 131.508 35.2392 131.237 35.3327L131.227 35.3258Z" fill="#0792C9"/>
</g>
<defs>
<filter id="filter0_d_0_1" x="0.766663" y="65.8875" width="411.787" height="309.081" filterUnits="userSpaceOnUse" color-interpolation-filters="sRGB">
<feFlood flood-opacity="0" result="BackgroundImageFix"/>
<feColorMatrix in="SourceAlpha" type="matrix" values="0 0 0 0 0 0 0 0 0 0 0 0 0 0 0 0 0 0 127 0" result="hardAlpha"/>
<feOffset dx="3.15" dy="3.15"/>
<feColorMatrix type="matrix" values="0 0 0 0 0 0 0 0 0 0 0 0 0 0 0 0 0 0 0.1 0"/>
<feBlend mode="normal" in2="BackgroundImageFix" result="effect1_dropShadow_0_1"/>
<feBlend mode="normal" in="SourceGraphic" in2="effect1_dropShadow_0_1" result="shape"/>
</filter>
<clipPath id="clip0_0_1">
<rect width="394.66" height="277.28" fill="white" transform="translate(0 103.349) rotate(-5.70393)"/>
</clipPath>
<clipPath id="clip1_0_1">
<rect width="64.701" height="60.6915" fill="white" transform="translate(186.136 64.8635) rotate(169.583)"/>
</clipPath>
</defs>
</svg>
