<svg width="122" height="40" viewBox="0 0 122 40" fill="none" xmlns="http://www.w3.org/2000/svg">
<mask id="mask0_10_14122" style="mask-type:luminance" maskUnits="userSpaceOnUse" x="0" y="0" width="122" height="40">
<path d="M122 0H0V39.0739H122V0Z" fill="white"/>
</mask>
<g mask="url(#mask0_10_14122)">
<path d="M39.5143 29.9566C38.8289 34.8856 35.8389 37.9513 30.6649 38.6066C27.1227 38.9742 23.5617 39.1302 20.0009 39.0738C16.4407 39.1 12.8814 38.9444 9.33704 38.6074C4.43734 38.0921 1.01919 35.0956 0.488437 29.9623C0.148638 26.4476 -0.0143756 22.9181 1.41272e-05 19.3871C-0.0403083 15.9509 0.122785 12.5154 0.488437 9.09848C1.09083 4.22565 4.15161 0.950768 9.36146 0.44932C12.235 0.173361 15.8143 -2.94312e-05 20.0009 -2.94312e-05C23.5526 -0.0391644 27.1039 0.110831 30.6396 0.44932C35.7681 1.01915 38.8289 4.29565 39.5192 9.10337C39.9104 12.5166 40.072 15.9522 40.0027 19.3871C40.0695 22.9174 39.9063 26.4475 39.5143 29.9566Z" fill="#FF7B3D"/>
<path d="M69.8503 14.4581H67.5506C67.247 14.4522 66.9535 14.567 66.7345 14.7774C66.5155 14.9877 66.3889 15.2763 66.3825 15.5799V25.3263C66.1309 26.0267 65.6674 26.6312 65.0564 27.056C64.4454 27.4808 63.7174 27.7048 62.9733 27.6968H62.8919H62.7966C62.1794 27.7093 61.5824 27.4762 61.1369 27.0488C60.6914 26.6215 60.4337 26.0347 60.4204 25.4175V15.5799C60.414 15.2762 60.2873 14.9874 60.0681 14.7771C59.8489 14.5667 59.5552 14.452 59.2515 14.4581H57.1684C56.8646 14.452 56.5709 14.5667 56.3517 14.7771C56.1325 14.9874 56.0058 15.2762 55.9994 15.5799V26.4294C55.9979 27.1478 56.1394 27.8592 56.4157 28.5224C56.6919 29.1855 57.0973 29.7871 57.6084 30.292C58.1194 30.7968 58.7258 31.195 59.3922 31.4632C60.0586 31.7314 60.7718 31.8643 61.4901 31.8541H61.5715C63.323 31.8609 65.0225 31.2589 66.3792 30.1512V31.2436C66.3818 31.365 66.4324 31.4804 66.52 31.5645C66.6076 31.6486 66.725 31.6945 66.8465 31.6921H69.847C70.1507 31.6982 70.4445 31.5835 70.6637 31.3732C70.8828 31.1629 71.0096 30.8741 71.016 30.5704V15.5799C71.0096 15.2762 70.8828 14.9874 70.6637 14.7771C70.4445 14.5667 70.1507 14.452 69.847 14.4581" fill="#2A3551"/>
<path d="M51.1249 25.7065V9.24505C51.1231 8.98587 51.0384 8.73406 50.8834 8.52639C50.7283 8.31873 50.5108 8.16608 50.2628 8.09074L47.6693 7.2767C47.4854 7.21668 47.2899 7.20066 47.0987 7.22993C46.9074 7.25919 46.7257 7.33293 46.5682 7.4452C46.4106 7.55748 46.2816 7.70516 46.1915 7.87638C46.1014 8.04759 46.0527 8.23756 46.0494 8.43101V25.591V25.7879H46.0543C46.1609 28.9749 48.117 31.6384 51.4342 31.6384H53.2422C53.4482 31.6425 53.6518 31.5941 53.8339 31.4978C54.016 31.4015 54.1706 31.2604 54.2831 31.0879C54.3957 30.9154 54.4626 30.7172 54.4774 30.5117C54.4923 30.3062 54.4546 30.1004 54.368 29.9135L53.4075 27.8971C53.3608 27.8009 53.29 27.7184 53.202 27.6577C53.1139 27.5969 53.0117 27.5599 52.9052 27.5503C52.6658 27.5505 52.4288 27.5024 52.2084 27.4088C51.9879 27.3152 51.7887 27.1782 51.6224 27.0058C51.4562 26.8334 51.3265 26.6293 51.241 26.4057C51.1555 26.182 51.1161 25.9434 51.1249 25.7041" fill="#2A3551"/>
<path d="M81.4462 27.4152C80.3197 27.3332 79.266 26.8278 78.4969 26.0006C77.7277 25.1734 77.3002 24.0858 77.3002 22.9563C77.3002 21.8268 77.7277 20.7391 78.4969 19.912C79.266 19.0848 80.3197 18.5794 81.4462 18.4974C82.0529 18.5204 82.6472 18.6761 83.1872 18.9534C83.7272 19.2308 84.2 19.623 84.5722 20.1027C84.7655 20.3292 85.0281 20.4857 85.3194 20.5476C85.6107 20.6096 85.9144 20.5737 86.1832 20.4454L87.9919 19.5963C88.131 19.5337 88.2552 19.4422 88.3562 19.3279C88.4572 19.2136 88.5328 19.0791 88.5779 18.9334C88.623 18.7877 88.6366 18.6341 88.6178 18.4827C88.599 18.3313 88.5483 18.1856 88.469 18.0554C87.7404 16.8466 86.7146 15.8445 85.4892 15.1443C84.2637 14.4441 82.8795 14.0692 81.4682 14.0552C76.8347 14.0552 73.0795 18.044 73.0795 22.9567C73.0795 27.8694 76.8355 31.8582 81.4682 31.8582C82.8795 31.8442 84.2637 31.4693 85.4892 30.7691C86.7146 30.0689 87.7404 29.0668 88.469 27.858C88.5483 27.7278 88.599 27.5821 88.6178 27.4307C88.6366 27.2793 88.623 27.1257 88.5779 26.98C88.5328 26.8343 88.4572 26.6998 88.3562 26.5855C88.2552 26.4712 88.131 26.3797 87.9919 26.317L86.1832 25.468C85.9144 25.3397 85.6107 25.3038 85.3194 25.3658C85.0281 25.4277 84.7655 25.5842 84.5722 25.8107C84.2001 26.2905 83.7273 26.6829 83.1873 26.9604C82.6472 27.2379 82.053 27.3937 81.4462 27.4168" fill="#2A3551"/>
<path d="M98.4295 27.4095C97.3113 27.3151 96.2693 26.8042 95.5099 25.9779C94.7504 25.1517 94.329 24.0704 94.329 22.9482C94.329 21.826 94.7504 20.7447 95.5099 19.9184C96.2693 19.0922 97.3113 18.5813 98.4295 18.4868C99.0366 18.5101 99.6311 18.666 100.171 18.9436C100.712 19.2212 101.185 19.6138 101.557 20.0938C101.75 20.3204 102.013 20.4768 102.305 20.5388C102.596 20.6008 102.9 20.5648 103.169 20.4365L104.979 19.5866C105.118 19.5239 105.243 19.4323 105.344 19.3178C105.445 19.2034 105.521 19.0688 105.566 18.9229C105.611 18.777 105.624 18.6232 105.606 18.4717C105.587 18.3202 105.536 18.1744 105.456 18.044C104.727 16.8341 103.7 15.8311 102.473 15.1305C101.247 14.4298 99.8609 14.0549 98.4483 14.0414C93.8083 14.0414 90.0539 18.0302 90.0539 22.9478C90.0539 27.8654 93.8123 31.8542 98.4483 31.8542C99.8609 31.8406 101.247 31.4657 102.473 30.7651C103.7 30.0644 104.727 29.0614 105.456 27.8516C105.536 27.7212 105.586 27.5755 105.605 27.4241C105.624 27.2726 105.61 27.1189 105.565 26.9731C105.52 26.8274 105.445 26.6928 105.344 26.5785C105.243 26.4641 105.118 26.3725 104.979 26.3098L103.17 25.4599C102.901 25.3316 102.597 25.2956 102.306 25.3576C102.014 25.4195 101.751 25.576 101.558 25.8026C101.186 26.2826 100.713 26.6752 100.172 26.9528C99.6319 27.2304 99.0366 27.3863 98.4295 27.4095Z" fill="#2A3551"/>
<path d="M121.999 19.2748C121.999 16.2441 119.525 14.1317 115.554 14.1317C111.583 14.1317 109.658 15.4537 108.141 17.7949C108.055 17.9278 107.999 18.0782 107.978 18.2354C107.956 18.3925 107.97 18.5523 108.018 18.7034C108.066 18.8545 108.147 18.993 108.255 19.109C108.363 19.225 108.496 19.3155 108.643 19.3741L110.391 20.0921C110.628 20.1893 110.892 20.2025 111.137 20.1295C111.383 20.0566 111.597 19.9017 111.742 19.6908C112.079 19.1509 112.55 18.7072 113.108 18.4024C113.667 18.0977 114.295 17.9423 114.931 17.9512C116.207 17.9512 117.612 18.4705 117.612 19.69V20.351C117.612 20.351 116.76 20.5032 115.554 20.71C111.972 21.2977 110.761 21.962 110.344 22.1752C109.92 22.383 109.521 22.6377 109.154 22.9347C108.513 23.4426 108.022 24.1155 107.734 24.8811C107.487 25.4807 107.36 26.1229 107.36 26.7713C107.377 28.1348 107.934 29.436 108.909 30.3888C109.885 31.3417 111.199 31.8682 112.562 31.8525C114.204 31.8324 115.8 31.3084 117.134 30.3514C117.304 30.2517 117.465 30.1361 117.614 30.0063V31.0735C117.615 31.1309 117.627 31.1876 117.649 31.2404C117.672 31.2932 117.704 31.341 117.745 31.3812C117.787 31.4213 117.835 31.453 117.888 31.4743C117.942 31.4957 117.999 31.5064 118.056 31.5057H120.895C121.184 31.509 121.464 31.397 121.671 31.1945C121.878 30.9919 121.997 30.7153 122 30.4255L121.999 19.2748ZM115.558 24.2803C117.23 23.8147 117.612 23.752 117.612 23.752V26.694C117.612 26.743 117.599 26.7911 117.574 26.8332C117.549 26.8753 117.513 26.9099 117.47 26.9333C117.346 27.0017 117.125 27.123 116.749 27.3265C115.932 27.8147 115.033 28.1514 114.097 28.3204H113.927C113.713 28.3232 113.5 28.2837 113.302 28.2042C113.103 28.1247 112.922 28.0068 112.768 27.8571C112.615 27.7075 112.493 27.5291 112.409 27.3321C112.325 27.1352 112.28 26.9236 112.278 26.7094C112.289 26.3181 112.434 25.9423 112.689 25.6455C113.165 25.0854 114.009 24.7118 115.558 24.2803Z" fill="#2A3551"/>
<path d="M20.0018 3.65586C17.9543 3.70392 15.9665 4.35499 14.2874 5.52754C12.6083 6.7001 11.3124 8.342 10.5621 10.2476C9.81178 12.1533 9.64039 14.2379 10.0694 16.2405C10.4984 18.2431 11.5087 20.0746 12.9738 21.5057C14.4389 22.9367 16.2936 23.9037 18.3057 24.2855C20.3179 24.6673 22.3979 24.447 24.2854 23.6521C26.1728 22.8572 27.7838 21.5231 28.9166 19.8169C30.0494 18.1106 30.6536 16.1081 30.6535 14.0601C30.6202 11.268 29.4794 8.60352 27.4819 6.65244C25.4844 4.70137 22.7938 3.6235 20.0018 3.65586ZM24.1713 19.0021C23.8381 19.2693 23.4141 19.3966 22.9888 19.3571C22.5636 19.3176 22.1703 19.1144 21.892 18.7905C21.7567 18.6314 21.6548 18.4467 21.5924 18.2475C21.5299 18.0482 21.5081 17.8384 21.5283 17.6306C21.5485 17.4228 21.6103 17.2211 21.7099 17.0376C21.8096 16.8541 21.9452 16.6925 22.1085 16.5624C22.4925 16.2561 22.8027 15.8673 23.0162 15.4248C23.2297 14.9824 23.3409 14.4976 23.3418 14.0064C23.3181 13.1224 22.9502 12.2826 22.3166 11.6657C21.683 11.0488 20.8336 10.7037 19.9493 10.7037C19.065 10.7037 18.2156 11.0488 17.582 11.6657C16.9483 12.2826 16.5805 13.1224 16.5568 14.0064C16.5576 14.4976 16.6688 14.9824 16.8823 15.4249C17.0958 15.8673 17.406 16.2561 17.79 16.5624C17.9535 16.6925 18.0891 16.854 18.1889 17.0375C18.2886 17.221 18.3504 17.4227 18.3706 17.6306C18.3908 17.8384 18.369 18.0482 18.3065 18.2475C18.2439 18.4468 18.1419 18.6314 18.0066 18.7905C17.7281 19.1143 17.3348 19.3173 16.9095 19.3567C16.4843 19.396 16.0604 19.2686 15.7273 19.0013C14.9771 18.4025 14.3711 17.6427 13.9542 16.7781C13.5373 15.9135 13.32 14.9662 13.3185 14.0064C13.3458 12.2648 14.0568 10.6038 15.298 9.38188C16.5392 8.15994 18.2112 7.47507 19.9529 7.47507C21.6947 7.47507 23.3666 8.15994 24.6079 9.38188C25.8491 10.6038 26.5601 12.2648 26.5874 14.0064C26.5851 14.967 26.3668 15.9148 25.9485 16.7795C25.5303 17.6443 24.9229 18.4039 24.1713 19.0021Z" fill="white"/>
<path d="M16.8531 35.4033C16.4376 35.4038 16.033 35.2708 15.6988 35.024C14.8206 34.3868 14.1059 33.5506 13.6134 32.5839C13.1208 31.6172 12.8644 30.5475 12.8651 29.4625C12.9096 27.5993 13.681 25.8275 15.0145 24.5255C16.3479 23.2235 18.1377 22.4946 20.0014 22.4946C21.8651 22.4946 23.6548 23.2235 24.9883 24.5255C26.3218 25.8275 27.0932 27.5993 27.1377 29.4625C27.1383 30.5473 26.8818 31.6169 26.3893 32.5835C25.8967 33.5501 25.1821 34.3861 24.304 35.0232C23.8969 35.3238 23.3887 35.454 22.8872 35.3862C22.3857 35.3184 21.9304 35.058 21.6177 34.6601C21.4661 34.4651 21.3552 34.2415 21.2917 34.0027C21.2283 33.764 21.2134 33.5149 21.2481 33.2703C21.2828 33.0257 21.3664 32.7906 21.4938 32.5789C21.6211 32.3672 21.7898 32.1833 21.9897 32.0381C22.3965 31.7431 22.7275 31.3558 22.9558 30.9081C23.184 30.4604 23.3029 29.965 23.3027 29.4625C23.2793 28.6018 22.921 27.7843 22.304 27.1838C21.6869 26.5833 20.8599 26.2473 19.9989 26.2473C19.138 26.2473 18.311 26.5833 17.6939 27.1838C17.0769 27.7843 16.7186 28.6018 16.6952 29.4625C16.6949 29.9651 16.8137 30.4607 17.0419 30.9086C17.2702 31.3564 17.6013 31.7438 18.0082 32.0389C18.2081 32.1841 18.3767 32.368 18.5041 32.5797C18.6315 32.7914 18.715 33.0265 18.7497 33.2711C18.7845 33.5157 18.7696 33.7648 18.7061 34.0036C18.6427 34.2423 18.5318 34.4659 18.3802 34.6609C18.1989 34.8933 17.9667 35.0809 17.7016 35.2096C17.4364 35.3383 17.1454 35.4046 16.8506 35.4033" fill="white"/>
</g>
</svg>
